<?xml version="1.0" encoding="utf-8"?>
<!-- Generator: Adobe Illustrator 26.2.1, SVG Export Plug-In . SVG Version: 6.00 Build 0)  -->
<svg version="1.1" xmlns="http://www.w3.org/2000/svg" xmlns:xlink="http://www.w3.org/1999/xlink" x="0px" y="0px"
	 viewBox="0 0 300 194" enable-background="new 0 0 300 194" xml:space="preserve">
<g id="Layer_1">
	<polygon opacity="0.71" fill="#14E7E2" points="163.66,23.65 187.1,23.65 159.61,110.93 136.23,110.93 	"/>
	<polygon opacity="0.76" fill="#9966FF" points="116.13,174.05 139.47,174.05 165.28,92.11 141.89,92.11 	"/>
	<polygon opacity="0.43" fill="#4856F1" points="141.89,92.11 165.28,92.11 159.61,110.93 136.23,110.93 	"/>
</g>
<g id="Layer_2">
	<polygon fill="#14E7E2" points="26.5,85.18 112.83,50.03 112.83,79.91 26.5,109.77 	"/>
	<polygon opacity="0.76" fill="#9966FF" points="26.5,85.18 112.83,116.34 112.83,146.32 26.5,111.16 	"/>
	<polygon opacity="0.77" fill="#14E7E2" points="278.83,111.16 192.5,146.32 192.5,116.43 278.83,86.57 	"/>
	<polygon opacity="0.76" fill="#9966FF" points="278.83,111.16 192.5,80.01 192.5,50.03 278.83,85.18 	"/>
	<polygon opacity="0.43" fill="#4856F1" points="244.04,98.61 278.83,86.57 278.83,111.16 	"/>
	<polygon opacity="0.43" fill="#4856F1" points="26.5,109.77 61.29,97.74 26.5,85.18 	"/>
</g>
<g id="Layer_3">
</g>
</svg>
