<?xml version="1.0" encoding="utf-8"?>
<!-- Generator: Adobe Illustrator 26.2.1, SVG Export Plug-In . SVG Version: 6.00 Build 0)  -->
<svg version="1.1" id="Layer_1" xmlns="http://www.w3.org/2000/svg" xmlns:xlink="http://www.w3.org/1999/xlink" x="0px" y="0px"
	 viewBox="0 0 798.6 543.5" style="enable-background:new 0 0 798.6 543.5;" xml:space="preserve">
<style type="text/css">
	.st0{fill:url(#SVGID_1_);}
	.st1{fill:url(#SVGID_00000173847914186928783170000013011662277304224388_);}
	.st2{opacity:0.68;}
	.st3{fill:#FFFFFF;}
	.st4{fill:#91B3FA;}
	.st5{fill:url(#SVGID_00000059281971436264003840000000441906857035625649_);}
	.st6{fill:#BDD0FB;}
	.st7{fill:url(#SVGID_00000163056209559772690720000012695967217477946538_);}
	.st8{fill:#DCE5FE;}
	.st9{fill:url(#SVGID_00000131365856968979076490000016007556205081413766_);}
	.st10{fill:url(#SVGID_00000050638099682826934540000002556838274911555242_);}
	.st11{fill:url(#SVGID_00000049203618392043846880000004416457015988440233_);}
	.st12{fill:url(#SVGID_00000178195691621299771000000005523889519073573007_);}
	.st13{fill:#7D97F4;}
	.st14{fill:url(#SVGID_00000076604794178467454620000007056986606187944615_);}
	.st15{opacity:0.75;fill:#FFFFFF;}
	.st16{opacity:0.82;}
	.st17{opacity:0.6;fill:#FFFFFF;}
	.st18{opacity:0.53;fill:#FFFFFF;}
	.st19{fill:url(#SVGID_00000155147930366163414450000018347959276606819464_);}
	.st20{fill:url(#SVGID_00000102503166072961564650000000562966453182136470_);}
	.st21{opacity:0.65;fill:#FFFFFF;}
	.st22{opacity:0.5;fill:#FFFFFF;}
	.st23{fill:url(#SVGID_00000033349003238604652460000005943824616354715793_);}
	.st24{fill:url(#SVGID_00000014619629780103607820000000075181551986275471_);}
	.st25{fill:url(#SVGID_00000063624827996268458470000011209869996497732284_);}
	.st26{fill:url(#SVGID_00000113336145682775783870000010417717519042706322_);}
	.st27{fill:url(#SVGID_00000089544701032151011880000009467963502974694075_);}
	.st28{fill:url(#SVGID_00000137823959131085392200000001941947373050366865_);}
	.st29{fill:url(#SVGID_00000149370070768761574130000013926012308045798544_);}
	.st30{fill:url(#SVGID_00000074414412706147453350000003441515963626429594_);}
	.st31{fill:url(#SVGID_00000143577408127397050670000016814830580399915911_);}
	.st32{fill:url(#SVGID_00000158709091239716565460000015302609380410755237_);}
	.st33{fill:url(#SVGID_00000021821633754694115300000001303027235852320669_);}
	.st34{fill:url(#SVGID_00000160908236790466074300000004667170841444226222_);}
	.st35{fill:url(#SVGID_00000068658573688545675410000011222882542248712378_);}
	.st36{fill:url(#SVGID_00000128454729087694643170000003734783864870695357_);}
	.st37{fill:url(#SVGID_00000108305252658831871070000007826437717707345294_);}
	.st38{fill:url(#SVGID_00000030484513975143267680000010296954092664377003_);}
	.st39{fill:url(#SVGID_00000098189312966754105100000001483604548976701115_);}
	.st40{fill:url(#SVGID_00000072250672924076693060000017023265220806141057_);}
	.st41{fill:url(#SVGID_00000160184057260519173930000004714646426815521420_);}
	.st42{fill:url(#SVGID_00000059995272239474173140000015759836796820126136_);}
	.st43{fill:url(#SVGID_00000050641887404682460890000007626262738359000981_);}
	.st44{fill:url(#SVGID_00000017511685276891202380000008983245103378512291_);}
	.st45{fill:url(#SVGID_00000144299567990390609730000017338749625549949863_);}
	.st46{fill:url(#SVGID_00000151535665153434776090000002174414685422815618_);}
	.st47{fill:url(#SVGID_00000065051621827758320440000011032577420950136764_);}
	.st48{fill:url(#SVGID_00000101791843932389992220000015592292706917096076_);}
	.st49{fill:url(#SVGID_00000137854705347232562330000008656277964801543868_);}
	.st50{fill:url(#SVGID_00000093895671114560987070000006179384707312440742_);}
	.st51{fill:url(#SVGID_00000115488422140903679760000010221738896841557892_);}
	.st52{fill:url(#SVGID_00000059270775716099887140000016889344715258045363_);}
	.st53{fill:url(#SVGID_00000101066822634621884840000014080899509965617076_);}
	.st54{fill:url(#SVGID_00000055705017343395457100000010149056675364795555_);}
	.st55{fill:url(#SVGID_00000139290054331645361510000017601833023365380540_);}
	.st56{fill:url(#SVGID_00000170277815978888830110000011812659431737365936_);}
	.st57{fill:url(#SVGID_00000016068639001736310860000007071104576933424026_);}
	.st58{fill:url(#SVGID_00000032642860820650677100000014748709715939817105_);}
	.st59{fill:url(#SVGID_00000059992838250279064640000013683693519541145011_);}
	.st60{fill:url(#SVGID_00000085242453784182060260000016263033101045328827_);}
	.st61{fill:url(#SVGID_00000042732604508544128860000009360669081958836661_);}
	.st62{fill:url(#SVGID_00000014613716562286817350000001742600286677443482_);}
	.st63{fill:url(#SVGID_00000176010037515667905550000001787132244217261201_);}
	.st64{fill:url(#SVGID_00000049938093515273453510000017359389484420765093_);}
	.st65{fill:url(#SVGID_00000059996691977456769200000009876974325083360390_);}
	.st66{fill:url(#SVGID_00000009587522549906914360000013556864733984100741_);}
	.st67{fill:url(#SVGID_00000159460430453599797350000008657409850853466040_);}
	.st68{fill:url(#SVGID_00000116226967235991486540000010948127707245518758_);}
	.st69{fill:url(#SVGID_00000152257015024187456940000002864968136703721903_);}
	.st70{opacity:0.37;fill:url(#SVGID_00000148634540006753309270000016571616204460870576_);}
	.st71{fill:url(#SVGID_00000012437473641049612680000017241575883263019443_);}
	.st72{fill:url(#SVGID_00000173846698457361757170000017761345078090996911_);}
	.st73{fill:url(#SVGID_00000036951354990026527370000012412984275110548142_);}
	.st74{fill:url(#SVGID_00000055709317143043057360000001817112312627669692_);}
	.st75{fill:url(#SVGID_00000166653026601801143490000010623350078425802133_);}
	.st76{fill:url(#SVGID_00000086672333873011786420000008148430018912567995_);}
</style>
<g>
	<linearGradient id="SVGID_1_" gradientUnits="userSpaceOnUse" x1="315.3417" y1="-5.3323" x2="517.6852" y2="568.1826">
		<stop  offset="0" style="stop-color:#DAE3FE"/>
		<stop  offset="1" style="stop-color:#E9EFFD"/>
	</linearGradient>
	<path class="st0" d="M735.9,138.9c-17.2-33.3-54.9-58.4-91.6-50.7c-22,4.6-43.8,20.1-64.9,12.3c-15.2-5.6-23.8-21.4-36.5-31.4
		c-19.6-15.3-47.5-15.1-71.5-8.3c-23.9,6.9-45.9,19.5-69.5,27.3c-40.3,13.3-85.3,11.8-124.7-4c-17.3-7-33.5-16.6-51.1-22.7
		c-17.6-6.1-37.6-8.5-54.5-0.8c-17,7.7-29.2,27.7-23.3,45.4c1.2,3.5,3,7,2.8,10.7c-0.4,5.9-6.1,10.3-11.9,11.6
		c-5.8,1.3-11.9,0.5-17.8,0.6c-26.7,0.7-50.6,25.1-50.7,51.8c-0.1,22.2,13.6,41.7,25.3,60.5c11.7,18.8,22.2,41.4,15.2,62.5
		c-4.1,12.5-13.8,22.2-20.2,33.8c-16.5,29.8-7.7,69.4,15.3,94.5c23,25.2,57.4,37.5,91.3,40.4c34,2.9,68-2.6,101.7-8
		c33.6-5.4,67.7-10.9,101.7-7.7l-1.8-1c66.3,16.4,135.7,20.3,203.4,11.5c14.2-1.8,30.5-5.8,36.5-18.8c5.1-11,0.5-23.8,1.6-35.8
		c1.5-17.3,14.5-31.5,28.7-41.6c14.2-10.1,30.3-17.6,43-29.4c25-23.1,33.5-58.8,37.2-92.7C753.6,211.6,753.1,172.2,735.9,138.9z"/>
	<g>
		
			<linearGradient id="SVGID_00000047748407202305870270000012212750942894203577_" gradientUnits="userSpaceOnUse" x1="585.8406" y1="234.6106" x2="663.3557" y2="-14.4071">
			<stop  offset="0" style="stop-color:#FE7062"/>
			<stop  offset="1" style="stop-color:#FF928E"/>
		</linearGradient>
		<path style="fill:url(#SVGID_00000047748407202305870270000012212750942894203577_);" d="M742.3,172.5
			c-3,69.2-66.1,122.7-140.8,119.4s-132.9-62.1-129.8-131.3S537.8,37.9,612.5,41.2S745.4,103.3,742.3,172.5z"/>
		<g class="st2">
			<path class="st3" d="M642,167.2c0,11.1-0.4,22.2-1.3,33.2c-0.9,11-2.3,22.1-4.2,33c-2,10.9-4.6,21.7-8.5,32.2
				c-2,5.2-4.2,10.3-7.3,15c-1.6,2.3-3.3,4.6-5.5,6.4c-1.1,0.9-2.3,1.7-3.6,2.3c-1.3,0.6-2.8,1-4.3,1c-1.5,0.1-3-0.2-4.3-0.8
				c-1.4-0.5-2.6-1.3-3.7-2.2c-2.2-1.8-4.1-4-5.6-6.3c-3.2-4.7-5.5-9.8-7.4-15c-2-5.2-3.6-10.5-5-15.9c-1.4-5.4-2.6-10.8-3.6-16.3
				c-2-10.9-3.4-21.9-4.3-33c-0.9-11-1.4-22.1-1.5-33.2c0-11.1,0.5-22.2,1.3-33.2c0.8-11,2.1-22.1,3.9-33c1.9-10.9,4.3-21.8,8-32.3
				c1.9-5.2,4.1-10.4,7.1-15.1c1.5-2.3,3.3-4.5,5.5-6.3c1.1-0.9,2.3-1.6,3.6-2.2c1.3-0.5,2.8-0.8,4.2-0.7c1.4,0,2.8,0.4,4.2,1
				c1.3,0.6,2.5,1.4,3.6,2.2c2.2,1.8,4,3.9,5.6,6.2c3.2,4.6,5.6,9.6,7.7,14.8c4.1,10.3,6.9,21.1,9.1,32c2.2,10.9,3.7,21.9,4.7,32.9
				C641.5,145,642,156.1,642,167.2z M639.6,167.2c0-11-0.4-22-1.3-33c-0.9-11-2.2-21.9-4.2-32.8c-2-10.8-4.6-21.6-8.6-31.8
				c-2-5.1-4.3-10.1-7.4-14.7c-1.5-2.2-3.3-4.4-5.4-6.1c-1-0.9-2.2-1.6-3.4-2.2c-1.2-0.6-2.5-0.9-3.9-0.9c-2.7-0.1-5.2,1.1-7.3,2.8
				c-2.1,1.7-3.8,3.9-5.2,6.2c-2.9,4.6-5,9.8-6.8,14.9c-3.5,10.4-5.7,21.3-7.4,32.1c-3.3,21.8-4.3,43.9-4.2,65.9c0,11,0.3,22,1.1,33
				c0.8,11,2,21.9,3.9,32.8c1.9,10.8,4.3,21.6,8.1,31.9c1.9,5.1,4.1,10.2,7.1,14.7c1.5,2.3,3.2,4.4,5.3,6.1c2,1.7,4.5,2.9,7.1,2.8
				c1.3,0,2.6-0.4,3.7-0.9c1.2-0.5,2.3-1.3,3.3-2.2c2-1.7,3.7-3.9,5.2-6.2c2.9-4.6,5.1-9.6,7-14.8c3.7-10.3,6.1-21.1,8-32
				c1.9-10.9,3.1-21.8,3.9-32.8C639.2,189.2,639.6,178.2,639.6,167.2z"/>
			<path class="st3" d="M697.9,167.2c-0.1,14.3-1.9,28.6-5.8,42.4c-3.9,13.7-9.8,27-17.8,38.8c-8,11.8-18.1,22.3-30.3,29.9
				c-6.1,3.8-12.6,6.8-19.5,8.9c-6.8,2.1-14,3.1-21.1,3.1c-7.2,0-14.3-1.1-21.2-3.1c-6.9-2-13.4-5.1-19.5-8.9
				c-12.1-7.6-22.3-18.1-30.3-29.9c-8-11.9-13.9-25.1-17.9-38.8c-1.9-6.9-3.4-13.9-4.3-21c-0.9-7.1-1.4-14.2-1.5-21.4
				c0-7.2,0.5-14.3,1.5-21.4c1-7.1,2.4-14.1,4.4-21c4-13.7,9.9-27,17.9-38.8c8-11.8,18.2-22.3,30.3-29.9c12.1-7.5,26.3-12,40.6-11.9
				c14.3,0,28.4,4.4,40.5,12c12.1,7.6,22.3,18.1,30.3,29.9c8,11.8,13.9,25,17.8,38.8C695.9,138.6,697.8,152.9,697.9,167.2z
				 M695.1,167.2c0-14.1-1.7-28.1-5.4-41.7c-3.7-13.6-9.3-26.6-17-38.4c-7.7-11.7-17.5-22.2-29.4-29.9c-5.9-3.8-12.4-6.8-19.1-8.9
				c-6.7-2.1-13.8-3.1-20.8-3.2c-7,0-14.1,1.1-20.8,3.2c-6.7,2.1-13.1,5.1-19.1,8.9c-11.8,7.6-21.6,18.1-29.3,29.9
				c-7.7,11.8-13.2,24.9-16.9,38.4c-1.8,6.8-3.2,13.7-4.1,20.6c-0.9,7-1.3,14-1.4,21c0,7,0.5,14,1.4,21c0.9,7,2.2,13.9,4.1,20.6
				c3.7,13.5,9.3,26.6,16.9,38.4c3.8,5.9,8.2,11.4,13.1,16.5c4.9,5,10.3,9.6,16.2,13.4c5.9,3.8,12.3,6.8,19,8.8
				c6.7,2.1,13.7,3.2,20.7,3.2c7,0,14-1.1,20.7-3.2c6.7-2,13.1-5.1,19.1-8.8c5.9-3.8,11.3-8.3,16.2-13.4c4.9-5,9.3-10.6,13.1-16.5
				c7.7-11.8,13.3-24.8,17-38.4C693.4,195.3,695.1,181.2,695.1,167.2z"/>
			<path class="st3" d="M493.8,118.5c9.4-0.2,18.8-0.2,28.2-0.3l28.2-0.2c9.4-0.1,18.8-0.1,28.2-0.1l28.2-0.1l28.2,0.1
				c9.4,0,18.8,0,28.2,0.1l28.2,0.2c9.4,0.1,18.8,0.2,28.2,0.4c0.1,0,0.1,0.1,0.1,0.1c0,0.1-0.1,0.1-0.1,0.1
				c-9.4,0.2-18.8,0.2-28.2,0.4l-28.2,0.2c-9.4,0.1-18.8,0.1-28.2,0.1l-28.2,0.1l-28.2-0.1c-9.4,0-18.8,0-28.2-0.1l-28.2-0.2
				c-9.4-0.1-18.8-0.2-28.2-0.3c-0.1,0-0.2-0.1-0.2-0.2C493.6,118.6,493.7,118.5,493.8,118.5z"/>
			<path class="st3" d="M526.5,71.2c6.7-0.2,13.4-0.2,20-0.3l20-0.2c6.7-0.1,13.4-0.1,20-0.1l20-0.1l20,0.1c6.7,0,13.4,0,20,0.1
				l20,0.2c6.7,0.1,13.4,0.2,20,0.4c0.1,0,0.1,0.1,0.1,0.1c0,0.1-0.1,0.1-0.1,0.1c-6.7,0.2-13.4,0.2-20,0.4l-20,0.2
				c-6.7,0.1-13.4,0.1-20,0.1l-20,0.1l-20-0.1c-6.7,0-13.4,0-20-0.1l-20-0.2c-6.7-0.1-13.4-0.2-20-0.3c-0.1,0-0.2-0.1-0.2-0.2
				C526.3,71.3,526.4,71.2,526.5,71.2z"/>
			<path class="st3" d="M483.9,165.8c10.2-0.2,20.5-0.2,30.7-0.3l30.7-0.2c10.2-0.1,20.5-0.1,30.7-0.1l30.7-0.1l61.4,0.2l30.7,0.2
				c10.2,0.1,20.5,0.2,30.7,0.4c0.1,0,0.1,0.1,0.1,0.1c0,0.1-0.1,0.1-0.1,0.1c-10.2,0.2-20.5,0.2-30.7,0.4l-30.7,0.2l-61.4,0.2
				l-30.7-0.1c-10.2,0-20.5,0-30.7-0.1l-30.7-0.2c-10.2-0.1-20.5-0.2-30.7-0.3c-0.1,0-0.2-0.1-0.2-0.2
				C483.8,165.8,483.8,165.8,483.9,165.8z"/>
			<path class="st3" d="M493.8,213c9.4-0.2,18.8-0.2,28.2-0.3l28.2-0.2c9.4-0.1,18.8-0.1,28.2-0.1l28.2-0.1l28.2,0.1
				c9.4,0,18.8,0,28.2,0.1l28.2,0.2c9.4,0.1,18.8,0.2,28.2,0.4c0.1,0,0.1,0.1,0.1,0.1c0,0.1-0.1,0.1-0.1,0.1
				c-9.4,0.2-18.8,0.2-28.2,0.4l-28.2,0.2c-9.4,0.1-18.8,0.1-28.2,0.1l-28.2,0.1l-28.2-0.1c-9.4,0-18.8,0-28.2-0.1l-28.2-0.2
				c-9.4-0.1-18.8-0.2-28.2-0.3c-0.1,0-0.2-0.1-0.2-0.2C493.6,213.1,493.7,213.1,493.8,213z"/>
			<path class="st3" d="M690.9,261.1H530.5c-0.4,0-0.6-0.3-0.6-0.6c0-0.4,0.3-0.6,0.6-0.6h160.3c0.4,0,0.6,0.3,0.6,0.6
				C691.5,260.9,691.2,261.1,690.9,261.1z"/>
		</g>
	</g>
	<g>
		<path class="st4" d="M197.1,464.4c-24.3,4.9-55.4-21.7-65.4-50.7c-10.3-29.8,8.6-42.3,8.4-83.7c-0.2-47-24.6-54.1-40.8-117.5
			c-3.7-14.3-24.8-97.1,1.4-112.6c24.2-14.3,92.2,26.8,104.2,79.5c8.5,37.6-17.8,53.4-7.7,97.1c8.8,38.4,31.9,39,40.8,76
			C248.7,397.6,229,458,197.1,464.4z"/>
		
			<linearGradient id="SVGID_00000124852145049376858680000009094625227552531343_" gradientUnits="userSpaceOnUse" x1="1741.551" y1="179.6733" x2="1680.8805" y2="474.0084" gradientTransform="matrix(-1 0 0 1 1884.8358 0)">
			<stop  offset="0" style="stop-color:#4042E2"/>
			<stop  offset="1" style="stop-color:#4F52FF"/>
		</linearGradient>
		<path style="fill:url(#SVGID_00000124852145049376858680000009094625227552531343_);" d="M195.3,475.8
			c6.6-50.7-6.2-128.9-18.1-185.5c-12.9-61.3-27.5-111.4-27.6-111.9l-2,0.6c0.1,0.5,14.7,50.5,27.6,111.7
			c11.9,56.5,24.6,134.4,18.1,184.8L195.3,475.8z"/>
	</g>
	<g>
		<path class="st6" d="M169,458.7c31.9-16.6,42.9-73.8,24.7-92.3c-12.3-12.5-29.9,0.7-46.8-12.4c-21.7-16.6-5.7-47.9-22.8-88.4
			c-14.5-34.5-49.3-67.2-69.6-60.5c-21.3,7-32.5,59.1-14.3,90.4c11.8,20.4,29.9,21.4,33.8,40.3c4.6,22-17.4,32-17.6,53.3
			C56.3,427.4,126.8,480.8,169,458.7z"/>
		
			<linearGradient id="SVGID_00000157292189738217158720000016636178259582188447_" gradientUnits="userSpaceOnUse" x1="1781.4132" y1="279.5201" x2="1741.1066" y2="475.0624" gradientTransform="matrix(-1 0 0 1 1884.8358 0)">
			<stop  offset="0" style="stop-color:#4042E2"/>
			<stop  offset="1" style="stop-color:#4F52FF"/>
		</linearGradient>
		<path style="fill:url(#SVGID_00000157292189738217158720000016636178259582188447_);" d="M151.8,473.4c0.2,0,0.4,0,0.6-0.1
			c0.6-0.3,0.9-1.1,0.6-1.7c-42.3-87.2-54.7-188.4-54.9-189.4c-0.1-0.7-0.7-1.2-1.4-1.1c-0.7,0.1-1.2,0.7-1.1,1.4
			c0.1,1,12.6,102.7,55.1,190.3C150.8,473.1,151.3,473.4,151.8,473.4z"/>
		<path class="st8" d="M64.9,308.3c0.1,0,0.3,0,0.4-0.1c0.3-0.2,0.3-0.6,0.1-0.9c-13.4-17.2-28.2-42.9-22.8-68.3
			c3.2-15.1,12.1-23,12.2-23.1c0.3-0.2,0.3-0.6,0.1-0.9c-0.2-0.3-0.6-0.3-0.9-0.1c-0.4,0.3-9.3,8.2-12.6,23.7
			c-3,14.3-1.4,37.8,23.1,69.3C64.6,308.2,64.7,308.3,64.9,308.3z"/>
		<path class="st8" d="M171.9,451.1c0.2,0,0.4-0.1,0.5-0.3c20.5-30,27.5-53.1,20.8-68.8c-6-14-21.1-16.6-21.2-16.6
			c-0.3-0.1-0.7,0.2-0.7,0.5c-0.1,0.3,0.2,0.7,0.5,0.7c0.1,0,14.6,2.5,20.3,15.9c6.5,15.3-0.4,38-20.7,67.6
			c-0.2,0.3-0.1,0.7,0.2,0.9C171.7,451.1,171.8,451.1,171.9,451.1z"/>
	</g>
	<g>
		
			<linearGradient id="SVGID_00000005249193598295078190000004089290782871323269_" gradientUnits="userSpaceOnUse" x1="429.6571" y1="466.1773" x2="423.4635" y2="343.5446">
			<stop  offset="0" style="stop-color:#09005D"/>
			<stop  offset="1" style="stop-color:#1A0F91"/>
		</linearGradient>
		<polygon style="fill:url(#SVGID_00000005249193598295078190000004089290782871323269_);" points="380,368.3 369.7,460.6 
			489,460.6 473.5,368.3 		"/>
		
			<linearGradient id="SVGID_00000098191340017309608170000001347954025916024995_" gradientUnits="userSpaceOnUse" x1="600.149" y1="127.7666" x2="284.2733" y2="399.0705">
			<stop  offset="0" style="stop-color:#09005D"/>
			<stop  offset="1" style="stop-color:#1A0F91"/>
		</linearGradient>
		<path style="fill:url(#SVGID_00000098191340017309608170000001347954025916024995_);" d="M202.3,149
			c-12.7,0.3-22.8,10.6-22.8,23.3v211.3c0,17.4,13.9,31.6,31.2,32c77.2,2,347.1,6.8,420.6,5.7c12.6-0.2,22.9-10.3,23.2-22.9
			c1.4-49.1,3.7-167.1-4.8-221.9c-1.8-11.5-11.5-20.2-23.2-20.5C561.8,153.9,275.7,147.3,202.3,149z"/>
		
			<linearGradient id="SVGID_00000053523542530168086260000013897525506301070514_" gradientUnits="userSpaceOnUse" x1="270.7199" y1="118.169" x2="642.1979" y2="521.8414">
			<stop  offset="0" style="stop-color:#4042E2"/>
			<stop  offset="1" style="stop-color:#4F52FF"/>
		</linearGradient>
		<path style="fill:url(#SVGID_00000053523542530168086260000013897525506301070514_);" d="M207.4,156.9c-8-0.2-14.7,6.3-14.7,14.3
			V372c0,10.1,8.1,18.4,18.3,18.6l409.7,5.1c10.1,0.2,18.3-7.9,18.3-18l0.7-199c0-7.2-5.7-13.1-12.9-13.3L207.4,156.9z"/>
		<path class="st6" d="M642.2,403.9C642.2,403.9,642.1,403.9,642.2,403.9l-449.4-7.7c-0.4,0-0.6-0.3-0.6-0.6c0-0.3,0.3-0.6,0.6-0.6
			c0,0,0,0,0,0l449.4,7.7c0.4,0,0.6,0.3,0.6,0.6C642.8,403.6,642.5,403.9,642.2,403.9z"/>
		
			<linearGradient id="SVGID_00000122001097638259435080000009601203548660066216_" gradientUnits="userSpaceOnUse" x1="386.842" y1="534.477" x2="444.9785" y2="443.3964">
			<stop  offset="0" style="stop-color:#09005D"/>
			<stop  offset="1" style="stop-color:#1A0F91"/>
		</linearGradient>
		<path style="fill:url(#SVGID_00000122001097638259435080000009601203548660066216_);" d="M514.8,479.5H340.1c-4.7,0-8.3-3.4-7.4-7
			l2.2-8.9c0.7-2.7,3.6-4.6,7.1-4.7l168.4-5.3c3.6-0.1,6.9,1.8,7.7,4.6l4,14.1C523.2,476,519.6,479.5,514.8,479.5z"/>
		<path class="st6" d="M434.1,461.3c-0.3,0-0.6-0.3-0.6-0.6c0-0.4,0.3-0.6,0.6-0.6l7.2-0.1c0,0,0,0,0,0c0.3,0,0.6,0.3,0.6,0.6
			c0,0.4-0.3,0.6-0.6,0.6L434.1,461.3C434.1,461.3,434.1,461.3,434.1,461.3z"/>
		<path class="st6" d="M339.2,474.6c0,0-0.1,0-0.1,0c-0.3-0.1-0.6-0.4-0.5-0.7l1-6.4c0.6-3.5,3.5-6.1,7.1-6.1l76.5-1.1
			c0.4,0,0.6,0.3,0.6,0.6c0,0.4-0.3,0.6-0.6,0.6l-76.5,1.1c-2.9,0-5.4,2.2-5.8,5.1l-1,6.4C339.7,474.4,339.5,474.6,339.2,474.6z"/>
		<path class="st13" d="M621,207.6c0.2,6.4-4.9,11.7-11.3,11.7H221c-6.3,0-11.3-5.1-11.3-11.3v-21c0-6.3,5.2-11.4,11.5-11.3l388.2,7
			c6,0.1,10.9,4.9,11.1,11L621,207.6z"/>
		<g>
			<g>
				<g>
					<path class="st4" d="M552,273.7h-40.6c-4.4,0-8.1-4.1-8.1-9.1V241c0-5,3.6-9.1,8.1-9.1H552c4.4,0,8.1,4.1,8.1,9.1v23.6
						C560,269.6,556.4,273.7,552,273.7z M511.3,235.6c-2.6,0-4.7,2.4-4.7,5.3v23.6c0,2.9,2.1,5.3,4.7,5.3H552c2.6,0,4.7-2.4,4.7-5.3
						V241c0-2.9-2.1-5.3-4.7-5.3H511.3z"/>
					<path class="st4" d="M552,320.1h-40.6c-4.4,0-8.1-4.1-8.1-9.1v-23.6c0-5,3.6-9.1,8.1-9.1H552c4.4,0,8.1,4.1,8.1,9.1V311
						C560,316,556.4,320.1,552,320.1z M511.3,282c-2.6,0-4.7,2.4-4.7,5.3V311c0,2.9,2.1,5.3,4.7,5.3H552c2.6,0,4.7-2.4,4.7-5.3
						v-23.6c0-2.9-2.1-5.3-4.7-5.3H511.3z"/>
					<path class="st4" d="M612.7,273.7h-40.6c-4.4,0-8.1-4.1-8.1-9.1V241c0-5,3.6-9.1,8.1-9.1h40.6c4.4,0,8.1,4.1,8.1,9.1v23.6
						C620.8,269.6,617.2,273.7,612.7,273.7z M572.1,235.6c-2.6,0-4.7,2.4-4.7,5.3v23.6c0,2.9,2.1,5.3,4.7,5.3h40.6
						c2.6,0,4.7-2.4,4.7-5.3V241c0-2.9-2.1-5.3-4.7-5.3H572.1z"/>
					<path class="st4" d="M612.7,320.1h-40.6c-4.4,0-8.1-4.1-8.1-9.1v-23.6c0-5,3.6-9.1,8.1-9.1h40.6c4.4,0,8.1,4.1,8.1,9.1V311
						C620.8,316,617.2,320.1,612.7,320.1z M572.1,282c-2.6,0-4.7,2.4-4.7,5.3V311c0,2.9,2.1,5.3,4.7,5.3h40.6c2.6,0,4.7-2.4,4.7-5.3
						v-23.6c0-2.9-2.1-5.3-4.7-5.3H572.1z"/>
				</g>
				<g>
					<path class="st4" d="M617,337.7H507.1c-2.2,0-4-1.8-4-4l0,0c0-2.2,1.8-4,4-4H617c2.2,0,4,1.8,4,4l0,0
						C621,336,619.2,337.7,617,337.7z"/>
					<path class="st4" d="M617,352H507.1c-2.2,0-4-1.8-4-4l0,0c0-2.2,1.8-4,4-4H617c2.2,0,4,1.8,4,4l0,0
						C621,350.2,619.2,352,617,352z"/>
					<path class="st4" d="M617,366.2H507.1c-2.2,0-4-1.8-4-4l0,0c0-2.2,1.8-4,4-4H617c2.2,0,4,1.8,4,4l0,0
						C621,364.4,619.2,366.2,617,366.2z"/>
				</g>
			</g>
		</g>
		<g>
			<g>
				<g>
					<path class="st4" d="M405.3,273.7h-40.6c-4.4,0-8.1-4.1-8.1-9.1V241c0-5,3.6-9.1,8.1-9.1h40.6c4.4,0,8.1,4.1,8.1,9.1v23.6
						C413.3,269.6,409.7,273.7,405.3,273.7z M364.6,235.6c-2.6,0-4.7,2.4-4.7,5.3v23.6c0,2.9,2.1,5.3,4.7,5.3h40.6
						c2.6,0,4.7-2.4,4.7-5.3V241c0-2.9-2.1-5.3-4.7-5.3H364.6z"/>
					<path class="st4" d="M405.3,320.1h-40.6c-4.4,0-8.1-4.1-8.1-9.1v-23.6c0-5,3.6-9.1,8.1-9.1h40.6c4.4,0,8.1,4.1,8.1,9.1V311
						C413.3,316,409.7,320.1,405.3,320.1z M364.6,282c-2.6,0-4.7,2.4-4.7,5.3V311c0,2.9,2.1,5.3,4.7,5.3h40.6c2.6,0,4.7-2.4,4.7-5.3
						v-23.6c0-2.9-2.1-5.3-4.7-5.3H364.6z"/>
					<path class="st4" d="M466,273.7h-40.6c-4.4,0-8.1-4.1-8.1-9.1V241c0-5,3.6-9.1,8.1-9.1H466c4.4,0,8.1,4.1,8.1,9.1v23.6
						C474.1,269.6,470.5,273.7,466,273.7z M425.4,235.6c-2.6,0-4.7,2.4-4.7,5.3v23.6c0,2.9,2.1,5.3,4.7,5.3H466
						c2.6,0,4.7-2.4,4.7-5.3V241c0-2.9-2.1-5.3-4.7-5.3H425.4z"/>
					<path class="st4" d="M466,320.1h-40.6c-4.4,0-8.1-4.1-8.1-9.1v-23.6c0-5,3.6-9.1,8.1-9.1H466c4.4,0,8.1,4.1,8.1,9.1V311
						C474.1,316,470.5,320.1,466,320.1z M425.4,282c-2.6,0-4.7,2.4-4.7,5.3V311c0,2.9,2.1,5.3,4.7,5.3H466c2.6,0,4.7-2.4,4.7-5.3
						v-23.6c0-2.9-2.1-5.3-4.7-5.3H425.4z"/>
				</g>
				<g>
					<path class="st4" d="M470.3,337.7H360.4c-2.2,0-4-1.8-4-4l0,0c0-2.2,1.8-4,4-4h109.9c2.2,0,4,1.8,4,4l0,0
						C474.3,336,472.5,337.7,470.3,337.7z"/>
					<path class="st4" d="M470.3,352H360.4c-2.2,0-4-1.8-4-4l0,0c0-2.2,1.8-4,4-4h109.9c2.2,0,4,1.8,4,4l0,0
						C474.3,350.2,472.5,352,470.3,352z"/>
					<path class="st4" d="M470.3,366.2H360.4c-2.2,0-4-1.8-4-4l0,0c0-2.2,1.8-4,4-4h109.9c2.2,0,4,1.8,4,4l0,0
						C474.3,364.4,472.5,366.2,470.3,366.2z"/>
				</g>
			</g>
		</g>
		<g>
			<g>
				<g>
					<path class="st4" d="M258.5,273.7h-40.6c-4.4,0-8.1-4.1-8.1-9.1V241c0-5,3.6-9.1,8.1-9.1h40.6c4.4,0,8.1,4.1,8.1,9.1v23.6
						C266.6,269.6,263,273.7,258.5,273.7z M217.9,235.6c-2.6,0-4.7,2.4-4.7,5.3v23.6c0,2.9,2.1,5.3,4.7,5.3h40.6
						c2.6,0,4.7-2.4,4.7-5.3V241c0-2.9-2.1-5.3-4.7-5.3H217.9z"/>
					<path class="st4" d="M258.5,320.1h-40.6c-4.4,0-8.1-4.1-8.1-9.1v-23.6c0-5,3.6-9.1,8.1-9.1h40.6c4.4,0,8.1,4.1,8.1,9.1V311
						C266.6,316,263,320.1,258.5,320.1z M217.9,282c-2.6,0-4.7,2.4-4.7,5.3V311c0,2.9,2.1,5.3,4.7,5.3h40.6c2.6,0,4.7-2.4,4.7-5.3
						v-23.6c0-2.9-2.1-5.3-4.7-5.3H217.9z"/>
					<path class="st4" d="M319.3,273.7h-40.6c-4.4,0-8.1-4.1-8.1-9.1V241c0-5,3.6-9.1,8.1-9.1h40.6c4.4,0,8.1,4.1,8.1,9.1v23.6
						C327.3,269.6,323.7,273.7,319.3,273.7z M278.6,235.6c-2.6,0-4.7,2.4-4.7,5.3v23.6c0,2.9,2.1,5.3,4.7,5.3h40.6
						c2.6,0,4.7-2.4,4.7-5.3V241c0-2.9-2.1-5.3-4.7-5.3H278.6z"/>
					<path class="st4" d="M319.3,320.1h-40.6c-4.4,0-8.1-4.1-8.1-9.1v-23.6c0-5,3.6-9.1,8.1-9.1h40.6c4.4,0,8.1,4.1,8.1,9.1V311
						C327.3,316,323.7,320.1,319.3,320.1z M278.6,282c-2.6,0-4.7,2.4-4.7,5.3V311c0,2.9,2.1,5.3,4.7,5.3h40.6c2.6,0,4.7-2.4,4.7-5.3
						v-23.6c0-2.9-2.1-5.3-4.7-5.3H278.6z"/>
				</g>
				<g>
					<path class="st4" d="M323.5,337.7H213.6c-2.2,0-4-1.8-4-4l0,0c0-2.2,1.8-4,4-4h109.9c2.2,0,4,1.8,4,4l0,0
						C327.5,336,325.7,337.7,323.5,337.7z"/>
					<path class="st4" d="M323.5,352H213.6c-2.2,0-4-1.8-4-4l0,0c0-2.2,1.8-4,4-4h109.9c2.2,0,4,1.8,4,4l0,0
						C327.5,350.2,325.7,352,323.5,352z"/>
					<path class="st4" d="M323.5,366.2H213.6c-2.2,0-4-1.8-4-4l0,0c0-2.2,1.8-4,4-4h109.9c2.2,0,4,1.8,4,4l0,0
						C327.5,364.4,325.7,366.2,323.5,366.2z"/>
				</g>
			</g>
		</g>
	</g>
	<g>
		
			<linearGradient id="SVGID_00000005248771972714720900000010788371620746260622_" gradientUnits="userSpaceOnUse" x1="-341.4218" y1="141.1835" x2="-146.286" y2="-143.2808" gradientTransform="matrix(-1 0 0 1 -111.0609 0)">
			<stop  offset="0" style="stop-color:#FE7062"/>
			<stop  offset="1" style="stop-color:#FF928E"/>
		</linearGradient>
		<path style="fill:url(#SVGID_00000005248771972714720900000010788371620746260622_);" d="M257,187.1c-8-2.5-21.2-8.3-27.5-20.2
			c-1.4-2.6,0.1-5.8,3-6.5c14.1-3.5,52.1-16.8,48.6-56.7c-4.3-48.9-59.2-52.2-94.2-42.4c-35,9.7-52.8,33.7-44.7,70.5
			c7.6,34.7,74.3,60.7,114.5,57.8C258.2,189.6,258.4,187.6,257,187.1z"/>
		<path class="st15" d="M208.7,162.3c-1.5,0-3.8-0.1-6.6-0.3c-0.7-0.1-1.2-0.7-1.2-1.4c0.1-0.7,0.7-1.2,1.4-1.2
			c5,0.4,8.3,0.2,8.4,0.2c0.7,0,1.3,0.5,1.3,1.2c0,0.7-0.5,1.3-1.2,1.3C210.8,162.3,210.1,162.3,208.7,162.3z"/>
		<path class="st15" d="M186,159c-0.1,0-0.2,0-0.4-0.1c-15.9-4.9-26.6-14.6-31-28.2c-5.7-17.5-2.4-30.1,1.4-37.6
			c4.1-8.2,9.6-12.1,9.9-12.3c0.6-0.4,1.4-0.3,1.8,0.3c0.4,0.6,0.3,1.4-0.3,1.8l0,0c-0.1,0-5.3,3.8-9.1,11.5
			c-5.1,10.1-5.5,22.4-1.2,35.6c4.2,12.9,14.1,21.9,29.4,26.5c0.7,0.2,1,0.9,0.8,1.6C187.1,158.6,186.6,159,186,159z"/>
		<g class="st16">
			<path class="st17" d="M183.1,92h81.5c1.7,0,3.2-1.4,3.2-3.2l0,0c0-1.7-1.4-3.2-3.2-3.2h-81.5c-1.7,0-3.2,1.4-3.2,3.2l0,0
				C180,90.5,181.4,92,183.1,92z"/>
			<path class="st18" d="M173.3,104.3h81.5c1.7,0,3.2-1.4,3.2-3.2l0,0c0-1.7-1.4-3.2-3.2-3.2h-81.5c-1.7,0-3.2,1.4-3.2,3.2l0,0
				C170.2,102.9,171.6,104.3,173.3,104.3z"/>
			<path class="st18" d="M196.5,129h58.3c1.7,0,3.2-1.4,3.2-3.2l0,0c0-1.7-1.4-3.2-3.2-3.2h-58.3c-1.7,0-3.2,1.4-3.2,3.2l0,0
				C193.4,127.6,194.8,129,196.5,129z"/>
			<path class="st17" d="M164.2,116.7h81.5c1.7,0,3.2-1.4,3.2-3.2l0,0c0-1.7-1.4-3.2-3.2-3.2h-81.5c-1.7,0-3.2,1.4-3.2,3.2l0,0
				C161.1,115.3,162.5,116.7,164.2,116.7z"/>
		</g>
	</g>
	<g>
		<path class="st13" d="M555.6,469.7c0,3.7,3,6.7,6.7,6.7h116.5c3.7,0,6.7-3,6.7-6.7V295.2c0-3.7-3-6.7-6.7-6.7l-117.4-0.3
			c-3.7,0-6.8,3-6.7,6.8L555.6,469.7z"/>
		<path class="st6" d="M561.2,303.7c-0.1-3.8,3-6.9,6.9-6.9l104.1,0.6c3.8,0,6.8,3.1,6.8,6.9l-0.7,156.5c0,3.7-3,6.7-6.7,6.8
			l-101.2,1.8c-3.8,0.1-6.9-2.9-6.9-6.7L561.2,303.7z"/>
		<path class="st13" d="M572.3,305.6v0.7c0,1.1,0.9,2,2,2h80.2c1.1,0,2-0.9,2-2v-0.7c0-1.1-0.9-2-2-2h-80.2
			C573.2,303.5,572.3,304.5,572.3,305.6z"/>
		<path class="st13" d="M581.2,314.6L581.2,314.6c0.1,1.1,0.9,1.9,2,1.9l70.2,1.3c1.1,0,2.1-0.9,2.1-2v-0.2c0-1.1-0.9-2-2-2
			l-70.2-1.1C582.1,312.4,581.1,313.4,581.2,314.6z"/>
		<path class="st13" d="M574,464.4c-3.3,0-6.1-2.7-6.1-6l-2.3-128c-0.1-3.4,2.6-6.2,6-6.2l94.7-1.8c1.6,0,3.2,0.6,4.4,1.7
			c1.2,1.1,1.8,2.7,1.9,4.3l2.4,128.7c0,1.6-0.6,3.2-1.7,4.4c-1.1,1.2-2.7,1.8-4.3,1.9L574,464.4C574.1,464.4,574.1,464.4,574,464.4
			z M571.7,325.4l0,1.3c-2,0-3.5,1.7-3.5,3.6l2.3,128c0,1.9,1.6,3.5,3.6,3.5c0,0,0,0,0,0l94.9-1.1c1,0,1.9-0.4,2.5-1.1
			c0.7-0.7,1-1.6,1-2.6l-2.4-128.7c0-1-0.4-1.8-1.1-2.5c-0.7-0.7-1.6-1-2.6-1l-94.7,1.8L571.7,325.4z"/>
		<path class="st13" d="M671.5,337.7H568.2c-0.7,0-1.3-0.6-1.3-1.3s0.6-1.3,1.3-1.3h103.4c0.7,0,1.3,0.6,1.3,1.3
			S672.2,337.7,671.5,337.7z"/>
	</g>
	<g>
		
			<linearGradient id="SVGID_00000054964265314515816690000012411387398947934649_" gradientUnits="userSpaceOnUse" x1="268.5356" y1="478.8188" x2="310.2" y2="308.2852">
			<stop  offset="0" style="stop-color:#020039"/>
			<stop  offset="1" style="stop-color:#090056"/>
		</linearGradient>
		<path style="fill:url(#SVGID_00000054964265314515816690000012411387398947934649_);" d="M243.4,345.6c-0.5,21.8-2,97.1-1.2,123.8
			c0.1,2.8,2,5.1,4.4,5.2c11.9,0.5,55.8,1.6,75.3,0.7c4.1-0.2,7.3-4.1,7.4-8.8c0.4-22.9,1.3-87.3-0.8-116.9
			c-0.3-3.5-2.6-6.4-5.6-6.7c-13-1.5-57-5.2-73.9-4C245.8,339.1,243.4,342,243.4,345.6z"/>
		
			<linearGradient id="SVGID_00000159443838523750263510000011175556570527837059_" gradientUnits="userSpaceOnUse" x1="308.5138" y1="372.2001" x2="127.5888" y2="603.6477">
			<stop  offset="0" style="stop-color:#FE7062"/>
			<stop  offset="1" style="stop-color:#FF928E"/>
		</linearGradient>
		<path style="fill:url(#SVGID_00000159443838523750263510000011175556570527837059_);" d="M248.7,352.3c-0.6,17.6-2.7,76.2-2,97.9
			c0.1,3.2,2.2,5.7,4.9,5.9c11.1,0.8,49.1,2.4,65.5,0.9c2.9-0.3,5.2-3.1,5.4-6.5c0.8-18,3.2-72.5,2.6-94c-0.1-3.4-2.4-6.2-5.3-6.5
			c-12-1.3-52.4-4.3-66.3-3.4C250.9,346.8,248.8,349.3,248.7,352.3z"/>
		<path class="st21" d="M279,472.8c-3,0-5.5-2.8-5.5-6.4c0-3.5,2.5-6.4,5.5-6.4c3,0,5.5,2.8,5.5,6.4C284.5,470,282,472.8,279,472.8z
			 M279,461.4c-2.4,0-4.3,2.3-4.3,5.1c0,2.8,1.9,5.1,4.3,5.1c2.4,0,4.3-2.3,4.3-5.1C283.3,463.7,281.4,461.4,279,461.4z"/>
		<path class="st22" d="M272.9,342.7L272.9,342.7c0,0.7,0.4,1.2,1,1.3c2.8,0.2,10.8,0.7,14.3,0.9c0.7,0,1.3-0.7,1.1-1.5l0-0.1
			c-0.1-0.6-0.5-1-1-1c-2.4-0.3-9.6-1-14.5-0.8C273.3,341.5,272.9,342,272.9,342.7z"/>
		<path class="st17" d="M303.3,402.1L287,366.4c-0.4-1-1.8-1-2.2,0l-16.3,35.7c-0.4,0.8,0.2,1.7,1.1,1.7h5.3c0.7,0,1.2,0.6,1.2,1.2
			v38.4c0,0.7,0.6,1.2,1.2,1.2h17.1c0.7,0,1.2-0.6,1.2-1.2v-38.4c0-0.7,0.6-1.2,1.2-1.2h5.3C303,403.8,303.6,402.9,303.3,402.1z"/>
	</g>
	<g>
		<g>
			
				<linearGradient id="SVGID_00000000215212560797324120000005445352060887867019_" gradientUnits="userSpaceOnUse" x1="693.6368" y1="-519.6666" x2="677.9329" y2="-487.2973" gradientTransform="matrix(0.987 0.1608 -0.1608 0.987 -146.6645 570.9384)">
				<stop  offset="0" style="stop-color:#09005D"/>
				<stop  offset="1" style="stop-color:#1A0F91"/>
			</linearGradient>
			<path style="fill:url(#SVGID_00000000215212560797324120000005445352060887867019_);" d="M591.4,196.8c-0.1,0.2-5.1,3.9-5.1,3.9
				s1.1,8,5.6,11.1c5,3.5,12-2.9,12-2.9s5.6,1.3,8.6-10.3c0.7-2.7-3.3-2.9-8-2.4C598.3,196.9,591.4,196.8,591.4,196.8z"/>
			
				<linearGradient id="SVGID_00000180335265349747925740000014822157541804551086_" gradientUnits="userSpaceOnUse" x1="598.8915" y1="235.291" x2="603.8901" y2="386.4973">
				<stop  offset="0" style="stop-color:#FE7062"/>
				<stop  offset="1" style="stop-color:#FF928E"/>
			</linearGradient>
			<path style="fill:url(#SVGID_00000180335265349747925740000014822157541804551086_);" d="M581.9,224c2-1.4,4.2-2.4,6.5-3
				c0.9-0.2,5.6,1.1,8.5,1.1c4-0.1,8-1.9,11.3-1.1c3.3,0.8,5.9,1.9,7.5,3c4.6,3.3,7.3,9.4,9,15.5c-3.1,3.2-7.1,4.6-7.1,4.6
				l-0.7,29.5l-17.4,8.9l-19.9-10l0.7-28.8c0,0-6.3-2.9-6.8-4C573,238.6,576.3,227.9,581.9,224z"/>
			
				<linearGradient id="SVGID_00000010268751321372006620000005552183730104808320_" gradientUnits="userSpaceOnUse" x1="569.4291" y1="233.2136" x2="602.5475" y2="313.2139">
				<stop  offset="0" style="stop-color:#FF928E"/>
				<stop  offset="1" style="stop-color:#FEB3B1"/>
			</linearGradient>
			<path style="fill:url(#SVGID_00000010268751321372006620000005552183730104808320_);" d="M573.8,239.5c0,0-8.5,23.5,10.8,33.1
				c4-0.5,2.5-7.2,2.5-7.2s-8.4-1.9-5.9-21.4C578.9,242.1,573.8,239.5,573.8,239.5z"/>
			
				<linearGradient id="SVGID_00000158021762648934165300000010479941215933550494_" gradientUnits="userSpaceOnUse" x1="-7709.2144" y1="233.0417" x2="-7676.0962" y2="313.0418" gradientTransform="matrix(-1 0 0 1 -7081.0742 0)">
				<stop  offset="0" style="stop-color:#FF928E"/>
				<stop  offset="1" style="stop-color:#FEB3B1"/>
			</linearGradient>
			<path style="fill:url(#SVGID_00000158021762648934165300000010479941215933550494_);" d="M624.2,239.5c0,0,5.8,24.5-10.8,33.1
				c-4-0.5-2.5-7.2-2.5-7.2s6.8-3.3,5.9-21.4C619.1,242.1,624.2,239.5,624.2,239.5z"/>
			<path class="st6" d="M609.4,274.3h-21.9c-4.5,0-8.2-3.7-8.2-8.2v-9.5c0-4.5,3.7-8.2,8.2-8.2h21.9c4.5,0,8.2,3.7,8.2,8.2v9.5
				C617.5,270.6,613.8,274.3,609.4,274.3z"/>
			<g>
				
					<linearGradient id="SVGID_00000137096775011922705490000007585772582969353123_" gradientUnits="userSpaceOnUse" x1="623.3421" y1="252.6733" x2="641.4402" y2="252.6733" gradientTransform="matrix(1 7.700000e-03 -7.700000e-03 1 -2.6721 28.0326)">
					<stop  offset="0" style="stop-color:#09005D"/>
					<stop  offset="1" style="stop-color:#1A0F91"/>
				</linearGradient>
				<path style="fill:url(#SVGID_00000137096775011922705490000007585772582969353123_);" d="M634.3,281.9c-4.4-1-14.5-0.5-14.5-0.5
					l-0.4,1.1l-0.7,5.5c0,0,9.6,1.7,14.4,1.7c0.5,0,0.9-0.1,1.3-0.2c0.1-0.1,0.3-0.3,0.4-0.4C636.8,287,636.3,283.8,634.3,281.9z"/>
				
					<linearGradient id="SVGID_00000071555908166020782340000008188535914874798761_" gradientUnits="userSpaceOnUse" x1="634.2787" y1="285.794" x2="637.2806" y2="285.794">
					<stop  offset="0" style="stop-color:#FE7062"/>
					<stop  offset="1" style="stop-color:#FF928E"/>
				</linearGradient>
				<path style="fill:url(#SVGID_00000071555908166020782340000008188535914874798761_);" d="M634.7,282c-0.1,0-0.3-0.1-0.4-0.1
					c2,1.9,2.6,5.1,0.5,7.3c-0.1,0.1-0.3,0.3-0.4,0.4C638,288.5,638.4,283.1,634.7,282z"/>
				
					<linearGradient id="SVGID_00000011709585083969460990000017145314345141556361_" gradientUnits="userSpaceOnUse" x1="630.6697" y1="252.8743" x2="611.5661" y2="304.6185">
					<stop  offset="0" style="stop-color:#FF928E"/>
					<stop  offset="1" style="stop-color:#FEB3B1"/>
				</linearGradient>
				<path style="fill:url(#SVGID_00000011709585083969460990000017145314345141556361_);" d="M616.9,281.2l1.7,0.1
					c0.9,0,1.8,0.5,2.4,1.2c0.6,0.8,0.9,1.8,0.9,2.8c0,0.8-0.4,1.6-0.9,2.1c-0.5,0.5-1.3,0.8-2,0.8l-2.6-0.2L616.9,281.2z"/>
				<g>
					
						<linearGradient id="SVGID_00000109728998223516293120000012708483952545219240_" gradientUnits="userSpaceOnUse" x1="643.7011" y1="252.218" x2="627.8077" y2="252.0273" gradientTransform="matrix(1 7.700000e-03 -7.700000e-03 1 -2.6721 28.0326)">
						<stop  offset="0" style="stop-color:#FE7062"/>
						<stop  offset="1" style="stop-color:#FF928E"/>
					</linearGradient>
					<path style="fill:url(#SVGID_00000109728998223516293120000012708483952545219240_);" d="M626.1,287c-0.1,0-0.2-0.1-0.2-0.2
						c-0.4-1.7-2.1-3.5-2.2-3.5c-0.1-0.1-0.1-0.3,0-0.4c0.1-0.1,0.3-0.1,0.4,0c0.1,0.1,1.8,1.9,2.3,3.8
						C626.3,286.8,626.3,287,626.1,287C626.1,287,626.1,287,626.1,287z"/>
					
						<linearGradient id="SVGID_00000085947517063519819510000008989845021650843554_" gradientUnits="userSpaceOnUse" x1="643.6354" y1="252.11" x2="627.8174" y2="251.9202" gradientTransform="matrix(1 7.700000e-03 -7.700000e-03 1 -2.6721 28.0326)">
						<stop  offset="0" style="stop-color:#FE7062"/>
						<stop  offset="1" style="stop-color:#FF928E"/>
					</linearGradient>
					<path style="fill:url(#SVGID_00000085947517063519819510000008989845021650843554_);" d="M623.7,286.9
						C623.7,286.9,623.7,286.9,623.7,286.9c-0.2-0.1-0.3-0.2-0.2-0.4c0.6-2,2.7-3.7,2.8-3.7c0.1-0.1,0.3-0.1,0.4,0.1
						c0.1,0.1,0,0.3-0.1,0.4c0,0-2.1,1.6-2.6,3.4C624,286.8,623.9,286.9,623.7,286.9z"/>
					
						<linearGradient id="SVGID_00000118378933025287494530000009610687245644774576_" gradientUnits="userSpaceOnUse" x1="666.0254" y1="53.1677" x2="650.027" y2="52.9758" gradientTransform="matrix(0.9984 5.640000e-02 -5.640000e-02 0.9984 -22.8503 195.1439)">
						<stop  offset="0" style="stop-color:#FE7062"/>
						<stop  offset="1" style="stop-color:#FF928E"/>
					</linearGradient>
					<path style="fill:url(#SVGID_00000118378933025287494530000009610687245644774576_);" d="M630.7,287.3c-0.1,0-0.2-0.1-0.2-0.2
						c-0.4-1.8-2-3.6-2-3.6c-0.1-0.1-0.1-0.3,0-0.4c0.1-0.1,0.3-0.1,0.4,0c0.1,0.1,1.7,2,2.1,3.9C631,287.1,630.9,287.3,630.7,287.3
						C630.7,287.3,630.7,287.3,630.7,287.3z"/>
					
						<linearGradient id="SVGID_00000134963305969609240330000004567389363565016231_" gradientUnits="userSpaceOnUse" x1="665.8742" y1="53.0596" x2="650.1346" y2="52.8708" gradientTransform="matrix(0.9984 5.640000e-02 -5.640000e-02 0.9984 -22.8503 195.1439)">
						<stop  offset="0" style="stop-color:#FE7062"/>
						<stop  offset="1" style="stop-color:#FF928E"/>
					</linearGradient>
					<path style="fill:url(#SVGID_00000134963305969609240330000004567389363565016231_);" d="M628.4,287
						C628.4,287,628.3,287,628.4,287c-0.2-0.1-0.3-0.2-0.2-0.4c0.7-2,2.9-3.5,3-3.6c0.1-0.1,0.3,0,0.3,0.1c0.1,0.1,0,0.3-0.1,0.4
						c0,0-2.2,1.5-2.8,3.3C628.6,287,628.5,287,628.4,287z"/>
				</g>
			</g>
			<g>
				
					<linearGradient id="SVGID_00000155836253459299454240000013599083111249796224_" gradientUnits="userSpaceOnUse" x1="-8339.834" y1="198.9558" x2="-8321.7275" y2="198.9558" gradientTransform="matrix(-0.9998 -2.000000e-02 -2.000000e-02 0.9998 -7759.3848 -80.2964)">
					<stop  offset="0" style="stop-color:#09005D"/>
					<stop  offset="1" style="stop-color:#1A0F91"/>
				</linearGradient>
				<path style="fill:url(#SVGID_00000155836253459299454240000013599083111249796224_);" d="M559.3,281.4c4.4-0.9,14.5,0,14.5,0
					l0.4,1.1l0.5,5.6c0,0-9.7,1.4-14.4,1.3c-0.5,0-0.9-0.1-1.3-0.2c-0.1-0.1-0.3-0.3-0.4-0.4C556.6,286.4,557.3,283.2,559.3,281.4z"
					/>
				
					<linearGradient id="SVGID_00000065036438716815217130000003941588364237202843_" gradientUnits="userSpaceOnUse" x1="556.2417" y1="285.2582" x2="559.3346" y2="285.2582">
					<stop  offset="0" style="stop-color:#FE7062"/>
					<stop  offset="1" style="stop-color:#FF928E"/>
				</linearGradient>
				<path style="fill:url(#SVGID_00000065036438716815217130000003941588364237202843_);" d="M558.9,281.5c0.1,0,0.3-0.1,0.4-0.1
					c-2,1.8-2.7,5-0.7,7.3c0.1,0.2,0.3,0.3,0.4,0.4C555.5,287.9,555.2,282.4,558.9,281.5z"/>
				
					<linearGradient id="SVGID_00000017490713331991745770000017105824593897994630_" gradientUnits="userSpaceOnUse" x1="592.3952" y1="237.2806" x2="573.2814" y2="289.0526">
					<stop  offset="0" style="stop-color:#FF928E"/>
					<stop  offset="1" style="stop-color:#FEB3B1"/>
				</linearGradient>
				<path style="fill:url(#SVGID_00000017490713331991745770000017105824593897994630_);" d="M576.7,281.2l-1.7,0
					c-0.9,0-1.8,0.4-2.4,1.2c-0.6,0.7-1,1.7-1,2.7c0,0.8,0.3,1.6,0.9,2.1c0.5,0.6,1.2,0.9,2,0.8l2.6-0.1L576.7,281.2z"/>
				<g>
					
						<linearGradient id="SVGID_00000047761426847378478060000004796301279572020614_" gradientUnits="userSpaceOnUse" x1="-8319.5146" y1="198.5144" x2="-8335.3525" y2="198.3244" gradientTransform="matrix(-0.9998 -2.000000e-02 -2.000000e-02 0.9998 -7759.3848 -80.2964)">
						<stop  offset="0" style="stop-color:#FE7062"/>
						<stop  offset="1" style="stop-color:#FF928E"/>
					</linearGradient>
					<path style="fill:url(#SVGID_00000047761426847378478060000004796301279572020614_);" d="M567.4,286.8c0.1,0,0.2-0.1,0.2-0.2
						c0.5-1.7,2.2-3.4,2.2-3.5c0.1-0.1,0.1-0.3,0-0.4c-0.1-0.1-0.3-0.1-0.4,0c-0.1,0.1-1.9,1.8-2.4,3.7
						C567.1,286.5,567.2,286.7,567.4,286.8C567.4,286.8,567.4,286.8,567.4,286.8z"/>
					
						<linearGradient id="SVGID_00000135680061172825259500000007554932549712880829_" gradientUnits="userSpaceOnUse" x1="-8319.4863" y1="198.4071" x2="-8335.3545" y2="198.2166" gradientTransform="matrix(-0.9998 -2.000000e-02 -2.000000e-02 0.9998 -7759.3848 -80.2964)">
						<stop  offset="0" style="stop-color:#FE7062"/>
						<stop  offset="1" style="stop-color:#FF928E"/>
					</linearGradient>
					<path style="fill:url(#SVGID_00000135680061172825259500000007554932549712880829_);" d="M569.7,286.7
						C569.8,286.7,569.8,286.7,569.7,286.7c0.2-0.1,0.3-0.2,0.2-0.4c-0.5-2.1-2.6-3.7-2.7-3.8c-0.1-0.1-0.3-0.1-0.4,0.1
						c-0.1,0.1-0.1,0.3,0.1,0.4c0,0,2.1,1.7,2.5,3.5C569.5,286.6,569.6,286.7,569.7,286.7z"/>
					
						<linearGradient id="SVGID_00000074441223436240630970000008430498146560500398_" gradientUnits="userSpaceOnUse" x1="-8288.8613" y1="435.7292" x2="-8304.8008" y2="435.5379" gradientTransform="matrix(-0.9996 2.880000e-02 2.880000e-02 0.9996 -7743.6538 88.3)">
						<stop  offset="0" style="stop-color:#FE7062"/>
						<stop  offset="1" style="stop-color:#FF928E"/>
					</linearGradient>
					<path style="fill:url(#SVGID_00000074441223436240630970000008430498146560500398_);" d="M562.8,286.9c0.1,0,0.2-0.1,0.3-0.2
						c0.4-1.8,2.1-3.6,2.1-3.6c0.1-0.1,0.1-0.3,0-0.4c-0.1-0.1-0.3-0.1-0.4,0c-0.1,0.1-1.8,1.9-2.2,3.8
						C562.5,286.7,562.6,286.8,562.8,286.9C562.7,286.9,562.8,286.9,562.8,286.9z"/>
					
						<linearGradient id="SVGID_00000152971034519324240020000007047605623964374683_" gradientUnits="userSpaceOnUse" x1="-8288.9521" y1="435.6213" x2="-8304.7354" y2="435.4319" gradientTransform="matrix(-0.9996 2.880000e-02 2.880000e-02 0.9996 -7743.6538 88.3)">
						<stop  offset="0" style="stop-color:#FE7062"/>
						<stop  offset="1" style="stop-color:#FF928E"/>
					</linearGradient>
					<path style="fill:url(#SVGID_00000152971034519324240020000007047605623964374683_);" d="M565.1,286.7
						C565.1,286.7,565.1,286.7,565.1,286.7c0.2-0.1,0.3-0.2,0.2-0.4c-0.6-2-2.8-3.6-2.9-3.7c-0.1-0.1-0.3,0-0.4,0.1
						c-0.1,0.1,0,0.3,0.1,0.4c0,0,2.1,1.5,2.7,3.4C564.9,286.6,565,286.7,565.1,286.7z"/>
				</g>
			</g>
			
				<linearGradient id="SVGID_00000124879970577126185450000014948827175984252594_" gradientUnits="userSpaceOnUse" x1="638.767" y1="251.8753" x2="589.1044" y2="289.1817">
				<stop  offset="0" style="stop-color:#09005D"/>
				<stop  offset="1" style="stop-color:#1A0F91"/>
			</linearGradient>
			<path style="fill:url(#SVGID_00000124879970577126185450000014948827175984252594_);" d="M635.5,264.6c-2-4.6-6.8-5.3-11-3.2
				c-0.1,0.1-26.2,13.5-49.3,19.4c0.7,2.1,1,4.4,1.1,6.6c0,0.5,0,1,0,1.5c17.7-0.9,36.9-6.8,53.4-12
				C634.8,275.2,637.7,269.6,635.5,264.6z"/>
			
				<linearGradient id="SVGID_00000008110067547056106310000008983531876056670594_" gradientUnits="userSpaceOnUse" x1="593.8568" y1="285.3355" x2="580.8409" y2="252.1451">
				<stop  offset="0" style="stop-color:#09005D"/>
				<stop  offset="1" style="stop-color:#1A0F91"/>
			</linearGradient>
			<path style="fill:url(#SVGID_00000008110067547056106310000008983531876056670594_);" d="M617,287.7c-0.1-2.6,0.4-4.9,1.5-7.1
				c0-0.1,0.1-0.2,0.1-0.3c-1.3-0.4-3-1-5.3-1.7c-16.4-5.6-28.9-11.3-40.8-17.8c-4.6-2.5-9.9-0.8-11.4,4.6c-1.3,4.9,1.6,9.1,6,10.5
				c13.2,4.4,6.3,3.2,10.6,4.6c11.6,3.6,26,6.8,39.2,7.7C617,288.1,617,287.9,617,287.7z"/>
			
				<linearGradient id="SVGID_00000111193693251275459730000012908686356980841146_" gradientUnits="userSpaceOnUse" x1="598.286" y1="216.7471" x2="598.286" y2="241.7218">
				<stop  offset="0" style="stop-color:#FF928E"/>
				<stop  offset="1" style="stop-color:#FEB3B1"/>
			</linearGradient>
			<path style="fill:url(#SVGID_00000111193693251275459730000012908686356980841146_);" d="M588.4,221c0,0,1.8,7.6,10.3,7.5
				c8.7-0.2,9.5-7.5,9.5-7.5l-5.7-1.2l-0.5-6.3l-8.6,0.6l-0.2,6L588.4,221z"/>
			
				<linearGradient id="SVGID_00000096750041083214707100000004582224067724056238_" gradientUnits="userSpaceOnUse" x1="597.7715" y1="195.5833" x2="601.647" y2="219.0509">
				<stop  offset="0" style="stop-color:#FF928E"/>
				<stop  offset="1" style="stop-color:#FEB3B1"/>
			</linearGradient>
			<path style="fill:url(#SVGID_00000096750041083214707100000004582224067724056238_);" d="M594.7,195.5c0,0-9.8,19,1.8,23.6
				c8.2,3.3,13.3-12.6,11.8-16.9c-2.4-6.6-3.9-5.9-3.9-5.9L594.7,195.5z"/>
			
				<linearGradient id="SVGID_00000080166223340573603340000011235830341786079123_" gradientUnits="userSpaceOnUse" x1="693.7519" y1="-524.2223" x2="676.0815" y2="-487.7998" gradientTransform="matrix(0.987 0.1608 -0.1608 0.987 -146.6645 570.9384)">
				<stop  offset="0" style="stop-color:#09005D"/>
				<stop  offset="1" style="stop-color:#1A0F91"/>
			</linearGradient>
			<path style="fill:url(#SVGID_00000080166223340573603340000011235830341786079123_);" d="M610.7,193.7c4.8,1.3,0.7,11.8-6.6,9.4
				c-7.3-2.5-10.2-2.4-11.3-0.4c-1.1,2-1.4,9.1-3.8,5.6c-2.7-3.9-4.2-11.6-0.9-14.1c3-2.2,3.7-5.7,7.2-5.6c4.7,0.2,8.4-1.9,10.5-0.4
				C608.2,189.9,607.1,192.8,610.7,193.7z"/>
			
				<linearGradient id="SVGID_00000005264930062837423490000013706853241646054837_" gradientUnits="userSpaceOnUse" x1="589.6987" y1="196.9165" x2="593.5741" y2="220.384">
				<stop  offset="0" style="stop-color:#FF928E"/>
				<stop  offset="1" style="stop-color:#FEB3B1"/>
			</linearGradient>
			<path style="fill:url(#SVGID_00000005264930062837423490000013706853241646054837_);" d="M592.3,204.3c0,0-2.1-2.3-2.4,0.5
				c-0.3,2.7,0.7,6.2,2,4.3C593.2,207.1,592.3,204.3,592.3,204.3z"/>
		</g>
		<path class="st4" d="M600.7,255.5c0.2,1.4-0.5,2.6-1.9,2.8c-1.4,0.2-2.6-0.7-2.8-2.1c-0.2-1.4,0.4-2.7,1.8-2.9
			C599.1,253,600.5,254.1,600.7,255.5z"/>
	</g>
	<g>
		
			<linearGradient id="SVGID_00000182523003135523727580000018177135408513781894_" gradientUnits="userSpaceOnUse" x1="619.533" y1="428.2837" x2="614.2812" y2="462.946">
			<stop  offset="0" style="stop-color:#09005D"/>
			<stop  offset="1" style="stop-color:#1A0F91"/>
		</linearGradient>
		<path style="fill:url(#SVGID_00000182523003135523727580000018177135408513781894_);" d="M631.7,430.9c0-0.6-0.6-1.1-1.6-1.4
			c1.1-0.6,1.7-1.2,1.6-1.8c-0.2-1.9-6.1-2.9-13.2-2.3c-7.1,0.6-12.8,2.6-12.7,4.4c0,0.6,0.6,1.1,1.6,1.4c-1.1,0.6-1.7,1.2-1.6,1.8
			c0,0.6,0.6,1.1,1.6,1.4c-1.1,0.6-1.7,1.2-1.6,1.8c0,0.6,0.6,1.1,1.6,1.4c-1.1,0.6-1.7,1.2-1.6,1.8c0.1,0.8,1.3,1.5,3.2,1.9
			c0,0.6,0,1.3,0,2c0.3,3.4,4.1,6.1,9.3,6.1c5.1,0,9.5-3.7,9.6-7.1c0-0.8,0-1.6-0.1-2.3c2.4-0.8,3.9-1.8,3.9-2.8
			c0-0.6-0.6-1.1-1.6-1.4c1.1-0.6,1.7-1.2,1.6-1.8c0-0.6-0.6-1.1-1.6-1.4C631.1,432.2,631.7,431.6,631.7,430.9z"/>
		<g>
			
				<linearGradient id="SVGID_00000065791466280913354740000001108017337449141902_" gradientUnits="userSpaceOnUse" x1="617.4595" y1="443.8919" x2="606.2573" y2="484.6998">
				<stop  offset="0" style="stop-color:#4042E2"/>
				<stop  offset="1" style="stop-color:#4F52FF"/>
			</linearGradient>
			<path style="fill:url(#SVGID_00000065791466280913354740000001108017337449141902_);" d="M615.1,442.3c-2.1,0-4.1-0.2-5.7-0.5
				c-0.1,0-0.2-0.1-0.1-0.2c0-0.1,0.1-0.2,0.2-0.1c2.5,0.5,5.9,0.6,9.4,0.3c2.9-0.2,5.7-0.7,7.9-1.4c0.1,0,0.2,0,0.2,0.1
				c0,0.1,0,0.2-0.1,0.2c-2.3,0.7-5,1.1-8,1.4C617.7,442.2,616.4,442.3,615.1,442.3z"/>
			
				<linearGradient id="SVGID_00000060731862803718670370000010599362245327407789_" gradientUnits="userSpaceOnUse" x1="617.0449" y1="443.778" x2="605.8429" y2="484.5856">
				<stop  offset="0" style="stop-color:#4042E2"/>
				<stop  offset="1" style="stop-color:#4F52FF"/>
			</linearGradient>
			<path style="fill:url(#SVGID_00000060731862803718670370000010599362245327407789_);" d="M615.2,439c-2.8,0-5.2-0.3-7-0.8
				c-0.1,0-0.1-0.1-0.1-0.2c0-0.1,0.1-0.1,0.2-0.1c2.5,0.7,6.5,0.9,10.7,0.6c4.2-0.3,8-1.2,10.4-2.3c0.1,0,0.2,0,0.2,0.1
				c0,0.1,0,0.2-0.1,0.2c-2.4,1.1-6.3,1.9-10.5,2.3C617.7,438.9,616.4,439,615.2,439z"/>
			
				<linearGradient id="SVGID_00000066512417213755822750000004236349786597945765_" gradientUnits="userSpaceOnUse" x1="616.0035" y1="443.4922" x2="604.8013" y2="484.3001">
				<stop  offset="0" style="stop-color:#4042E2"/>
				<stop  offset="1" style="stop-color:#4F52FF"/>
			</linearGradient>
			<path style="fill:url(#SVGID_00000066512417213755822750000004236349786597945765_);" d="M615.1,435.7c-3,0-5.6-0.3-7.3-0.9
				c-0.1,0-0.1-0.1-0.1-0.2c0-0.1,0.1-0.1,0.2-0.1c2.4,0.8,6.6,1.1,11.1,0.7c4.2-0.3,8-1.2,10.4-2.3c0.1,0,0.2,0,0.2,0.1
				c0,0.1,0,0.2-0.1,0.2c-2.4,1.1-6.3,1.9-10.5,2.3C617.7,435.6,616.4,435.7,615.1,435.7z"/>
			
				<linearGradient id="SVGID_00000029746457058123670210000008000814670268535469_" gradientUnits="userSpaceOnUse" x1="615.7245" y1="443.4157" x2="604.5223" y2="484.2237">
				<stop  offset="0" style="stop-color:#4042E2"/>
				<stop  offset="1" style="stop-color:#4F52FF"/>
			</linearGradient>
			<path style="fill:url(#SVGID_00000029746457058123670210000008000814670268535469_);" d="M615.2,432.4c-2.4,0-4.5-0.2-6.2-0.6
				c-0.1,0-0.2-0.1-0.1-0.2c0-0.1,0.1-0.2,0.2-0.1c2.5,0.6,6.1,0.7,9.9,0.4c4.1-0.3,8-1.2,10.3-2.2c0.1,0,0.2,0,0.2,0.1
				c0,0.1,0,0.2-0.1,0.2c-2.4,1.1-6.3,1.9-10.4,2.3C617.7,432.4,616.4,432.4,615.2,432.4z"/>
		</g>
		
			<linearGradient id="SVGID_00000166653091008980065990000008505512734099988915_" gradientUnits="userSpaceOnUse" x1="620.2273" y1="348.0771" x2="615.8677" y2="430.425">
			<stop  offset="0" style="stop-color:#FE7062"/>
			<stop  offset="1" style="stop-color:#FF928E"/>
		</linearGradient>
		<path style="fill:url(#SVGID_00000166653091008980065990000008505512734099988915_);" d="M601,414.4c-0.9-3.1-2.3-5.9-4.3-8.4
			c-4.3-5.4-11.2-16.2-12-31.1c-1.2-21.6,17.9-32.5,35.4-31c17.5,1.5,34.8,14.5,32.9,34.6c-1.2,12.4-8.1,21.8-13.3,27.2
			c-3.3,3.4-5.6,7.6-6.9,12.2c-1.5,5.6-5.2,12.6-14,13C607.5,431.3,602.8,420.8,601,414.4z"/>
		
			<linearGradient id="SVGID_00000178169984050843377850000005810440708242926773_" gradientUnits="userSpaceOnUse" x1="625.2219" y1="398.0592" x2="627.7366" y2="477.9603">
			<stop  offset="0" style="stop-color:#E1473D"/>
			<stop  offset="1" style="stop-color:#E9605A"/>
		</linearGradient>
		<path style="fill:url(#SVGID_00000178169984050843377850000005810440708242926773_);" d="M621.7,426.5l6.1-39.8
			c0.1-0.8,0.5-1.4,0.9-1.2c0.4,0.1,0.6,0.9,0.4,1.7c0,0,0,0,0,0.1l-7,39.5c-0.1,0.3-0.2,0.5-0.3,0.4
			C621.8,427,621.7,426.8,621.7,426.5z"/>
		
			<linearGradient id="SVGID_00000132086588583921689300000009702900611446429842_" gradientUnits="userSpaceOnUse" x1="611.3691" y1="398.4952" x2="613.8839" y2="478.3964">
			<stop  offset="0" style="stop-color:#E1473D"/>
			<stop  offset="1" style="stop-color:#E9605A"/>
		</linearGradient>
		<path style="fill:url(#SVGID_00000132086588583921689300000009702900611446429842_);" d="M615.4,426.8l-6.1-39.8
			c-0.1-0.8-0.5-1.4-0.9-1.2c-0.4,0.1-0.6,0.9-0.4,1.7c0,0,0,0,0,0.1l7,39.5c0.1,0.3,0.2,0.5,0.3,0.4
			C615.4,427.4,615.4,427.1,615.4,426.8z"/>
		<path class="st15" d="M627.8,383.2c-0.2-0.3-0.5-0.3-0.8-0.2l-3.4,1.6l-1.2-3.4c-0.1-0.2-0.2-0.3-0.4-0.4c-0.4-0.2-0.9,0-1,0.3
			l0,0l-2.8,5.1l-2.6-7.3l0,0c-0.1-0.2-0.2-0.3-0.4-0.4c-0.4-0.2-1-0.1-1.3,0.3l-3.9,5.4c-0.2,0.2-0.1,0.5,0.1,0.7
			c0.3,0.2,0.6,0.1,0.8-0.1l3.5-3.9l3.1,6.9l0,0c0,0.1,0.1,0.2,0.3,0.3c0.3,0.1,0.7,0,0.8-0.2l3-4.8l1.1,2.4l0,0c0,0,0,0,0,0.1
			c0.2,0.2,0.5,0.3,0.8,0.2l4-1.9C627.9,383.8,628,383.5,627.8,383.2z"/>
		<path class="st15" d="M639.8,400.7c-0.2,0-0.4-0.1-0.6-0.2c-0.4-0.3-0.5-0.9-0.2-1.3c1-1.4,2-2.8,2.8-4.3c0.3-0.5,0.8-0.6,1.3-0.3
			c0.5,0.3,0.6,0.8,0.3,1.3c-0.9,1.5-1.9,3-2.9,4.5C640.4,400.5,640.1,400.7,639.8,400.7z"/>
		<path class="st15" d="M644.9,392c-0.1,0-0.3,0-0.4-0.1c-0.5-0.2-0.7-0.8-0.5-1.3c6.4-14.8,0.9-27.3,0.8-27.4c-0.2-0.5,0-1,0.5-1.3
			c0.5-0.2,1,0,1.3,0.5c0.2,0.5,6,13.3-0.8,28.9C645.6,391.8,645.3,392,644.9,392z"/>
	</g>
	<g>
		<g>
			<g>
				
					<linearGradient id="SVGID_00000024708194813007288260000018245880311865630360_" gradientUnits="userSpaceOnUse" x1="1266.0435" y1="479.0399" x2="1286.9911" y2="479.0399" gradientTransform="matrix(1 0 0 1 -1140.7335 0)">
					<stop  offset="0" style="stop-color:#4042E2"/>
					<stop  offset="1" style="stop-color:#4F52FF"/>
				</linearGradient>
				<path style="fill:url(#SVGID_00000024708194813007288260000018245880311865630360_);" d="M145.7,478c-3.6,0.3-9.8,0.8-14.7,1
					c-3,0.1-4.7-0.2-5.6-0.6c0,0.1,0,0.2,0,0.3c0,0.5,0.4,0.9,1,1c9.3,0.5,16.7,0.2,19.3,0c0.5,0,0.9-0.6,0.6-1.1
					C146,478.5,145.8,478.3,145.7,478z"/>
				
					<linearGradient id="SVGID_00000119083496522967832180000015660825379592307889_" gradientUnits="userSpaceOnUse" x1="1266.0422" y1="474.9344" x2="1286.3997" y2="474.9344" gradientTransform="matrix(1 0 0 1 -1140.7335 0)">
					<stop  offset="0" style="stop-color:#09005D"/>
					<stop  offset="1" style="stop-color:#1A0F91"/>
				</linearGradient>
				<path style="fill:url(#SVGID_00000119083496522967832180000015660825379592307889_);" d="M130.9,479.1c4.9-0.2,11.1-0.7,14.7-1
					c-3.5-4.3-14.7-7.2-14.7-7.2h-3.2c-2.2,3.1-2.5,6.1-2.5,7.7C126.3,478.9,128,479.2,130.9,479.1z"/>
				
					<linearGradient id="SVGID_00000127736744040709422760000018420596405175795365_" gradientUnits="userSpaceOnUse" x1="1267.9774" y1="469.2026" x2="1273.8779" y2="469.2026" gradientTransform="matrix(1 0 0 1 -1140.7335 0)">
					<stop  offset="0" style="stop-color:#F9B776"/>
					<stop  offset="1" style="stop-color:#F47960"/>
				</linearGradient>
				<path style="fill:url(#SVGID_00000127736744040709422760000018420596405175795365_);" d="M127.2,465.6l0.3,5.9
					c0,0.6,0.5,1.2,1.1,1.3c0.6,0.1,1.5,0.1,2.4-0.2c0.6-0.2,1-0.6,1.1-1.2l1-5.7H127.2z"/>
			</g>
			<g>
				<g>
					
						<linearGradient id="SVGID_00000138550192476312153100000017372800151058434488_" gradientUnits="userSpaceOnUse" x1="1224.2822" y1="478.5881" x2="1232.3098" y2="478.5881" gradientTransform="matrix(1 0 0 1 -1140.7335 0)">
						<stop  offset="0" style="stop-color:#4042E2"/>
						<stop  offset="1" style="stop-color:#4F52FF"/>
					</linearGradient>
					<path style="fill:url(#SVGID_00000138550192476312153100000017372800151058434488_);" d="M86.2,479c-1.6-0.2-2.3-1-2.6-1.9
						c0,0,0,0,0,0c-0.2,0.9,0.3,1.9,1.4,2.3c1.3,0.5,2.7,0.6,3.8,0.6c1.2,0,2.2-0.5,2.8-1.3l0,0C90.4,479.3,88.8,479.4,86.2,479z"/>
					
						<linearGradient id="SVGID_00000132088141582849193640000007325214758688701584_" gradientUnits="userSpaceOnUse" x1="1224.3407" y1="472.4072" x2="1236.1235" y2="472.4072" gradientTransform="matrix(1 0 0 1 -1140.7335 0)">
						<stop  offset="0" style="stop-color:#09005D"/>
						<stop  offset="1" style="stop-color:#1A0F91"/>
					</linearGradient>
					<path style="fill:url(#SVGID_00000132088141582849193640000007325214758688701584_);" d="M93.5,465.6h-2.6
						c-4-0.1-6.5,8.3-7.3,11.5c0.3,0.9,1,1.7,2.6,1.9c2.6,0.4,4.2,0.3,5.4-0.3c2.1-2.8,3.2-7,3.7-9.4
						C95.9,466.6,93.5,465.6,93.5,465.6z"/>
				</g>
				
					<linearGradient id="SVGID_00000021837868459956106880000000457716405892072591_" gradientUnits="userSpaceOnUse" x1="1230.4652" y1="464.2837" x2="1237.517" y2="464.2837" gradientTransform="matrix(1 0 0 1 -1140.7335 0)">
					<stop  offset="0" style="stop-color:#F9B776"/>
					<stop  offset="1" style="stop-color:#F47960"/>
				</linearGradient>
				<path style="fill:url(#SVGID_00000021837868459956106880000000457716405892072591_);" d="M91.2,460.1l-1.4,5.8
					c-0.2,0.7,0.2,1.4,0.8,1.8c0.8,0.4,2,0.9,3,0.7c0.5-0.1,0.9-0.4,1.1-0.9l2.1-6.1L91.2,460.1z"/>
			</g>
			
				<linearGradient id="SVGID_00000000198579905324696110000005223432186174400666_" gradientUnits="userSpaceOnUse" x1="1214.1307" y1="484.9053" x2="1306.7666" y2="380.0982" gradientTransform="matrix(1 0 0 1 -1140.7335 0)">
				<stop  offset="0" style="stop-color:#09005D"/>
				<stop  offset="1" style="stop-color:#1A0F91"/>
			</linearGradient>
			<path style="fill:url(#SVGID_00000000198579905324696110000005223432186174400666_);" d="M89.5,461.8c1.8,1.6,7.7,1.8,7.7,1.8
				c21.1-50.7,29.7-57.9,29.7-57.9c-3,19.1-0.5,61.5-0.5,61.5c3.5,1.5,8,0,8,0c0.3-31.3,5.1-58.6,10.8-80.1
				c-14.3-0.3-21.9-5.2-24.3-7.2C108.9,399.1,89.5,461.8,89.5,461.8z"/>
			
				<linearGradient id="SVGID_00000099656209439388904170000002922063217360825789_" gradientUnits="userSpaceOnUse" x1="1140.002" y1="514.1104" x2="1076.7039" y2="588.3887" gradientTransform="matrix(1 0 0 1 -1140.7335 0)">
				<stop  offset="0" style="stop-color:#FE7062"/>
				<stop  offset="1" style="stop-color:#FF928E"/>
			</linearGradient>
			<path style="fill:url(#SVGID_00000099656209439388904170000002922063217360825789_);" d="M124.5,321.6
				c-2.7,13.5-1.7,37.6-1.1,48.6c0.2,3.1-2,7.4-3.7,10.3c-0.3,0.5-0.1,1,0.4,1.3c2.9,1.5,12.8,6.2,24.3,6.7c0.8,0,1.4-0.5,1.6-1.2
				c8.5-31.8,18.4-52.1,18.4-52.1C153.4,317.8,124.5,321.6,124.5,321.6z"/>
			
				<linearGradient id="SVGID_00000145768036159326586620000007828091588708171689_" gradientUnits="userSpaceOnUse" x1="1254.2286" y1="438.169" x2="1257.6077" y2="431.4109" gradientTransform="matrix(1 0 0 1 -1140.7335 0)">
				<stop  offset="0" style="stop-color:#4042E2"/>
				<stop  offset="1" style="stop-color:#4F52FF"/>
			</linearGradient>
			<path style="fill:url(#SVGID_00000145768036159326586620000007828091588708171689_);" d="M128.4,404.5c-0.1,0-0.2,0-0.4-0.1
				c-0.3-0.2-0.4-0.6-0.2-0.9c0.1-0.2,2.8-4.6,8.4-7.3c0.3-0.2,0.7,0,0.9,0.3c0.2,0.3,0,0.7-0.3,0.9c-5.2,2.5-7.8,6.7-7.8,6.8
				C128.8,404.4,128.6,404.5,128.4,404.5z"/>
			<g>
				
					<linearGradient id="SVGID_00000057107206544399933900000016746157449602852795_" gradientUnits="userSpaceOnUse" x1="1262.7726" y1="361.4952" x2="1237.6694" y2="383.7245" gradientTransform="matrix(1 0 0 1 -1140.7335 0)">
					<stop  offset="0" style="stop-color:#FF928E"/>
					<stop  offset="1" style="stop-color:#FEB3B1"/>
				</linearGradient>
				<path style="fill:url(#SVGID_00000057107206544399933900000016746157449602852795_);" d="M107.5,360.3
					c0.9,6.3,3.4,13.1,8.6,20.4l1.9-1.6c0,0-2.3-9.1-1-19.5C113.9,359,110.2,359.6,107.5,360.3z"/>
				
					<linearGradient id="SVGID_00000113313614530452599240000010549008566739633573_" gradientUnits="userSpaceOnUse" x1="1124.4442" y1="500.8527" x2="1061.1462" y2="575.1307" gradientTransform="matrix(1 0 0 1 -1140.7335 0)">
					<stop  offset="0" style="stop-color:#FE7062"/>
					<stop  offset="1" style="stop-color:#FF928E"/>
				</linearGradient>
				<path style="fill:url(#SVGID_00000113313614530452599240000010549008566739633573_);" d="M127.5,338.3l-3-16.6
					c0,0-20.2,15.4-16.9,38.7c2.6-0.7,6.4-1.3,9.5-0.7C118,352.1,120.7,344,127.5,338.3z"/>
			</g>
			<g>
				
					<linearGradient id="SVGID_00000102524101343287476620000003620707318302673289_" gradientUnits="userSpaceOnUse" x1="1156.8363" y1="528.4576" x2="1093.5382" y2="602.7359" gradientTransform="matrix(1 0 0 1 -1140.7335 0)">
					<stop  offset="0" style="stop-color:#FE7062"/>
					<stop  offset="1" style="stop-color:#FF928E"/>
				</linearGradient>
				<path style="fill:url(#SVGID_00000102524101343287476620000003620707318302673289_);" d="M164.3,335.3l-7.8,16.8
					c1.3,10.1,6.7,14.5,12.6,16.2c0.4-4.6,1.5-8.3,2.6-10.9C164.2,349.5,164.3,335.3,164.3,335.3z"/>
				
					<linearGradient id="SVGID_00000093174854804995705860000011928424251826405515_" gradientUnits="userSpaceOnUse" x1="1309.8312" y1="363.5979" x2="1329.6007" y2="363.5979" gradientTransform="matrix(1 0 0 1 -1140.7335 0)">
					<stop  offset="0" style="stop-color:#FF928E"/>
					<stop  offset="1" style="stop-color:#FEB3B1"/>
				</linearGradient>
				<path style="fill:url(#SVGID_00000093174854804995705860000011928424251826405515_);" d="M171.7,357.3
					c-1.1,2.6-2.2,6.3-2.6,10.9c15.6,6.1,19.8-5.7,19.8-5.7L186,362C179.5,362.7,174.9,360.6,171.7,357.3z"/>
			</g>
			
				<linearGradient id="SVGID_00000089550237586472643100000007196905915046091662_" gradientUnits="userSpaceOnUse" x1="1290.6145" y1="310.7661" x2="1290.3986" y2="347.6845" gradientTransform="matrix(1 0 0 1 -1140.7335 0)">
				<stop  offset="0" style="stop-color:#FF928E"/>
				<stop  offset="1" style="stop-color:#FEB3B1"/>
			</linearGradient>
			<path style="fill:url(#SVGID_00000089550237586472643100000007196905915046091662_);" d="M157.2,314.6l-3.8,13.8
				c-0.4,1.6-2.1,2.4-3.6,1.8c-1.6-0.6-3.7-1.5-5.4-2.5c-1.9-1-2.5-3.4-1.3-5.2l7.8-11.6L157.2,314.6z"/>
		</g>
		
			<linearGradient id="SVGID_00000088831760227091923920000000398413178322765455_" gradientUnits="userSpaceOnUse" x1="1235.6648" y1="378.08" x2="1339.1899" y2="378.08" gradientTransform="matrix(1 0 0 1 -1140.7335 0)">
			<stop  offset="0" style="stop-color:#020039"/>
			<stop  offset="1" style="stop-color:#090056"/>
		</linearGradient>
		<path style="fill:url(#SVGID_00000088831760227091923920000000398413178322765455_);" d="M196,353.2l-96.2,35c-4,1.5-6,6.1-4.2,10
			l0.3,0.6c1.6,3.5,5.7,5,9.1,3.4l93.5-43.2L196,353.2z"/>
		
			<linearGradient id="SVGID_00000103262077889048078140000006769579458543186822_" gradientUnits="userSpaceOnUse" x1="1333.4929" y1="332.175" x2="1428.5194" y2="332.175" gradientTransform="matrix(1 0 0 1 -1140.7335 0)">
			<stop  offset="0" style="stop-color:#DAE3FE"/>
			<stop  offset="1" style="stop-color:#E9EFFD"/>
		</linearGradient>
		
			<ellipse style="opacity:0.37;fill:url(#SVGID_00000103262077889048078140000006769579458543186822_);" cx="240.3" cy="332.2" rx="47.5" ry="46.7"/>
		
			<linearGradient id="SVGID_00000182528960945487625050000004605620737154794922_" gradientUnits="userSpaceOnUse" x1="1328.1367" y1="332.1751" x2="1433.8756" y2="332.1751" gradientTransform="matrix(1 0 0 1 -1140.7335 0)">
			<stop  offset="0" style="stop-color:#020039"/>
			<stop  offset="1" style="stop-color:#090056"/>
		</linearGradient>
		<path style="fill:url(#SVGID_00000182528960945487625050000004605620737154794922_);" d="M240.3,280.3
			c-29.2,0-52.9,23.2-52.9,51.9c0,28.7,23.7,51.9,52.9,51.9c29.2,0,52.9-23.2,52.9-51.9C293.1,303.5,269.5,280.3,240.3,280.3z
			 M240.3,376.5c-24.9,0-45.1-19.8-45.1-44.3c0-24.5,20.2-44.3,45.1-44.3s45.1,19.8,45.1,44.3C285.4,356.6,265.2,376.5,240.3,376.5z
			"/>
		<path class="st3" d="M191.4,338.6c-0.2,0-0.3-0.1-0.3-0.3c-0.2-1.2-0.3-2.5-0.3-3.7c0-0.2,0.1-0.3,0.3-0.3c0.2,0,0.3,0.1,0.3,0.3
			c0.1,1.2,0.2,2.5,0.3,3.7C191.8,338.4,191.6,338.5,191.4,338.6C191.4,338.6,191.4,338.6,191.4,338.6z M191.8,324.1
			C191.8,324.1,191.7,324,191.8,324.1c-0.2,0-0.3-0.2-0.3-0.4c0.6-3.3,1.6-6.6,2.9-9.8l0,0c7.6-18.5,25.7-30.4,45.9-30.4
			c9.5,0,18.7,2.6,26.6,7.6c0.1,0.1,0.2,0.3,0.1,0.4c-0.1,0.1-0.3,0.2-0.4,0.1c-7.8-4.9-16.9-7.5-26.3-7.5c-20,0-37.8,11.8-45.4,30
			c0,0,0,0,0,0c-1.3,3.1-2.2,6.3-2.8,9.6C192.1,323.9,191.9,324.1,191.8,324.1z"/>
		<g>
			
				<linearGradient id="SVGID_00000031206064549807426990000009787585797762441659_" gradientUnits="userSpaceOnUse" x1="930.8525" y1="2165.2383" x2="912.6796" y2="2189.2795" gradientTransform="matrix(0.9897 -0.1428 0.1428 0.9897 -1068.6001 -1705.3149)">
				<stop  offset="0" style="stop-color:#FF928E"/>
				<stop  offset="1" style="stop-color:#FEB3B1"/>
			</linearGradient>
			<path style="fill:url(#SVGID_00000031206064549807426990000009787585797762441659_);" d="M165.4,304.1c0,0.2-3.1,15.8-3.1,15.8
				l-8.8-2l0.8-15.2C154.2,302.7,164.8,300.1,165.4,304.1z"/>
			
				<linearGradient id="SVGID_00000023263750766394087610000013629016594462777269_" gradientUnits="userSpaceOnUse" x1="145.2922" y1="308.652" x2="208.3444" y2="316.6241">
				<stop  offset="0" style="stop-color:#09005D"/>
				<stop  offset="1" style="stop-color:#1A0F91"/>
			</linearGradient>
			<path style="fill:url(#SVGID_00000023263750766394087610000013629016594462777269_);" d="M156.2,306.1l-1.1,7.9
				c0,0.1,0,0.2,0,0.3c0.1,0.6,0.6,2.7,2.7,2.1c1.9-0.6,3.7-1,5-0.6c0.6,0.2,0.9,0.7,0.8,1.3c-0.3,1.4-1,4.6-2,7.2
				c-0.2,0.5-0.8,0.8-1.4,0.7c-1.7-0.5-5.2-1.6-7.8-3.2c-0.4-0.2-0.6-0.6-0.5-1c0.1-2,0.3-8.1,0.1-9.8c-0.2-1.6-2.2-2.6-3-2.9
				c-0.3-0.1-0.5-0.3-0.6-0.6c-0.4-1-0.9-3.3,2-4.2c0.6-0.2,0.9-0.9,0.7-1.4c-0.4-1.2-0.6-3,1.6-4c2.3-1,4,0.2,4.9,1.2
				c0.4,0.4,1,0.5,1.4,0.2c0.3-0.2,0.6-0.2,1,0c0.5,0.3,1.3,0.1,1.6-0.5c0.5-1.1,1.7-2.3,3.9-1.9c4,0.7,4.4,5.1,3.4,7.6
				c-1,2.6-5.3,1.6-7.4,0.3c-1.6-1-3.7,0-4.6,0.6C156.5,305.4,156.3,305.7,156.2,306.1z"/>
			
				<linearGradient id="SVGID_00000032613283316495966060000015691850726482756233_" gradientUnits="userSpaceOnUse" x1="904.2363" y1="2184.2771" x2="918.8125" y2="2169.3223" gradientTransform="matrix(0.9897 -0.1428 0.1428 0.9897 -1068.6001 -1705.3149)">
				<stop  offset="0" style="stop-color:#FF928E"/>
				<stop  offset="1" style="stop-color:#FEB3B1"/>
			</linearGradient>
			<path style="fill:url(#SVGID_00000032613283316495966060000015691850726482756233_);" d="M151.6,313.9c0,0,1.6-4.6,0-5.7
				c-1.7-1.1-4.1-0.5-3.6,2.8C148.7,315.1,151.6,313.9,151.6,313.9z"/>
		</g>
		
			<linearGradient id="SVGID_00000183221773801494738630000007630990328494587013_" gradientUnits="userSpaceOnUse" x1="1272.6858" y1="372.69" x2="1247.5826" y2="394.9193" gradientTransform="matrix(1 0 0 1 -1140.7335 0)">
			<stop  offset="0" style="stop-color:#FF928E"/>
			<stop  offset="1" style="stop-color:#FEB3B1"/>
		</linearGradient>
		<path style="fill:url(#SVGID_00000183221773801494738630000007630990328494587013_);" d="M117.2,378.8l9.1-0.7l3.9,3.6
			c0,0-0.9,1.3-3.8,0.5c-2.9-0.7-6.9-0.9-6.9-0.9s-4,1.8-4.1-1.6L117.2,378.8z"/>
		
			<linearGradient id="SVGID_00000085968826362168559250000006951402361796173185_" gradientUnits="userSpaceOnUse" x1="1327.5005" y1="361.276" x2="1334.5801" y2="361.276" gradientTransform="matrix(1 0 0 1 -1140.7335 0)">
			<stop  offset="0" style="stop-color:#FF928E"/>
			<stop  offset="1" style="stop-color:#FEB3B1"/>
		</linearGradient>
		<path style="fill:url(#SVGID_00000085968826362168559250000006951402361796173185_);" d="M187.7,364.6c0.8,0.6,3.5-0.7,5.1-1.6
			c0.8-0.4,1.2-1.4,0.9-2.2c-0.4-1.3-1.1-2.9-1.9-3.1C190.5,357.4,184.5,362.1,187.7,364.6z"/>
		<path class="st3" d="M101.7,400.9c0,0-0.1,0-0.1,0c-3.7-1.3-4.6-3.5-4.7-5.1c-0.1-2.4,1.4-4.6,3.7-5.5l11.6-4.5
			c0.2-0.1,0.3,0,0.4,0.2c0.1,0.2,0,0.3-0.2,0.4l-11.6,4.5c-2.1,0.8-3.4,2.8-3.3,4.9c0.1,2.1,1.5,3.6,4.3,4.5
			c0.2,0.1,0.3,0.2,0.2,0.4C101.9,400.8,101.8,400.9,101.7,400.9z"/>
		<path class="st3" d="M115.8,385c-0.1,0-0.2-0.1-0.3-0.2c-0.1-0.2,0-0.3,0.2-0.4l1.5-0.6c0.2-0.1,0.3,0,0.4,0.2
			c0.1,0.2,0,0.3-0.2,0.4L116,385C115.9,385,115.9,385,115.8,385z"/>
	</g>
	<path class="st13" d="M230.6,252.4h-1.9c-0.7,0-1.3-0.6-1.3-1.3s0.6-1.3,1.3-1.3h1.9c0.7,0,1.3,0.6,1.3,1.3
		S231.3,252.4,230.6,252.4z M224.3,252.4h-1.9c-0.7,0-1.3-0.6-1.3-1.3s0.6-1.3,1.3-1.3h1.9c0.7,0,1.3,0.6,1.3,1.3
		S225,252.4,224.3,252.4z M217.9,252.4H216c-0.7,0-1.3-0.6-1.3-1.3s0.6-1.3,1.3-1.3h1.9c0.7,0,1.3,0.6,1.3,1.3
		S218.7,252.4,217.9,252.4z M211.6,252.4h-1.9c-0.7,0-1.3-0.6-1.3-1.3s0.6-1.3,1.3-1.3h1.9c0.7,0,1.3,0.6,1.3,1.3
		S212.3,252.4,211.6,252.4z M205.3,252.4h-1.9c-0.7,0-1.3-0.6-1.3-1.3s0.6-1.3,1.3-1.3h1.9c0.7,0,1.3,0.6,1.3,1.3
		S206,252.4,205.3,252.4z M198.9,252.4H197c-0.7,0-1.3-0.6-1.3-1.3s0.6-1.3,1.3-1.3h1.9c0.7,0,1.3,0.6,1.3,1.3
		S199.6,252.4,198.9,252.4z M192.6,252.4h-1.9c-0.7,0-1.3-0.6-1.3-1.3s0.6-1.3,1.3-1.3h1.9c0.7,0,1.3,0.6,1.3,1.3
		S193.3,252.4,192.6,252.4z M186.2,252.4h-1.9c-0.7,0-1.3-0.6-1.3-1.3s0.6-1.3,1.3-1.3h1.9c0.7,0,1.3,0.6,1.3,1.3
		S186.9,252.4,186.2,252.4z M179.9,252.4H178c-0.7,0-1.3-0.6-1.3-1.3s0.6-1.3,1.3-1.3h1.9c0.7,0,1.3,0.6,1.3,1.3
		S180.6,252.4,179.9,252.4z M173.5,252.4h-1.9c-0.7,0-1.3-0.6-1.3-1.3s0.6-1.3,1.3-1.3h1.9c0.7,0,1.3,0.6,1.3,1.3
		S174.2,252.4,173.5,252.4z M167.2,252.4h-1.9c-0.7,0-1.3-0.6-1.3-1.3s0.6-1.3,1.3-1.3h1.9c0.7,0,1.3,0.6,1.3,1.3
		S167.9,252.4,167.2,252.4z M160.8,252.4h-1.9c-0.7,0-1.3-0.6-1.3-1.3s0.6-1.3,1.3-1.3h1.9c0.7,0,1.3,0.6,1.3,1.3
		S161.6,252.4,160.8,252.4z M154.5,252.4h-1.9c-0.7,0-1.3-0.6-1.3-1.3s0.6-1.3,1.3-1.3h1.9c0.7,0,1.3,0.6,1.3,1.3
		S155.2,252.4,154.5,252.4z M148.2,252.4h-1.9c-0.7,0-1.3-0.6-1.3-1.3s0.6-1.3,1.3-1.3h1.9c0.7,0,1.3,0.6,1.3,1.3
		S148.9,252.4,148.2,252.4z M141.8,252.4h-1.9c-0.7,0-1.3-0.6-1.3-1.3s0.6-1.3,1.3-1.3h1.9c0.7,0,1.3,0.6,1.3,1.3
		S142.5,252.4,141.8,252.4z M135.5,252.4h-1.9c-0.7,0-1.3-0.6-1.3-1.3s0.6-1.3,1.3-1.3h1.9c0.7,0,1.3,0.6,1.3,1.3
		S136.2,252.4,135.5,252.4z M129.1,252.4h-1.9c-0.7,0-1.3-0.6-1.3-1.3s0.6-1.3,1.3-1.3h1.9c0.7,0,1.3,0.6,1.3,1.3
		S129.8,252.4,129.1,252.4z M122.8,252.4h-1.9c-0.7,0-1.3-0.6-1.3-1.3s0.6-1.3,1.3-1.3h1.9c0.7,0,1.3,0.6,1.3,1.3
		S123.5,252.4,122.8,252.4z M118.4,250.4C118.4,250.4,118.4,250.4,118.4,250.4c-0.7,0-1.3-0.6-1.3-1.3l0-1.9c0-0.7,0.6-1.2,1.3-1.3
		c0.7,0,1.3,0.6,1.3,1.3l0,1.9C119.7,249.8,119.1,250.4,118.4,250.4z M118.5,244C118.5,244,118.5,244,118.5,244
		c-0.7,0-1.3-0.6-1.3-1.3l0-1.9c0-0.7,0.6-1.3,1.3-1.3c0.7,0,1.3,0.6,1.3,1.3l0,1.9C119.8,243.5,119.2,244,118.5,244z M118.6,237.7
		C118.6,237.7,118.6,237.7,118.6,237.7c-0.7,0-1.3-0.6-1.3-1.3l0-1.9c0-0.7,0.6-1.3,1.3-1.3c0,0,0,0,0,0c0.7,0,1.3,0.6,1.3,1.3
		l0,1.9C119.9,237.1,119.3,237.7,118.6,237.7z M118.7,231.3C118.7,231.3,118.7,231.3,118.7,231.3c-0.7,0-1.3-0.6-1.3-1.3l0-1.9
		c0-0.7,0.6-1.3,1.3-1.3c0.7,0,1.3,0.6,1.3,1.3l0,1.9C120,230.8,119.4,231.3,118.7,231.3z M118.8,225C118.8,225,118.8,225,118.8,225
		c-0.7,0-1.3-0.6-1.3-1.3l0-1.9c0-0.7,0.6-1.3,1.3-1.3c0.7,0,1.3,0.6,1.3,1.3l0,1.9C120.1,224.4,119.5,225,118.8,225z M118.9,218.6
		C118.9,218.6,118.9,218.6,118.9,218.6c-0.7,0-1.3-0.6-1.3-1.3l0-1.9c0-0.7,0.6-1.3,1.3-1.3c0.7,0,1.3,0.6,1.3,1.3l0,1.9
		C120.1,218.1,119.6,218.6,118.9,218.6z M119,212.3C119,212.3,119,212.3,119,212.3c-0.7,0-1.3-0.6-1.3-1.3l0-1.9
		c0-0.7,0.6-1.3,1.3-1.3c0.7,0,1.3,0.6,1.3,1.3l0,1.9C120.2,211.7,119.7,212.3,119,212.3z M119,206C119,206,119,206,119,206
		c-0.7,0-1.3-0.6-1.3-1.3l0-1.9c0-0.7,0.6-1.3,1.3-1.3c0.7,0,1.3,0.6,1.3,1.3l0,1.9C120.3,205.4,119.7,206,119,206z M119.1,199.6
		C119.1,199.6,119.1,199.6,119.1,199.6c-0.7,0-1.3-0.6-1.3-1.3l0-1.9c0-0.7,0.6-1.3,1.3-1.3c0.7,0,1.3,0.6,1.3,1.3l0,1.9
		C120.4,199.1,119.8,199.6,119.1,199.6z M119.2,193.3C119.2,193.3,119.2,193.3,119.2,193.3c-0.7,0-1.3-0.6-1.3-1.3l0-1.9
		c0-0.7,0.6-1.2,1.3-1.3c0.7,0,1.3,0.6,1.3,1.3l0,1.9C120.5,192.7,119.9,193.3,119.2,193.3z M119.3,186.9
		C119.3,186.9,119.3,186.9,119.3,186.9c-0.7,0-1.3-0.6-1.3-1.3l0-1.9c0-0.7,0.6-1.3,1.3-1.3c0.7,0,1.3,0.6,1.3,1.3l0,1.9
		C120.6,186.4,120,186.9,119.3,186.9z M119.4,180.6C119.4,180.6,119.4,180.6,119.4,180.6c-0.7,0-1.3-0.6-1.3-1.3l0-1.9
		c0-0.7,0.6-1.3,1.3-1.3c0,0,0,0,0,0c0.7,0,1.3,0.6,1.3,1.3l0,1.9C120.7,180,120.1,180.6,119.4,180.6z M119.5,174.2
		C119.5,174.2,119.5,174.2,119.5,174.2c-0.7,0-1.3-0.6-1.3-1.3l0-1.9c0-0.7,0.6-1.3,1.3-1.3c0.7,0,1.3,0.6,1.3,1.3l0,1.9
		C120.7,173.7,120.2,174.2,119.5,174.2z M119.6,167.9C119.6,167.9,119.6,167.9,119.6,167.9c-0.7,0-1.3-0.6-1.3-1.3l0-1.9
		c0-0.7,0.6-1.3,1.3-1.3c0,0,0,0,0,0c0.7,0,1.3,0.6,1.3,1.3l0,1.9C120.8,167.3,120.3,167.9,119.6,167.9z M119.6,161.6
		C119.6,161.6,119.6,161.6,119.6,161.6c-0.7,0-1.3-0.6-1.3-1.3l0-1.9c0-0.7,0.6-1.3,1.3-1.3c0.7,0,1.3,0.6,1.3,1.3l0,1.9
		C120.9,161,120.3,161.6,119.6,161.6z M122.9,158.2c-0.7,0-1.2-0.5-1.3-1.2c-0.1-0.7,0.5-1.3,1.2-1.4l1.9-0.1c0.7,0,1.3,0.5,1.4,1.2
		c0.1,0.7-0.5,1.3-1.2,1.4l-1.9,0.1C123,158.2,123,158.2,122.9,158.2z M129.3,157.7c-0.7,0-1.2-0.5-1.3-1.2
		c-0.1-0.7,0.5-1.3,1.2-1.4l1.9-0.1c0.7-0.1,1.3,0.5,1.4,1.2c0.1,0.7-0.5,1.3-1.2,1.4l-1.9,0.1C129.3,157.7,129.3,157.7,129.3,157.7
		z M135.6,157.2c-0.7,0-1.2-0.5-1.3-1.2c-0.1-0.7,0.5-1.3,1.2-1.4l1.9-0.1c0.7,0,1.3,0.5,1.4,1.2c0.1,0.7-0.5,1.3-1.2,1.4l-1.9,0.1
		C135.6,157.2,135.6,157.2,135.6,157.2z M141.9,156.7c-0.7,0-1.2-0.5-1.3-1.2c-0.1-0.7,0.5-1.3,1.2-1.4l1.9-0.1
		c0.7-0.1,1.3,0.5,1.4,1.2c0.1,0.7-0.5,1.3-1.2,1.4l-1.9,0.1C142,156.7,141.9,156.7,141.9,156.7z"/>
	<path class="st13" d="M334.8,200.8c-0.7,0-1.3-0.6-1.3-1.3v-1.9c0-0.7,0.6-1.3,1.3-1.3c0.7,0,1.3,0.6,1.3,1.3v1.9
		C336.1,200.3,335.5,200.8,334.8,200.8z M334.8,194.5c-0.7,0-1.3-0.6-1.3-1.3v-1.9c0-0.7,0.6-1.3,1.3-1.3c0.7,0,1.3,0.6,1.3,1.3v1.9
		C336.1,193.9,335.5,194.5,334.8,194.5z M334.8,188.2c-0.7,0-1.3-0.6-1.3-1.3V185c0-0.7,0.6-1.3,1.3-1.3c0.7,0,1.3,0.6,1.3,1.3v1.9
		C336.1,187.6,335.5,188.2,334.8,188.2z M334.8,181.8c-0.7,0-1.3-0.6-1.3-1.3v-1.9c0-0.7,0.6-1.3,1.3-1.3c0.7,0,1.3,0.6,1.3,1.3v1.9
		C336.1,181.2,335.5,181.8,334.8,181.8z M334.8,175.5c-0.7,0-1.3-0.6-1.3-1.3v-1.9c0-0.7,0.6-1.3,1.3-1.3c0.7,0,1.3,0.6,1.3,1.3v1.9
		C336.1,174.9,335.5,175.5,334.8,175.5z M334.8,169.1c-0.7,0-1.3-0.6-1.3-1.3v-1.9c0-0.7,0.6-1.3,1.3-1.3c0.7,0,1.3,0.6,1.3,1.3v1.9
		C336.1,168.6,335.5,169.1,334.8,169.1z M334.8,162.8c-0.7,0-1.3-0.6-1.3-1.3v-1.9c0-0.7,0.6-1.3,1.3-1.3c0.7,0,1.3,0.6,1.3,1.3v1.9
		C336.1,162.2,335.5,162.8,334.8,162.8z M334.8,156.4c-0.7,0-1.3-0.6-1.3-1.3v-1.9c0-0.7,0.6-1.3,1.3-1.3c0.7,0,1.3,0.6,1.3,1.3v1.9
		C336.1,155.9,335.5,156.4,334.8,156.4z M334.8,150.1c-0.7,0-1.3-0.6-1.3-1.3v-1.9c0-0.7,0.6-1.3,1.3-1.3c0.7,0,1.3,0.6,1.3,1.3v1.9
		C336.1,149.5,335.5,150.1,334.8,150.1z M334.8,143.7c-0.7,0-1.3-0.6-1.3-1.3v-1.9c0-0.7,0.6-1.3,1.3-1.3c0.7,0,1.3,0.6,1.3,1.3v1.9
		C336.1,143.2,335.5,143.7,334.8,143.7z M334.8,137.4c-0.7,0-1.3-0.6-1.3-1.3v-1.9c0-0.7,0.6-1.3,1.3-1.3c0.7,0,1.3,0.6,1.3,1.3v1.9
		C336.1,136.8,335.5,137.4,334.8,137.4z M334.8,131.1c-0.7,0-1.3-0.6-1.3-1.3v-1.9c0-0.7,0.6-1.3,1.3-1.3c0.7,0,1.3,0.6,1.3,1.3v1.9
		C336.1,130.5,335.5,131.1,334.8,131.1z M334.8,124.7c-0.7,0-1.3-0.6-1.3-1.3v-1.9c0-0.7,0.6-1.3,1.3-1.3c0.7,0,1.3,0.6,1.3,1.3v1.9
		C336.1,124.1,335.5,124.7,334.8,124.7z M334.8,118.4c-0.7,0-1.3-0.6-1.3-1.3v-1.9c0-0.7,0.6-1.3,1.3-1.3c0.7,0,1.3,0.6,1.3,1.3v1.9
		C336.1,117.8,335.5,118.4,334.8,118.4z M332.4,114.4h-1.9c-0.7,0-1.3-0.6-1.3-1.3c0-0.7,0.6-1.3,1.3-1.3h1.9c0.7,0,1.3,0.6,1.3,1.3
		C333.7,113.8,333.1,114.4,332.4,114.4z M326,114.4h-1.9c-0.7,0-1.3-0.6-1.3-1.3c0-0.7,0.6-1.3,1.3-1.3h1.9c0.7,0,1.3,0.6,1.3,1.3
		C327.3,113.8,326.7,114.4,326,114.4z M319.7,114.4h-1.9c-0.7,0-1.3-0.6-1.3-1.3c0-0.7,0.6-1.3,1.3-1.3h1.9c0.7,0,1.3,0.6,1.3,1.3
		C321,113.8,320.4,114.4,319.7,114.4z M313.3,114.4h-1.9c-0.7,0-1.3-0.6-1.3-1.3c0-0.7,0.6-1.3,1.3-1.3h1.9c0.7,0,1.3,0.6,1.3,1.3
		C314.6,113.8,314.1,114.4,313.3,114.4z M307,114.4h-1.9c-0.7,0-1.3-0.6-1.3-1.3c0-0.7,0.6-1.3,1.3-1.3h1.9c0.7,0,1.3,0.6,1.3,1.3
		C308.3,113.8,307.7,114.4,307,114.4z M300.7,114.4h-1.9c-0.7,0-1.3-0.6-1.3-1.3c0-0.7,0.6-1.3,1.3-1.3h1.9c0.7,0,1.3,0.6,1.3,1.3
		C301.9,113.8,301.4,114.4,300.7,114.4z M294.3,114.4h-1.9c-0.7,0-1.3-0.6-1.3-1.3c0-0.7,0.6-1.3,1.3-1.3h1.9c0.7,0,1.3,0.6,1.3,1.3
		C295.6,113.8,295,114.4,294.3,114.4z"/>
	<path class="st13" d="M428.7,196.5c-0.7,0-1.3-0.6-1.3-1.3v-1.9c0-0.7,0.6-1.3,1.3-1.3s1.3,0.6,1.3,1.3v1.9
		C430,195.9,429.4,196.5,428.7,196.5z M428.7,190.2c-0.7,0-1.3-0.6-1.3-1.3V187c0-0.7,0.6-1.3,1.3-1.3s1.3,0.6,1.3,1.3v1.9
		C430,189.6,429.4,190.2,428.7,190.2z M428.7,183.8c-0.7,0-1.3-0.6-1.3-1.3v-1.9c0-0.7,0.6-1.3,1.3-1.3s1.3,0.6,1.3,1.3v1.9
		C430,183.3,429.4,183.8,428.7,183.8z M428.7,177.5c-0.7,0-1.3-0.6-1.3-1.3v-1.9c0-0.7,0.6-1.3,1.3-1.3s1.3,0.6,1.3,1.3v1.9
		C430,176.9,429.4,177.5,428.7,177.5z M428.7,171.1c-0.7,0-1.3-0.6-1.3-1.3V168c0-0.7,0.6-1.3,1.3-1.3s1.3,0.6,1.3,1.3v1.9
		C430,170.6,429.4,171.1,428.7,171.1z M428.7,164.8c-0.7,0-1.3-0.6-1.3-1.3v-1.9c0-0.7,0.6-1.3,1.3-1.3s1.3,0.6,1.3,1.3v1.9
		C430,164.2,429.4,164.8,428.7,164.8z M428.7,158.5c-0.7,0-1.3-0.6-1.3-1.3v-1.9c0-0.7,0.6-1.3,1.3-1.3s1.3,0.6,1.3,1.3v1.9
		C430,157.9,429.4,158.5,428.7,158.5z M428.7,152.1c-0.7,0-1.3-0.6-1.3-1.3v-1.9c0-0.7,0.6-1.3,1.3-1.3s1.3,0.6,1.3,1.3v1.9
		C430,151.5,429.4,152.1,428.7,152.1z M428.7,145.8c-0.7,0-1.3-0.6-1.3-1.3v-1.9c0-0.7,0.6-1.3,1.3-1.3s1.3,0.6,1.3,1.3v1.9
		C430,145.2,429.4,145.8,428.7,145.8z M428.7,139.4c-0.7,0-1.3-0.6-1.3-1.3v-1.9c0-0.7,0.6-1.3,1.3-1.3s1.3,0.6,1.3,1.3v1.9
		C430,138.8,429.4,139.4,428.7,139.4z M428.7,133.1c-0.7,0-1.3-0.6-1.3-1.3v-1.9c0-0.7,0.6-1.3,1.3-1.3s1.3,0.6,1.3,1.3v1.9
		C430,132.5,429.4,133.1,428.7,133.1z M428.7,126.7c-0.7,0-1.3-0.6-1.3-1.3v-1.9c0-0.7,0.6-1.3,1.3-1.3s1.3,0.6,1.3,1.3v1.9
		C430,126.2,429.4,126.7,428.7,126.7z M428.7,120.4c-0.7,0-1.3-0.6-1.3-1.3v-1.9c0-0.7,0.6-1.3,1.3-1.3s1.3,0.6,1.3,1.3v1.9
		C430,119.8,429.4,120.4,428.7,120.4z M428.7,114c-0.7,0-1.3-0.6-1.3-1.3v-1.9c0-0.7,0.6-1.3,1.3-1.3s1.3,0.6,1.3,1.3v1.9
		C430,113.5,429.4,114,428.7,114z M428.7,107.7c-0.7,0-1.3-0.6-1.3-1.3v-1.9c0-0.7,0.6-1.3,1.3-1.3s1.3,0.6,1.3,1.3v1.9
		C430,107.1,429.4,107.7,428.7,107.7z M428.7,101.4c-0.7,0-1.3-0.6-1.3-1.3v-1.9c0-0.7,0.6-1.3,1.3-1.3s1.3,0.6,1.3,1.3v1.9
		C430,100.8,429.4,101.4,428.7,101.4z M428.7,95c-0.7,0-1.3-0.6-1.3-1.3v-1.9c0-0.7,0.6-1.3,1.3-1.3s1.3,0.6,1.3,1.3v1.9
		C430,94.4,429.4,95,428.7,95z M485.8,93.1h-1.9c-0.7,0-1.3-0.6-1.3-1.3c0-0.7,0.6-1.3,1.3-1.3h1.9c0.7,0,1.3,0.6,1.3,1.3
		C487.1,92.5,486.5,93.1,485.8,93.1z M479.4,93.1h-1.9c-0.7,0-1.3-0.6-1.3-1.3c0-0.7,0.6-1.3,1.3-1.3h1.9c0.7,0,1.3,0.6,1.3,1.3
		C480.7,92.5,480.1,93.1,479.4,93.1z M473.1,93.1h-1.9c-0.7,0-1.3-0.6-1.3-1.3c0-0.7,0.6-1.3,1.3-1.3h1.9c0.7,0,1.3,0.6,1.3,1.3
		C474.4,92.5,473.8,93.1,473.1,93.1z M466.7,93.1h-1.9c-0.7,0-1.3-0.6-1.3-1.3c0-0.7,0.6-1.3,1.3-1.3h1.9c0.7,0,1.3,0.6,1.3,1.3
		C468,92.5,467.4,93.1,466.7,93.1z M460.4,93.1h-1.9c-0.7,0-1.3-0.6-1.3-1.3c0-0.7,0.6-1.3,1.3-1.3h1.9c0.7,0,1.3,0.6,1.3,1.3
		C461.7,92.5,461.1,93.1,460.4,93.1z M454.1,93.1h-1.9c-0.7,0-1.3-0.6-1.3-1.3c0-0.7,0.6-1.3,1.3-1.3h1.9c0.7,0,1.3,0.6,1.3,1.3
		C455.3,92.5,454.8,93.1,454.1,93.1z M447.7,93.1h-1.9c-0.7,0-1.3-0.6-1.3-1.3c0-0.7,0.6-1.3,1.3-1.3h1.9c0.7,0,1.3,0.6,1.3,1.3
		C449,92.5,448.4,93.1,447.7,93.1z M441.4,93.1h-1.9c-0.7,0-1.3-0.6-1.3-1.3c0-0.7,0.6-1.3,1.3-1.3h1.9c0.7,0,1.3,0.6,1.3,1.3
		C442.6,92.5,442.1,93.1,441.4,93.1z M435,93.1h-1.9c-0.7,0-1.3-0.6-1.3-1.3c0-0.7,0.6-1.3,1.3-1.3h1.9c0.7,0,1.3,0.6,1.3,1.3
		C436.3,92.5,435.7,93.1,435,93.1z"/>
	<path class="st13" d="M598.1,440.2h-1.3c-0.7,0-1.3-0.6-1.3-1.3c0-0.7,0.6-1.3,1.3-1.3h1.3c0.7,0,1.3,0.6,1.3,1.3
		C599.4,439.6,598.8,440.2,598.1,440.2z M592.4,440.2h-1.9c-0.7,0-1.3-0.6-1.3-1.3c0-0.7,0.6-1.3,1.3-1.3h1.9c0.7,0,1.3,0.6,1.3,1.3
		C593.6,439.6,593.1,440.2,592.4,440.2z M586,440.2h-1.9c-0.7,0-1.3-0.6-1.3-1.3c0-0.7,0.6-1.3,1.3-1.3h1.9c0.7,0,1.3,0.6,1.3,1.3
		C587.3,439.6,586.7,440.2,586,440.2z M579.7,440.2h-1.9c-0.7,0-1.3-0.6-1.3-1.3c0-0.7,0.6-1.3,1.3-1.3h1.9c0.7,0,1.3,0.6,1.3,1.3
		C581,439.6,580.4,440.2,579.7,440.2z M573.3,440.2h-1.9c-0.7,0-1.3-0.6-1.3-1.3c0-0.7,0.6-1.3,1.3-1.3h1.9c0.7,0,1.3,0.6,1.3,1.3
		C574.6,439.6,574,440.2,573.3,440.2z M567,440.2h-1.9c-0.7,0-1.3-0.6-1.3-1.3c0-0.7,0.6-1.3,1.3-1.3h1.9c0.7,0,1.3,0.6,1.3,1.3
		C568.3,439.6,567.7,440.2,567,440.2z M560.6,440.2h-1.9c-0.7,0-1.3-0.6-1.3-1.3c0-0.7,0.6-1.3,1.3-1.3h1.9c0.7,0,1.3,0.6,1.3,1.3
		C561.9,439.6,561.3,440.2,560.6,440.2z M554.3,440.2h-1.9c-0.7,0-1.3-0.6-1.3-1.3c0-0.7,0.6-1.3,1.3-1.3h1.9c0.7,0,1.3,0.6,1.3,1.3
		C555.6,439.6,555,440.2,554.3,440.2z M548,440.2H546c-0.7,0-1.3-0.6-1.3-1.3c0-0.7,0.6-1.3,1.3-1.3h1.9c0.7,0,1.3,0.6,1.3,1.3
		C549.2,439.6,548.7,440.2,548,440.2z M541.6,440.2h-1.9c-0.7,0-1.3-0.6-1.3-1.3c0-0.7,0.6-1.3,1.3-1.3h1.9c0.7,0,1.3,0.6,1.3,1.3
		C542.9,439.6,542.3,440.2,541.6,440.2z M535.3,440.2h-1.9c-0.7,0-1.3-0.6-1.3-1.3c0-0.7,0.6-1.3,1.3-1.3h1.9c0.7,0,1.3,0.6,1.3,1.3
		C536.5,439.6,536,440.2,535.3,440.2z M528.9,440.2H527c-0.7,0-1.3-0.6-1.3-1.3c0-0.7,0.6-1.3,1.3-1.3h1.9c0.7,0,1.3,0.6,1.3,1.3
		C530.2,439.6,529.6,440.2,528.9,440.2z M522.6,440.2h-1.9c-0.7,0-1.3-0.6-1.3-1.3c0-0.7,0.6-1.3,1.3-1.3h1.9c0.7,0,1.3,0.6,1.3,1.3
		C523.9,439.6,523.3,440.2,522.6,440.2z M516.9,439.5c-0.7,0-1.3-0.6-1.3-1.3v-1.9c0-0.7,0.6-1.3,1.3-1.3s1.3,0.6,1.3,1.3v1.9
		C518.1,438.9,517.6,439.5,516.9,439.5z M516.9,433.2c-0.7,0-1.3-0.6-1.3-1.3V430c0-0.7,0.6-1.3,1.3-1.3s1.3,0.6,1.3,1.3v1.9
		C518.1,432.6,517.6,433.2,516.9,433.2z M516.9,426.8c-0.7,0-1.3-0.6-1.3-1.3v-1.9c0-0.7,0.6-1.3,1.3-1.3s1.3,0.6,1.3,1.3v1.9
		C518.1,426.3,517.6,426.8,516.9,426.8z M516.9,420.5c-0.7,0-1.3-0.6-1.3-1.3v-1.9c0-0.7,0.6-1.3,1.3-1.3s1.3,0.6,1.3,1.3v1.9
		C518.1,419.9,517.6,420.5,516.9,420.5z M516.9,414.1c-0.7,0-1.3-0.6-1.3-1.3V411c0-0.7,0.6-1.3,1.3-1.3s1.3,0.6,1.3,1.3v1.9
		C518.1,413.6,517.6,414.1,516.9,414.1z M516.9,407.8c-0.7,0-1.3-0.6-1.3-1.3v-1.9c0-0.7,0.6-1.3,1.3-1.3s1.3,0.6,1.3,1.3v1.9
		C518.1,407.2,517.6,407.8,516.9,407.8z M516.9,401.5c-0.7,0-1.3-0.6-1.3-1.3v-1.9c0-0.7,0.6-1.3,1.3-1.3s1.3,0.6,1.3,1.3v1.9
		C518.1,400.9,517.6,401.5,516.9,401.5z M516.9,395.1c-0.7,0-1.3-0.6-1.3-1.3v-1.9c0-0.7,0.6-1.3,1.3-1.3s1.3,0.6,1.3,1.3v1.9
		C518.1,394.5,517.6,395.1,516.9,395.1z M516.9,388.8c-0.7,0-1.3-0.6-1.3-1.3v-1.9c0-0.7,0.6-1.3,1.3-1.3s1.3,0.6,1.3,1.3v1.9
		C518.1,388.2,517.6,388.8,516.9,388.8z M516.9,382.4c-0.7,0-1.3-0.6-1.3-1.3v-1.9c0-0.7,0.6-1.3,1.3-1.3s1.3,0.6,1.3,1.3v1.9
		C518.1,381.8,517.6,382.4,516.9,382.4z M516.9,376.1c-0.7,0-1.3-0.6-1.3-1.3v-1.9c0-0.7,0.6-1.3,1.3-1.3s1.3,0.6,1.3,1.3v1.9
		C518.1,375.5,517.6,376.1,516.9,376.1z"/>
	<path class="st13" d="M262.8,442.7h-1c-0.7,0-1.3-0.6-1.3-1.3c0-0.7,0.6-1.3,1.3-1.3h0.3l0.8-0.5c0.6-0.4,1.4-0.1,1.7,0.5
		c0.4,0.6,0.1,1.4-0.5,1.7L262.8,442.7z M257.4,442.7h-1.9c-0.7,0-1.3-0.6-1.3-1.3c0-0.7,0.6-1.3,1.3-1.3h1.9c0.7,0,1.3,0.6,1.3,1.3
		C258.6,442.1,258.1,442.7,257.4,442.7z M251,442.7h-1.9c-0.7,0-1.3-0.6-1.3-1.3c0-0.7,0.6-1.3,1.3-1.3h1.9c0.7,0,1.3,0.6,1.3,1.3
		C252.3,442.1,251.7,442.7,251,442.7z M244.7,442.7h-1.9c-0.7,0-1.3-0.6-1.3-1.3c0-0.7,0.6-1.3,1.3-1.3h1.9c0.7,0,1.3,0.6,1.3,1.3
		C246,442.1,245.4,442.7,244.7,442.7z M238.3,442.7h-1.9c-0.7,0-1.3-0.6-1.3-1.3c0-0.7,0.6-1.3,1.3-1.3h1.9c0.7,0,1.3,0.6,1.3,1.3
		C239.6,442.1,239,442.7,238.3,442.7z M232,442.7h-1.9c-0.7,0-1.3-0.6-1.3-1.3c0-0.7,0.6-1.3,1.3-1.3h1.9c0.7,0,1.3,0.6,1.3,1.3
		C233.3,442.1,232.7,442.7,232,442.7z M225.6,442.7h-1.9c-0.7,0-1.3-0.6-1.3-1.3c0-0.7,0.6-1.3,1.3-1.3h1.9c0.7,0,1.3,0.6,1.3,1.3
		C226.9,442.1,226.4,442.7,225.6,442.7z M219.3,442.7h-1.9c-0.7,0-1.3-0.6-1.3-1.3c0-0.7,0.6-1.3,1.3-1.3h1.9c0.7,0,1.3,0.6,1.3,1.3
		C220.6,442.1,220,442.7,219.3,442.7z M213,442.7h-1.9c-0.7,0-1.3-0.6-1.3-1.3c0-0.7,0.6-1.3,1.3-1.3h1.9c0.7,0,1.3,0.6,1.3,1.3
		C214.2,442.1,213.7,442.7,213,442.7z M206.6,442.7h-1.9c-0.7,0-1.3-0.6-1.3-1.3c0-0.7,0.6-1.3,1.3-1.3h1.9c0.7,0,1.3,0.6,1.3,1.3
		C207.9,442.1,207.3,442.7,206.6,442.7z M200.3,442.7h-1.9c-0.7,0-1.3-0.6-1.3-1.3c0-0.7,0.6-1.3,1.3-1.3h1.9c0.7,0,1.3,0.6,1.3,1.3
		C201.5,442.1,201,442.7,200.3,442.7z M193.9,442.7H192c-0.7,0-1.3-0.6-1.3-1.3c0-0.7,0.6-1.3,1.3-1.3h1.9c0.7,0,1.3,0.6,1.3,1.3
		C195.2,442.1,194.6,442.7,193.9,442.7z M187.6,442.7h-1.9c-0.7,0-1.3-0.6-1.3-1.3c0-0.7,0.6-1.3,1.3-1.3h1.9c0.7,0,1.3,0.6,1.3,1.3
		C188.9,442.1,188.3,442.7,187.6,442.7z M181.2,442.7h-1.9c-0.7,0-1.3-0.6-1.3-1.3c0-0.7,0.6-1.3,1.3-1.3h1.9c0.7,0,1.3,0.6,1.3,1.3
		C182.5,442.1,181.9,442.7,181.2,442.7z M174.9,442.7H173c-0.7,0-1.3-0.6-1.3-1.3c0-0.7,0.6-1.3,1.3-1.3h1.9c0.7,0,1.3,0.6,1.3,1.3
		C176.2,442.1,175.6,442.7,174.9,442.7z M168.5,442.7h-1.9c-0.7,0-1.3-0.6-1.3-1.3c0-0.7,0.6-1.3,1.3-1.3h1.9c0.7,0,1.3,0.6,1.3,1.3
		C169.8,442.1,169.3,442.7,168.5,442.7z M162.2,442.7h-1.9c-0.7,0-1.3-0.6-1.3-1.3c0-0.7,0.6-1.3,1.3-1.3h1.9c0.7,0,1.3,0.6,1.3,1.3
		C163.5,442.1,162.9,442.7,162.2,442.7z M156.5,442.1c-0.7,0-1.3-0.6-1.3-1.3v-1.9c0-0.7,0.6-1.3,1.3-1.3c0.7,0,1.3,0.6,1.3,1.3v1.9
		C157.8,441.5,157.2,442.1,156.5,442.1z M156.5,435.7c-0.7,0-1.3-0.6-1.3-1.3v-1.9c0-0.7,0.6-1.3,1.3-1.3c0.7,0,1.3,0.6,1.3,1.3v1.9
		C157.8,435.1,157.2,435.7,156.5,435.7z M156.5,429.4c-0.7,0-1.3-0.6-1.3-1.3v-1.9c0-0.7,0.6-1.3,1.3-1.3c0.7,0,1.3,0.6,1.3,1.3v1.9
		C157.8,428.8,157.2,429.4,156.5,429.4z M156.5,423c-0.7,0-1.3-0.6-1.3-1.3v-1.9c0-0.7,0.6-1.3,1.3-1.3c0.7,0,1.3,0.6,1.3,1.3v1.9
		C157.8,422.5,157.2,423,156.5,423z M156.5,416.7c-0.7,0-1.3-0.6-1.3-1.3v-1.9c0-0.7,0.6-1.3,1.3-1.3c0.7,0,1.3,0.6,1.3,1.3v1.9
		C157.8,416.1,157.2,416.7,156.5,416.7z M156.5,410.3c-0.7,0-1.3-0.6-1.3-1.3v-1.9c0-0.7,0.6-1.3,1.3-1.3c0.7,0,1.3,0.6,1.3,1.3v1.9
		C157.8,409.8,157.2,410.3,156.5,410.3z M156.5,404c-0.7,0-1.3-0.6-1.3-1.3v-1.9c0-0.7,0.6-1.3,1.3-1.3c0.7,0,1.3,0.6,1.3,1.3v1.9
		C157.8,403.4,157.2,404,156.5,404z M156.5,397.6c-0.7,0-1.3-0.6-1.3-1.3v-1.9c0-0.7,0.6-1.3,1.3-1.3c0.7,0,1.3,0.6,1.3,1.3v1.9
		C157.8,397.1,157.2,397.6,156.5,397.6z M156.5,391.3c-0.7,0-1.3-0.6-1.3-1.3v-1.9c0-0.7,0.6-1.3,1.3-1.3c0.7,0,1.3,0.6,1.3,1.3v1.9
		C157.8,390.7,157.2,391.3,156.5,391.3z M173,386.9h-1.9c-0.7,0-1.3-0.6-1.3-1.3c0-0.7,0.6-1.3,1.3-1.3h1.9c0.7,0,1.3,0.6,1.3,1.3
		C174.3,386.3,173.7,386.9,173,386.9z M166.6,386.9h-1.9c-0.7,0-1.3-0.6-1.3-1.3c0-0.7,0.6-1.3,1.3-1.3h1.9c0.7,0,1.3,0.6,1.3,1.3
		C167.9,386.3,167.3,386.9,166.6,386.9z M160.3,386.9h-1.9c-0.7,0-1.3-0.6-1.3-1.3c0-0.7,0.6-1.3,1.3-1.3h1.9c0.7,0,1.3,0.6,1.3,1.3
		C161.6,386.3,161,386.9,160.3,386.9z"/>
	<g>
		<path class="st4" d="M710.6,478.5c0,0,37-46.4,39.5-89.4c2.5-43-6.7-14.4-12.5,6.1s-13.1,34.1-18.4,37.8
			c-5.3,3.7,13-26.9,18.5-59.3c5.4-32.4,4.9-52.6-3.6-34.1c-8.5,18.4-14.2,51.6-23.5,70c-9.3,18.4-2.8-3.4-1.9-14.9
			s2.2-33.7-7.1-33.8c-9.3-0.1-6.7,29.7-16.9,53.4c-10.1,23.7-53.7,64.2-53.7,64.2H710.6z"/>
		<path class="st8" d="M746.6,378.4c-1,4.3-2.1,8.7-3.3,13c-0.3,1.1-0.6,2.1-0.9,3.2l-0.9,3.2l-1.9,6.4c-2.6,8.5-5.5,16.9-8.6,25.1
			c-3.1,8.3-6.6,16.3-10.2,24.3l-2.8,5.9c-0.2,0.5-0.5,1-0.7,1.5l-0.8,1.4l-1.5,2.9l-1.5,2.9c-0.5,1-1.1,1.9-1.6,2.8
			c-1.1,1.9-2.2,3.8-3.2,5.7l0,0c-0.1,0.1,0,0.3,0.1,0.3c0.1,0.1,0.2,0,0.3-0.1c1.2-1.8,2.4-3.6,3.5-5.4c0.6-0.9,1.2-1.8,1.8-2.7
			l1.6-2.8l1.6-2.8l0.8-1.4c0.3-0.5,0.5-0.9,0.8-1.4l3-5.9c1-1.9,1.9-4,2.8-6l1.4-3c0.2-0.5,0.5-1,0.7-1.5l0.6-1.5l2.5-6.1
			c0.8-2.1,1.6-4.1,2.4-6.2c3.1-8.3,5.9-16.8,8.3-25.4c0.6-2.2,1.2-4.3,1.8-6.5c0.5-2.2,1.1-4.3,1.6-6.5l0.8-3.3l0.7-3.3
			c0.5-2.2,0.9-4.4,1.3-6.6c0-0.1,0-0.3-0.2-0.3C746.7,378.2,746.6,378.3,746.6,378.4L746.6,378.4z"/>
		<path class="st8" d="M735.3,350.4c-3.2,10.7-6.5,21.4-9.8,32.1c-3.3,10.7-6.7,21.3-10.2,31.9c-1.7,5.3-3.6,10.6-5.4,15.8l-1.4,3.9
			c-0.5,1.3-0.9,2.6-1.4,3.9l-1.4,3.9l-1.4,3.9c-1,2.6-1.9,5.2-3,7.8c-0.5,1.3-1,2.6-1.5,3.9c-0.5,1.3-1,2.6-1.6,3.8
			c-2.1,5.1-4.3,10.2-6.8,15.1c-0.1,0.1,0,0.3,0.1,0.3c0.1,0.1,0.2,0,0.3-0.1c3-4.5,5.6-9.4,8.1-14.4c1.2-2.5,2.4-5,3.5-7.5
			c1.1-2.5,2.2-5.1,3.3-7.7c4.2-10.3,7.9-20.9,11.3-31.6c3.4-10.7,6.6-21.4,9.6-32.3c2.9-10.8,5.7-21.7,8.1-32.8
			c0-0.1,0-0.3-0.1-0.3C735.4,350.2,735.3,350.2,735.3,350.4z"/>
		<path class="st8" d="M702.3,378.4c-0.9,4.4-1.3,8.9-1.8,13.2c-0.2,2.2-0.5,4.4-0.7,6.5c-0.2,1.1-0.3,2.1-0.5,3.2
			c-0.1,0.5-0.2,1.1-0.3,1.6l-0.3,1.6c-0.3,2.1-0.8,4.2-1.3,6.4c-0.1,0.3-0.1,0.5-0.2,0.8l-0.2,0.8l-0.4,1.6l-0.8,3.1l-2,6.2
			l-2.2,6.1c-3.1,8-6.6,15.9-10.3,23.7c-0.9,2-1.9,3.9-2.8,5.8l-2.8,5.8c-2,3.8-3.9,7.7-5.8,11.5l0,0c-0.1,0.1,0,0.3,0.1,0.3
			c0.1,0.1,0.2,0,0.3-0.1c2.3-3.6,4.5-7.3,6.7-10.9c2.1-3.7,4.3-7.4,6.3-11.2c1-1.9,2-3.8,3-5.7l0.7-1.4c0.2-0.5,0.5-1,0.7-1.5
			l1.4-2.9c1.9-3.9,3.6-7.9,5.3-12c3.3-8.1,6-16.7,7.5-25.6l0.3-1.7c0.1-0.6,0.2-1.1,0.2-1.7c0.1-1.1,0.2-2.2,0.4-3.4
			c0.1-1.1,0.1-2.3,0.2-3.4c0.1-1.1,0.1-2.3,0.1-3.4c0-4.5-0.2-8.9-0.5-13.4c0-0.1-0.1-0.2-0.2-0.2
			C702.4,378.3,702.3,378.3,702.3,378.4z"/>
	</g>
</g>
</svg>
