<?xml version="1.0" encoding="utf-8"?>
<!-- Generator: Adobe Illustrator 26.2.1, SVG Export Plug-In . SVG Version: 6.00 Build 0)  -->
<svg version="1.1" id="Layer_1" xmlns="http://www.w3.org/2000/svg" xmlns:xlink="http://www.w3.org/1999/xlink" x="0px" y="0px"
	 viewBox="0 0 2258.6 2000" style="enable-background:new 0 0 2258.6 2000;" xml:space="preserve">
<style type="text/css">
	.st0{opacity:0.18;fill:#32323F;}
	.st1{fill:#DB9923;}
	.st2{fill:#754942;}
	.st3{opacity:0.16;fill:#1F1F39;}
	.st4{fill:#3B3B4D;}
	.st5{fill:#FFFFFF;}
	.st6{opacity:0.26;fill:#3D3D59;}
	.st7{fill:#EFAEA6;}
	.st8{opacity:0.14;fill:#1F1F39;}
	.st9{fill:#0267A4;}
	.st10{opacity:0.11;fill:#1F1F39;}
	.st11{fill:#0069A8;}
	.st12{opacity:0.18;fill:#1F1F39;}
	.st13{fill:#1F1F39;}
	.st14{opacity:0.18;fill:#FFFFFF;}
	.st15{fill:#F4AD00;}
	.st16{fill:#F2B233;}
	.st17{opacity:0.75;}
	.st18{opacity:0.19;}
	.st19{fill:#EA4F26;}
	.st20{opacity:0.65;}
	.st21{fill:#CC820A;}
	.st22{fill:#F4C83D;}
	.st23{fill:none;stroke:#FFFFFF;stroke-width:23.989;stroke-linecap:round;stroke-miterlimit:10;}
	.st24{fill:#575759;}
	.st25{opacity:0.6;fill:#2C2C42;}
	.st26{fill:#AAAAAF;}
</style>
<path class="st0" d="M608.9,1796.3c0,10,245.4,21.7,528.1,21.7s512-8.1,512-18.2s-229.2-18.2-512-18.2S608.9,1786.3,608.9,1796.3z"
	/>
<path class="st1" d="M1508.2,1005.3c-123-49.8-286.9-37.6-388.9-37.6c-102,0-359,23.9-357.4,41.7c1.6,17.8,86.6,180.5,188.6,180.5
	s475.9-88.6,475.9-88.6L1508.2,1005.3z"/>
<g>
	<g>
		<path class="st2" d="M1496.8,767.2c0,2.6,0.2,5.9,1.6,8.5c1.4,2.5,4,4.3,8.8,4.4c9.1,0.2,10.1-4.3,22.1-3
			c11.9,1.3,34.2,15.4,42,15.1c7-0.3,179.7,26.2,212.2,19.8c1.1-0.2,2.1-0.5,2.8-0.8c1.5-0.6,2.3-1.3,2.4-2.2
			c0.1-1.1,0.2-2.7,0.3-4.9c1-21.9,0.2-93.6-5-116.7c-1-4.6-2.3-7.3-3.7-7.2c-1.2,0-3.5,0.5-6.8,1.2
			c-34.4,7.8-173.6,49.8-198.2,53.7c-26.1,4.2-36.8,21.4-44.3,22.2c-10.5,1.2-9.6-2.8-24.9-1.9
			C1497.9,756.1,1496.8,764,1496.8,767.2z"/>
		<path class="st3" d="M1498.4,775.7c1.4,2.5,4,4.3,8.8,4.4c9.1,0.2,10.1-4.3,22.1-3c11.9,1.3,34.2,15.4,42,15.1
			c7-0.3,179.7,26.2,212.2,19.8c-0.1-0.2-0.2-0.4-0.3-0.6c-1.5-2.6-3-5.1-4.4-7.6c-8.7-14.9-16.8-28.9-22.6-38.7
			c-5-8.6-8.2-14-8.2-14c-1.3,2-4.2,3.8-8.4,5.5c-37.2,14.8-176.4,17.9-201.3,14.6C1516.9,768.2,1503.5,773.2,1498.4,775.7z"/>
		<g>
			<path class="st4" d="M1739.1,751c1.4,26.1,13.1,47.1,28.3,55.9c5.7,3.3,11.9,4.9,18.1,4.4c19.3-1.5,33.5-30.9,31.6-66.9
				c-1.9-35.9-16-65.4-35.3-64.6c-2.8,0.1-5.5,0.7-8.2,1.8l0,0c0,0,0,0,0,0c-4.3,1.7-8.5,4.5-12.4,8.2
				C1747.6,702.6,1737.9,726.4,1739.1,751z"/>
			<path class="st5" d="M1753.8,747.5c1.5,29.2,15.7,58.3,31.4,57.5c15.7-0.8,26.9-31.3,25.4-60.4c-1.5-29.2-13.2-58-28.9-57.2
				C1766,688.2,1752.3,718.4,1753.8,747.5z"/>
		</g>
		<path class="st6" d="M1739.1,751c1.4,26.1,13.1,47.1,28.3,55.9c14.8,1.3,31.3,2.2,17.7-1.9c-22.1-6.5-22-44.6-22.5-59.5
			c-0.5-14.9,7.1-36.7,21.5-58l-10.5-6l0,0c0,0,0,0,0,0c-0.4,0.3-6,3.9-12.4,8.2C1747.6,702.6,1737.9,726.4,1739.1,751z"/>
	</g>
	<path class="st7" d="M1624.3,839.5c5.4-44.4,26.3-22.1,36.2-47c1.6-4.1-18.1-32.5-35-24.1c-16.9,8.4-30.1,33.8-32.4,46.7
		c-2.3,13,12.9,20.1,17.5,20C1615,835,1624.3,839.5,1624.3,839.5z"/>
	<path class="st7" d="M1334.7,852.6l30.4,16.8c0,0,29.7,15.9,26.2,7c-4.7-11.9-0.8-21.4-1.8-28.7c-0.6-4.6,0.1-10.8,1.3-16.9
		c2.1-10.7,5.5-20.9,5.5-20.9l1.3-2.4l-0.9-8.5l-2.8-24.8c0,0-25.1,3.9-31.1,17.8C1357.3,804.9,1337.9,837.7,1334.7,852.6z"/>
	<path class="st8" d="M1390.8,830.8c2.1-10.7,5.5-20.9,5.5-20.9l1.3-2.4l-0.9-8.5l-3.2-2.7c0,0-13.6,5.6-17.6,8.4
		C1370.1,808.8,1373.7,829.8,1390.8,830.8z"/>
	<path class="st5" d="M1350.9,815.6c14.8,1.5,7.2,24.8,20.2,31.2c6.9,3.4,6.6-0.4,11.3-2.5c2.9-1.3,5.7-2.8,7.7,1.9
		c38.8,96.5-100.2,246.8-96.6,262.5c2.9,12.9-62,12.8-93.8-10c-43.7-31.3-19.4-84.4-13.9-94.2c5.5-9.8,106-173.8,106-173.8
		S1321.5,827,1350.9,815.6z"/>
	<path class="st9" d="M1632,831.8c-2,4.9-46.1,149.5-103.4,145.3c-25.4-1.9-110.3-17.9-127.2-12.7c-12.8,4-31.6,24.4-34.8,38.3
		c-2.6,11.2-4.8,22.1-6.9,30c-5.5,20.3-25.5,93.1-40,102.8c-19.4,12.9-68.5,12.8-74.1,1c-9.5-20.3,51.6-67.3,70.7-133.1
		c14.8-50.9,48.3-71.1,59.2-113.7c8.2-32.2,14.5-43.4,14.5-43.4c63.1,59,115.8,68.2,134.7,68.9c24.3,0.8,49.2-98.3,59.3-101.3
		C1588.1,812.6,1636.8,820.1,1632,831.8z"/>
	<path class="st10" d="M1632,831.8c-2,4.9-46.1,149.5-103.4,145.3c-25.4-1.9-110.3-17.9-127.2-12.7c-12.8,4-31.6,24.4-34.8,38.3
		c-2.6,11.2-4.8,22.1-6.9,30c-5.5,20.3-25.5,93.1-40,102.8c-19.4,12.9-68.5,12.8-74.1,1c-9.5-20.3,51.6-67.3,70.7-133.1
		c14.8-50.9,48.3-71.1,59.2-113.7c8.2-32.2,14.5-43.4,14.5-43.4c63.1,59,115.8,68.2,134.7,68.9c24.3,0.8,49.2-98.3,59.3-101.3
		C1588.1,812.6,1636.8,820.1,1632,831.8z"/>
	<path class="st11" d="M1103.7,1102c-3.3,27.7,69.3,25,95.9,12.1c22.1-10.7,15-38.6,41.8-73.3c13.6-17.5,35.7-48.2,49.1-73.4
		c1.3-2.5,2.6-4.9,3.7-7.3c9.6-19.8,18.9-41.6,27-62.2c3.7-9.4,7.2-18.5,10.4-27.1c2.1-5.5,4-10.8,5.8-15.8
		c6.6-18.5,11.4-33,13.4-39.4c0,0-34-12.4-73.3,6.5c-4.5,2.1-12,5.7-16.9,11c-4.1,4.3-23.6,23-34.8,47.9
		c-13.5,30-21.9,52.4-29.4,70.8c-8.3,20.2-21.9,36.8-35.6,69.1C1148.6,1049.7,1105.5,1087.6,1103.7,1102z"/>
	<path class="st12" d="M1288.3,865.1c-3.3,8-6.9,105.2-9.6,122.5c1.3-2.5,14.4-25.1,15.5-27.5c9.6-19.8,18.9-41.6,27-62.2
		L1288.3,865.1z"/>
	<g>
		<path class="st7" d="M1417.1,753.2c3.7,12.8,22.7,34.9,13.9,36.7c-8.8,1.8,7.8,27.1-1.5,29.3c-22.6,5.4-51.6-3.6-56.7-13.9
			c-5.1-10.4-9.6-41.3-9.6-41.3L1417.1,753.2z"/>
		<path class="st13" d="M1396.2,770.6c7.3-0.6,7.9,1,12.4-2.5c4.5-3.5-5.5-8.6,3.5-12.1c9.1-3.5,19.2-6.2,18.1-17.1
			c-1.7-15.8-14.9-10.5-23.1-7c-5.2,2.3-8.9-9.3-19.8-6.6c-8.5,2.2-6.5,7-14,9.2c-4.5,1.4-15-4.4-21.1,2.7
			c-11.3,13,2.3,23.4-6.6,36.7c-10.4,15.5,25,36.6,27.8,32.6c3.3-4.7-5.3-16.7-1.8-20.7c5.3-6,7.1-0.9,13.2,3
			c6.6,4.1,16.9,2.3,8.3-6.4C1384.7,773.7,1389.6,771.2,1396.2,770.6z"/>
	</g>
	<path class="st2" d="M1415.6,768c0,2.6,0.2,5.9,1.6,8.5c1.4,2.5,4,4.3,8.8,4.4c9.1,0.2,10.1-4.3,22.1-3.1
		c11.9,1.3,34.2,15.4,42,15.1c7-0.3,179.7,26.2,212.2,19.8c1.1-0.2,2.1-0.5,2.8-0.8c1.5-0.6,2.3-1.3,2.4-2.2
		c0.1-1.1,0.2-2.7,0.3-4.9c1-21.9,0.2-93.6-5-116.7c-1-4.6-2.3-7.3-3.7-7.2c-1.2,0-3.5,0.5-6.8,1.2c-34.4,7.8-173.6,49.8-198.2,53.7
		c-26.1,4.2-36.9,21.4-44.3,22.2c-10.5,1.2-9.6-2.8-24.9-1.9c-4.1,0.2-6.4,2.3-7.7,4.7C1415.9,763.5,1415.6,766.4,1415.6,768z"/>
	<path class="st3" d="M1417.2,776.5c1.4,2.5,4,4.3,8.8,4.4c9.1,0.2,10.1-4.3,22.1-3c11.9,1.3,34.2,15.4,42,15.1
		c7-0.3,179.7,26.2,212.2,19.8c-0.1-0.2-0.2-0.4-0.3-0.6c-1.5-2.6-3-5.1-4.4-7.6c-8.7-14.9-16.8-28.9-22.6-38.7
		c-5-8.6-8.2-14-8.2-14c-1.3,2,6.9,24.8,2.7,26.4c-37.2,14.8-187.5-3.1-212.4-6.3C1435.7,769,1422.3,774,1417.2,776.5z"/>
	<path class="st14" d="M1415.6,768c6.1,6.4,228.3-37.2,252-41.3l15-29.7c0,0-219,62.4-228.4,64.2c-9.4,1.9-26.3,0.8-33.4,0
		c-1.3-0.1-2.5-0.2-3.5-0.2C1415.9,763.5,1415.6,766.4,1415.6,768z"/>
	<g>
		<path class="st4" d="M1657.9,751.8c1.4,26.1,13.1,47.1,28.3,55.9c5.7,3.3,11.9,4.9,18.1,4.4c19.3-1.5,33.5-30.9,31.6-66.9
			c-1.9-35.9-16-65.4-35.3-64.6c-2.8,0.1-5.5,0.7-8.2,1.8l0,0c0,0,0,0,0,0c-4.3,1.7-8.5,4.5-12.4,8.2
			C1666.4,703.4,1656.7,727.2,1657.9,751.8z"/>
		<path class="st5" d="M1672.6,748.3c1.5,29.2,15.7,58.3,31.4,57.5c15.7-0.8,26.9-31.3,25.4-60.4c-1.5-29.2-13.2-58-28.9-57.2
			C1684.8,689,1671.1,719.2,1672.6,748.3z"/>
	</g>
	<path class="st6" d="M1657.9,751.8c1.4,26.1,13.1,47.1,28.3,55.9c14.8,1.3,31.3,2.2,17.7-1.9c-22.1-6.5-22-44.6-22.5-59.5
		c-0.5-14.9,7.1-36.7,21.5-58l-10.5-6l0,0c0,0,0,0,0,0c-0.4,0.3-6,3.9-12.4,8.2C1666.4,703.4,1656.7,727.2,1657.9,751.8z"/>
	<path class="st7" d="M1512.9,817.4c1.6-5.2,23.1-13.6,22.1-17.7c-2-7.6-13-1.1-14.6-14.1c-1.3-10.2,19.2-23,7.7-28.2
		c-27-12.2-42.5,7.7-39.8,32.7c2.1,19.5-10.5,30.8-12.6,47.2c-2.1,16.4,34.1,4.4,34.1,4.4S1509.9,827.3,1512.9,817.4z"/>
	<path class="st11" d="M1331.1,821.3c55.5,63.7,101.2,235.7,143.2-1.1c1-5.7,49.5-7.2,48.3,1.6c-49.3,380.5-222.3,82-246.7,54
		c-10.3-11.9,3.2-60.8,24.5-57.2S1331.1,821.3,1331.1,821.3z"/>
	<g>
		<path class="st12" d="M1367.2,849c-1.3-1.3-22.7,26.2-45.6,32.3c-6.3,1.7-12.9,2.4-19.5,1.6c-19.2-2.5-70.3-13.9-70.3-13.9
			s8.8-14.8,19.3-22.8c16.3,8.8,42.4,16.3,52.5,17.1c7.5,0.6,14.9-0.2,21.8-1.7c13.1-3,24.9-8.8,34-14.1c4.6-2.7,6.2-7.9,11-7.2
			C1377,841.2,1368.9,850.7,1367.2,849z"/>
		<path class="st15" d="M1378,840.1c0-2.7-1.6-7.1-7.3-7.3c-4.3-0.1-4.7,1.6-8.5,4.4c-11.3,8.6-28,18.9-47,19.7
			c-19,0.8-60.5-26.9-88.9-22.7c-28.4,4.2-38.5,28.7-79.3,32.5c-40.8,3.7-83.1-16.2-95.1-15c-12,1.3-19.4,3.4-19.4,8.1
			s5.4,12.9,13.5,16.8c8.1,3.9,81.5,13.8,101.1,12.5c32-2.2,61.3-29,81.9-29.4c8.7-0.2,21.2,2.3,34.5,5.2c18.4,4.1,38.5,9,52.4,9.2
			c26.9,0.3,50.7-29.4,52.4-28.1c1.7,1.3,3.2,2.5,6.7,1.9C1377.5,847.6,1378,842.8,1378,840.1z"/>
	</g>
</g>
<g>
	<path class="st16" d="M1508.2,1005.3c-17.6,219.5-180.5,378.1-230.4,485.4c0,0,0,0,0,0c-10.1,21.8-15.7,41.8-14.5,60.3
		c0,0.7,0,1.3,0,1.9c0,0,0,0,0,0c0.2,16.4-10.5,29.2-27.4,38.3c0,0,0,0-0.1,0c-8.7,4.7-19,8.4-30.4,11.1c-3.2,0.8-6.6,1.5-10,2.1
		c-3.9,0.7-7.9,1.3-12.1,1.8h0l-0.1,0c-0.3,0-0.5,0.1-0.8,0.1c-31.8,3.8-67.7,0.9-96.9-8.5c-1.5-0.5-3-1-4.4-1.5
		c-0.6-0.2-1.1-0.4-1.6-0.6h0c0,0,0,0,0,0c-6.4-2.3-12.4-5-17.8-8c-0.5-0.3-1-0.6-1.6-0.9c-1-0.6-2-1.2-3-1.8
		c-0.5-0.3-1-0.6-1.5-0.9c-0.5-0.3-1-0.6-1.4-0.9c-0.1-0.1-0.2-0.1-0.3-0.2c-0.8-0.5-1.6-1.1-2.3-1.6c0,0-0.1-0.1-0.2-0.1
		c-0.4-0.3-0.9-0.7-1.3-1c-0.3-0.3-0.7-0.5-1-0.8c-0.5-0.4-1.1-0.8-1.6-1.3c-0.7-0.6-1.4-1.2-2.1-1.8c-0.1-0.1-0.1-0.1-0.2-0.2
		c-0.3-0.3-0.6-0.5-0.9-0.8c-0.1,0-0.1-0.1-0.2-0.1c-0.3-0.2-0.5-0.5-0.7-0.7c-1-1-2-2-2.9-3c-7.6-8.4-12.3-18.4-13-29.8
		c-0.2-4.1-1-8.4-2.4-12.8c0,0,0,0,0,0c-3.2-10.6-9.4-22.2-17.8-34.9c0,0,0,0,0,0c-16.4-24.8-41.5-53.8-69.4-88.1
		c-72.4-88.9-164.9-219.2-176-397.3c0,0,165.5,51.4,362.2,55C1356.1,1067.8,1508.2,1005.3,1508.2,1005.3z"/>
</g>
<g class="st17">
	<path class="st5" d="M1336.8,1169.1c-3.1-12.5-10.2-22.1-20.6-27.9c-11.1-6.2-25.3-7.7-42.2-4.3c-12.5,2.5-23.3,12-33.1,29.2
		c-7.9,13.8-15.2,33-21.8,57.1c-2.5,9.1-4.9,19-7.3,29.6c-4.2-0.1-8.4-0.3-12.6-0.7c-11.8-1-22.9-3-33-5.9c0.7-0.6,1.3-1.2,1.9-1.9
		c14.6-14.8,21.8-34.5,20.8-56.8c-1.8-39.8-28.3-60.6-53.7-60.6h-0.4c-12.4,0.1-23.9,5.1-32.3,14c-9.1,9.6-14.2,23.1-14.6,39.1
		c-0.8,26.2,9.9,48.6,31,64.7c1.3,1,2.7,2,4.1,3c-9.5,2.5-20.2,3.6-31.7,3.2c-9.6-0.3-18.8-1.1-27.6-2.3c-1.6-23.1-2.4-40.3-2-48.2
		c0.7-15-2.5-29.1-9.3-40.9c-6.5-11.3-16-19.8-26.6-23.8c-16.9-6.4-34.3-1.1-46.5,14.2c-23.1,28.9-20,52.1-13.4,66.4
		c10.9,23.6,39.5,40.9,79.5,49c4.3,57.4,12.2,139.8,19.2,210.2c1.3,13.2,2.6,26,3.8,38.1c1.3,12.7,2.5,24.6,3.6,35.5
		c0.4,4.2,0.8,8.2,1.2,12.1c0.2,1.8,0.4,3.6,0.6,5.4c1.6,15,2.8,27.2,3.7,35.5c0.7,6.5,1.1,10.6,1.3,12c0.2,1.9,1,3.7,2.1,5.1
		c1.8,2.2,4.5,3.6,7.5,3.6c0.3,0,0.7,0,1-0.1c2-0.2,3.7-1,5.1-2.2c2.4-2,3.9-5.2,3.5-8.6c0-0.3-0.3-3.1-0.8-7.9
		c-0.8-7.2-2-19-3.6-34.2c0-0.4-0.1-0.9-0.1-1.3c-0.6-5.4-1.2-11.3-1.8-17.5c-1.1-10.8-2.3-22.8-3.6-35.5c-1.3-13-2.7-26.9-4.1-41.3
		c-6.8-68.8-14.5-149.2-18.9-205.9c8.1,1,16.6,1.6,25.5,1.9c20.9,0.7,39.8-3,55.4-10.5c18.7,7.5,40.1,11.3,61.7,12.2
		c-6.2,31.8-11.7,69.2-16.5,111.9c-3.4,30.4-6.1,60.7-8.3,88.8c-1.4,18.6-2.6,36.2-3.6,52.2c-0.8,12.7-1.4,24.5-1.9,34.9
		c-0.3,6.2-0.6,12-0.8,17.3c0,0.1,0,0.1,0,0.2c-0.9,21.2-1.3,34-1.3,34.4c0,0.1,0,0.3,0,0.4c0.1,5.2,4.2,9.4,9.5,9.6h0.3
		c4.6,0,8.5-3.2,9.5-7.6c0.1-0.6,0.2-1.2,0.2-1.8c0-0.4,0.3-12.7,1.2-33.1c0.1-1.7,0.2-3.4,0.2-5.2c0.2-3.8,0.4-7.8,0.6-12.1
		c0.5-10.4,1.1-22.2,1.9-34.9c1-16.5,2.2-34.7,3.7-53.8c2.1-27.7,4.8-57.4,8.1-87.2c4.9-43.8,10.6-81.9,17-114
		c20.1-0.9,39.7-4.2,56.7-9.3C1323.3,1250.8,1344.9,1201.8,1336.8,1169.1z M1019.1,1237.2c-17.9-7.5-30.2-17.5-35.5-29
		c-6.3-13.6-2.6-29.1,10.9-46.1c5-6.2,10.9-9.5,17.2-9.5c2.3,0,4.7,0.5,7.2,1.4c12.1,4.5,24.5,20.8,23.3,45.6
		c-0.4,7.9,0.3,24,1.8,45.6C1034.9,1243,1026.6,1240.4,1019.1,1237.2z M1145.1,1238.1c-5.3-2.6-10.1-5.6-14.3-8.8
		c-16.1-12.3-24-28.7-23.3-48.7c0.8-25.1,15.4-34.2,27.7-34.3h0.2c8,0,16,3.6,22,9.8c7.4,7.6,11.6,18.8,12.2,32.2
		c0.8,16.8-4.5,31.4-15.2,42.3C1151.5,1233.4,1148.5,1235.9,1145.1,1238.1z M1278.6,1244.1c-14.6,4.4-30.6,7.2-46.9,8.3
		c2-8.6,4-16.6,6-24.1c16.3-59.3,32-70.8,40-72.3c4.1-0.8,8.5-1.4,12.8-1.4c12,0,23.6,4.3,27.4,19.2
		C1323.9,1197.7,1306.6,1235.6,1278.6,1244.1z"/>
</g>
<g class="st18">
	<path class="st19" d="M937.9,1405.8c-72.4-88.9-164.9-218.4-176-396.5l88.2,21C841,1149.2,879.3,1247.5,937.9,1405.8z"/>
</g>
<g>
	<g>
		<path class="st16" d="M1298.6,485.5c0,0-5.4,8.7-15.2,23.5c-31.7,47.8-109.3,159.4-199.3,251c-90.7,92.3-320,241.5-320,241.5
			c-7-6.4-14-13.1-20.9-20.1c-130.5-131.8-218.4-356.4-58.4-527.5c1.2-1.3,2.5-2.6,3.8-3.9c160-167.4,401.8-179,580.6,2.7
			c2.4,2.5,4.8,5,7.2,7.5C1284.1,468.5,1291.5,476.9,1298.6,485.5z"/>
	</g>
	<g class="st20">
		<g>
			<g>
				<g>
					<path class="st5" d="M922.5,384.7c-3.9,1.1-8.8,2.2-14.3,3.3c-5.5,1.2-11.5,2.4-17.9,4c-6.4,1.6-13.2,3.6-20.2,6.3
						c-7,2.7-14.3,6.1-21.3,10.7l-0.2,0.1c-15.5,10-20,30.6-10.1,46.2c10,15.5,30.6,20,46.2,10.1c0.1-0.1,0.4-0.2,0.5-0.3
						c5-3.3,12.3-6.2,21.6-8.6c4.7-1.2,9.8-2.4,15.5-3.6c5.7-1.3,11.9-2.6,19-4.7c17.5-5.2,27.5-23.6,22.3-41.1
						c-5.2-17.4-23.4-27.4-40.8-22.4L922.5,384.7z"/>
				</g>
			</g>
		</g>
		<g>
			<g>
				<g>
					<path class="st5" d="M1201.4,500.6c-10.1-13.4-21.2-26.4-33.3-38.7c-12.2-12.2-25.5-23.7-39.9-33.8
						c-14.4-10.1-29.7-18.9-45.6-26.1c-15.9-7.3-32.2-13-48.5-17.5l0,0c-17.2-4.8-35.1,5.3-39.9,22.5c-4.8,17.2,5.2,35,22.3,39.8
						c27.2,7.7,52,19,73.9,34.8c21.9,15.7,41,35.8,58.1,58.7l0.1,0.1c10.9,14.7,31.6,17.7,46.3,6.8c14.7-10.9,17.7-31.6,6.8-46.3
						L1201.4,500.6z"/>
				</g>
			</g>
		</g>
	</g>
	<g class="st18">
		<path class="st19" d="M688.5,450c12.8,256.1,59.5,405.7,139.7,502.6l-64.2,48.9c-7-6.4-14-13.1-20.9-20.1
			c-130.5-131.8-218.4-356.4-58.4-527.5C686,452.6,687.2,451.3,688.5,450z"/>
	</g>
</g>
<g>
	<ellipse class="st21" cx="767.7" cy="1009.7" rx="47.5" ry="48.6"/>
	<ellipse class="st22" cx="767.7" cy="1009.7" rx="28.7" ry="29.4"/>
</g>
<g>
	<path class="st23" d="M947.5,1637"/>
	<path class="st24" d="M1003.9,1564c0.1,4.6,0.2,9.4,0.4,14.2c0.6,15.3,1.5,31.1,2.6,45.4c0.4,4.9,0.7,9.6,1.1,14.1
		c1.8,22.1,3.5,37.9,3.5,37.9c0,2.7,0.1,5.4,0.3,8.1c0.3,4.7,0.8,9.4,1.6,14c1.1,6.3,2.6,12.3,4.5,18.3c2.2,6.9,5.1,13.6,8.4,20
		c13.3,25.4,34.6,45.8,60.6,57.7c2.6,1.2,5.2,2.3,7.9,3.3c14.1,5.3,29.4,8.3,45.3,8.2l9.2,0c16.1,0,31.6-3,45.8-8.5
		c7.7-3,15.1-6.7,22-11c28.7-18.1,49.8-47.2,57.5-81.5c1.1-4.8,1.9-9.7,2.4-14.7c0.5-4.7,0.8-9.4,0.8-14.2c0,0,0.1-1.7,0.2-4.6
		c0.2-4.6,0.6-12.4,1-22.1c0.5-11,1-24.4,1.5-38.7c0.2-7.5,0.4-15.3,0.6-23.1c0.3-13.6,0.5-27.2,0.4-39.3c0-7.7-0.2-14.9-0.5-21.1
		c-0.5-12-1.6-20.4-3.3-22.8c-8.5-11.4-249.2-11.6-266.3,0.3C1004.9,1508.4,1003.4,1533.9,1003.9,1564z"/>
	<path class="st25" d="M1006.7,1616.7c40-11,236.3-38.6,273.3-44.5c-0.4-4.9-0.7-9.6-1.1-14.1l-272.5,27.8
		C1006.1,1593.5,1005.2,1605.8,1006.7,1616.7z"/>
	<path class="st25" d="M1012.8,1683.7c52.8-11.3,232.6-38.3,266.5-43.8c-0.3-4.7-0.8-9.4-1.6-14l-269.3,24.9
		C1008.1,1655.5,1009.9,1672.8,1012.8,1683.7z"/>
	<path class="st26" d="M1294.4,1544.3l0.4,3.7c1.1,10.1-6.2,19.2-16.5,20.4l-267.6,31.1c-10.2,1.2-19.5-6-20.6-16.1l-0.4-3.7
		c-1.1-10.1,6.2-19.2,16.5-20.4l267.6-31.1C1284.1,1527,1293.3,1534.2,1294.4,1544.3z"/>
	<path class="st26" d="M1294.7,1612.5l0.4,3.7c1.1,10.1-6.2,19.2-16.3,20.3l-264.9,30.8c-10.1,1.2-19.3-6-20.4-16.1l-0.4-3.7
		c-1.1-10.1,6.2-19.2,16.3-20.3l264.9-30.8C1284.4,1595.2,1293.6,1602.4,1294.7,1612.5z"/>
	<path class="st25" d="M1017.8,1715.9c2.2,6.9,10,23.1,14.2,28.3c60.7-10.7,200.1-34.1,242.6-40c1.1-4.8,1.9-9.7,2.4-14.7
		L1017.8,1715.9z"/>
	<path class="st26" d="M1290.4,1681l0.4,3.7c1.1,10.1-5.6,19.1-15.2,20.2l-248.6,28.9c-9.5,1.1-18.2-6.1-19.3-16.2l-0.4-3.7
		c-1.1-10.1,5.6-19.1,15.2-20.2l248.6-28.9C1280.6,1663.7,1289.3,1670.9,1290.4,1681z"/>
</g>
<path class="st5" d="M468.4,533.7c27.4,0,83.8,48.7,3.2,56.5c-80.6,7.8-201.2,4.2-250.1,4.4c-79.7,0.3-99.5-3-98.8-35.6
	c0.4-18.8,10.5-31.1,52.6-36c43.7-5.1,21.4-53.8,74.7-52.3c45.4,1.3,50.1,64.9,91.7,49.3c41.6-15.6,32.9,26.9,63.3,34.7
	C438.4,563.2,440.9,533.7,468.4,533.7z"/>
<path class="st5" d="M1810.5,1493.1c-43.5,2.9-85.1-0.9-127.8-10.6c-6.6-1.5-13.5-3.5-17.9-9c-6.7-8.3-4.7-22.3,2.5-30.1
	c7.3-7.8,18.2-10.1,28.3-9c6.5,0.7,13.1,2.6,19.3,0.6c7.8-2.5,12.9-10.3,18.2-17.1c5.2-6.8,12.3-13.5,20.3-12.5
	c6,0.8,10.8,5.8,16.1,8.9c5.4,3.1,13.2,3.5,16.2-2.3c6.6-12.3-2.7-46.1,31.2-46.1c48.9,0,40.9,34,46.8,41.2
	c8.9,10.9,24.8,8.5,37.8,4.8c12.9-3.7,28.3-7.2,38.3,2.6c8.7,8.5,9.5,24,18.7,31.8c9.8,8.2,23.7,3.8,35.6,0.1
	c11.9-3.7,27.2-5.1,34.1,6.2c5.8,9.4,1.5,23.1-6.7,30c-8.2,6.9-19,8.6-29.4,9.3C1925.2,1496.4,1864.3,1489.5,1810.5,1493.1z"/>
<path class="st5" d="M977.4,635.8c34.8-5,39.8-19.4,46.3-63.9c4.5,42.3,10.3,58.3,45.7,63.1c-30.9,12.1-41.7,16.4-47.3,65.3
	C1014.4,650.8,1007.7,646.4,977.4,635.8z"/>
<path class="st5" d="M1548,1130.6c34.8-5,39.8-19.4,46.3-63.9c4.5,42.3,10.3,58.3,45.7,63.1c-30.9,12.1-41.7,16.4-47.3,65.3
	C1585.1,1145.6,1578.3,1141.2,1548,1130.6z"/>
<path class="st5" d="M1305.1,545.9c42.4-6.1,48.5-23.6,56.3-77.8c5.5,51.5,12.5,71,55.6,76.9c-37.6,14.7-50.8,20-57.5,79.5
	C1350.3,564.2,1342,558.9,1305.1,545.9z"/>
<path class="st0" d="M609.2,1795.6c0,10,245.4,21.7,528.1,21.7s512-8.1,512-18.2s-229.2-18.2-512-18.2S609.2,1785.6,609.2,1795.6z"
	/>
<path class="st1" d="M1508.4,1004.5c-123-49.8-286.9-37.6-388.9-37.6s-359,23.9-357.4,41.7c1.6,17.8,86.6,180.5,188.6,180.5
	s475.9-88.6,475.9-88.6L1508.4,1004.5z"/>
<g>
	<g>
		<path class="st2" d="M1497.1,766.5c0,2.6,0.2,5.9,1.6,8.5c1.4,2.5,4,4.3,8.8,4.4c9.1,0.2,10.1-4.3,22.1-3
			c11.9,1.3,34.2,15.4,42,15.1c7-0.3,179.7,26.2,212.2,19.8c1.1-0.2,2.1-0.5,2.8-0.8c1.5-0.6,2.3-1.3,2.4-2.2
			c0.1-1.1,0.2-2.7,0.3-4.9c1-21.9,0.2-93.6-5-116.7c-1-4.6-2.3-7.3-3.7-7.2c-1.2,0-3.5,0.5-6.8,1.2
			c-34.4,7.8-173.6,49.8-198.2,53.7c-26.1,4.2-36.8,21.4-44.3,22.2c-10.5,1.2-9.6-2.8-24.9-1.9
			C1498.2,755.4,1497,763.3,1497.1,766.5z"/>
		<path class="st3" d="M1498.7,775c1.4,2.5,4,4.3,8.8,4.4c9.1,0.2,10.1-4.3,22.1-3c11.9,1.3,34.2,15.4,42,15.1
			c7-0.3,179.7,26.2,212.2,19.8c-0.1-0.2-0.2-0.4-0.3-0.6c-1.5-2.6-3-5.1-4.4-7.6c-8.7-14.9-16.8-28.9-22.6-38.7
			c-5-8.6-8.2-14-8.2-14c-1.3,2-4.2,3.8-8.4,5.5c-37.2,14.8-176.4,17.9-201.3,14.6C1517.1,767.5,1503.7,772.5,1498.7,775z"/>
		<g>
			<path class="st4" d="M1739.4,750.3c1.4,26.1,13.1,47.1,28.3,55.9c5.7,3.3,11.9,4.9,18.1,4.4c19.3-1.5,33.5-30.9,31.6-66.9
				c-1.9-35.9-16-65.4-35.3-64.6c-2.8,0.1-5.5,0.7-8.2,1.8l0,0c0,0,0,0,0,0c-4.3,1.7-8.5,4.5-12.4,8.2
				C1747.9,701.9,1738.1,725.7,1739.4,750.3z"/>
			<path class="st5" d="M1754,746.8c1.5,29.2,15.7,58.3,31.4,57.5c15.7-0.8,26.9-31.3,25.4-60.4c-1.5-29.2-13.2-58-28.9-57.2
				C1766.2,687.5,1752.5,717.7,1754,746.8z"/>
		</g>
		<path class="st6" d="M1739.4,750.3c1.4,26.1,13.1,47.1,28.3,55.9c14.8,1.3,31.3,2.2,17.7-1.9c-22.1-6.5-22-44.6-22.5-59.5
			c-0.5-14.9,7.1-36.7,21.5-58l-10.5-6l0,0c0,0,0,0,0,0c-0.4,0.3-6,3.9-12.4,8.2C1747.9,701.9,1738.1,725.7,1739.4,750.3z"/>
	</g>
	<path class="st7" d="M1624.5,838.8c5.4-44.4,26.3-22.1,36.2-47c1.6-4.1-18.1-32.5-35-24.1c-16.9,8.4-30.1,33.8-32.4,46.7
		c-2.3,13,12.9,20.1,17.5,20C1615.3,834.3,1624.5,838.8,1624.5,838.8z"/>
	<path class="st7" d="M1334.9,851.9l30.4,16.8c0,0,29.7,15.9,26.2,7c-4.7-11.9-0.8-21.4-1.8-28.7c-0.6-4.6,0.1-10.8,1.3-16.9
		c2.1-10.7,5.5-20.9,5.5-20.9l1.3-2.4l-0.9-8.5l-2.8-24.8c0,0-25.1,3.9-31.1,17.8C1357.6,804.2,1338.2,837,1334.9,851.9z"/>
	<path class="st8" d="M1391,830.1c2.1-10.7,5.5-20.9,5.5-20.9l1.3-2.4l-0.9-8.5l-3.2-2.7c0,0-13.6,5.6-17.6,8.4
		C1370.3,808.1,1374,829.1,1391,830.1z"/>
	<path class="st5" d="M1351.2,814.9c14.8,1.5,7.2,24.8,20.2,31.2c6.9,3.4,6.6-0.4,11.3-2.5c2.9-1.3,5.7-2.8,7.7,1.9
		c38.8,96.5-100.2,246.8-96.6,262.5c2.9,12.9-62,12.8-93.8-10c-43.7-31.3-19.4-84.4-13.9-94.2c5.5-9.8,106-173.8,106-173.8
		S1321.8,826.2,1351.2,814.9z"/>
	<path class="st9" d="M1632.3,831.1c-2,4.9-46.1,149.5-103.4,145.3c-25.4-1.9-110.3-17.9-127.2-12.7c-12.8,4-31.6,24.4-34.8,38.3
		c-2.6,11.2-4.8,22.1-6.9,30c-5.5,20.3-25.5,93.1-40,102.8c-19.4,12.9-68.5,12.8-74.1,1c-9.5-20.3,51.6-67.3,70.7-133.1
		c14.8-50.9,48.3-71.1,59.2-113.7c8.2-32.2,14.5-43.4,14.5-43.4c63.1,59,115.8,68.2,134.7,68.9c24.3,0.8,49.2-98.3,59.3-101.3
		C1588.3,811.9,1637.1,819.4,1632.3,831.1z"/>
	<path class="st10" d="M1632.3,831.1c-2,4.9-46.1,149.5-103.4,145.3c-25.4-1.9-110.3-17.9-127.2-12.7c-12.8,4-31.6,24.4-34.8,38.3
		c-2.6,11.2-4.8,22.1-6.9,30c-5.5,20.3-25.5,93.1-40,102.8c-19.4,12.9-68.5,12.8-74.1,1c-9.5-20.3,51.6-67.3,70.7-133.1
		c14.8-50.9,48.3-71.1,59.2-113.7c8.2-32.2,14.5-43.4,14.5-43.4c63.1,59,115.8,68.2,134.7,68.9c24.3,0.8,49.2-98.3,59.3-101.3
		C1588.3,811.9,1637.1,819.4,1632.3,831.1z"/>
	<path class="st11" d="M1104,1101.3c-3.3,27.7,69.3,25,95.9,12.1c22.1-10.7,15-38.6,41.8-73.3c13.6-17.5,35.7-48.2,49.1-73.4
		c1.3-2.5,2.6-4.9,3.7-7.3c9.6-19.8,18.9-41.6,27-62.2c3.7-9.4,7.2-18.5,10.4-27.1c2.1-5.5,4-10.8,5.8-15.8
		c6.6-18.5,11.4-33,13.4-39.4c0,0-34-12.4-73.3,6.5c-4.5,2.1-12,5.7-16.9,11c-4.1,4.3-23.6,23-34.8,47.9
		c-13.5,30-21.9,52.4-29.4,70.8c-8.3,20.2-21.9,36.8-35.6,69.1C1148.9,1049,1105.7,1086.8,1104,1101.3z"/>
	<path class="st12" d="M1288.6,864.4c-3.3,8-6.9,105.2-9.6,122.5c1.3-2.5,14.4-25.1,15.5-27.5c9.6-19.8,18.9-41.6,27-62.2
		L1288.6,864.4z"/>
	<g>
		<path class="st7" d="M1417.4,752.5c3.7,12.8,22.7,34.9,13.9,36.7c-8.8,1.8,7.8,27.1-1.5,29.3c-22.6,5.4-51.6-3.6-56.7-13.9
			c-5.1-10.4-9.6-41.3-9.6-41.3L1417.4,752.5z"/>
		<path class="st13" d="M1396.5,769.9c7.3-0.6,7.9,1,12.4-2.5c4.5-3.5-5.5-8.6,3.5-12.1c9.1-3.5,19.2-6.2,18.1-17.1
			c-1.7-15.8-14.9-10.5-23.1-7c-5.2,2.3-8.9-9.3-19.8-6.6c-8.5,2.2-6.5,7-14,9.2c-4.5,1.4-15-4.4-21.1,2.7
			c-11.3,13,2.3,23.4-6.6,36.7c-10.4,15.5,25,36.6,27.8,32.6c3.3-4.7-5.3-16.7-1.8-20.7c5.3-6,7.1-0.9,13.2,3
			c6.6,4.1,16.9,2.3,8.3-6.4S1389.8,770.5,1396.5,769.9z"/>
	</g>
	<path class="st2" d="M1415.9,767.3c0,2.6,0.2,5.9,1.6,8.5c1.4,2.5,4,4.3,8.8,4.4c9.1,0.2,10.1-4.3,22.1-3.1
		c11.9,1.3,34.2,15.4,42,15.1c7-0.3,179.7,26.2,212.2,19.8c1.1-0.2,2.1-0.5,2.8-0.8c1.5-0.6,2.3-1.3,2.4-2.2
		c0.1-1.1,0.2-2.7,0.3-4.9c1-21.9,0.2-93.6-5-116.7c-1-4.6-2.3-7.3-3.7-7.2c-1.2,0-3.5,0.5-6.8,1.2c-34.4,7.8-173.6,49.8-198.2,53.7
		c-26.1,4.2-36.9,21.4-44.3,22.2c-10.5,1.2-9.6-2.8-24.9-1.9c-4.1,0.2-6.4,2.3-7.7,4.7C1416.1,762.8,1415.9,765.7,1415.9,767.3z"/>
	<path class="st3" d="M1417.5,775.7c1.4,2.5,4,4.3,8.8,4.4c9.1,0.2,10.1-4.3,22.1-3c11.9,1.3,34.2,15.4,42,15.1
		c7-0.3,179.7,26.2,212.2,19.8c-0.1-0.2-0.2-0.4-0.3-0.6c-1.5-2.6-3-5.1-4.4-7.6c-8.7-14.9-16.8-28.9-22.6-38.7
		c-5-8.6-8.2-14-8.2-14c-1.3,2,6.9,24.8,2.7,26.4c-37.2,14.8-187.5-3.1-212.4-6.3C1435.9,768.3,1422.5,773.3,1417.5,775.7z"/>
	<path class="st14" d="M1415.9,767.3c6.1,6.4,228.3-37.2,252-41.3l15-29.7c0,0-219,62.4-228.4,64.2c-9.4,1.9-26.3,0.8-33.4,0
		c-1.3-0.1-2.5-0.2-3.5-0.2C1416.1,762.8,1415.9,765.7,1415.9,767.3z"/>
	<g>
		<path class="st4" d="M1658.2,751.1c1.4,26.1,13.1,47.1,28.3,55.9c5.7,3.3,11.9,4.9,18.1,4.4c19.3-1.5,33.5-30.9,31.6-66.9
			c-1.9-35.9-16-65.4-35.3-64.6c-2.8,0.1-5.5,0.7-8.2,1.8l0,0c0,0,0,0,0,0c-4.3,1.7-8.5,4.5-12.4,8.2
			C1666.7,702.7,1656.9,726.5,1658.2,751.1z"/>
		<path class="st5" d="M1672.8,747.6c1.5,29.2,15.7,58.3,31.4,57.5c15.7-0.8,26.9-31.3,25.4-60.4c-1.5-29.2-13.2-58-28.9-57.2
			C1685,688.3,1671.3,718.5,1672.8,747.6z"/>
	</g>
	<path class="st6" d="M1658.2,751.1c1.4,26.1,13.1,47.1,28.3,55.9c14.8,1.3,31.3,2.2,17.7-1.9c-22.1-6.5-22-44.6-22.5-59.5
		c-0.5-14.9,7.1-36.7,21.5-58l-10.5-6l0,0c0,0,0,0,0,0c-0.4,0.3-6,3.9-12.4,8.2C1666.7,702.7,1656.9,726.5,1658.2,751.1z"/>
	<path class="st7" d="M1513.1,816.7c1.6-5.2,23.1-13.6,22.1-17.7c-2-7.6-13-1.1-14.6-14.1c-1.3-10.2,19.2-23,7.7-28.2
		c-27-12.2-42.5,7.7-39.8,32.7c2.1,19.5-10.5,30.8-12.6,47.2c-2.1,16.4,34.1,4.4,34.1,4.4S1510.1,826.6,1513.1,816.7z"/>
	<path class="st11" d="M1331.3,820.6c55.5,63.7,101.2,235.7,143.2-1.1c1-5.7,49.5-7.2,48.3,1.6c-49.3,380.5-222.3,82-246.7,54
		c-10.3-11.9,3.2-60.8,24.5-57.2C1322,821.4,1331.3,820.6,1331.3,820.6z"/>
	<g>
		<path class="st12" d="M1367.4,848.3c-1.3-1.3-22.7,26.2-45.6,32.3c-6.3,1.7-12.9,2.4-19.5,1.6c-19.2-2.5-70.3-13.9-70.3-13.9
			s8.8-14.8,19.3-22.8c16.3,8.8,42.4,16.3,52.5,17.1c7.5,0.6,14.9-0.2,21.8-1.7c13.1-3,24.9-8.8,34-14.1c4.6-2.7,6.2-7.9,11-7.2
			C1377.2,840.5,1369.2,850,1367.4,848.3z"/>
		<path class="st15" d="M1378.3,839.4c0-2.7-1.6-7.1-7.3-7.3c-4.3-0.1-4.7,1.6-8.5,4.4c-11.3,8.6-28,18.9-47,19.7
			c-19,0.8-60.5-26.9-88.9-22.7c-28.4,4.2-38.5,28.7-79.3,32.5s-83.1-16.2-95.1-15c-12,1.3-19.4,3.4-19.4,8.1
			c0,4.7,5.4,12.9,13.5,16.8c8.1,3.9,81.5,13.8,101.1,12.5c32-2.2,61.3-29,81.9-29.4c8.7-0.2,21.2,2.3,34.5,5.2
			c18.4,4.1,38.5,9,52.4,9.2c26.9,0.3,50.7-29.4,52.4-28.1c1.7,1.3,3.2,2.5,6.7,1.9C1377.7,846.9,1378.3,842.1,1378.3,839.4z"/>
	</g>
</g>
<g>
	<path class="st16" d="M1508.4,1004.5c-17.6,219.5-180.5,378.1-230.4,485.4c0,0,0,0,0,0c-10.1,21.8-15.7,41.8-14.5,60.3
		c0,0.7,0,1.3,0,1.9c0,0,0,0,0,0c0.2,16.4-10.5,29.2-27.4,38.3c0,0,0,0-0.1,0c-8.7,4.7-19,8.4-30.4,11.1c-3.2,0.8-6.6,1.5-10,2.1
		c-3.9,0.7-7.9,1.3-12.1,1.8h0l-0.1,0c-0.3,0-0.5,0.1-0.8,0.1c-31.8,3.8-67.7,0.9-96.9-8.5c-1.5-0.5-3-1-4.4-1.5
		c-0.6-0.2-1.1-0.4-1.6-0.6h0c0,0,0,0,0,0c-6.4-2.3-12.4-5-17.8-8c-0.5-0.3-1-0.6-1.6-0.9c-1-0.6-2-1.2-3-1.8
		c-0.5-0.3-1-0.6-1.5-0.9c-0.5-0.3-1-0.6-1.4-0.9c-0.1-0.1-0.2-0.1-0.3-0.2c-0.8-0.5-1.6-1.1-2.3-1.6c0,0-0.1-0.1-0.2-0.1
		c-0.4-0.3-0.9-0.7-1.3-1c-0.3-0.3-0.7-0.5-1-0.8c-0.5-0.4-1.1-0.8-1.6-1.3c-0.7-0.6-1.4-1.2-2.1-1.8c-0.1-0.1-0.1-0.1-0.2-0.2
		c-0.3-0.3-0.6-0.5-0.9-0.8c-0.1,0-0.1-0.1-0.2-0.1c-0.3-0.2-0.5-0.5-0.7-0.7c-1-1-2-2-2.9-3c-7.6-8.4-12.3-18.4-13-29.8
		c-0.2-4.1-1-8.4-2.4-12.8c0,0,0,0,0,0c-3.2-10.6-9.4-22.2-17.8-34.9c0,0,0,0,0,0c-16.4-24.8-41.5-53.8-69.4-88.1
		c-72.4-88.9-164.9-219.2-176-397.3c0,0,165.5,51.4,362.2,55C1356.3,1067.1,1508.4,1004.5,1508.4,1004.5z"/>
</g>
<g class="st17">
	<path class="st5" d="M1337,1168.3c-3.1-12.5-10.2-22.1-20.6-27.9c-11.1-6.2-25.3-7.7-42.2-4.3c-12.5,2.5-23.3,12-33.1,29.2
		c-7.9,13.8-15.2,33-21.8,57.1c-2.5,9.1-4.9,19-7.3,29.6c-4.2-0.1-8.4-0.3-12.6-0.7c-11.8-1-22.9-3-33-5.9c0.7-0.6,1.3-1.2,1.9-1.9
		c14.6-14.8,21.8-34.5,20.8-56.8c-1.8-39.8-28.3-60.6-53.7-60.6h-0.4c-12.4,0.1-23.9,5.1-32.3,14c-9.1,9.6-14.2,23.1-14.6,39.1
		c-0.8,26.2,9.9,48.6,31,64.7c1.3,1,2.7,2,4.1,3c-9.5,2.5-20.2,3.6-31.7,3.2c-9.6-0.3-18.8-1.1-27.6-2.3c-1.6-23.1-2.4-40.3-2-48.2
		c0.7-15-2.5-29.1-9.3-40.9c-6.5-11.3-16-19.8-26.6-23.8c-16.9-6.4-34.3-1.1-46.5,14.2c-23.1,28.9-20,52.1-13.4,66.4
		c10.9,23.6,39.5,40.9,79.5,49c4.3,57.4,12.2,139.8,19.2,210.2c1.3,13.2,2.6,26,3.8,38.1c1.3,12.7,2.5,24.6,3.6,35.5
		c0.4,4.2,0.8,8.2,1.2,12.1c0.2,1.8,0.4,3.6,0.6,5.4c1.6,15,2.8,27.2,3.7,35.5c0.7,6.5,1.1,10.6,1.3,12c0.2,1.9,1,3.7,2.1,5.1
		c1.8,2.2,4.5,3.6,7.5,3.6c0.3,0,0.7,0,1-0.1c2-0.2,3.7-1,5.1-2.2c2.4-2,3.9-5.2,3.5-8.6c0-0.3-0.3-3.1-0.8-7.9
		c-0.8-7.2-2-19-3.6-34.2c0-0.4-0.1-0.9-0.1-1.3c-0.6-5.4-1.2-11.3-1.8-17.5c-1.1-10.8-2.3-22.8-3.6-35.5c-1.3-13-2.7-26.9-4.1-41.3
		c-6.8-68.8-14.5-149.2-18.9-205.9c8.1,1,16.6,1.6,25.5,1.9c20.9,0.7,39.8-3,55.4-10.5c18.7,7.5,40.1,11.3,61.7,12.2
		c-6.2,31.8-11.7,69.2-16.5,111.9c-3.4,30.4-6.1,60.7-8.3,88.8c-1.4,18.6-2.6,36.2-3.6,52.2c-0.8,12.7-1.4,24.5-1.9,34.9
		c-0.3,6.2-0.6,12-0.8,17.3c0,0.1,0,0.1,0,0.2c-0.9,21.2-1.3,34-1.3,34.4c0,0.1,0,0.3,0,0.4c0.1,5.2,4.2,9.4,9.5,9.6h0.3
		c4.6,0,8.5-3.2,9.5-7.6c0.1-0.6,0.2-1.2,0.2-1.8c0-0.4,0.3-12.7,1.2-33.1c0.1-1.7,0.2-3.4,0.2-5.2c0.2-3.8,0.4-7.8,0.6-12.1
		c0.5-10.4,1.1-22.2,1.9-34.9c1-16.5,2.2-34.7,3.7-53.8c2.1-27.7,4.8-57.4,8.1-87.2c4.9-43.8,10.6-81.9,17-114
		c20.1-0.9,39.7-4.2,56.7-9.3C1323.6,1250.1,1345.2,1201,1337,1168.3z M1019.3,1236.5c-17.9-7.5-30.2-17.5-35.5-29
		c-6.3-13.6-2.6-29.1,10.9-46.1c5-6.2,10.9-9.5,17.2-9.5c2.3,0,4.7,0.5,7.2,1.4c12.1,4.5,24.5,20.8,23.3,45.6
		c-0.4,7.9,0.3,24,1.8,45.6C1035.2,1242.3,1026.8,1239.7,1019.3,1236.5z M1145.3,1237.4c-5.3-2.6-10.1-5.6-14.3-8.8
		c-16.1-12.3-24-28.7-23.3-48.7c0.8-25.1,15.4-34.2,27.7-34.3h0.2c8,0,16,3.6,22,9.8c7.4,7.6,11.6,18.8,12.2,32.2
		c0.8,16.8-4.5,31.4-15.2,42.3C1151.8,1232.7,1148.7,1235.2,1145.3,1237.4z M1278.8,1243.4c-14.6,4.4-30.6,7.2-46.9,8.3
		c2-8.6,4-16.6,6-24.1c16.3-59.3,32-70.8,40-72.3c4.1-0.8,8.5-1.4,12.8-1.4c12,0,23.6,4.3,27.4,19.2
		C1324.1,1197,1306.8,1234.9,1278.8,1243.4z"/>
</g>
<g class="st18">
	<path class="st19" d="M938.2,1405c-72.4-88.9-164.9-218.4-176-396.5l88.2,21C841.3,1148.4,879.6,1246.8,938.2,1405z"/>
</g>
<g>
	<g>
		<path class="st16" d="M1298.8,484.8c0,0-5.4,8.7-15.2,23.5c-31.7,47.8-109.3,159.4-199.3,251c-90.7,92.3-320,241.5-320,241.5
			c-7-6.4-14-13.1-20.9-20.1C612.9,848.9,525,624.4,685,453.2c1.2-1.3,2.5-2.6,3.8-3.9c160-167.4,401.8-179,580.6,2.7
			c2.4,2.5,4.8,5,7.2,7.5C1284.4,467.8,1291.8,476.2,1298.8,484.8z"/>
	</g>
	<g class="st20">
		<g>
			<g>
				<g>
					<path class="st5" d="M922.8,384c-3.9,1.1-8.8,2.2-14.3,3.3c-5.5,1.2-11.5,2.4-17.9,4c-6.4,1.6-13.2,3.6-20.2,6.3
						c-7,2.7-14.3,6.1-21.3,10.7l-0.2,0.1c-15.5,10-20,30.6-10.1,46.2c10,15.5,30.6,20,46.2,10.1c0.1-0.1,0.4-0.2,0.5-0.3
						c5-3.3,12.3-6.2,21.6-8.6c4.7-1.2,9.8-2.4,15.5-3.6c5.7-1.3,11.9-2.6,19-4.7c17.5-5.2,27.5-23.6,22.3-41.1
						c-5.2-17.4-23.4-27.4-40.8-22.4L922.8,384z"/>
				</g>
			</g>
		</g>
		<g>
			<g>
				<g>
					<path class="st5" d="M1201.7,499.9c-10.1-13.4-21.2-26.4-33.3-38.7c-12.2-12.2-25.5-23.7-39.9-33.8
						c-14.4-10.1-29.7-18.9-45.6-26.1c-15.9-7.3-32.2-13-48.5-17.5l0,0c-17.2-4.8-35.1,5.3-39.9,22.5c-4.8,17.2,5.2,35,22.3,39.8
						c27.2,7.7,52,19,73.9,34.8c21.9,15.7,41,35.8,58.1,58.7l0.1,0.1c10.9,14.7,31.6,17.7,46.3,6.8c14.7-10.9,17.7-31.6,6.8-46.3
						L1201.7,499.9z"/>
				</g>
			</g>
		</g>
	</g>
	<g class="st18">
		<path class="st19" d="M688.8,449.3c12.8,256.1,59.5,405.7,139.7,502.6l-64.2,48.9c-7-6.4-14-13.1-20.9-20.1
			C612.9,848.9,525,624.4,685,453.2C686.2,451.9,687.5,450.6,688.8,449.3z"/>
	</g>
</g>
<g>
	<ellipse class="st21" cx="767.9" cy="1009" rx="47.5" ry="48.6"/>
	<ellipse class="st22" cx="767.9" cy="1009" rx="28.7" ry="29.4"/>
</g>
<g>
	<path class="st23" d="M947.8,1636.3"/>
	<path class="st24" d="M1004.2,1563.3c0.1,4.6,0.2,9.4,0.4,14.2c0.6,15.3,1.5,31.1,2.6,45.4c0.4,4.9,0.7,9.6,1.1,14.1
		c1.8,22.1,3.5,37.9,3.5,37.9c0,2.7,0.1,5.4,0.3,8.1c0.3,4.7,0.8,9.4,1.6,14c1.1,6.3,2.6,12.3,4.5,18.3c2.2,6.9,5.1,13.6,8.4,20
		c13.3,25.4,34.6,45.8,60.6,57.7c2.6,1.2,5.2,2.3,7.9,3.3c14.1,5.3,29.4,8.3,45.3,8.2l9.2,0c16.1,0,31.6-3,45.8-8.5
		c7.7-3,15.1-6.7,22-11c28.7-18,49.8-47.2,57.5-81.5c1.1-4.8,1.9-9.7,2.4-14.7c0.5-4.7,0.8-9.4,0.8-14.2c0,0,0.1-1.7,0.2-4.6
		c0.2-4.6,0.6-12.4,1-22.1c0.5-11,1-24.4,1.5-38.7c0.2-7.5,0.4-15.3,0.6-23.1c0.3-13.6,0.5-27.2,0.4-39.3c0-7.7-0.2-14.9-0.5-21.1
		c-0.6-12-1.6-20.4-3.3-22.8c-8.5-11.4-249.2-11.6-266.3,0.3C1005.2,1507.7,1003.6,1533.2,1004.2,1563.3z"/>
	<path class="st25" d="M1006.9,1616c40-11,236.3-38.6,273.3-44.5c-0.4-4.9-0.7-9.6-1.1-14.1l-272.5,27.8
		C1006.3,1592.8,1005.4,1605,1006.9,1616z"/>
	<path class="st25" d="M1013,1683c52.8-11.3,232.6-38.3,266.5-43.8c-0.3-4.7-0.8-9.4-1.6-14l-269.3,24.9
		C1008.4,1654.8,1010.2,1672.1,1013,1683z"/>
	<path class="st26" d="M1294.7,1543.6l0.4,3.7c1.1,10.1-6.2,19.2-16.5,20.4l-267.6,31.1c-10.2,1.2-19.5-6-20.6-16.1l-0.4-3.7
		c-1.1-10.1,6.2-19.2,16.5-20.4l267.6-31.1C1284.3,1526.3,1293.6,1533.5,1294.7,1543.6z"/>
	<path class="st26" d="M1294.9,1611.8l0.4,3.7c1.1,10.1-6.2,19.2-16.3,20.3l-264.9,30.8c-10.1,1.2-19.3-6-20.4-16.1l-0.4-3.7
		c-1.1-10.1,6.2-19.2,16.3-20.3l264.9-30.8C1284.7,1594.5,1293.8,1601.7,1294.9,1611.8z"/>
	<path class="st25" d="M1018.1,1715.2c2.2,6.9,10,23.1,14.2,28.3c60.7-10.7,200.1-34.1,242.6-40c1.1-4.8,1.9-9.7,2.4-14.7
		L1018.1,1715.2z"/>
	<path class="st26" d="M1290.6,1680.3l0.4,3.7c1.1,10.1-5.6,19.1-15.2,20.2l-248.6,28.9c-9.5,1.1-18.2-6.1-19.3-16.2l-0.4-3.7
		c-1.1-10.1,5.6-19.1,15.2-20.2l248.6-28.9C1280.9,1662.9,1289.5,1670.2,1290.6,1680.3z"/>
</g>
<path class="st5" d="M468.6,533c27.4,0,83.8,48.7,3.2,56.5c-80.6,7.8-201.2,4.2-250.1,4.4c-79.7,0.3-99.5-3-98.8-35.6
	c0.4-18.8,10.5-31.1,52.6-36c43.7-5.1,21.4-53.8,74.7-52.3c45.4,1.3,50.1,64.9,91.7,49.3s32.9,26.9,63.3,34.7
	C438.6,562.5,441.2,533,468.6,533z"/>
<path class="st5" d="M1810.8,1492.4c-43.5,2.9-85.1-0.9-127.8-10.6c-6.6-1.5-13.5-3.5-17.9-9c-6.7-8.3-4.7-22.3,2.5-30.1
	c7.3-7.8,18.2-10.1,28.3-9c6.5,0.7,13.1,2.6,19.3,0.6c7.8-2.5,12.9-10.3,18.2-17.1c5.2-6.8,12.3-13.5,20.3-12.5
	c6,0.8,10.8,5.8,16.1,8.9c5.4,3.1,13.2,3.5,16.2-2.3c6.6-12.3-2.7-46.1,31.2-46.1c48.9,0,40.9,34,46.8,41.2
	c8.9,10.9,24.8,8.5,37.8,4.8s28.3-7.2,38.3,2.6c8.7,8.5,9.5,24,18.7,31.8c9.8,8.2,23.7,3.8,35.6,0.1c11.9-3.7,27.2-5.1,34.1,6.2
	c5.8,9.4,1.5,23.1-6.7,30s-19,8.6-29.4,9.3C1925.4,1495.7,1864.6,1488.8,1810.8,1492.4z"/>
<path class="st5" d="M977.6,635.1c34.8-5,39.8-19.4,46.3-63.9c4.5,42.3,10.3,58.3,45.7,63.1c-30.9,12.1-41.7,16.4-47.3,65.3
	C1014.7,650.1,1007.9,645.7,977.6,635.1z"/>
<path class="st5" d="M1548.2,1129.9c34.8-5,39.8-19.4,46.3-63.9c4.5,42.3,10.3,58.3,45.7,63.1c-30.9,12.1-41.7,16.4-47.3,65.3
	C1585.3,1144.9,1578.5,1140.5,1548.2,1129.9z"/>
<path class="st5" d="M1305.4,545.2c42.4-6.1,48.5-23.6,56.3-77.8c5.5,51.5,12.5,71,55.6,76.9c-37.6,14.7-50.8,20-57.5,79.5
	C1350.5,563.5,1342.3,558.1,1305.4,545.2z"/>
</svg>
