<?xml version="1.0" encoding="utf-8"?>
<!-- Generator: Adobe Illustrator 26.2.1, SVG Export Plug-In . SVG Version: 6.00 Build 0)  -->
<svg version="1.1" id="Layer_1" xmlns="http://www.w3.org/2000/svg" xmlns:xlink="http://www.w3.org/1999/xlink" x="0px" y="0px"
	 viewBox="0 0 810 518.5" style="enable-background:new 0 0 810 518.5;" xml:space="preserve">
<style type="text/css">
	.st0{fill:none;stroke:#FFFFFF;stroke-width:2;stroke-miterlimit:10;}
	.st1{fill:none;stroke:#FFFFFF;stroke-miterlimit:10;}
</style>
<path class="st0" d="M414,518.5h62v-20c0-51.3-41.7-93-93-93H174c-15.2,0-27.5-12.3-27.5-27.5s12.3-27.5,27.5-27.5h483
	c49.4,0,89.5-40.1,89.5-89.5s-40.1-89.5-89.5-89.5H294c-15.2,0-27.5-12.3-27.5-27.5s12.3-27.5,27.5-27.5h89.5c51.3,0,93-41.7,93-93
	v-15h-62v15c0,17.1-13.9,31-31,31H294c-49.4,0-89.5,40.1-89.5,89.5s40.1,89.5,89.5,89.5h363c15.2,0,27.5,12.3,27.5,27.5
	c0,15.2-12.3,27.5-27.5,27.5H174c-49.4,0-89.5,40.1-89.5,89.5s40.1,89.5,89.5,89.5h209c17.1,0,31,13.9,31,31V518.5z"/>
<g>
	<g>
		<path class="st1" d="M447,518.5h-4v-20c0-1.6-0.1-3.2-0.2-4.8l4-0.3c0.1,1.7,0.2,3.4,0.2,5.2V518.5z"/>
	</g>
	<g>
		<path class="st1" d="M433.7,466.3c-8.8-13.8-23-23.5-39-26.7l0.8-3.9c17,3.4,32.2,13.7,41.6,28.5L433.7,466.3z M365.1,438.5H315
			v-4h50.1V438.5z M284.9,438.5h-50.1v-4h50.1V438.5z M204.6,438.5H174c-6.8,0-13.5-1.1-19.8-3.3l1.3-3.8c5.9,2.1,12.2,3.1,18.5,3.1
			h30.6V438.5z M128.7,418c-9.8-11.1-15.1-25.3-15.1-40c0-2.7,0.2-5.4,0.5-8.1l4,0.5c-0.3,2.5-0.5,5-0.5,7.6
			c0,13.8,5,27.1,14.1,37.4L128.7,418z M129,343.9l-3.2-2.4c10.6-14,26.8-22.7,44.3-23.8l0.3,4C154,322.7,138.9,330.8,129,343.9z
			 M651.6,321.5h-50.1v-4h50.1V321.5z M571.4,321.5h-50.1v-4h50.1V321.5z M491.1,321.5H441v-4h50.1V321.5z M410.9,321.5h-50.1v-4
			h50.1V321.5z M330.7,321.5h-50.1v-4h50.1V321.5z M250.4,321.5h-50.1v-4h50.1V321.5z M681.8,316.2l-1.6-3.6
			c15-6.7,26.3-19.6,31-35.3l3.8,1.2C709.9,295.3,697.8,309,681.8,316.2z M712.2,248.6c-3.6-16-13.9-29.6-28.4-37.4l1.9-3.5
			c15.5,8.3,26.6,22.9,30.4,40L712.2,248.6z M655.8,204.5h-50.1v-4h50.1V204.5z M575.5,204.5h-50.1v-4h50.1V204.5z M495.3,204.5
			h-50.1v-4h50.1V204.5z M415.1,204.5h-50.1v-4h50.1V204.5z M334.8,204.5H294c-3.2,0-6.5-0.3-9.6-0.8l0.6-3.9c3,0.5,6,0.7,9,0.7
			h40.8V204.5z M256.3,191.3c-13.7-11-22-27.3-22.7-44.9l4-0.2c0.6,16.4,8.4,31.6,21.2,41.9L256.3,191.3z M243.8,118.2l-3.6-1.8
			c8-15.6,22.4-27,39.5-31.2l0.9,3.9C264.7,93,251.3,103.6,243.8,118.2z M360.2,87.5h-50.1v-4h50.1V87.5z M390.5,87.1l-0.4-4
			c16.2-1.8,31.2-10.2,41.1-23.2l3.2,2.4C423.8,76.2,407.8,85.3,390.5,87.1z"/>
	</g>
	<g>
		<path class="st1" d="M446.7,33.8l-3.9-0.6c0.5-3.2,0.8-6.4,0.8-9.6v-15h4v15C447.5,27,447.3,30.4,446.7,33.8z"/>
	</g>
</g>
<path class="st0" d="M225.4,0c-17.7,0-32,14.3-32,32c0,18,19.7,34.2,32,48c12.1-13.5,32-29.9,32-48C257.4,14.3,243,0,225.4,0z
	 M225.4,45.3c-7.3,0-13.3-5.9-13.3-13.3c0-7.3,5.9-13.3,13.3-13.3s13.3,5.9,13.3,13.3C238.6,39.3,232.7,45.3,225.4,45.3z"/>
<path class="st0" d="M125.8,219.3c-17.7,0-32,14.3-32,32c0,18,19.7,34.2,32,48c12.1-13.5,32-29.9,32-48
	C157.8,233.6,143.5,219.3,125.8,219.3z M125.8,264.5c-7.3,0-13.3-5.9-13.3-13.3s5.9-13.3,13.3-13.3c7.3,0,13.3,5.9,13.3,13.3
	S133.1,264.5,125.8,264.5z"/>
<path class="st0" d="M651.5,88.6c-17.7,0-32,14.3-32,32c0,18,19.7,34.2,32,48c12.1-13.5,32-29.9,32-48
	C683.5,102.9,669.2,88.6,651.5,88.6z M651.5,133.8c-7.3,0-13.3-5.9-13.3-13.3c0-7.3,5.9-13.3,13.3-13.3c7.3,0,13.3,5.9,13.3,13.3
	C664.8,127.9,658.9,133.8,651.5,133.8z"/>
</svg>
