<?xml version="1.0" encoding="utf-8"?>
<!-- Generator: Adobe Illustrator 26.2.1, SVG Export Plug-In . SVG Version: 6.00 Build 0)  -->
<svg version="1.1" id="Layer_1" xmlns="http://www.w3.org/2000/svg" xmlns:xlink="http://www.w3.org/1999/xlink" x="0px" y="0px"
	 viewBox="0 0 500 389" style="enable-background:new 0 0 500 389;" xml:space="preserve">
<style type="text/css">
	.st0{fill:none;stroke:#FFFFFF;stroke-miterlimit:10;}
</style>
<g>
	<g>
		<path class="st0" d="M172.6,75l-1.2,0.6l-0.2-0.2c-0.5-0.7-1.1-1.3-1.8-1.8c-1.2-0.8-2.6-1.3-4.1-1.3c-2.3,0-4.5,1.1-5.8,3
			c-1.1,1.5-1.5,3.4-1.2,5.3c0.3,1.9,1.4,3.5,2.9,4.6c1.2,0.8,2.6,1.3,4.1,1.3c1.9,0,3.8-0.8,5.1-2.1c0.3-0.4,0.3-0.7,0.2-0.9
			c-0.1-0.3-0.5-0.6-0.9-0.6c-0.2,0-0.4,0.1-0.6,0.2c-1,1.1-2.4,1.6-3.8,1.6c-1.1,0-2.1-0.3-3-1c-2.4-1.7-3-5-1.3-7.4
			c1-1.4,2.6-2.3,4.3-2.3c1.1,0,2.1,0.3,3,1c0.5,0.3,0.8,0.7,1.2,1.1l0.2,0.3l-1.3,0.7l3.9,2.4L172.6,75z"/>
	</g>
	<g>
		<g>
			<path class="st0" d="M395.5,89.4H189.8c-5.5,0-10-4.5-10-10c0-5.5,4.5-10,10-10h205.7c5.5,0,10,4.5,10,10
				C405.5,84.9,401,89.4,395.5,89.4z M189.8,71.2c-4.5,0-8.2,3.7-8.2,8.2c0,4.5,3.7,8.2,8.2,8.2h205.7c4.5,0,8.2-3.7,8.2-8.2
				c0-4.5-3.7-8.2-8.2-8.2H189.8z"/>
		</g>
	</g>
	<g>
		<path class="st0" d="M411.3,82.9l4,4c0.2,0.2,0.4,0.3,0.6,0.3c0.2,0,0.4-0.1,0.6-0.3l4-4c0.3-0.3,0.3-0.9,0-1.2
			c-0.3-0.3-0.9-0.3-1.2,0l-2.5,2.5V73.7c0-0.4-0.5-0.8-0.9-0.8c-0.4,0-0.9,0.3-0.9,0.8v10.4l-2.5-2.5c-0.3-0.3-0.9-0.3-1.2,0
			C411,82,411,82.5,411.3,82.9z"/>
	</g>
	<g>
		<g>
			<path class="st0" d="M427.8,74.8c0,0.3,0.3,0.6,0.6,0.6h1.3c0.3,0,0.6-0.3,0.6-0.6v-1.3c0-0.3-0.3-0.6-0.6-0.6h-1.3
				c-0.3,0-0.6,0.3-0.6,0.6V74.8z"/>
		</g>
		<g>
			<path class="st0" d="M427.8,80.6c0,0.3,0.3,0.6,0.6,0.6h1.3c0.3,0,0.6-0.3,0.6-0.6v-1.3c0-0.3-0.3-0.6-0.6-0.6h-1.3
				c-0.3,0-0.6,0.3-0.6,0.6V80.6z"/>
		</g>
		<g>
			<path class="st0" d="M427.8,86.5c0,0.3,0.3,0.6,0.6,0.6h1.3c0.3,0,0.6-0.3,0.6-0.6v-1.3c0-0.3-0.3-0.6-0.6-0.6h-1.3
				c-0.3,0-0.6,0.3-0.6,0.6V86.5z"/>
		</g>
	</g>
	<g>
		<g>
			<g>
				<path class="st0" d="M122.2,78.3l4.4-4.4c0.4-0.4,0.4-1,0-1.4c-0.2-0.2-0.4-0.3-0.7-0.3c-0.3,0-0.5,0.1-0.7,0.3l-6.1,6.1
					c-0.2,0.2-0.3,0.4-0.3,0.7c0,0.3,0.1,0.5,0.3,0.7l6.1,6.1c0.4,0.4,1,0.4,1.4,0c0.4-0.4,0.4-1,0-1.4l-4.4-4.4l-1-1.1L122.2,78.3z
					"/>
			</g>
		</g>
	</g>
	<g>
		<g>
			<g>
				<path class="st0" d="M145.3,78.3l-4.4-4.4c-0.4-0.4-0.4-1,0-1.4c0.2-0.2,0.4-0.3,0.7-0.3c0.3,0,0.5,0.1,0.7,0.3l6.1,6.1
					c0.2,0.2,0.3,0.4,0.3,0.7c0,0.3-0.1,0.5-0.3,0.7l-6.1,6.1c-0.4,0.4-1,0.4-1.4,0c-0.4-0.4-0.4-1,0-1.4l4.4-4.4l1-1.1L145.3,78.3z
					"/>
			</g>
		</g>
	</g>
	<g>
		<path class="st0" d="M73.5,84.9c-3,0-5.4-2.4-5.4-5.4c0-3,2.4-5.4,5.4-5.4c3,0,5.4,2.4,5.4,5.4C78.9,82.5,76.4,84.9,73.5,84.9z
			 M73.5,75.9c-2,0-3.6,1.6-3.6,3.6c0,2,1.6,3.6,3.6,3.6s3.6-1.6,3.6-3.6C77.1,77.5,75.4,75.9,73.5,75.9z"/>
	</g>
	<g>
		<path class="st0" d="M87.9,84.9c-3,0-5.4-2.4-5.4-5.4c0-3,2.4-5.4,5.4-5.4c3,0,5.4,2.4,5.4,5.4C93.3,82.5,90.8,84.9,87.9,84.9z
			 M87.9,75.9c-2,0-3.6,1.6-3.6,3.6c0,2,1.6,3.6,3.6,3.6c2,0,3.6-1.6,3.6-3.6C91.5,77.5,89.8,75.9,87.9,75.9z"/>
	</g>
	<g>
		<path class="st0" d="M102.3,84.9c-3,0-5.4-2.4-5.4-5.4c0-3,2.4-5.4,5.4-5.4c3,0,5.4,2.4,5.4,5.4C107.7,82.5,105.2,84.9,102.3,84.9
			z M102.3,75.9c-2,0-3.6,1.6-3.6,3.6c0,2,1.6,3.6,3.6,3.6s3.6-1.6,3.6-3.6C105.9,77.5,104.2,75.9,102.3,75.9z"/>
	</g>
	<g>
		<g>
			<path class="st0" d="M433.9,320H65.6c-5,0-9.1-4.1-9.1-9.1V71.8c0-5,4.1-9.1,9.1-9.1h368.3c5,0,9.1,4.1,9.1,9.1v239.1
				C443,315.9,438.9,320,433.9,320z M65.6,64.5c-4,0-7.3,3.3-7.3,7.3v239.1c0,4,3.3,7.3,7.3,7.3h368.3c4,0,7.3-3.3,7.3-7.3V71.8
				c0-4-3.3-7.3-7.3-7.3H65.6z"/>
		</g>
		<g>
			<rect x="57.4" y="93.9" class="st0" width="384.9" height="1.8"/>
		</g>
	</g>
	<g>
		<path class="st0" d="M197.1,84.7l-2.5-2.5c0.6-0.9,0.9-1.9,0.9-3c0-1.4-0.5-2.7-1.5-3.7c-1-1-2.3-1.5-3.7-1.5
			c-1.4,0-2.7,0.5-3.7,1.5c-1,1-1.5,2.3-1.5,3.7c0,1.4,0.5,2.7,1.5,3.7c1,1,2.3,1.5,3.7,1.5c1.1,0,2.1-0.3,3-0.9l2.5,2.5
			c0.2,0.2,0.4,0.3,0.6,0.3c0.2,0,0.5-0.1,0.6-0.3c0.2-0.2,0.3-0.4,0.3-0.6C197.4,85.1,197.3,84.9,197.1,84.7z M190.3,82.7
			c-1.9,0-3.5-1.6-3.5-3.5c0-0.9,0.4-1.8,1-2.5c0.7-0.7,1.5-1,2.5-1c1.9,0,3.5,1.6,3.5,3.5c0,0.9-0.4,1.8-1,2.5
			C192.1,82.4,191.3,82.7,190.3,82.7z"/>
	</g>
</g>
<path class="st0" d="M240.6,198.3c-3.9,2.2-5.2,7.2-3,11.1s7.2,5.2,11.1,3c3.9-2.2,5.2-7.2,3-11.1c0,0,0,0,0,0
	C249.4,197.3,244.5,196,240.6,198.3z M276.9,207c-0.5-0.6-1.1-1.2-1.7-1.8c0.4-0.4,0.8-0.9,1.2-1.3c7.3-8.2,10.4-16.4,7.5-21.3
	c-2.7-4.7-10.9-6.1-21-4.2c-1,0.2-2,0.4-3,0.7c-0.2-0.7-0.4-1.3-0.6-1.9c-3.4-10.4-9-17.2-14.7-17.1c-5.5,0-10.7,6.3-14.1,16.1
	c-0.3,1-0.6,1.9-0.9,2.9c-0.7-0.2-1.3-0.3-2-0.5c-10.7-2.2-19.4-0.8-22.2,4.2c-2.7,4.7,0.1,12.5,6.9,20.3c0.7,0.8,1.4,1.5,2.1,2.3
	c-0.8,0.9-1.6,1.7-2.4,2.6c-6.6,7.7-9.3,15.3-6.6,20c2.8,4.9,11.3,6.5,21.7,4.4c0.8-0.2,1.7-0.4,2.5-0.6c0.3,1.1,0.6,2.1,1,3.2
	c3.4,9.6,8.6,15.7,14,15.7c5.6,0,11.3-6.6,14.7-16.6c0.3-0.8,0.5-1.6,0.8-2.5c1.1,0.3,2.2,0.5,3.2,0.7c10,1.9,17.9,0.4,20.6-4.3
	C286.7,223.2,283.9,215,276.9,207L276.9,207z M208.7,184.7c1.7-3,8.8-4.2,18.1-2.3c0.6,0.1,1.2,0.3,1.8,0.4c-0.9,4-1.5,8.1-1.9,12.1
	c-3.3,2.4-6.5,4.9-9.5,7.7c-0.7-0.7-1.3-1.4-1.9-2.1l0,0C209.4,193.8,207.1,187.6,208.7,184.7z M226.3,210.7
	c-2.3-1.8-4.5-3.5-6.4-5.4c2-1.8,4.1-3.6,6.4-5.3c-0.1,1.8-0.1,3.6-0.1,5.3C226.2,207.1,226.3,208.9,226.3,210.7z M226.3,228.5
	c-3.9,0.9-8,1-12,0.4c-2.2-0.2-4.2-1.2-5.6-3c-1.7-2.9,0.5-9,6.2-15.6c0.7-0.8,1.5-1.6,2.2-2.4c3,2.8,6.2,5.4,9.6,7.7
	c0.4,4.1,1,8.2,1.9,12.3C227.9,228.2,227.1,228.4,226.3,228.5z M258.5,192.1c-1.5-1-3.1-1.9-4.6-2.8c-1.5-0.9-3.1-1.7-4.7-2.5
	c2.7-1.1,5.3-2.1,7.9-2.9C257.7,186.6,258.2,189.3,258.5,192.1z M234.1,177.4c2.9-8.4,7.2-13.5,10.4-13.5c3.5,0,8.1,5.5,11,14.5
	c0.2,0.6,0.4,1.2,0.5,1.8c-3.9,1.2-7.7,2.7-11.5,4.4c-3.7-1.7-7.5-3.2-11.4-4.5C233.6,179.2,233.8,178.3,234.1,177.4z M232.3,183.8
	c2.7,0.8,5.3,1.8,7.8,2.9c-3.2,1.6-6.3,3.4-9.3,5.4C231.3,189.2,231.7,186.4,232.3,183.8z M230.9,218.6c1.5,1,3,1.9,4.6,2.8
	c1.6,0.9,3.2,1.8,4.8,2.6c-2.6,1.1-5.2,2.1-7.9,3C231.8,224.3,231.3,221.5,230.9,218.6z M255.6,232.8c-1.2,3.8-3.1,7.4-5.6,10.6l0,0
	c-1.3,1.8-3.2,3.1-5.4,3.4c-3.3,0-7.5-4.9-10.4-13.1c-0.3-1-0.6-1.9-0.9-2.9c3.9-1.3,7.8-2.8,11.5-4.6c3.7,1.7,7.6,3.2,11.5,4.4
	C256.1,231.3,255.9,232.1,255.6,232.8z M257.3,226.8c-2.6-0.8-5.3-1.8-8-2.9c1.5-0.8,3.1-1.7,4.6-2.6c1.6-0.9,3.2-1.9,4.7-2.8
	C258.3,221.3,257.9,224.1,257.3,226.8L257.3,226.8z M259.3,205.3c0,2.8-0.1,5.5-0.3,8.3c-2.2,1.5-4.6,3-7,4.4
	c-2.4,1.4-4.9,2.7-7.2,3.9c-2.5-1.2-4.9-2.5-7.4-3.9c-2.4-1.4-4.7-2.8-7-4.4c-0.2-2.7-0.3-5.5-0.3-8.3l0,0c0-2.8,0.1-5.5,0.3-8.3
	c2.2-1.5,4.6-3,7-4.4c2.4-1.4,4.9-2.7,7.3-3.9c2.5,1.2,4.9,2.5,7.3,3.9c2.4,1.4,4.7,2.8,7,4.3C259.2,199.8,259.3,202.6,259.3,205.3
	L259.3,205.3z M263.6,182.2c8.7-1.7,15.3-0.6,16.9,2.3c1.8,3-0.8,9.7-7,16.8l0,0c-0.3,0.4-0.7,0.8-1.1,1.2c-3.1-2.8-6.3-5.3-9.7-7.7
	c-0.3-4-1-8.1-1.8-12C261.8,182.6,262.7,182.4,263.6,182.2z M263,199.8c2.3,1.7,4.5,3.5,6.6,5.4c-2.1,1.9-4.3,3.8-6.6,5.5
	c0.1-1.8,0.1-3.6,0.1-5.4C263.2,203.5,263.1,201.7,263,199.8z M280.6,226.1c-1.6,2.9-8,4.1-16.6,2.4c-1-0.2-2-0.4-3-0.7
	c0.9-4,1.4-8.1,1.8-12.2c3.4-2.4,6.6-5,9.7-7.8c0.5,0.6,1,1.1,1.5,1.7v0c2.7,3,4.9,6.4,6.4,10.1C281.3,221.7,281.4,224,280.6,226.1z
	"/>
</svg>
