<?xml version="1.0" encoding="utf-8"?>
<!-- Generator: Adobe Illustrator 26.2.1, SVG Export Plug-In . SVG Version: 6.00 Build 0)  -->
<svg version="1.1" id="Layer_1" xmlns="http://www.w3.org/2000/svg" xmlns:xlink="http://www.w3.org/1999/xlink" x="0px" y="0px"
	 viewBox="0 0 798.6 543.5" style="enable-background:new 0 0 798.6 543.5;" xml:space="preserve">
<style type="text/css">
	.st0{fill:#D8F2FB;}
	.st1{fill:#2F87CE;}
	.st2{fill:#FFFFFF;}
	.st3{fill:#48A4D8;}
	.st4{fill:#1A5392;}
	.st5{fill:#B3DFF2;}
	.st6{fill:#13427F;}
	.st7{fill:#FFCE45;}
	.st8{fill:#FD6F61;}
	.st9{fill:#FFAC33;}
	.st10{fill:#0A223C;}
	.st11{fill:#0F2F46;}
	.st12{fill:#EF5552;}
	.st13{opacity:0.2;fill:#FFFFFF;}
</style>
<g>
	<path class="st0" d="M119.6,472.1c-80-87.4-78.9-136.3-64.3-164.6c43.4-84.2,255-79.2,262.8-142c4.4-34.9-59-52.4-48.9-77.8
		c15.3-38.6,185.7-60.4,264.2,0c44.1,33.9,45.3,82.9,96.5,93.6c34.4,7.2,52.3-11.2,74.1,0c33.3,17,38.2,41.9,17.1,87.3
		c-13.3,28.6-38.8,48-60.7,69.6c-16.1,15.8-35.7,35.7-34.7,60.2c0.9,22.5,20.7,35.5,36.3,48.5c8.8,7.3,18.1,15.2,25.2,24.1
		C498,471.3,308.8,471.7,119.6,472.1z"/>
	<g>
		<g>
			<g>
				<g>
					<path class="st1" d="M527.6,195.1v253.1c0,1.2-0.1,2.4-0.4,3.6c0,0.1,0,0.2-0.1,0.3c-1,3.2-3.1,6-5.9,7.7c-2.1,1.3-4.5,2-7,2
						H139c-0.4,0-0.8-0.1-1.2-0.1c-1-0.1-2.1-0.3-3-0.7c-4.6-1.7-7.9-6.1-7.9-11.2V193.4c0-5,3.2-9.2,7.6-11c1.4-0.5,3-0.8,4.5-0.8
						h375.2C521.7,181.6,527.6,187.6,527.6,195.1z"/>
					<path class="st2" d="M502.7,429.5H172.3c-9,0-16.2-7.3-16.2-16.2V208.1c0-9,7.3-16.2,16.2-16.2h330.4c9,0,16.2,7.3,16.2,16.2
						v205.2C518.9,422.2,511.6,429.5,502.7,429.5z"/>
				</g>
				<path class="st3" d="M136.6,461.8L136.6,461.8c-5.3,0-9.7-4.3-9.7-9.6V191.8c0-5.3,4.3-9.6,9.6-9.6h0c5.3,0,9.6,4.3,9.6,9.6
					v260.4C146.3,457.5,141.9,461.8,136.6,461.8z"/>
				<path class="st3" d="M323.5,461.8L323.5,461.8c0-5.3,4.3-9.7,9.6-9.7h389.3c5.3,0,9.6,4.3,9.6,9.6v0c0,5.3-4.3,9.6-9.6,9.6
					H333.2C327.8,471.4,323.5,467.1,323.5,461.8z"/>
				<path class="st3" d="M134.8,461.8L134.8,461.8c0-5.3,4.3-9.7,9.7-9.7h187.7c5.3,0,9.6,4.3,9.6,9.6v0c0,5.3-4.3,9.6-9.6,9.6
					H144.4C139.1,471.4,134.8,467.1,134.8,461.8z"/>
				<path class="st4" d="M171.2,465H155c-1.9,0-3.4-1.5-3.4-3.4l0,0c0-1.9,1.5-3.4,3.4-3.4h16.2c1.9,0,3.4,1.5,3.4,3.4v0
					C174.7,463.4,173.1,465,171.2,465z"/>
				<path class="st4" d="M204.9,465h-16.2c-1.9,0-3.4-1.5-3.4-3.4v0c0-1.9,1.5-3.4,3.4-3.4h16.2c1.9,0,3.4,1.5,3.4,3.4v0
					C208.3,463.4,206.8,465,204.9,465z"/>
				<g>
					<g>
						<path class="st4" d="M222.6,461.1L222.6,461.1c-1.1,0-2,0.9-2,2v8.3h4v-8.3C224.6,462,223.7,461.1,222.6,461.1z"/>
						<path class="st4" d="M229.4,461.1L229.4,461.1c-1.1,0-2,0.9-2,2v8.3h4v-8.3C231.4,462,230.5,461.1,229.4,461.1z"/>
						<path class="st4" d="M236.3,461.1L236.3,461.1c-1.1,0-2,0.9-2,2v8.3h4v-8.3C238.3,462,237.4,461.1,236.3,461.1z"/>
						<path class="st4" d="M243.1,461.1L243.1,461.1c-1.1,0-2,0.9-2,2v8.3h4v-8.3C245.1,462,244.2,461.1,243.1,461.1z"/>
						<path class="st4" d="M249.9,461.1L249.9,461.1c-1.1,0-2,0.9-2,2v8.3h4v-8.3C251.9,462,251,461.1,249.9,461.1z"/>
						<path class="st4" d="M256.7,461.1L256.7,461.1c-1.1,0-2,0.9-2,2v8.3h4v-8.3C258.6,462,257.8,461.1,256.7,461.1z"/>
						<path class="st4" d="M263.6,461.1L263.6,461.1c-1.1,0-2,0.9-2,2v8.3h4v-8.3C265.6,462,264.7,461.1,263.6,461.1z"/>
						<path class="st4" d="M270.4,461.1L270.4,461.1c-1.1,0-2,0.9-2,2v8.3h4v-8.3C272.4,462,271.5,461.1,270.4,461.1z"/>
					</g>
				</g>
				<path class="st4" d="M553.9,452.1h-79.8v1.6c0,3.3,4.1,6,9.2,6h61.4c5.1,0,9.2-2.7,9.2-6V452.1z"/>
				<g>
					<path class="st1" d="M331.9,471.6c-0.7,0-1.2-0.5-1.2-1.2s0.5-1.2,1.2-1.2c4.7,0,8.5-3.5,8.5-7.7s-3.8-7.7-8.5-7.7
						c-0.7,0-1.2-0.5-1.2-1.2c0-0.7,0.5-1.2,1.2-1.2c6,0,10.8,4.5,10.8,10.1S337.9,471.6,331.9,471.6z"/>
				</g>
			</g>
		</g>
	</g>
	<g>
		
			<ellipse transform="matrix(0.7071 -0.7071 0.7071 0.7071 79.4969 516.7669)" class="st3" cx="663.5" cy="162.4" rx="36.9" ry="36.9"/>
		<g>
			<path class="st2" d="M653.8,172.3l-18.6-8.2v-2.7l18.6-9.3v4.5l-12.8,5.9l12.8,5.3V172.3z"/>
			<path class="st2" d="M671.1,148.7l-10.2,27.4h-5.2l10.2-27.4H671.1z"/>
			<path class="st2" d="M672.9,167.8l12.8-5.3l-12.8-5.9v-4.5l18.6,9.3v2.7l-18.6,8.2V167.8z"/>
		</g>
	</g>
	<g>
		<g>
			<g>
				<g>
					<g>
						<path class="st4" d="M554.6,394c0,11.1-9,20.1-20.1,20.1H188.2c-11.1,0-20.1-9-20.1-20.1V154.9c0-11.1,9-20.1,20.1-20.1h346.4
							c11.1,0,20.1,9,20.1,20.1V394z"/>
						<path class="st0" d="M544.7,165.4H178c-2.9,0-5.2,2.3-5.2,5.2v223.3c0,8.5,6.9,15.4,15.4,15.4h346.4c8.5,0,15.4-6.9,15.4-15.4
							V170.6C549.9,167.7,547.6,165.4,544.7,165.4z"/>
						<g>
							<g>
								
									<ellipse transform="matrix(0.2298 -0.9732 0.9732 0.2298 6.2662 309.0338)" class="st5" cx="198.4" cy="150.6" rx="8.2" ry="8.2"/>
								
									<ellipse transform="matrix(0.7071 -0.7071 0.7071 0.7071 -42.2677 199.0729)" class="st5" cx="219.2" cy="150.6" rx="8.2" ry="8.2"/>
								
									<ellipse transform="matrix(0.2298 -0.9732 0.9732 0.2298 38.3004 349.5107)" class="st5" cx="240" cy="150.6" rx="8.2" ry="8.2"/>
							</g>
						</g>
					</g>
				</g>
				<path class="st2" d="M530.4,150.9c0,2.4-1.8,4.2-4.7,4.2h-260c-2.8,0-4.9-1.8-4.9-4.2v-4c0-2.4,2.1-4.4,4.9-4.4h260
					c2.8,0,4.7,2,4.7,4.4V150.9z"/>
			</g>
			<path class="st5" d="M313.1,385.8c0,2.4-2,4.4-4.4,4.4H194.6c-2.4,0-4.4-2-4.4-4.4v-200c0-2.4,2-4.4,4.4-4.4h114.1
				c2.4,0,4.4,2,4.4,4.4V385.8z"/>
			<g>
				<g>
					<path class="st5" d="M523.4,266.3H332.6c-2.9,0-5.3-2.4-5.3-5.3v-75.1c0-2.9,2.4-5.3,5.3-5.3h190.8c2.9,0,5.3,2.4,5.3,5.3v75.1
						C528.7,264,526.3,266.3,523.4,266.3z M332.6,182.4c-2,0-3.6,1.6-3.6,3.6v75.1c0,2,1.6,3.6,3.6,3.6h190.8c2,0,3.6-1.6,3.6-3.6
						v-75.1c0-2-1.6-3.6-3.6-3.6H332.6z"/>
				</g>
			</g>
			<g>
				<g>
					<path class="st5" d="M523.6,391.2H332.8c-2.9,0-5.4-3.1-5.4-6.7v-97.1c0-3.5,2.4-6.4,5.4-6.4h190.8c2.9,0,5.1,2.7,5.1,6.4v97.1
						C528.7,388.2,526.4,391.2,523.6,391.2z M332.8,282.7c-2,0-3.7,2.1-3.7,4.7v97.1c0,2.6,1.7,5,3.7,5h190.8c1.9,0,3.4-2.3,3.4-5
						v-97.1c0-2.7-1.5-4.7-3.4-4.7H332.8z"/>
				</g>
			</g>
			<g>
				<g>
					<path class="st2" d="M244.8,200.5c0,1.5-1.2,2.7-2.7,2.7h-35.9c-1.5,0-2.7-1.2-2.7-2.7v-0.1c0-1.5,1.2-2.7,2.7-2.7h35.9
						C243.6,197.7,244.8,199,244.8,200.5L244.8,200.5z"/>
					<path class="st2" d="M292.2,200.5c0,1.5-1.2,2.7-2.7,2.7h-35.9c-1.5,0-2.7-1.2-2.7-2.7v-0.1c0-1.5,1.2-2.7,2.7-2.7h35.9
						C291,197.7,292.2,199,292.2,200.5L292.2,200.5z"/>
				</g>
				<g>
					<path class="st2" d="M244.8,224.4c0,1.5-1.2,2.7-2.7,2.7h-35.9c-1.5,0-2.7-1.2-2.7-2.7v-0.1c0-1.5,1.2-2.7,2.7-2.7h35.9
						C243.6,221.6,244.8,222.8,244.8,224.4L244.8,224.4z"/>
					<path class="st2" d="M292.2,224.4c0,1.5-1.2,2.7-2.7,2.7h-35.9c-1.5,0-2.7-1.2-2.7-2.7v-0.1c0-1.5,1.2-2.7,2.7-2.7h35.9
						C291,221.6,292.2,222.8,292.2,224.4L292.2,224.4z"/>
				</g>
				<g>
					<path class="st2" d="M268.3,212.8c0,1.5-1.2,2.7-2.7,2.7h-35.9c-1.5,0-2.7-1.2-2.7-2.7v-0.1c0-1.5,1.2-2.7,2.7-2.7h35.9
						C267.1,210,268.3,211.2,268.3,212.8L268.3,212.8z"/>
					<path class="st2" d="M223.6,212.8c0,1.5-1.2,2.7-2.7,2.7h-14.7c-1.5,0-2.7-1.2-2.7-2.7l0,0c0-1.5,1.2-2.7,2.7-2.7h14.7
						C222.4,210,223.6,211.3,223.6,212.8L223.6,212.8z"/>
					<path class="st2" d="M293.6,212.8c0,1.5-1.2,2.7-2.7,2.7h-14.7c-1.5,0-2.7-1.2-2.7-2.7l0,0c0-1.5,1.2-2.7,2.7-2.7h14.7
						C292.4,210,293.6,211.3,293.6,212.8L293.6,212.8z"/>
				</g>
			</g>
			<g>
				<g>
					<path class="st2" d="M244.8,343.1c0,1.5-1.2,2.7-2.7,2.7h-35.9c-1.5,0-2.7-1.2-2.7-2.7v-0.1c0-1.5,1.2-2.7,2.7-2.7h35.9
						C243.6,340.4,244.8,341.6,244.8,343.1L244.8,343.1z"/>
					<path class="st2" d="M292.2,343.1c0,1.5-1.2,2.7-2.7,2.7h-35.9c-1.5,0-2.7-1.2-2.7-2.7v-0.1c0-1.5,1.2-2.7,2.7-2.7h35.9
						C291,340.4,292.2,341.6,292.2,343.1L292.2,343.1z"/>
				</g>
				<g>
					<path class="st2" d="M244.8,367.7c0,1.5-1.2,2.7-2.7,2.7h-35.9c-1.5,0-2.7-1.2-2.7-2.7v-0.1c0-1.5,1.2-2.7,2.7-2.7h35.9
						C243.6,364.9,244.8,366.2,244.8,367.7L244.8,367.7z"/>
					<path class="st2" d="M292.2,367.7c0,1.5-1.2,2.7-2.7,2.7h-35.9c-1.5,0-2.7-1.2-2.7-2.7v-0.1c0-1.5,1.2-2.7,2.7-2.7h35.9
						C291,364.9,292.2,366.2,292.2,367.7L292.2,367.7z"/>
				</g>
				<g>
					<path class="st2" d="M268.3,356.1c0,1.5-1.2,2.7-2.7,2.7h-35.9c-1.5,0-2.7-1.2-2.7-2.7V356c0-1.5,1.2-2.7,2.7-2.7h35.9
						C267.1,353.3,268.3,354.6,268.3,356.1L268.3,356.1z"/>
					<path class="st2" d="M223.6,356.1c0,1.5-1.2,2.7-2.7,2.7h-14.7c-1.5,0-2.7-1.2-2.7-2.7l0,0c0-1.5,1.2-2.7,2.7-2.7h14.7
						C222.4,353.3,223.6,354.6,223.6,356.1L223.6,356.1z"/>
					<path class="st2" d="M293.6,356.1c0,1.5-1.2,2.7-2.7,2.7h-14.7c-1.5,0-2.7-1.2-2.7-2.7l0,0c0-1.5,1.2-2.7,2.7-2.7h14.7
						C292.4,353.3,293.6,354.6,293.6,356.1L293.6,356.1z"/>
				</g>
			</g>
			<g>
				<g>
					<g>
						<path class="st5" d="M425,308.7c0,2.4-2,4.4-4.4,4.4h-80.4c-2.4,0-4.4-2-4.4-4.4v-14.3c0-2.4,2-4.4,4.4-4.4h80.4
							c2.4,0,4.4,2,4.4,4.4V308.7z"/>
					</g>
					<g>
						<path class="st5" d="M425,341.4c0,2.4-2,4.4-4.4,4.4h-80.4c-2.4,0-4.4-2-4.4-4.4V327c0-2.4,2-4.4,4.4-4.4h80.4
							c2.4,0,4.4,2,4.4,4.4V341.4z"/>
					</g>
					<g>
						<path class="st5" d="M425,374c0,2.4-2,4.4-4.4,4.4h-80.4c-2.4,0-4.4-2-4.4-4.4v-14.3c0-2.4,2-4.4,4.4-4.4h80.4
							c2.4,0,4.4,2,4.4,4.4V374z"/>
					</g>
				</g>
			</g>
			<g>
				<g>
					<g>
						<path class="st5" d="M520.8,308.7c0,2.4-2,4.4-4.4,4.4h-80.4c-2.4,0-4.4-2-4.4-4.4v-14.3c0-2.4,2-4.4,4.4-4.4h80.4
							c2.4,0,4.4,2,4.4,4.4V308.7z"/>
					</g>
					<g>
						<path class="st5" d="M520.8,341.4c0,2.4-2,4.4-4.4,4.4h-80.4c-2.4,0-4.4-2-4.4-4.4V327c0-2.4,2-4.4,4.4-4.4h80.4
							c2.4,0,4.4,2,4.4,4.4V341.4z"/>
					</g>
					<g>
						<path class="st5" d="M520.8,374c0,2.4-2,4.4-4.4,4.4h-80.4c-2.4,0-4.4-2-4.4-4.4v-14.3c0-2.4,2-4.4,4.4-4.4h80.4
							c2.4,0,4.4,2,4.4,4.4V374z"/>
					</g>
				</g>
			</g>
			<g>
				<g>
					<path class="st3" d="M302.5,315.8c0,2.4-2,4.4-4.4,4.4h-95.9c-2.4,0-4.4-2-4.4-4.4v-68c0-2.4,2-4.4,4.4-4.4h95.9
						c2.4,0,4.4,2,4.4,4.4V315.8z"/>
				</g>
			</g>
			<g>
				<g>
					<g>
						<g>
							<circle class="st5" cx="350.7" cy="199" r="6.4"/>
						</g>
						<path class="st5" d="M514,199.5c0,1.5-1.2,2.7-2.7,2.7H372.4c-1.5,0-2.7-1.2-2.7-2.7l0,0c0-1.5,1.2-2.7,2.7-2.7h138.9
							C512.8,196.7,514,197.9,514,199.5L514,199.5z"/>
					</g>
					<g>
						<g>
							
								<ellipse transform="matrix(0.2298 -0.9732 0.9732 0.2298 52.5755 513.546)" class="st5" cx="350.7" cy="223.6" rx="6.4" ry="6.4"/>
						</g>
						<path class="st5" d="M514,224c0,1.5-1.2,2.7-2.7,2.7H372.4c-1.5,0-2.7-1.2-2.7-2.7l0,0c0-1.5,1.2-2.7,2.7-2.7h138.9
							C512.8,221.3,514,222.5,514,224L514,224z"/>
					</g>
					<g>
						<g>
							
								<ellipse transform="matrix(0.7071 -0.7071 0.7071 0.7071 -72.736 320.6863)" class="st5" cx="350.7" cy="248.1" rx="6.4" ry="6.4"/>
						</g>
						<path class="st5" d="M514,248.6c0,1.5-1.2,2.7-2.7,2.7H372.4c-1.5,0-2.7-1.2-2.7-2.7l0,0c0-1.5,1.2-2.7,2.7-2.7h138.9
							C512.8,245.9,514,247.1,514,248.6L514,248.6z"/>
					</g>
				</g>
			</g>
		</g>
		<path class="st2" d="M244.3,298.3l18-10.4c1.4-0.8,2.3-2.3,2.3-4s-0.9-3.1-2.3-4l-18-10.4c-1.4-0.8-3.3-0.8-4.8,0
			c-1.4,0.8-2.5,2.3-2.5,4v20.8c0,1.6,1.1,3.1,2.5,4C240.9,299.1,242.9,299.1,244.3,298.3z"/>
	</g>
	<g>
		<path class="st6" d="M599.6,259.5c0,6.6-6.2,12-13.8,12H348.3c-7.6,0-13.8-5.4-13.8-12V117.4c0-6.6,6.2-12,13.8-12h237.6
			c7.6,0,13.8,5.4,13.8,12V259.5z"/>
		<path class="st2" d="M592.8,123.6H341.3c-2,0-3.6,1.4-3.6,3.1v132.7c0,5.1,4.7,9.2,10.6,9.2h237.5c5.8,0,10.6-4.1,10.6-9.2V126.7
			C596.4,125,594.8,123.6,592.8,123.6z"/>
		<g>
			<circle class="st5" cx="557.4" cy="114.5" r="5.1"/>
			<circle class="st5" cx="570.4" cy="114.5" r="5.1"/>
			<circle class="st5" cx="583.5" cy="114.5" r="5.1"/>
		</g>
		<g>
			<g>
				<g>
					<path class="st5" d="M476.5,144.9c0,1.4-1.1,2.5-2.5,2.5H355.1c-1.4,0-2.5-1.1-2.5-2.5v-0.1c0-1.4,1.1-2.5,2.5-2.5H474
						c1.4,0,2.5,1.1,2.5,2.5V144.9z"/>
					<path class="st5" d="M512,144.9c0,1.4-1.2,2.6-2.6,2.6h-24.1c-1.4,0-2.6-1.2-2.6-2.6l0,0c0-1.4,1.2-2.6,2.6-2.6h24.1
						C510.9,142.3,512,143.5,512,144.9L512,144.9z"/>
					<path class="st5" d="M546,144.9c0,1.4-1.2,2.6-2.6,2.6h-24.1c-1.4,0-2.6-1.2-2.6-2.6l0,0c0-1.4,1.2-2.6,2.6-2.6h24.1
						C544.9,142.3,546,143.5,546,144.9L546,144.9z"/>
					<path class="st5" d="M381.8,156.7c0,1.4-1.2,2.6-2.6,2.6h-24.1c-1.4,0-2.6-1.2-2.6-2.6l0,0c0-1.4,1.2-2.6,2.6-2.6h24.1
						C380.7,154.1,381.8,155.3,381.8,156.7L381.8,156.7z"/>
					<path class="st5" d="M417.5,156.7c0,1.4-1.2,2.6-2.6,2.6h-24.1c-1.4,0-2.6-1.2-2.6-2.6l0,0c0-1.4,1.2-2.6,2.6-2.6H415
						C416.4,154.1,417.5,155.3,417.5,156.7L417.5,156.7z"/>
					<path class="st5" d="M459.3,170.3c0,1.4-1.2,2.6-2.6,2.6h-24.1c-1.4,0-2.6-1.2-2.6-2.6l0,0c0-1.4,1.2-2.6,2.6-2.6h24.1
						C458.1,167.7,459.3,168.9,459.3,170.3L459.3,170.3z"/>
					<path class="st5" d="M503.6,156.7c0,1.4-1.2,2.6-2.6,2.6h-65.6c-1.4,0-2.6-1.2-2.6-2.6l0,0c0-1.4,1.2-2.6,2.6-2.6H501
						C502.5,154.1,503.6,155.3,503.6,156.7L503.6,156.7z"/>
					<path class="st5" d="M423.6,170.3c0,1.4-1.2,2.6-2.6,2.6h-65.6c-1.4,0-2.6-1.2-2.6-2.6l0,0c0-1.4,1.2-2.6,2.6-2.6H421
						C422.4,167.7,423.6,168.9,423.6,170.3L423.6,170.3z"/>
				</g>
				<g>
					<path class="st5" d="M476.5,222c0,1.4-1.1,2.5-2.5,2.5H355.1c-1.4,0-2.5-1.1-2.5-2.5v-0.1c0-1.4,1.1-2.5,2.5-2.5H474
						c1.4,0,2.5,1.1,2.5,2.5V222z"/>
					<path class="st5" d="M512,221.9c0,1.4-1.2,2.6-2.6,2.6h-24.1c-1.4,0-2.6-1.2-2.6-2.6l0,0c0-1.4,1.2-2.6,2.6-2.6h24.1
						C510.9,219.4,512,220.5,512,221.9L512,221.9z"/>
					<path class="st5" d="M381.8,233.8c0,1.4-1.2,2.6-2.6,2.6h-24.1c-1.4,0-2.6-1.2-2.6-2.6l0,0c0-1.4,1.2-2.6,2.6-2.6h24.1
						C380.7,231.2,381.8,232.3,381.8,233.8L381.8,233.8z"/>
					<path class="st5" d="M417.5,233.8c0,1.4-1.2,2.6-2.6,2.6h-24.1c-1.4,0-2.6-1.2-2.6-2.6l0,0c0-1.4,1.2-2.6,2.6-2.6H415
						C416.4,231.2,417.5,232.3,417.5,233.8L417.5,233.8z"/>
					<path class="st5" d="M459.3,247.3c0,1.4-1.2,2.6-2.6,2.6h-24.1c-1.4,0-2.6-1.2-2.6-2.6l0,0c0-1.4,1.2-2.6,2.6-2.6h24.1
						C458.1,244.7,459.3,245.9,459.3,247.3L459.3,247.3z"/>
					<path class="st5" d="M497.4,247.3c0,1.4-1.2,2.6-2.6,2.6h-24.1c-1.4,0-2.6-1.2-2.6-2.6l0,0c0-1.4,1.2-2.6,2.6-2.6h24.1
						C496.2,244.7,497.4,245.9,497.4,247.3L497.4,247.3z"/>
					<path class="st5" d="M503.6,233.8c0,1.4-1.2,2.6-2.6,2.6h-65.6c-1.4,0-2.6-1.2-2.6-2.6l0,0c0-1.4,1.2-2.6,2.6-2.6H501
						C502.5,231.2,503.6,232.3,503.6,233.8L503.6,233.8z"/>
					<path class="st5" d="M423.6,247.3c0,1.4-1.2,2.6-2.6,2.6h-65.6c-1.4,0-2.6-1.2-2.6-2.6l0,0c0-1.4,1.2-2.6,2.6-2.6H421
						C422.4,244.7,423.6,245.9,423.6,247.3L423.6,247.3z"/>
					<path class="st5" d="M539,247.3c0,1.4-1.2,2.6-2.6,2.6h-65.6c-1.4,0-2.6-1.2-2.6-2.6l0,0c0-1.4,1.2-2.6,2.6-2.6h65.6
						C537.9,244.7,539,245.9,539,247.3L539,247.3z"/>
				</g>
				<g>
					<path class="st5" d="M476.5,191.6c0,1.4-1.1,2.5-2.5,2.5H355.1c-1.4,0-2.5-1.1-2.5-2.5v-0.1c0-1.4,1.1-2.5,2.5-2.5H474
						c1.4,0,2.5,1.1,2.5,2.5V191.6z"/>
					<path class="st5" d="M382,204.9c0,1.4-1.2,2.6-2.6,2.6h-24.1c-1.4,0-2.6-1.2-2.6-2.6l0,0c0-1.4,1.2-2.6,2.6-2.6h24.1
						C380.9,202.4,382,203.5,382,204.9L382,204.9z"/>
					<path class="st5" d="M568.7,204.9c0,1.4-1.2,2.6-2.6,2.6H542c-1.4,0-2.6-1.2-2.6-2.6l0,0c0-1.4,1.2-2.6,2.6-2.6h24.1
						C567.5,202.4,568.7,203.5,568.7,204.9L568.7,204.9z"/>
					<path class="st5" d="M460.1,204.9c0,1.4-1.2,2.6-2.6,2.6h-65.6c-1.4,0-2.6-1.2-2.6-2.6l0,0c0-1.4,1.2-2.6,2.6-2.6h65.6
						C459,202.4,460.1,203.5,460.1,204.9L460.1,204.9z"/>
					<path class="st5" d="M534.8,204.9c0,1.4-1.2,2.6-2.6,2.6h-65.6c-1.4,0-2.6-1.2-2.6-2.6l0,0c0-1.4,1.2-2.6,2.6-2.6h65.6
						C533.7,202.4,534.8,203.5,534.8,204.9L534.8,204.9z"/>
				</g>
			</g>
		</g>
	</g>
	<g>
		<g>
			<path class="st7" d="M241.6,99.6l-4.7-0.3c-1.3-4.1-3.2-7.9-5.7-11.3l2.6-3.9c1.5-2.3,0.8-5.4-1.5-6.9l-14.6-9.5
				c-2.3-1.5-5.4-0.8-6.9,1.5l-2.6,3.9c-2-0.4-4-0.7-6.1-0.8c-2-0.1-4-0.1-5.9,0.1l-2.1-4.2c-1.2-2.5-4.2-3.5-6.7-2.3l-15.6,7.7
				c-2.5,1.2-3.5,4.2-2.3,6.7l2.1,4.2c-2.9,3.1-5.4,6.8-7.1,10.8l-4.7-0.3c-2.8-0.2-5.1,2-5.3,4.7l-1,17.4c-0.2,2.8,2,5.1,4.7,5.3
				l4.7,0.3c1.3,4.1,3.2,7.9,5.7,11.3l-2.6,3.9c-1.5,2.3-0.8,5.4,1.5,6.9l14.6,9.5c2.3,1.5,5.4,0.8,6.9-1.5l2.6-3.9
				c2,0.4,4,0.7,6.1,0.8c2,0.1,4,0.1,5.9-0.1l2.1,4.2c1.2,2.5,4.2,3.5,6.7,2.3l15.6-7.7c2.5-1.2,3.5-4.2,2.3-6.7l-2.1-4.2
				c2.9-3.1,5.4-6.8,7.1-10.8l4.7,0.3c2.8,0.2,5.1-2,5.3-4.7l1-17.4C246.5,102.1,244.4,99.7,241.6,99.6z M210.9,111.6
				c-0.3,6.1-5.5,10.7-11.6,10.4c-6.1-0.3-10.7-5.5-10.4-11.6c0.3-6.1,5.5-10.7,11.6-10.4C206.6,100.4,211.3,105.6,210.9,111.6z"/>
			<path class="st2" d="M208,82.4c2.1,0.6,4.1,1.4,6,2.4c14.3,7.7,19.7,25.7,12,40c-0.2,0.4-0.7,0.5-1.1,0.3
				c-0.4-0.2-0.5-0.7-0.3-1.1c7.3-13.6,2.2-30.5-11.3-37.9c-13.6-7.3-30.5-2.2-37.9,11.3c-3.5,6.6-4.3,14.1-2.2,21.3
				c2.1,7.2,6.9,13,13.5,16.6c0.4,0.2,0.5,0.7,0.3,1.1c-0.2,0.4-0.7,0.5-1.1,0.3c-14.3-7.7-19.7-25.7-12-40
				C180.7,84.5,195,78.8,208,82.4z"/>
			<path class="st2" d="M192,82.6c0.3,0.1,0.5,0.3,0.5,0.5c0.1,0.4-0.1,0.9-0.5,1c-7.2,2.1-13,6.9-16.6,13.5
				c-3.5,6.6-4.3,14.1-2.2,21.3c2.1,7.2,6.9,13,13.5,16.6c6.6,3.5,14.1,4.3,21.3,2.2c7.2-2.1,13-6.9,16.6-13.5
				c3.5-6.6,4.3-14.1,2.2-21.3c-0.1-0.4,0.1-0.9,0.5-1c0.4-0.1,0.9,0.1,1,0.5c2.3,7.6,1.4,15.5-2.3,22.5c-3.7,6.9-10,12-17.5,14.3
				c-7.6,2.3-15.5,1.4-22.5-2.3c-6.9-3.7-12-10-14.3-17.5c-2.3-7.6-1.4-15.5,2.3-22.5c3.7-6.9,10-12,17.5-14.3
				C191.7,82.5,191.9,82.5,192,82.6z"/>
			<path class="st2" d="M206.8,86.9c1.7,0.5,3.4,1.2,5.1,2.1c5.8,3.2,10.1,8.4,12,14.8c1.9,6.4,1.2,13.1-1.9,18.9
				c-0.2,0.4-0.7,0.5-1.1,0.3c-0.4-0.2-0.5-0.7-0.3-1.1c3-5.5,3.6-11.8,1.8-17.7c-1.8-6-5.8-10.9-11.2-13.8
				c-5.5-3-11.8-3.6-17.7-1.8c-6,1.8-10.9,5.8-13.8,11.2c-3,5.5-3.6,11.8-1.8,17.7c1.8,6,5.8,10.9,11.2,13.8
				c0.4,0.2,0.5,0.7,0.3,1.1c-0.2,0.4-0.7,0.5-1.1,0.3c-5.8-3.2-10.1-8.4-12-14.8c-1.9-6.4-1.2-13.1,1.9-18.9
				C183.8,88.6,195.8,83.9,206.8,86.9z"/>
		</g>
		<g>
			<path class="st7" d="M139.8,132.4l-1.7,2.5c-1.3-0.3-2.6-0.5-3.9-0.6c-1.3-0.1-2.5,0-3.7,0.1l-1.3-2.7c-0.8-1.6-2.7-2.2-4.3-1.5
				l-10,4.9c-1.6,0.8-2.2,2.7-1.5,4.3l1.3,2.7c-1.9,2-3.4,4.3-4.5,6.9l-3-0.2c-1.8-0.1-3.3,1.3-3.4,3l-0.6,11.1
				c-0.1,1.8,1.3,3.3,3,3.4l3,0.2c0.8,2.6,2,5,3.6,7.2l-1.6,2.5c-1,1.5-0.5,3.5,0.9,4.4l9.3,6.1c1.5,1,3.5,0.5,4.4-0.9l1.7-2.5
				c1.3,0.3,2.6,0.5,3.9,0.6c1.3,0.1,2.5,0,3.7-0.1l1.3,2.7c0.8,1.6,2.7,2.2,4.3,1.5l10-4.9c1.6-0.8,2.2-2.7,1.5-4.3L151,176
				c1.9-2,3.4-4.3,4.5-6.9l3,0.2c1.8,0.1,3.3-1.3,3.4-3l0.6-11.1c0.1-1.8-1.3-3.3-3-3.4l-3-0.2c-0.8-2.6-2-5-3.6-7.2l1.6-2.5
				c1-1.5,0.5-3.5-0.9-4.4l-9.3-6.1C142.8,130.5,140.8,130.9,139.8,132.4z M139.9,159.5c-0.2,3.9-3.5,6.8-7.4,6.6
				c-3.9-0.2-6.8-3.5-6.6-7.4c0.2-3.9,3.5-6.8,7.4-6.6C137.2,152.3,140.1,155.7,139.9,159.5z"/>
			<g>
				<path class="st2" d="M141.6,143.4c-1.2-0.6-2.4-1.1-3.7-1.5c-3.2-0.9-6.7-0.9-10,0.1c-4.6,1.4-8.4,4.5-10.7,8.7
					c-4.7,8.7-1.4,19.6,7.3,24.4c0.4,0.2,0.9,0.1,1.1-0.3c0.2-0.4,0.1-0.9-0.3-1.1c-7.9-4.3-10.9-14.2-6.6-22.2
					c2.1-3.9,5.5-6.7,9.7-7.9c4.2-1.3,8.6-0.8,12.5,1.3c7.9,4.3,10.9,14.2,6.6,22.2c-0.2,0.4-0.1,0.9,0.3,1.1
					c0.4,0.2,0.9,0.1,1.1-0.3C153.6,159,150.3,148.1,141.6,143.4z"/>
				<path class="st2" d="M145.6,154.6c-0.4,0.1-0.7,0.6-0.5,1c2,6.6-1.8,13.6-8.4,15.6c-6.6,2-13.6-1.8-15.6-8.4
					c-1-3.2-0.6-6.6,1-9.5c1.6-2.9,4.2-5.1,7.4-6.1c0.4-0.1,0.7-0.6,0.5-1c-0.1-0.3-0.3-0.5-0.5-0.5c-0.1,0-0.3,0-0.4,0
					c-7.5,2.2-11.7,10.1-9.5,17.6c2.2,7.5,10.1,11.7,17.6,9.5c7.5-2.2,11.7-10.1,9.5-17.6C146.5,154.7,146,154.5,145.6,154.6z"/>
			</g>
		</g>
	</g>
	<path class="st2" d="M468.1,94.7c-36.3-28.9-50.7-21.2-55.8-15.1c-1.7,2-4.4,3.2-7.4,3.3c-3,0.1-5.8-1-7.6-3
		c-5.3-5.6-9.5-11.5-19-12.3c-8.5-0.6-18.4,2.3-21.9,9.2c-2.9,5.8,0,12.3,3.2,17.9H468.1z"/>
	<g>
		<g>
			<rect x="478.2" y="412.8" class="st3" width="3.2" height="34.7"/>
			<path class="st3" d="M457.9,451.9c0.3-1.3,1.1-3.2,2.7-4.6c3.4-2.9,8.1-1.4,14.9-1.3c9.6,0.1,8.8-2.7,15.9-2.1
				c10.7,0.9,20.4,8,20.4,8l0,0C511.8,451.9,492.9,451.9,457.9,451.9z"/>
			<path class="st3" d="M479.1,325.1c10.1-8.3,31-2.1,40.4,19.7c18.6,42.8-23.4,91-70.6,57c-9.9-7.2,9.3-25.8,15.3-38.7
				C470.2,350,469,333.4,479.1,325.1z"/>
			<path class="st1" d="M481.8,327c0,0,13.5,2.9,20.1,26.3c11.8,42.2-15.8,64.4-53.6,42c26.2-8.5,30.2-36,30.2-36L481.8,327z"/>
		</g>
		<path class="st7" d="M519.3,307.5c-2.9-0.8-5.7-1.6-8.4-2.2c-2.3-0.5-4.6-1-6.7-1.4c0,0,0,0,0,0c-0.4-0.1-0.8-0.2-1.2-0.2
			c-6.6-1.1-14,0.3-20.9,2.7c-1.9,0.6-3.7,1.4-5.5,2.1c-11.6,4.9-58.9,21.1-61.2,35.7c-0.7,4.8-0.9,10.1,1.9,14.1
			c4,5.9,12.7,8.4,22.1,6.6c2.3-3,4.5-6.1,6.8-9.1c-8.1-2.3-12.2-4.6-12.2-7c0-3.3,7.7-6.7,23.1-10.2c-0.5,4.3-1.8,10.9-5.5,17.8
			c-5,9.2-9.5,10.2-10.3,14.9c-1.3,8.1,10,21.3,24,27.6c0.2,0.1,0.3,0.1,0.5,0.2c0.2,0.1,0.3,0.1,0.5,0.2c0.8,0.3,1.5,0.6,2.3,0.9
			c0.3,0.1,0.6,0.2,0.9,0.3c0.2,0.1,0.4,0.1,0.6,0.2c0.2,0.1,0.3,0.1,0.5,0.2c0.2,0,0.3,0.1,0.5,0.1c0.5,0.1,0.9,0.3,1.4,0.4
			c0.1,0,0.3,0.1,0.4,0.1c0.4,0.1,0.7,0.2,1.1,0.2c0.3,0.1,0.5,0.1,0.8,0.2c0.2,0,0.4,0.1,0.6,0.1c0.3,0,0.5,0.1,0.8,0.1
			c0.8,0.1,1.5,0.2,2.3,0.2c0.1,0,0.3,0,0.4,0c0.1,0,0.2,0,0.3,0c0.2,0,0.3,0,0.5,0c3.3,0.1,6.6-0.3,9.7-1.5
			c14.5-5.3,20-23.5,21.3-27.8c2.4-7.9,2.2-14.4,1.9-23.2c0-0.4,0-0.7,0-1.1c0-0.5,0-0.9-0.1-1.4c-0.4-8.9-1.7-16.6-3.1-22.6
			c-0.4-1.9-0.8-3.5-1.3-5.1C510.7,317.4,515.2,313.4,519.3,307.5z"/>
		<g>
			<path class="st4" d="M370.8,432.1c0,0-24.3,3-32.7,12.8c1,0.2,1.9,0.4,2.9,0.5c1.5,0.2,2.6,0.3,2.9,0.4
				c6.3,0.6,23.8,5.2,42.7,3.4c1.6-0.2,4.2-0.5,7.3-1c0.4-3.3,0.7-6.7,1.1-10L370.8,432.1z"/>
			<path class="st6" d="M338.1,444.9c-1.8,2.1-2.8,4.4-2.8,7.1c19.9,0,58.1,0,58.1,0l0.4-3.9c-10.8,0.7-19.2-0.2-25-1.3
				c-5.6-1-11.4-2.6-20.2-2.6C344.2,444.2,340.5,444.6,338.1,444.9z"/>
		</g>
		<g>
			<g>
				<path class="st4" d="M439.4,432.1c0,0-24.3,3-32.7,12.8c1,0.2,1.9,0.4,2.9,0.5c1.5,0.2,2.6,0.3,2.9,0.4
					c6.3,0.6,23.8,5.2,42.7,3.4c1.6-0.2,4.2-0.5,7.3-1c0.4-3.3,0.7-6.7,1.1-10L439.4,432.1z"/>
				<path class="st6" d="M406.7,444.9c-1.8,2.1-2.8,4.4-2.8,7.1c19.9,0,58.1,0,58.1,0l0.4-3.9c-10.8,0.7-19.2-0.2-25-1.3
					c-5.6-1-11.4-2.6-20.2-2.6C412.8,444.2,409.1,444.6,406.7,444.9z"/>
			</g>
		</g>
		<path class="st8" d="M444.9,357.1c0,0,13.7,0.9,20.1,6.7c2.9,2.6-16.3,2.2-19.2,1.2c-2.9-1-5.4-1.7-5.4-1.7L444.9,357.1z"/>
		<path class="st9" d="M510.9,305.3c2.7,0.6,5.6,1.4,8.4,2.2c-4.1,5.9-8.6,9.9-11.5,12.2c0.4,1.5,0.8,3.2,1.3,5.1
			c1.4,6,2.7,13.6,3.1,22.6c0,0.4,0,0.9,0.1,1.4c0,0.4,0,0.7,0,1.1c0.3,8.8,0.5,15.4-1.9,23.2c-1.3,4.3-6.8,22.5-21.3,27.8
			c-3.1,1.1-6.4,1.6-9.7,1.5c-0.2,0-0.3,0-0.5,0c-0.1,0-0.2,0-0.3,0c-0.1,0-0.3,0-0.4,0c-0.8-0.1-1.5-0.1-2.3-0.2
			c-0.3,0-0.5-0.1-0.8-0.1c-0.2,0-0.4-0.1-0.6-0.1c-0.3,0-0.5-0.1-0.8-0.2c-0.4-0.1-0.7-0.2-1.1-0.2c-0.1,0-0.3-0.1-0.4-0.1
			c-0.5-0.1-1-0.3-1.4-0.4c-0.2,0-0.3-0.1-0.5-0.1c-0.2,0-0.3-0.1-0.5-0.2c-0.2-0.1-0.4-0.1-0.6-0.2c-0.3-0.1-0.6-0.2-0.9-0.3
			c-0.8-0.3-1.6-0.6-2.3-0.9c-0.2-0.1-0.3-0.1-0.5-0.2c-0.2-0.1-0.3-0.1-0.5-0.2c13.4-4.6,23.8-12.4,28.5-22.8
			c6.2-13.7,4.1-28.8,4.1-28.8c-1.5-10.8-6.1-16.9-6.2-22.9c0-1.6,0.2-3.2,1-4.8c2.7-6.1,7.9-5,15.5-11.4
			C509,307.2,510,306.3,510.9,305.3z"/>
		<path class="st10" d="M461.8,371.7c-25.2,3.4-42.3,21.3-42.3,39.1c0,13.3,9.6,22.9,12.8,25.8c3.3,1.2,7.7,2.5,13,2.9
			c8.3,0.6,14.9,0.1,19-1.2c-12.4-7.8-16.2-24.6-9.8-35.8c5.2-9.2,16.6-14.1,27.9-11.8C482.6,387.3,489.9,378.3,461.8,371.7z"/>
		<g>
			<g>
				<path class="st11" d="M458.9,368.6c-13.7,2.2-32.9,5.2-45.6,5.5c-21.8,0.4-27.2,1.4-31.9,6.4c-7.3,7.7-2.3,17.6-10,40.3
					c-1.7,5.1-3.6,9.2-4.8,11.8c1.8,0.9,3.8,1.8,5.8,2.6c9,3.6,17.4,4.9,24.1,5.2c0.3-2.6,0.7-6.7,1.6-11.5
					c2.6-15.2,3.9-22.8,7.6-27.2c7.6-9.2,21.7-1.9,45.3-3c9.7-0.4,23.1-2.4,39-9.1c-1-3.3-4.1-6.9-6.8-9.4
					C476.2,373.7,468.8,370.1,458.9,368.6z"/>
			</g>
		</g>
		<g>
			<path class="st2" d="M375.6,452.3L375.6,452.3c-1-0.2-1.6-1.2-1.3-2.2l19.6-78.8c0.2-1,1.2-1.6,2.2-1.3h0c1,0.2,1.6,1.2,1.3,2.2
				l-19.6,78.8C377.5,451.9,376.5,452.5,375.6,452.3z"/>
			<path class="st2" d="M392.4,365.3c43.5,0,87.1,0,130.6,0c7.4,0,8.6,3.9,7.7,6.4c-0.9,2.4-8.5,3.1-13.3,3.3
				c-25.5,1.5-52.8-2-70.4-2.9c-37.6-2-63.7,6.3-67.3,0.6c-1-1.6-1.2-3.5,1.3-5.2C384.6,365.3,388.9,365.3,392.4,365.3z"/>
			<path class="st2" d="M529,452.3L529,452.3c1-0.2,1.6-1.2,1.3-2.2l-19.6-78.8c-0.2-1-1.2-1.6-2.2-1.3l0,0c-1,0.2-1.6,1.2-1.3,2.2
				l19.6,78.8C527,451.9,528,452.5,529,452.3z"/>
		</g>
		<path class="st4" d="M432.9,360.3l-44.1-0.6c-1.3,0-2.4-1.1-2.5-2.4l-0.6-27.4c0-1.4,1.1-2.5,2.5-2.5l46.3-0.6
			c1.4,0,2.6,1.2,2.5,2.6l-1.7,28.6C435.4,359.3,434.3,360.3,432.9,360.3z"/>
		<path class="st4" d="M413.7,347.4c-2.1,0-6.8,0-8,0c-1.3,0-1.5,1.3-1.9,2.4c-2.6,6.5-5.9,12.2-5,14.5c0.4,1.1,2,1.6,4.5,1.6
			s12.2-0.2,13.8-0.2c1.6,0,2.5,0.1,3.1-0.4c1.3-1.5-1.6-1.9-3.9-1.9c-2.3,0-5-0.1-5.4-0.7C410.4,362.2,415.8,347.4,413.7,347.4z"/>
		<path class="st8" d="M514.2,348l-7.9,5.7l-0.7-0.2c-1.3-0.6-9.2-3.9-15.1,0c-1.1,0.7-3.8,2.5-4,5.5c-0.2,2.5,1.4,5.3,3,5.4
			c2.2,0.1,2.4-4.9,5.9-6c2.9-0.9,4.7,2.2,8.6,2.2c2.2,0,5.1-0.9,8.5-4.6l5.3-2.5L514.2,348z"/>
		<path class="st7" d="M514.9,365.9l-2.7-17.2l-0.2-1.3c0,0,0.1,0,0.1-0.1c1.7-0.7,18.3-7.7,14.7-11.4c-2.2-2.2-9.7-7.9-17.8-11.2
			c-6.3-2.6-12.9-3.8-17.4-0.6c-0.1,0-0.1,0.1-0.2,0.1c-8.9,6.1-23.4-4.5-26.8-7.2c-0.5-0.4-0.7-0.6-0.7-0.6s0,0,0,0
			c0.3-0.2,6.3-4.3,12.5-8.1c1.8-0.8,3.6-1.5,5.5-2.1c6.9-2.4,14.3-3.8,20.9-2.7c0.4,0.1,0.8,0.1,1.2,0.2c0,0,0,0,0,0
			c2.1,0.4,4.4,0.9,6.7,1.4c2.7,0.6,5.6,1.4,8.4,2.2c15.8,4.7,32.3,12.8,34.2,26.3C557,359.2,524.2,366.5,514.9,365.9z"/>
		<path class="st8" d="M475.7,301.6l0.5,3.7c0.2,1.2,1.2,2.3,2.6,1.8l6.3-1.7l-12.4,12.7l-8.7-4.7l4.9-2.8c0.8-0.5,1.8-0.9,1.9-1.9
			l1.3-5.5L475.7,301.6z"/>
		<g>
			<path class="st8" d="M467.8,298.2c0,0-1.4,1.3-1,3.9c0.4,2.6,1.7,5.2,4.4,5.7c2.7,0.5,4.9-3.9,4.7-7.2
				C475.6,297.3,467.8,298.2,467.8,298.2z"/>
			<path class="st11" d="M476.4,301.4c1.2-1.9,1.7-2.9,1.5-4.2c-0.3-1.9-2.3-3.3-4-3.5c-1.8-0.3-3.4,0.7-4,1
				c-1.1,0.7-1.2,1.3-2.3,1.6c-1.1,0.3-1.6-0.1-2.4,0.4c-0.6,0.4-1.2,1.1-1.2,1.9c0,1.1,1.2,2.1,2.3,2.3c1.7,0.2,2.3-1.7,5-2
				c0.3,0,2.1-0.3,2.5,0.5c0.4,0.8-1,1.9-0.5,3.1c0.2,0.5,0.7,0.9,1.2,1C475.2,303.4,475.7,302.4,476.4,301.4z"/>
			<path class="st8" d="M475,303.8c0,0,0.1-2.7,1.6-2.4C478,301.6,477.1,303.7,475,303.8z"/>
		</g>
	</g>
	<g>
		<polygon class="st4" points="722,287.5 725.3,280.9 735.2,279.9 734.1,287.1 		"/>
		<path class="st4" d="M548.6,290.1l-15.2-1.3c-1.1-0.6-4.2-2.1-8.3-1.6c-2.4,0.3-4.1,1.3-5.2,1.9c0,0,5.9,2,7.4,2.6
			c1.6,0.5-1.4,7.3-10,10h-5.8c0.8,1.1,3.6,4.4,8.3,5.4c5.2,1.1,10.8-1,14.5-5.4c0.4-0.9,1.7-3.4,4.6-4.9c4.5-2.4,9.1-0.3,9.6,0
			V290.1z"/>
		<path class="st8" d="M731.2,222.4c-25.7-7.6-67.4,1.9-97.3,21.3c-22.1,14.4-32,30.3-62,39.6c-14.2,4.4-26.6,5.3-34.6,5.4
			c1,2.5,2,4.9,3,7.4c4.1,8,8.9,11.5,12.3,13.1c16.4,8.2,43.1,1,64.4-26.3c-0.2,10.7-3.3,12.4-6.3,15.9c-10.9,12.6-30,7.7-36,19.8
			c-2,4.2-1.9,9-0.8,12.5c5.9,17.7,45.8,18.5,53.8,18.7c34.9,1.1,84.8-10.3,90.3-36.4c1.3-5.9-0.1-11-1.8-17.1
			c-6.1-22.8-23.8-35.3-30.4-39.4c12.8-13.8,31.9-12.1,38.6-3.2c5.7,7.6,4.1,22.4-7,32.6c0,0,0.1,0,0.1,0c0,0-0.1,0-0.1,0l0.1,0l0,0
			c2.7,0.8,7.5,0.7,12.7,0.3c11.7-1,25.9-3.9,25.9-3.9C770.6,229.8,731.2,222.4,731.2,222.4z"/>
		<g>
			<path class="st7" d="M574.7,431.8c0,0-24.3,3-32.7,12.8c1,0.2,1.9,0.4,2.9,0.5c1.5,0.2,2.6,0.3,2.9,0.4
				c6.3,0.6,23.8,5.2,42.7,3.4c1.6-0.2,4.2-0.5,7.3-1c0.4-3.3,0.7-6.7,1.1-10L574.7,431.8z"/>
			<path class="st9" d="M542,444.7c-1.8,2.1-2.8,4.4-2.8,7.1c19.9,0,58.1,0,58.1,0l0.4-3.9c-10.8,0.7-19.2-0.2-25-1.3
				c-5.6-1-11.4-2.6-20.2-2.6C548,444,544.4,444.3,542,444.7z"/>
		</g>
		<path class="st12" d="M738.7,254.6c-1.7-13.9-21.8-19.9-34.9-19.2c-18.8,1.1-36.4,16.8-34.6,27c1.2,6.7,9.9,6.1,18.6,16
			c13.7,15.5,13.1,40.5,8.1,42.4c-4.4,1.7-8.1-16-26.2-24.7c-13.1-6.3-32.6-7.4-46.8,0.9c-8.3,4.8-9.4,9.8-20.9,14.5
			c-7.8,3.2-12,2.8-18.3,6.4c-4.5,2.6-7.9,5.9-10.6,9.3c0.1,1.4,0.4,2.7,0.8,3.9c5.9,17.7,45.8,18.5,53.8,18.7
			c34.9,1.1,84.8-10.3,90.3-36.4c1.3-5.9-0.1-11-1.8-17.1c-6.1-22.8-23.8-35.3-30.4-39.4c12.8-13.8,31.9-12.1,38.6-3.2
			c4.4,5.7,4.5,15.6-0.6,24.5C734,272.4,739.7,262.9,738.7,254.6z"/>
		<path class="st4" d="M627.6,236.9l4.4,10.3c0,0,5.1-0.5,7.4-3.8l-8.9-9.2L627.6,236.9z"/>
		<g>
			<path class="st4" d="M622.9,229.7c0,0-2,1.1-2.1,4.2c-0.1,3.1,0.7,6.5,3.7,7.7c3,1.3,6.7-3.3,7.2-7.2
				C632.2,230.5,622.9,229.7,622.9,229.7z"/>
			<path class="st11" d="M632.1,235.5c1.8-2,2.8-2.9,2.8-4.4c0.1-2.3-1.9-4.4-3.8-5.1c-2-0.8-4.2-0.1-4.9,0.2
				c-1.4,0.5-1.7,1.2-3.1,1.3c-1.3,0.1-1.8-0.5-2.9-0.2c-0.8,0.3-1.7,1-1.8,1.9c-0.3,1.3,0.8,2.8,2.1,3.2c1.9,0.7,3.1-1.4,6.3-1.1
				c0.4,0,2.5,0.2,2.8,1.2c0.3,1-1.7,1.9-1.4,3.5c0.1,0.6,0.6,1.3,1.2,1.4C630.2,237.5,631.1,236.5,632.1,235.5z"/>
			<path class="st4" d="M630,238c0,0,0.8-3.1,2.4-2.4C634,236.2,632.3,238.4,630,238z"/>
		</g>
		<path class="st4" d="M712.3,308c-1.9,0.7-5.1-1.7-6.2-4.6c-1.3-3.5,0.9-7,1.8-8.3c4.8-7.5,15.6-7.8,17.3-7.8l9.1-0.8
			c-2,6-4.8,8.6-7.4,9.7c-4.5,2-8.1-0.6-11,1.9C712.5,301.1,714.8,307,712.3,308z"/>
		<g>
			<path class="st7" d="M652.4,423.1c0,0-22.6,9.4-28.1,21c1-0.1,1.9-0.1,2.9-0.2c1.5-0.2,2.6-0.4,2.9-0.4c6.2-1.1,24.3-1.3,42-8.1
				c1.5-0.6,3.9-1.5,6.8-2.9c-0.5-3.3-1.1-6.7-1.6-10L652.4,423.1z"/>
			<path class="st9" d="M624.3,444.2c-1.2,2.5-1.6,5-0.9,7.6c19.2-5.3,56-15.5,56-15.5l-0.6-3.9c-10.2,3.6-18.6,4.9-24.4,5.4
				c-5.6,0.5-11.6,0.5-20.2,2.8C630,441.9,626.5,443.2,624.3,444.2z"/>
		</g>
		<path class="st11" d="M679.5,423.3l-39.3,6c-18.6-8.3-33.8-22.2-38-37.6c-3.6-13.2,5.1-27.1,11.4-35.9c0,0,0,0,0,0
			c0.3-0.4,0.5-0.7,0.8-1.1c-4.7,2-15.2,5.2-25.1,27.4c-12.3,27.5,10.9,53.4,12.6,56.9c-0.4,0.1-13.7-2-23.9-3.7
			c-6.3-1-11.5-1.9-11.8-2c-1-0.2-3.3-6.4-3.9-7.4c-3.7-6.5-5.8-14.2-7.3-21.5c-4-19.3-0.3-40,12.9-55.2
			c7.7-8.8,17.5-16.3,26.3-23.9c10.6-9.1,19.9-16.1,26.5-20.7c6.4-1.8,17.1-3.9,30.2-2.3c16.9,2.1,28.9,9.4,34.8,13.5
			c-8.7,18.7-18.7,30.9-26.4,38.7c-10,10-21.9,18.5-20,27.4c0.9,4.2,4.4,6.7,5.9,7.8c0.5,0.4,1.1,0.7,1.7,1.1
			C680.7,410.3,679.5,423.3,679.5,423.3z"/>
		<path class="st10" d="M621.9,344.2l-6.7,10.2c-0.5,0.4-1.1,0.9-1.6,1.4c0.3-0.4,0.5-0.7,0.8-1.1c-4.7,2-15.2,5.2-25.1,27.4
			c-12.3,27.5,10.9,53.4,12.6,56.9c-0.4,0.1-13.7-2-23.9-3.7c-16.1-16.1-9-45.2,0.8-56.4c10.9-12.6,7.3-16.5,13.7-27.3
			C598.9,340.8,621.9,344.2,621.9,344.2z"/>
		<path class="st4" d="M626.6,248.8l9.7,4l11.6-17C647.8,235.8,631.3,243.3,626.6,248.8z"/>
	</g>
	<g>
		<g>
			<path class="st8" d="M254,433.4c-0.4,6.3-0.9,12.5-1.3,18.8c19.5-0.1,39-0.3,58.5-0.4c-0.6-1.8-1.6-4.3-3.6-6.7
				c-4.2-5.2-10.1-7.1-16-8.4C276.9,433.4,262.1,433.2,254,433.4z"/>
			<path class="st12" d="M254.1,448.4l54.2-0.4c0.3,0,0.5-0.2,0.5-0.5c0-0.3-0.2-0.5-0.5-0.5l-54.2,0.4c-0.3,0-0.5,0.2-0.5,0.5
				C253.5,448.2,253.8,448.5,254.1,448.4z"/>
			<path class="st12" d="M292.6,441.3c0,1,0.8,1.8,1.8,1.8c1,0,1.8-0.8,1.8-1.8c0-1-0.8-1.8-1.8-1.8
				C293.4,439.5,292.6,440.3,292.6,441.3z"/>
			<path class="st12" d="M283.7,438.6c0,1,0.8,1.8,1.8,1.8c1,0,1.8-0.8,1.8-1.8c0-1-0.8-1.8-1.8-1.8
				C284.5,436.8,283.7,437.6,283.7,438.6z"/>
		</g>
		<g>
			<path class="st8" d="M174.2,415.4c-5.3,2.5-10.6,5-15.8,7.5c8.9,15.8,17.9,31.5,26.8,47.3c1.2-1.3,2.7-3.2,3.8-5.9
				c2.3-5.8,1.1-11.4-0.4-16.8C184.6,434,178.1,421.9,174.2,415.4z"/>
			<path class="st12" d="M162.1,422.3l24.8,43.8c0.1,0.2,0.4,0.3,0.7,0.2c0.2-0.1,0.3-0.4,0.2-0.7l-24.8-43.8
				c-0.1-0.2-0.4-0.3-0.7-0.2C162,421.8,161.9,422.1,162.1,422.3z"/>
			<path class="st12" d="M185.3,450.3c-0.8,0.4-1.1,1.5-0.6,2.2c0.4,0.8,1.5,1.1,2.2,0.6c0.8-0.4,1.1-1.5,0.6-2.2
				C187.1,450.2,186.1,449.9,185.3,450.3z"/>
			<path class="st12" d="M183.5,441.9c-0.8,0.4-1.1,1.5-0.6,2.2s1.5,1.1,2.2,0.6c0.8-0.4,1.1-1.5,0.6-2.2S184.3,441.4,183.5,441.9z"
				/>
		</g>
		<path class="st11" d="M191,239c-12.3-5.4-26.4,9.2-35.4,2.3c-4.8-3.6-2.1-8.8-6.6-16c-7-11.1-24.2-15.8-35.7-13.6
			c-25.1,5-47.2,48.3-30.1,77.4c10.2,17.5,32.8,26.9,56.7,24.1c36-4.1,61.6-22.7,64.1-43.5C205.2,259.2,201,243.4,191,239z"/>
		<path class="st10" d="M83.2,289.2c-12.5-21.4-3.9-50.4,11.4-66.3c6.4,1.2,12.1,3.6,14.1,8.3c4,9.4-11.8,18.4-11.2,34.6
			c0.6,18.7,22.5,37.4,34.3,33.9c11-3.3,7.8-24.6,20.8-29.1c10.5-3.7,16.9,8.7,30.8,6.7c7.3-1.1,15.5-5.9,20.8-12.7
			c0.1,1.9,0,3.7-0.2,5.3c-2.5,20.8-28.1,39.4-64.1,43.5C116,316.1,93.4,306.8,83.2,289.2z"/>
		<path class="st4" d="M243.2,319.1c38.4,0.8,25.4-35.8,25.9-37c-1.8-1.7-9.6,0.3-11.4-1.4c-6.5,6,3.3,11.6-10.1,12.7
			c-14.8,1.2-24.6-6.1-48-19.1c-13.7-7.6-23.8-13.2-32.2-17.3c-0.2-0.1-0.3-0.2-0.5-0.3c0,0,0,0,0,0s0,0,0,0
			c-0.3-0.1-8.4-3.7-18.6-4.3c-11-0.6-17.5,22.6-11.1,29c-3.1,5.2-9.9,25.6-10.8,26.9c1,0.7-22.3,49.5-16.5,57.1
			c0,0,21.6,17.2,24.9,19.5c0.1,0.1,0.1,0.1,0.2,0.2c0,0,0.1,0.1,0.1,0.1c0,0,1.3,0.8,1.8,1c0.4,0.2,0.8,0.4,1.3,0.7
			c0.6,0.4,1.2,0.7,1.9,1.1c0.2,0.1,0.3,0.2,0.5,0.3c0.3,0.2,0.7,0.4,1.1,0.6c0.1,0,0.1,0.1,0.2,0.1c0.3,0.2,0.6,0.3,0.9,0.5
			c0.2,0.1,0.4,0.2,0.6,0.3c0.3,0.2,0.7,0.4,1,0.6c1.2,0.6,2.5,1.3,3.8,2l0,0c15.1,7.4,38.4,15.3,61,4.6
			c28.7-13.7,43.4-51.4,34.2-65.2c-2.9-4.4-6.8-4.3-16.5-12.6c-8.4-7.2-13.9-14.4-17.2-19.4C211.2,301.4,221.5,318.6,243.2,319.1z"
			/>
		<path class="st6" d="M245.9,343.7c-0.6,17.2-14.4,42.5-36.9,53.2c-22.6,10.8-45.9,2.9-61-4.6c-4.7-2.3-8.6-4.6-11.4-6.2
			c-0.4-0.3-1.1-0.7-2-1.3c-3.7-2.6-10.6-8.1-16.1-12.3c-2.6-6.7-1.6-10.8-1.1-19c1-17.7,11.4-31.5,16.7-38.5
			c14.6-19.3,28.1-21.7,33.5-38.8c1.9-6.1,2.2-11.9,1.5-16.7v0c0,0,0,0,0-0.1v0c0-0.4,0.1-0.9,0-1.3c5,2.5,10.7,5.5,17.3,9.2
			c0.4,4.4,1.2,9.2,2.7,14.2c6.2,20.3,24,37.8,41.7,46.3c3.4,1.6,5.8,2.4,8.6,5.2C242.8,336,244.7,339.7,245.9,343.7z"/>
		<path class="st2" d="M162.2,259.5c6.6-4.8,22.9,2.3,30.9,13.9c4.9,7.1,3.3,10.7,6.4,19.7c8.2,23.9,30.8,24.9,31.4,38.8
			c0.6,12.7-17.6,27.8-36.2,28.6c-12.1,0.5-24.6-5.2-31.8-14.6c-9.6-12.4-0.2-20.7-2.7-63.2C159.3,269.2,158,262.6,162.2,259.5z"/>
		<path class="st7" d="M190,254.2c0,0-1.1,8.7-6.1,13.2c0,0-7.1-0.9-8.9-4.6c0,0,8.9-4.6,10.6-10.1L190,254.2z"/>
		<g>
			<g>
				<path class="st7" d="M191.5,245.9c0,0,1.9,1.8,2.8,4.1c0.8,2.3,1,4.7-0.9,6.2c-1.9,1.4-4.6,0-8-2.6
					C182.1,251,185.7,244.7,191.5,245.9z"/>
				<g>
					<path class="st11" d="M183.7,246c-0.3,0.4-1.2,1.9-1,3.9c0.4,3,3.2,4.4,3.4,4.5c0,0-1.5-1.9,0.5-2.2c1.9-0.3,1.6-3.2,0.5-4.6
						c0,0,1.2,1,3.3,0.1c2.1-0.9,2.9,0.2,2.9,0.2c-0.2-0.5-0.9-2.3-2.9-3.2c-0.4-0.2-1.9-0.9-3.7-0.5C185,244.7,184,245.7,183.7,246
						z"/>
				</g>
				<path class="st7" d="M186.8,252.4c0,0-0.9-1.6-2.1-1.2c-1.2,0.4-0.5,2.8,2,2.3L186.8,252.4z"/>
			</g>
		</g>
		<path class="st0" d="M167.3,341.1c0.1-9.5,16.1-15.4,19.8-16.8c3.4-1.3,21.1-7.9,36.8,1.9c2.9,1.8,5.2,3.8,7,5.7
			c0.5,12.7-17.6,27.8-36.2,28.5c-1.6,0.1-3.3,0-4.9-0.1c-4.4-1.2-8.9-3.2-13.2-6.5C172.8,351,167.2,346.7,167.3,341.1z"/>
		<g>
			<path class="st10" d="M214.6,322.2c11.5,9.3,53.6,38.5,46.2,62.9c-0.7,2.4-4.2,10.2-5.9,12.7c-15.5,24-46,44.2-64.6,49.1
				c-11-13.1-22.7-32.8-21.2-35c1.4-2.1,4.3-1,9.1-2.9c8.2-3.1,9.1-9.7,15.4-15.1c10.3-8.9,21.1-2,25.5-7.7
				c8.8-11.3-26.7-48.4-27.9-63.2C196.2,321.5,205.2,319.7,214.6,322.2z"/>
		</g>
		<path class="st11" d="M258,381.3c-10.1-23.8-38.3-39.8-48.8-60.1c-10.6-1.2-19.7,2.2-22.1,3.1c-2.3,0.9-9.6,3.6-14.6,7.8
			c0.2,1.5,0.4,2.7,0.6,3.4c2.7,11.7,12,14,24.9,27c3.9,3.9,12.9,9.1,19.1,26.5c5.1,14.3,3.5,14.1,9.3,24.7
			c6,10.9,17.7,21.4,24.6,24.8c5.5,0,18.4-2.1,37.7-3.5C282.6,417.8,265.8,399.8,258,381.3z"/>
		<g>
			
				<ellipse transform="matrix(0.2021 -0.9794 0.9794 0.2021 46.4658 517.5208)" class="st13" cx="340.8" cy="230.2" rx="69.6" ry="69.6"/>
			
				<rect x="240.3" y="246.9" transform="matrix(-0.5187 -0.855 0.855 -0.5187 129.3016 647.3155)" class="st12" width="13.1" height="80.7"/>
			<path class="st8" d="M266.2,271.6l3.5,5.7c1.8,2.9,0.9,6.8-2,8.5l-87.2,52.9c-2.9,1.8-6.7,0.8-8.5-2.1l-3.5-5.7
				c-1.8-2.9-0.9-6.8,2-8.5l87.2-52.9C260.6,267.7,264.4,268.7,266.2,271.6z"/>
			<path class="st8" d="M278.4,268.1c-10.1-16.7-13.1-36.3-8.5-55.3c4.6-19,16.4-35,33.1-45.1c16.7-10.1,36.3-13.1,55.3-8.5
				c19,4.6,35,16.4,45.1,33.1c10.1,16.7,13.1,36.3,8.5,55.3c-4.6,19-16.4,35-33.1,45.1c-16.7,10.1-36.3,13.1-55.3,8.5
				C304.5,296.6,288.5,284.8,278.4,268.1z M306.6,173.8c-15.1,9.2-25.7,23.6-29.9,40.8c-4.2,17.1-1.5,34.9,7.7,50
				c18.9,31.1,59.6,41.1,90.7,22.2c15.1-9.2,25.7-23.6,29.9-40.8c4.2-17.1,1.5-34.9-7.7-50c-9.2-15.1-23.6-25.7-40.8-29.9
				C339.4,161.9,321.7,164.6,306.6,173.8z"/>
		</g>
		<path class="st4" d="M171.7,276.3c2.5-8.6,0.6-13.8-1.7-16.6v0c-0.3-0.6-0.8-1.1-1.2-1.4c0,0,0.1,0,0.1,0
			c-0.8-0.8-1.4-1.1-1.5-1.2c0,0,0,0,0,0s0,0,0,0c-0.3-0.1-8.4-3.7-18.6-4.3c-11-0.6-21.6,4.2-28.5,12.8c-1.5,1.9-2.8,3.9-3.9,6.1
			c-3.7,7.5-4.6,16.3-2.3,24.5c0.6,2.1,1.4,4.3,2.5,6.3c0.8,1.6,1.8,3.2,3,4.7c-0.2,0.2,1.7,2,2.2,2.4c0.1,0.1,0.1,0.2,0,0.3
			c-1.1,1.5-11,14.9-15,29.7c-0.5,1.9-0.9,3.7-1.2,5.6c-1.5,9.8,2.1,19.8,9.6,26.3c4.8,4.2,12.7,10.4,22.1,14.9
			c0.4,0.2,0.8,0.5,1.3,0.8c0.6,0.4,1.2,0.7,1.9,1.1c0.2,0.1,0.3,0.2,0.5,0.3c0.3,0.2,0.7,0.4,1.1,0.6c0.1,0,0.1,0.1,0.2,0.1
			c0.3,0.2,0.6,0.3,0.9,0.5c0.2,0.1,0.4,0.2,0.6,0.3c0.3,0.2,0.7,0.4,1,0.6c1.2,0.6,2.5,1.3,3.8,2c-12.5-7.7-4.4-29,4.2-40.7
			c8.6-11.8,13.4-26.2,12-37.8v0c-0.7-6.4,0.3-12.9,1.9-19.9c0.1-0.2,0.1-0.5,0.2-0.7c0.6-2.6,1.4-5.4,2.2-8.2c0,0,0,0,0,0
			C170,282.5,170.9,279.5,171.7,276.3C171.8,276.3,171.7,276.3,171.7,276.3z"/>
		<path class="st7" d="M186.6,317.2c-10.8,1.8-16.3,2.7-19.5,1.2c-7.2-3.3-6.1-11.3-13.7-13.6c-3.6-1.1-8.4-1-10.3,1.6
			c-2.8,3.8,1.7,12.6,7.2,17c11.1,8.8,28.4,1.1,29.7,0.5c1.3,1.2,3.8,3.1,7.2,3.3c8.5,0.6,15.9-9.7,14.5-12
			C200.9,313.9,198,315.3,186.6,317.2z"/>
		<path class="st7" d="M259.1,290.5c0,0-4.4-13.1,2.1-13.2c6.5-0.1,12.4,11.5,9.6,14.3c-4.1,4.2-4.1,12.3-8.1,15.7
			c-5.7,4.9-17.4-3.4-18-7.5C257.5,292.2,259.1,290.5,259.1,290.5z"/>
		<path class="st9" d="M259.1,290.5c0,0,2.8,1.9,1.7,2.6c-1.1,0.6-1.9,8.7-5.5,8c-3.5-0.6-7.3-3.4-7.3-3.4L259.1,290.5z"/>
		<path class="st6" d="M121.8,309.6c0,0,13.4,6.7,20.4,7.7c-7.8,3.1-33.1,17.1-35,20.9C105.4,341.9,112.7,320.7,121.8,309.6z"/>
	</g>
	<g>
		<path class="st4" d="M74,455.1c-4.6-4.1-7.6-7.7-9-9.3c-8.1-9.2-19.1-11.8-22-12.4c-7.7-1.5-11.6,0.6-12.2-1.1
			c-1.1-3.1,10.4-15.2,24.3-15.7c16.1-0.5,25.8,14.9,26.5,16c6.3,10.4,7.8,24.9,4.4,27.1c-1.3,0.9-3.6,0-6-0.9
			C77.1,457.9,75.2,456.2,74,455.1z"/>
		<path class="st1" d="M96.8,472.2c0,0-30.9,2.3-44.7-13.1c-13.8-15.4,18.5-5.9,18.5-5.9L96.8,472.2z"/>
		<path class="st4" d="M42.5,444.7c-4.4,3.9-8.7,7.8-13.1,11.7c6,5.1,12.8,8.7,20.5,9.1c7.3,0.4,10.8-2.4,18.7-2.5
			c6.3-0.1,13.5,1.5,21.5,6.2c-4.1-5.9-8.1-10.4-11.3-13.5c-2.3-2.3-5.6-5.6-10.5-8.9c-6-4.2-9.8-6.7-14.9-6.6
			C48.9,440.2,45.1,442.5,42.5,444.7z"/>
		<path class="st1" d="M95.6,471.6c-12.7-5.2-21.8-11.3-27.9-15.9c-5.9-4.6-8.9-7.8-14.3-8.9c-9.3-1.9-18.1,4.1-24.1,9.6
			c0.7-1.5,8.8-19.1,25.5-21.3c14.8-1.9,29.8,9,35.6,27C92.2,465.2,93.9,468.4,95.6,471.6z"/>
		<path class="st4" d="M95.6,471.6c-3.9-7.8-9.4-21.4-10.8-39.5c-2-27.5,7.1-48.2,11.2-56.4c-1.1,8.3-1.4,19.8,3.8,30.2
			c3,6,5.9,7.8,8,11.4C112.3,425,112.8,439.9,95.6,471.6z"/>
		<path class="st4" d="M112.9,439.7c0.3,3.3,15,4.9,44,4.6c-4.8-5.6-9.6-11.2-14.4-16.8C122.5,432.9,112.6,436.9,112.9,439.7z"/>
		<path class="st1" d="M96.2,470.8c-0.3,0.5-0.5,1-0.7,1.4c7.9,0.6,18.9-0.1,31-6.2c3.6-1.8,6.8-3.9,9.7-6
			c-0.9-0.7-4.7-3.8-10.2-5.4c-2.1,0.1-4.2,0.7-6.1,2.2C112.5,463.1,104.8,469.7,96.2,470.8z"/>
		<path class="st4" d="M104.9,455.8c-3.9,2.2-5.9,5.7-6.4,6.7c-1.8,3.4-2.2,6.6-2.3,8.2c6.1,1.1,10.2-0.5,12.7-2.2
			c3.5-2.3,5.3-5.4,11.4-10.1c2.4-1.8,4.4-3.1,5.6-3.9c-4.3-0.5-7.8-0.6-10.5-0.5C110.3,454.2,107.7,454.3,104.9,455.8z"/>
		<path class="st1" d="M95.6,472.2c-1.5-2-4.4-6.3-5.4-12.8c-1.5-9.3,1.9-16.5,2.9-18.6c4.2-3.5,10.6-7.9,18.9-10.8
			c13-4.7,24.3-3.6,30.5-2.4c-7.4,3.3-18.5,9.4-29.4,20.6C104.8,456.7,99.2,465.5,95.6,472.2z"/>
		<path class="st1" d="M95.5,472.2c-3.8-8.7-10.2-26.5-9.7-50c0.4-21.6,6.5-37.9,10.3-46.4c-3.4,2.4-8.1,6.4-12.7,12.4
			c-1.5,2-5.1,6.7-7.2,12.1c-4.2,10.8-1.5,21.7,1.3,32.5C79.8,442,84.8,456.6,95.5,472.2z"/>
		<path class="st1" d="M81.8,446.5c-3.4-13.2-12.7-23.1-24-25.6c-13.4-3-23.5,5.7-25.1,7.1c1.6-3.4,5.3-10.2,12.5-14.4
			c9.5-5.5,24.6-6.1,32.8,5.2C86.3,429.9,82.2,445.2,81.8,446.5z"/>
		<path class="st4" d="M83.4,432.1c-0.1,0-0.2-0.1-0.2-0.2c-3.4-13.9-9.3-17.2-9.3-17.2c-0.1-0.1-0.1-0.2-0.1-0.3
			c0-0.1,0.2-0.2,0.3-0.1c0.2,0.1,6,3.4,9.5,17.5C83.7,431.9,83.6,432,83.4,432.1C83.5,432.1,83.5,432.1,83.4,432.1z"/>
		<path class="st4" d="M87.5,455.7c-0.1,0-0.1,0-0.2-0.1c-2.5-4.9-7.8-12.3-7.9-12.4c-0.1-0.1-0.1-0.2,0-0.3c0.1-0.1,0.2-0.1,0.3,0
			c0.1,0.1,5.4,7.5,7.9,12.4C87.7,455.5,87.7,455.7,87.5,455.7C87.5,455.7,87.5,455.7,87.5,455.7z"/>
		<path class="st4" d="M92.8,467.7c-0.1,0-0.1-0.1-0.2-0.1c-1.3-3.5-3.8-16.6-3.9-17.2c0-0.1,0-0.2,0.1-0.3c0.1,0,0.2,0.1,0.2,0.2
			c0,0.1,2.6,13.7,3.9,17.1C93,467.5,93,467.6,92.8,467.7C92.8,467.7,92.8,467.7,92.8,467.7z"/>
	</g>
	<g>
		<path class="st4" d="M738.2,452.1c3.8-4.8,6.3-9.1,7.4-11c6.7-10.9,15.8-13.9,18.2-14.6c6.4-1.8,9.6,0.7,10.1-1.3
			c0.9-3.7-8.6-18-20.1-18.5c-13.3-0.6-21.4,17.5-21.9,18.9c-5.2,12.3-6.4,29.3-3.7,32c1.1,1.1,3,0,5-1.1
			C735.6,455.3,737.2,453.4,738.2,452.1z"/>
		<path class="st1" d="M719.3,472.2c0,0,25.6,2.7,37-15.5c11.4-18.2-15.3-6.9-15.3-6.9L719.3,472.2z"/>
		<path class="st4" d="M764.3,439.8c3.6,4.6,7.2,9.2,10.8,13.8c-4.9,6-10.6,10.3-17,10.8c-6,0.5-8.9-2.8-15.5-3
			c-5.2-0.1-11.2,1.7-17.8,7.3c3.4-7,6.7-12.2,9.3-16c1.9-2.7,4.6-6.6,8.6-10.5c5-4.9,8.1-8,12.3-7.8
			C758.9,434.5,762.1,437.1,764.3,439.8z"/>
		<path class="st1" d="M720.3,471.5c10.5-6.1,18-13.3,23-18.8c4.9-5.4,7.4-9.2,11.8-10.5c7.7-2.3,15,4.9,20,11.3
			c-0.5-1.7-7.3-22.5-21.1-25.1c-12.2-2.3-24.6,10.6-29.4,31.8C723.1,464,721.7,467.8,720.3,471.5z"/>
		<path class="st4" d="M720.3,471.5c3.2-9.2,7.8-25.3,8.9-46.5c1.7-32.4-5.9-56.9-9.2-66.5c-3,6.2-7,16.4-8.8,29.7
			c-0.7,5-1.2,10.9-1,19.4C710.8,432.7,716.9,458.7,720.3,471.5z"/>
		<path class="st4" d="M706,433.9c-0.3,3.9-12.4,5.8-36.3,5.5c4-6.6,7.9-13.2,11.9-19.8C698.1,425.8,706.3,430.6,706,433.9z"/>
		<path class="st1" d="M719.9,470.6c0.2,0.6,0.4,1.2,0.6,1.6c-6.5,0.7-15.7-0.1-25.6-7.3c-3-2.1-5.6-4.6-8-7.1
			c0.7-0.8,3.9-4.5,8.4-6.4c1.7,0.1,3.4,0.8,5,2.6C706.3,461.5,712.8,469.2,719.9,470.6z"/>
		<path class="st4" d="M712.7,452.9c3.2,2.6,4.9,6.7,5.3,8c1.5,4,1.8,7.8,1.9,9.7c-5,1.3-8.4-0.6-10.5-2.6
			c-2.9-2.7-4.4-6.3-9.4-11.9c-2-2.2-3.6-3.7-4.7-4.6c3.5-0.6,6.5-0.7,8.7-0.6C708.2,451,710.4,451.1,712.7,452.9z"/>
		<path class="st1" d="M720.4,472.2c1.2-2.3,3.6-7.5,4.5-15.1c1.2-11-1.6-19.5-2.4-21.9c-3.5-4.1-8.7-9.3-15.6-12.8
			c-10.8-5.5-20.1-4.2-25.2-2.9c6.1,3.9,15.3,11,24.3,24.3C712.8,453.9,717.4,464.3,720.4,472.2z"/>
		<path class="st1" d="M720.4,472.2c3.1-10.3,8.4-31.3,8-59c-0.3-25.5-5.3-44.7-8.5-54.8c2.8,2.9,6.7,7.5,10.5,14.6
			c1.2,2.3,4.2,7.9,6,14.3c3.5,12.7,1.3,25.6-1.1,38.4C733.4,436.6,729.3,453.9,720.4,472.2z"/>
		<path class="st1" d="M731.7,441.9c2.8-15.5,10.5-27.3,19.8-30.2c11-3.5,19.5,6.8,20.8,8.4c-1.3-4-4.4-12.1-10.3-17
			c-7.8-6.5-20.3-7.2-27.2,6.1C728,422.4,731.4,440.4,731.7,441.9z"/>
	</g>
	<g>
		<path class="st0" d="M34.3,473.3c35.5,16.8,63.6,20,82.9,19.8c13.5-0.2,23.6-0.4,68.1-4.4c50.7-4.6,64.2,2.3,122.1,3.5
			c77.9,1.6,69.5-10.7,137.1-8.8c88.8,2.4,94.4,23.3,151.3,12.4c34.4-6.6,54.2-18.5,86.7-12.4c13.2,2.5,29,5.8,51.3,2.7
			c17.3-2.5,30.9-8.2,39.8-12.7c-98.3-0.1-273.7-0.1-372-0.1C305.4,473.2,130.6,473.2,34.3,473.3z"/>
		<path class="st1" d="M775.2,473.6H31.4c-0.6,0-1.1-0.5-1.1-1.1c0-0.6,0.5-1.1,1.1-1.1h743.9c0.6,0,1.1,0.5,1.1,1.1
			C776.4,473.1,775.9,473.6,775.2,473.6z"/>
	</g>
</g>
</svg>
