<?xml version="1.0" encoding="utf-8"?>
<!-- Generator: Adobe Illustrator 26.2.1, SVG Export Plug-In . SVG Version: 6.00 Build 0)  -->
<svg version="1.1" id="_x2018_ëîé_x5F_1" xmlns="http://www.w3.org/2000/svg" xmlns:xlink="http://www.w3.org/1999/xlink"
	 x="0px" y="0px" viewBox="0 0 5700 1621.4" style="enable-background:new 0 0 5700 1621.4;" xml:space="preserve">
<style type="text/css">
	.st0{fill:#FFFFFF;}
</style>
<g>
	<polygon class="st0" points="5177.3,650.9 4866.6,650.9 4866.6,415.8 5177.3,415.8 5102.2,533.3 	"/>
	<path class="st0" d="M4850.3,412.8v532.6h32.6V412.8c0-9-7.3-16.3-16.3-16.3l0,0C4857.6,396.5,4850.3,403.8,4850.3,412.8z"/>
</g>
<ellipse transform="matrix(0.7071 -0.7071 0.7071 0.7071 755.4279 3718.863)" class="st0" cx="4866.8" cy="947.5" rx="83.9" ry="83.9"/>
<g>
	<path class="st0" d="M998.3,934.4c1.9-0.1,5.9-2.6,10.2-5.2c12.4-7.7,31.1-19.5,69.7-24.3c36.9-4.7,55,43.4,72.4,89.9
		c17.1,45.7,30.6,100.6,48.1,94.3c9.6-3.5,18.4-13.2,24.3-26.7c3-11.4,34.8-132.5,75.8-252.1c79.7-232.9,123.9-259.8,150.1-259.8
		c68.9,0,110.5,147.8,158.7,319c21.4,76.1,43.5,154.7,67.2,212.3c4.8,11.8,19.6,47.6,36.7,53.6c2.8,1,7.2,1.8,14-1.9
		c5.4-3,10.7-8.4,15.3-15.5c25.4-39.7,38.1-102.9,50.4-164c19.2-95.7,37.4-186.2,103.9-194c32.4-3.8,57.8,15.6,77.7,59.5
		c16.1,35.7,27,82.7,38.5,132.5c12.4,53.5,25.1,108.8,44.5,145.7c46,87.4,87.9,126.5,128.1,119.4c32-5.6,62.2-40.7,92.5-107.3
		c12.2-26.8,28.4-92.3,47.3-168c61.9-249.1,119.7-455.3,201.5-455.3c30.8,0,60.4,26,90.2,79.4c27.4,49,51.7,114.6,69.7,166.3
		c37.3,106.6,91.5,240.3,131.9,295.6c30.2,41.4,74.4,67.6,115.4,68.5c30.7,0.7,57.7-12.6,78.3-38.3c18-22.6,31.9-54.7,45.3-85.8
		c22.8-52.8,46.3-107.4,92.7-118c68.1-15.6,115.5,79,143.9,135.5c21.3,42.4,56,90.6,89.7,98.7c11.7,2.8,22.3,0.5,32.6-7.1
		c30-22.1,36.1-72.8,42.6-126.5l0.7-5.4c3.9-31.7,22.1-55,46.6-59.4c21-3.8,41.4,8,53.2,30.8c17.4,33.6,31,72.8,44.1,110.7
		c6,17.4,12.2,35.3,18.7,52.2c25,65.6,66.7,117.5,104,129.3c16.4,5.2,31.4,2.9,45.9-6.9c22.7-15.3,38.7-47.3,52.6-79.6
		c46.4-107.8,78.9-225,96.4-348.3c6-41.9,43.1-224.2,103-237.3c43.7-9.6,72-2.9,134.2,125.4c38.8,80,71.6,145,111.2,194
		c44.7,55.3,91.2,81,146.2,81l131.1-3.3l0.6,22.8l-131.3,3.3c-138.6,0-209.6-146.4-278.2-287.9c-64.4-132.8-86-118.1-108.8-113.1
		c-33.3,7.3-74.1,139.5-85.3,218.2c-17.8,125.3-50.8,244.4-98.1,354.1c-15.3,35.5-33.2,70.9-60.7,89.5c-20.1,13.6-42.7,17-65.5,9.8
		c-53.7-17-97.4-87.6-118.4-142.9c-6.5-17.2-12.8-35.3-18.9-52.8c-12.9-37.2-26.2-75.6-42.8-107.7c-7.3-14-17.8-20.9-29-18.9
		c-11.8,2.1-25,15.2-28,39.7l-0.7,5.4c-7.1,58.7-13.8,114.2-51.7,142.1c-15.8,11.6-33.1,15.3-51.5,10.9
		c-50.5-12.1-90.1-81.4-104.7-110.6c-32.8-65.4-71.7-134.2-118.4-123.5c-35.2,8.1-55.4,55.1-76.9,104.8c-14,32.4-28.5,66-48.4,91
		c-25.1,31.5-58.6,47.7-96.6,46.9c-48.6-1-98.4-30.1-133.3-77.8c-52.8-72.2-116.7-249.1-135-301.6
		c-24.1-68.9-80.5-230.3-138.4-230.3c-20.2,0-53.5,25.3-97,145.9c-31.7,87.8-59.8,201.1-82.4,292.1c-19.9,80-35.6,143.2-48.6,172
		c-21.4,47.1-56.1,110.9-109.3,120.3c-4.6,0.8-9.1,1.2-13.5,1.2c-61.5,0-108.2-74.5-138.7-132.4c-20.8-39.5-33.9-96.3-46.6-151.2
		c-20.5-88.6-41.5-180.3-91.3-174.4c-50.1,5.9-66.7,88.4-84.2,175.8c-12.7,63.2-25.8,128.5-53.5,171.8
		c-6.7,10.5-14.6,18.3-23.5,23.2c-10.8,6-22.1,7.2-32.6,3.5c-23.8-8.3-39.3-39.9-50.3-66.5c-24.2-58.9-46.5-138.1-68.1-214.8
		c-37.9-134.7-85.1-302.4-136.7-302.4c-10.5,0-50.9,17.6-128.5,244.3c-42.5,124.2-75.2,250.1-75.5,251.4l-0.6,1.6
		c-8.5,20-22,34.2-37.9,39.9c-4.6,1.7-9,2.5-13.1,2.5c-31.5,0-48.7-69-64.1-110.2c-13.6-36.4-29-77.7-48.2-75.3
		c-33.7,4.3-49.2,14-60.5,21.1c-7.2,4.5-13.5,8.5-21.5,8.7c-112.5,3.5-232.3,4-312.7,4v-22.8C766.5,938.3,886.1,937.9,998.3,934.4z"
		/>
	<polygon class="st0" points="4480.5,1039.2 4673.6,947.3 4480.5,855.3 	"/>
</g>
<ellipse transform="matrix(0.7071 -0.7071 0.7071 0.7071 -468.7831 762.9672)" class="st0" cx="686.6" cy="947.4" rx="83.9" ry="83.9"/>
</svg>
