<?xml version="1.0" encoding="utf-8"?>
<!-- Generator: Adobe Illustrator 26.2.1, SVG Export Plug-In . SVG Version: 6.00 Build 0)  -->
<svg version="1.1" id="Ñëîé_2" xmlns="http://www.w3.org/2000/svg" xmlns:xlink="http://www.w3.org/1999/xlink" x="0px" y="0px"
	 viewBox="0 0 392.1 279.1" style="enable-background:new 0 0 392.1 279.1;" xml:space="preserve">
<style type="text/css">
	.st0{fill:url(#SVGID_1_);}
	.st1{fill:#FFFFFF;}
	.st2{fill:#5643F4;}
	.st3{fill:url(#SVGID_00000036238998000542742920000016871572084028779173_);}
	.st4{fill:url(#SVGID_00000026847542757212745920000005112428681173715596_);}
	.st5{fill:#C8C4FB;}
	.st6{fill:#ACACF4;}
	.st7{fill:#7578E9;}
	.st8{fill:#8B8DF0;}
	.st9{fill:#FFB5E9;}
	.st10{fill:#A8A9F6;}
	.st11{fill:#E2E1FE;}
	.st12{fill:#C220BA;}
	.st13{fill:#E635CA;}
	.st14{fill:#221BB2;}
	.st15{fill:#B4A6FF;}
	.st16{fill:#080784;}
	.st17{fill:#120DAF;}
	.st18{fill:#97DCFD;}
	.st19{fill:#EBE6FF;}
	.st20{fill:#D8D7FC;}
	.st21{fill:#17078F;}
	.st22{fill:#EBE8FE;}
	.st23{fill:#FF2684;}
	.st24{fill:#9E9FF3;}
	.st25{fill:#433AED;}
	.st26{fill:#4D43F1;}
	.st27{fill:#614CF7;}
	.st28{fill:#FFBDEA;}
	.st29{fill:#D3CEFD;}
	.st30{fill:#F03DD1;}
	.st31{fill:#110DE2;}
	.st32{fill:#2A23BA;}
	.st33{fill:#BABAF8;}
	.st34{fill:#F8F7FF;}
	.st35{fill:#D7D2FE;}
	.st36{fill:#2E27F2;}
	.st37{fill:#F43FD3;}
	.st38{opacity:0.49;fill:#7578E9;}
	.st39{opacity:0.49;fill:#5643F4;}
	.st40{opacity:0.49;fill:#221BB2;}
	.st41{opacity:0.49;fill:#E635CA;}
	.st42{fill:#2B24BC;}
</style>
<linearGradient id="SVGID_1_" gradientUnits="userSpaceOnUse" x1="43.6781" y1="257.1699" x2="39.7476" y2="119.1137" gradientTransform="matrix(-1 0 0 1 86.8403 0)">
	<stop  offset="0" style="stop-color:#FDA758"/>
	<stop  offset="1" style="stop-color:#FD256F"/>
</linearGradient>
<path class="st0" d="M54.6,162.1c-0.6,4-2.6,8-1.9,12c0.9,5.3,5.9,8.7,9.6,12.7c5,5.5,7.6,14.1,3.7,20.4c-2,3.2-5.4,5.3-7.3,8.6
	c-4.9,8.1,1.1,18.9-2,27.8c-2.1,6.2-8.4,10.3-14.9,11.7c-3.1,0.7-6.4,0.8-9.2-0.6c-1.8-0.9-3.2-2.4-4.4-4.1
	c-2.7-3.7-4.2-8.1-5.3-12.5c-2.3-8.8-3.1-18.7,1.5-26.5c2.3-3.9,5.9-7.2,7.1-11.6c2.4-8.7-5.6-18.4-1.7-26.6c1.2-2.6,3.5-4.5,5-6.9
	c3.8-5.9,2.9-13.5,2.7-20.5c-0.1-2.1,0.1-4.4,1.6-5.8c3.4-3,8.6,0.8,10.6,3.6C53.1,148.8,55.4,156.2,54.6,162.1z"/>
<g>
	<path class="st1" d="M39.7,257.5c4.1-7,6.1-15.4,5.8-23.5c-0.2-4.7-1.3-9.5-2.2-14.1c-1.2-5.6-2.5-11.5-2.2-17.3
		c0.2-4.8,1.4-9.5,2.6-14.1c0.7-2.6,1.4-5.3,1.9-8c1.4-7.4,1.4-14.9,0-22.3l-0.3,0.1c1.4,7.4,1.4,14.8,0,22.2
		c-0.5,2.7-1.2,5.4-1.9,8c-1.2,4.6-2.4,9.3-2.6,14.1c-0.3,5.9,1,11.7,2.2,17.4c1,4.6,2,9.3,2.2,14c0.4,8.1-1.6,16.4-5.7,23.3
		L39.7,257.5z"/>
</g>
<g>
	<path class="st1" d="M43.4,187.6l0.3-0.1c-1.9-4.9-5.3-9.2-9.5-12.4l-0.2,0.3C38.2,178.4,41.5,182.8,43.4,187.6z"/>
</g>
<g>
	<path class="st1" d="M43.9,246.6l0.3-0.1c-1.9-4.9-5.3-9.2-9.5-12.4l-0.2,0.3C38.7,237.4,42,241.8,43.9,246.6z"/>
</g>
<g>
	<path class="st1" d="M41,204c1.3-3.8,4.6-6.5,7.9-8.9l-0.2-0.3c-3.4,2.4-6.8,5.2-8.1,9L41,204z"/>
</g>
<path class="st2" d="M363.5,259.7c0,1.9-74.7,3.4-166.8,3.4S30,261.6,30,259.7c0-1.9,74.7-3.4,166.8-3.4S363.5,257.9,363.5,259.7z"
	/>
<linearGradient id="SVGID_00000170979677716238271910000006188551317834802876_" gradientUnits="userSpaceOnUse" x1="297.2789" y1="229.0748" x2="291.9455" y2="41.7414">
	<stop  offset="0" style="stop-color:#FDA758"/>
	<stop  offset="1" style="stop-color:#FD256F"/>
</linearGradient>
<path style="fill:url(#SVGID_00000170979677716238271910000006188551317834802876_);" d="M281.8,100.1c0.8,5.5,3.5,10.9,2.6,16.3
	c-1.2,7.2-8.1,11.8-13,17.2c-6.8,7.4-10.3,19.2-5,27.7c2.7,4.3,7.3,7.2,9.9,11.6c6.6,11-1.5,25.6,2.7,37.7
	c2.9,8.5,11.4,14,20.2,15.9c4.2,0.9,8.7,1.1,12.5-0.8c2.4-1.2,4.4-3.3,6-5.5c3.6-5,5.7-11,7.2-17c3.1-12,4.2-25.4-2.1-36
	c-3.1-5.3-8.1-9.8-9.7-15.7c-3.2-11.8,7.6-25,2.4-36c-1.7-3.5-4.7-6.1-6.8-9.4c-5.2-8-3.9-18.3-3.7-27.8c0.1-2.8-0.1-6-2.2-7.9
	c-4.5-4-11.6,1.1-14.3,4.9C283.8,82,280.7,92,281.8,100.1z"/>
<g>
	<path class="st1" d="M302,229.5c-5.6-9.5-8.3-20.9-7.8-31.9c0.3-6.4,1.7-12.9,3-19.1c1.7-7.7,3.4-15.6,3-23.5
		c-0.3-6.5-1.9-12.9-3.5-19.1c-0.9-3.5-1.9-7.2-2.5-10.8c-1.9-10.1-1.9-20.3,0-30.3l0.4,0.1c-1.9,10-1.9,20.1,0,30.1
		c0.7,3.6,1.6,7.3,2.5,10.8c1.6,6.2,3.3,12.6,3.5,19.2c0.3,8-1.4,15.9-3,23.6c-1.3,6.2-2.7,12.6-3,19c-0.5,11,2.2,22.2,7.8,31.7
		L302,229.5z"/>
</g>
<linearGradient id="SVGID_00000167371376436919493650000004451194618359450538_" gradientUnits="userSpaceOnUse" x1="314.2993" y1="246.3124" x2="337.6327" y2="134.3126">
	<stop  offset="0" style="stop-color:#FDA758"/>
	<stop  offset="1" style="stop-color:#FD256F"/>
</linearGradient>
<path style="fill:url(#SVGID_00000167371376436919493650000004451194618359450538_);" d="M334.1,166.4c-0.7,3.5-3,6.8-2.2,10.3
	c1,4.5,7,7.4,11.4,10.8c6,4.7,9,12,4.3,17.4c-2.4,2.7-6.4,4.6-8.7,7.3c-5.8,6.9,1.3,16.1-2.3,23.7c-2.5,5.3-10,8.8-17.6,10
	c-3.6,0.6-7.6,0.7-10.9-0.5c-2.1-0.8-3.8-2.1-5.2-3.5c-3.2-3.2-5-6.9-6.3-10.7c-2.7-7.5-3.7-15.9,1.8-22.6c2.8-3.3,7-6.1,8.5-9.9
	c2.8-7.4-6.7-15.7-2.1-22.6c1.5-2.2,4.1-3.8,6-5.9c4.5-5,3.4-11.5,3.2-17.4c-0.1-1.8,0.1-3.8,1.9-5c4-2.5,10.2,0.7,12.5,3.1
	C332.4,155,335.1,161.3,334.1,166.4z"/>
<rect x="96.1" y="111.8" class="st2" width="189" height="115.2"/>
<rect x="294" y="162.2" class="st2" width="50.6" height="38.1"/>
<g>
	<path class="st5" d="M187.5,66.7c0,6.1-4.9,11-10.9,11c-6,0-10.9-4.9-10.9-11c0-6.1,4.9-11,10.9-11
		C182.6,55.8,187.5,60.7,187.5,66.7z"/>
	<path class="st6" d="M146.8,29.5l-11.6,0.2c-1.1,0-2-0.8-2-1.9s0.8-2,1.9-2l11.6-0.2c1.1,0,2,0.8,2,1.9
		C148.7,28.6,147.9,29.5,146.8,29.5z"/>
	<g>
		<polygon class="st5" points="57.6,45.5 71.9,248.5 66.3,248.5 52,45.5 		"/>
		<polygon class="st5" points="62.1,45.5 76.3,248.5 73.5,248.5 59.3,45.5 		"/>
	</g>
	<g>
		<g>
			<polygon class="st5" points="60.1,46.4 132.1,28.6 130.8,23.2 59.2,40.9 			"/>
			<polygon class="st5" points="60.8,50.8 133.4,32.9 132.7,30.1 60.4,48.1 			"/>
		</g>
		<g>
			<g>
				<path class="st7" d="M127.6,28.7c0.5,3,3.3,5.1,6.4,4.6c3-0.5,5.1-3.3,4.6-6.4c-0.5-3-3.3-5.1-6.4-4.6
					C129.2,22.8,127.2,25.6,127.6,28.7z"/>
			</g>
			<path class="st6" d="M131.7,28.2c0.1,0.9,0.9,1.5,1.8,1.3c0.9-0.1,1.5-0.9,1.3-1.8c-0.1-0.9-0.9-1.5-1.8-1.3
				C132.1,26.6,131.6,27.4,131.7,28.2z"/>
		</g>
	</g>
	<g>
		<g>
			<ellipse class="st7" cx="57.3" cy="47.1" rx="7.3" ry="7.4"/>
		</g>
		<ellipse class="st6" cx="57.4" cy="47.3" rx="2.1" ry="2.1"/>
	</g>
	<path class="st8" d="M75.5,258.7h17.9c1.1,0,2-0.9,2-2v-7.1c0-1.1-0.9-2-2-2H75.5c-1.1,0-2,0.9-2,2v7.1
		C73.5,257.8,74.4,258.7,75.5,258.7z"/>
	<path class="st5" d="M48.5,258.7h28.3c1.1,0,2-0.9,2-2v-7.1c0-1.1-0.9-2-2-2H48.5c-1.1,0-2,0.9-2,2v7.1
		C46.5,257.8,47.4,258.7,48.5,258.7z"/>
	<g>
		<g>
			<g>
				<path class="st7" d="M144.1,31.4c2.1,3.2,6.4,4.1,9.6,1.9c3.2-2.1,4-6.4,1.9-9.6c-2.1-3.2-6.4-4.1-9.6-1.9
					C142.8,23.9,141.9,28.3,144.1,31.4z"/>
			</g>
			<path class="st6" d="M148.4,28.8c0.6,0.9,1.8,1.2,2.7,0.6c0.9-0.6,1.1-1.8,0.5-2.7c-0.6-0.9-1.8-1.2-2.7-0.6
				C148.1,26.7,147.8,27.9,148.4,28.8z"/>
		</g>
		<path class="st6" d="M197.5,49.5c-0.3-0.4-0.5-0.8-0.8-1.3C186,32.1,166.9,25.9,154,34.5s-14.7,28.7-3.9,44.8
			c0.3,0.4,0.6,0.8,0.9,1.2L197.5,49.5z"/>
		<path class="st7" d="M201.7,52.8l-48.5,32.3c-0.8,0.6-2,0.3-2.5-0.5l-1.8-2.7c-0.6-0.8-0.3-2,0.5-2.5l48.5-32.3
			c0.8-0.6,2-0.3,2.5,0.5l1.8,2.7C202.7,51.1,202.5,52.2,201.7,52.8z"/>
		<g>
			<path class="st8" d="M152.4,75.4l-2.2-3.3c-0.3-0.4-0.8-0.5-1.2-0.2c-0.4,0.3-0.5,0.8-0.2,1.2l2.2,3.3L152.4,75.4z"/>
			<path class="st8" d="M155.8,73.2l-2.2-3.3c-0.3-0.4-0.8-0.5-1.2-0.2c-0.4,0.3-0.5,0.8-0.2,1.2l2.2,3.3L155.8,73.2z"/>
			<path class="st8" d="M159.2,70.9l-2.2-3.3c-0.3-0.4-0.8-0.5-1.2-0.2c-0.4,0.3-0.5,0.8-0.2,1.2l2.2,3.3L159.2,70.9z"/>
			<path class="st8" d="M162.6,68.6l-2.2-3.3c-0.3-0.4-0.8-0.5-1.2-0.2c-0.4,0.3-0.5,0.8-0.2,1.2l2.2,3.3L162.6,68.6z"/>
			<path class="st8" d="M166,66.4l-2.2-3.3c-0.3-0.4-0.8-0.5-1.2-0.2c-0.4,0.3-0.5,0.8-0.2,1.2l2.2,3.3L166,66.4z"/>
			<path class="st8" d="M169.4,64.1l-2.2-3.3c-0.3-0.4-0.8-0.5-1.2-0.2c-0.4,0.3-0.5,0.8-0.2,1.2l2.2,3.3L169.4,64.1z"/>
			<path class="st8" d="M172.8,61.8l-2.2-3.3c-0.3-0.4-0.8-0.5-1.2-0.2c-0.4,0.3-0.5,0.8-0.2,1.2l2.2,3.3L172.8,61.8z"/>
			<path class="st8" d="M176.2,59.6l-2.2-3.3c-0.3-0.4-0.8-0.5-1.2-0.2c-0.4,0.3-0.5,0.8-0.2,1.2l2.2,3.3L176.2,59.6z"/>
			<path class="st8" d="M179.6,57.3l-2.2-3.3c-0.3-0.4-0.8-0.5-1.2-0.2c-0.4,0.3-0.5,0.8-0.2,1.2l2.2,3.3L179.6,57.3z"/>
			<path class="st8" d="M183,55l-2.2-3.3c-0.3-0.4-0.8-0.5-1.2-0.2c-0.4,0.3-0.5,0.8-0.2,1.2l2.2,3.3L183,55z"/>
			<path class="st8" d="M186.4,52.8l-2.2-3.3c-0.3-0.4-0.8-0.5-1.2-0.2c-0.4,0.3-0.5,0.8-0.2,1.2l2.2,3.3L186.4,52.8z"/>
			<path class="st8" d="M189.8,50.5l-2.2-3.3c-0.3-0.4-0.8-0.5-1.2-0.2c-0.4,0.3-0.5,0.8-0.2,1.2l2.2,3.3L189.8,50.5z"/>
			<path class="st8" d="M193.2,48.2l-2.2-3.3c-0.3-0.4-0.8-0.5-1.2-0.2c-0.4,0.3-0.5,0.8-0.2,1.2l2.2,3.3L193.2,48.2z"/>
		</g>
		<polygon class="st6" points="160.7,33.3 150.8,39.9 146.6,33.5 156.5,26.9 		"/>
	</g>
</g>
<g>
	<path class="st9" d="M224.6,75c-2.2,5-4.3,9.9-6.5,14.9c1-0.3,2-0.5,3-0.8c-3.6-1.8-7.2-3.7-10.7-5.5c-2.5-1.3-4.8,2.5-2.2,3.8
		c3.6,1.8,7.1,3.7,10.7,5.5c1,0.5,2.5,0.4,3-0.8c2.2-5,4.3-9.9,6.5-14.9C229.6,74.7,225.8,72.4,224.6,75L224.6,75z"/>
</g>
<g>
	<path class="st10" d="M71.3,213H53.4c-0.5,0-0.8-0.4-0.8-0.8v-0.5c0-0.5,0.4-0.8,0.8-0.8h17.9c0.5,0,0.8,0.4,0.8,0.8v0.5
		C72.2,212.6,71.8,213,71.3,213z"/>
	<g>
		<rect x="60" y="204.2" class="st10" width="1.2" height="6.6"/>
		<path class="st11" d="M58.7,210.8h2.4v-6.6h10.4v6.6h5.3c0.4,0,0.8,0.3,0.8,0.8v0.7c0,0.4-0.3,0.8-0.8,0.8H58.7
			c-0.4,0-0.8-0.3-0.8-0.8v-0.7C58,211.1,58.3,210.8,58.7,210.8z"/>
	</g>
</g>
<g>
	<path class="st10" d="M82.9,205.8H47.1c-0.6,0-1.2-0.5-1.3-1.2l-3.3-26c-0.1-0.7,0.4-1.2,1-1.2h35.8c0.6,0,1.2,0.5,1.3,1.2l3.3,26
		C84,205.2,83.6,205.8,82.9,205.8z"/>
	<path class="st11" d="M84.9,205.8H49.1c-0.6,0-1.2-0.5-1.3-1.2l-3.3-26c-0.1-0.7,0.4-1.2,1-1.2h35.8c0.6,0,1.2,0.5,1.3,1.2l3.3,26
		C86,205.3,85.5,205.8,84.9,205.8z"/>
	<path class="st2" d="M48.8,201.9l-2.9-22.3c-0.1-0.6,0.4-1.1,1-1.1h33.4c0.6,0,1.2,0.5,1.2,1.1l2.9,22.3H48.8z"/>
</g>
<g>
	<path class="st12" d="M226.4,64.2l-0.5,0c-0.7,0.1-1.3-0.4-1.3-1.1l-0.2-1.9c-0.1-0.7,0.4-1.3,1.1-1.3l0.6,0
		c0.7-0.1,0.7,0.5,0.8,1.1l0.2,1.9C227,63.6,227,64.1,226.4,64.2z"/>
	<path class="st13" d="M226.6,64.2l-0.3,0c-0.6,0.1-1.1-0.4-1.2-1l-0.2-2.2c-0.1-0.6,0.4-1.1,1-1.2l0.3,0c0.6-0.1,1.1,0.4,1.2,1
		l0.2,2.2C227.6,63.6,227.2,64.1,226.6,64.2z"/>
	<g>
		<g>
			<path class="st14" d="M225,59.4l0.4,1.8c0.6,2.7,2.8,4.5,4.7,4.1c1.9-0.5,3-3.1,2.4-5.8l-0.4-1.8c0,0,0,0,0,0
				c-2.3-0.8-4.8-0.5-7.2,0C224.8,58.3,224.8,58.8,225,59.4z"/>
		</g>
		<path class="st9" d="M226.8,64.9l-0.6-2.7c-0.2-1.1-0.1-2.1,0.4-2.8l5,1.6l0.2,0.8c0.5-0.1,0.9,0.3,1.1,0.8
			c0.1,0.6-0.1,1.1-0.6,1.2c0,0.1,0,0.2,0,0.3c0,0.1,0.1,0.1,0.1,0.2l1.4,5.7c0.1,0.3-0.1,0.6-0.4,0.7l-2.2,0.5
			c-0.3,0.1-0.6-0.1-0.7-0.4l-0.8-3.2C228.4,67.6,227.1,66.5,226.8,64.9z"/>
	</g>
	<polygon class="st2" points="211.6,91.6 242.1,92.6 242.1,97.8 213.8,97.8 	"/>
	<path class="st1" d="M228,86.5c-1.2-2.7-3.9-3.2-5.2-5.8c-1.1-2.3,0-6.8,1.6-8.8c0,0,0,0,0,0c4.3-3.4,5.6-2.2,8.5-2.3
		c0.2,0,0.3,0,0.5,0c3.1-0.1,6.5,0.7,7.5,3.3c2.7,6.7,3.6,14.9,4.4,22.2c0.1,0.6,0.1,1.2-0.3,1.6c0,0,0,0,0,0l-10.6-2.8
		C233.2,93.8,229,88.8,228,86.5z"/>
	<path class="st1" d="M241,72.6c-0.6-1.5-2.8-2.9-4.5-2.4c-1.5,0.4-1.9,2.5-1.3,4c1,2.6,2.3,5.3,3.5,8.1l5.1-1.7
		C242.9,78,242,75.4,241,72.6z"/>
	<path class="st9" d="M246.5,89c-1.1-2.9-2-5.6-2.8-8.4l-5.1,1.7c0.9,1.9,1.7,3.9,2.4,5.7c-4,0.2-9.2,1.6-13.3,1.6
		c-3.9,0-3.7,3.7,0.2,3.7c5.6,0.1,9.9-0.7,15.5-0.7C245.3,92.6,247.3,90.8,246.5,89z"/>
	<path class="st15" d="M213.7,99.3l1.7-0.7c-2-0.3-3.6-0.5-4.6-0.7c-1.8-0.3-3-2-2.7-3.8c-0.3,1.6,0.5,4.6,3.4,5.7
		c0.4,0.1,0.7,0.3,1.1,0.4C212.7,99.9,213.1,99.6,213.7,99.3z"/>
	<path class="st15" d="M246.2,94.3c0.3,1.8-0.9,3.5-2.7,3.8c-0.9,0.2-2.5,0.4-4.3,0.6l1.5,0.6c0.6,0.3,1,0.7,1.1,1.1
		c0.3-0.1,0.7-0.2,1-0.4C245.7,98.9,246.5,95.8,246.2,94.3z"/>
	<path class="st15" d="M234.5,100.9c-0.6,0.1-1.4,0-2.3-0.1c-0.5-0.1-2.4-0.3-5.1-0.7c-2.8,0.3-5,0.6-5.5,0.7
		c-0.8,0.2-1.4,0.2-1.9,0.2l-3.7,0.2c3.6,0.7,7.1,0.8,10.7,0.5c4,0.3,7.9,0.3,11.9-0.5L234.5,100.9
		C234.5,100.9,234.5,100.9,234.5,100.9z"/>
	<path class="st13" d="M218.1,99c-1-0.1-1.9-0.2-2.8-0.4l-1.7,0.7c-0.6,0.2-0.9,0.6-1.1,1c-0.2,0.6,0.2,1.1,1.1,1l2.4-0.1l3.7-0.2
		C218.1,100.9,217.7,100,218.1,99z"/>
	<path class="st15" d="M219.7,100.9c0.5,0,1.1,0,1.9-0.2c0.5-0.1,2.7-0.4,5.5-0.7c-2.7-0.3-6-0.7-9-1.1
		C217.7,100,218.1,100.9,219.7,100.9z"/>
	<path class="st13" d="M240.7,99.2l-1.5-0.6l-4.3-1.7c-0.3-0.1-0.6,0-0.6,0.2l0,0c2.2,1.3,2.6,3.4,0.2,3.8c0,0,4.2,0.3,4.2,0.3
		l2,0.1c0.9,0.1,1.3-0.4,1.1-0.9C241.7,99.9,241.3,99.5,240.7,99.2z"/>
	<path class="st12" d="M233.2,63.9l-0.5,0c-0.7,0.1-1.3-0.4-1.3-1.1l-0.2-1.9c-0.1-0.7,0.4-1.3,1.1-1.3l0.6,0
		c0.7-0.1,0.7,0.5,0.8,1.1l0.2,1.9C233.8,63.2,233.8,63.8,233.2,63.9z"/>
	<path class="st13" d="M233.4,63.8l-0.3,0c-0.6,0.1-1.1-0.4-1.2-1l-0.2-2.2c-0.1-0.6,0.4-1.1,1-1.2l0.3,0c0.6-0.1,1.1,0.4,1.2,1
		l0.2,2.2C234.4,63.3,234,63.8,233.4,63.8z"/>
	<path class="st16" d="M240.1,93.5h-18.5c-0.4,0-0.7-0.3-0.7-0.7c0-0.4,0.3-0.7,0.7-0.7h18.5c0.4,0,0.7,0.3,0.7,0.7
		C240.8,93.2,240.5,93.5,240.1,93.5z"/>
	<path class="st17" d="M232.8,93.5h-18.5c-0.4,0-0.7-0.3-0.7-0.7c0-0.4,0.3-0.7,0.7-0.7h18.5c0.4,0,0.7,0.3,0.7,0.7
		C233.6,93.2,233.2,93.5,232.8,93.5z"/>
	<path class="st15" d="M241.9,91.7c-0.9,0.2-1.8,0.4-2.9,0.6c-1.4,0.3-2.8,0.6-4.2,0.9c-1.3,0.3-2.7,0.5-4,0.8
		c-1.2,0.3-2.3,0.5-3.5,0.8c0.6,0.1,1.1,0.3,1.7,0.4c1.4,0.4,2.8,0.8,4.3,1.3c0.4,0.1,0.7,0.3,1.1,0.5l0,0c0-0.2,0.3-0.3,0.6-0.2
		l4.3,1.7c1.9-0.2,3.4-0.5,4.3-0.6c1.8-0.3,2.9-2,2.7-3.8c-0.3-1.6-1.7-2.7-3.2-2.7c-0.3,0-0.5,0-0.8,0.1
		C242.1,91.7,242,91.7,241.9,91.7z"/>
	<path class="st15" d="M210.8,98c1,0.2,2.6,0.4,4.6,0.7c0.9,0.1,1.8,0.2,2.8,0.4c3,0.4,6.3,0.8,9,1.1c2.6,0.3,4.6,0.6,5.1,0.7
		c1,0.2,1.7,0.2,2.3,0.1c2.4-0.3,1.9-2.5-0.2-3.8c-0.3-0.2-0.7-0.3-1.1-0.5c-1.4-0.5-2.8-0.9-4.3-1.3c-0.6-0.2-1.1-0.3-1.7-0.4
		c-1-0.3-2-0.5-3-0.7c-1.3-0.3-2.6-0.6-3.9-0.8c-1.7-0.3-3.4-0.7-5.1-1c-0.7-0.2-1.4-0.3-2-0.4c-0.4-0.1-0.8-0.2-1.2-0.3
		c-0.1,0-0.2,0-0.3-0.1c-1.7-0.3-3.4,0.9-3.7,2.7C207.8,96,209,97.7,210.8,98z"/>
	<path class="st18" d="M232.6,93h-0.9c-0.1,0-0.2-0.1-0.2-0.2v0c0-0.1,0.1-0.2,0.2-0.2h0.9c0.1,0,0.2,0.1,0.2,0.2v0
		C232.8,92.9,232.7,93,232.6,93z"/>
	<path class="st9" d="M233.8,71.8h-4.7c-0.6,0-1-0.5-1-1v-0.3c0-0.6,0.5-1,1-1h4.7c0.6,0,1,0.5,1,1v0.3
		C234.9,71.3,234.4,71.8,233.8,71.8z"/>
	<g>
		<path class="st13" d="M232,90.6l-0.2-0.4l2.1-1.4c1.4-0.9,2.2-2.3,2.5-3.9c0.3-1.6-0.1-3.2-1.1-4.5l-0.4-0.5
			c-1.4-1.9-2.2-4.2-2.2-6.5V62.9h0.4v10.6c0,2.2,0.7,4.4,2.1,6.2l0.4,0.5c1.1,1.4,1.5,3.1,1.2,4.8c-0.3,1.7-1.2,3.2-2.7,4.2
			L232,90.6z"/>
	</g>
	<path class="st2" d="M233.3,92.1h-19.6l-6.1-12c-0.3-0.7,0.1-1.5,0.9-1.5h16.9c0.6,0,1.2,0.3,1.5,0.9L233.3,92.1z"/>
</g>
<g>
	<g>
		<g>
			<path class="st19" d="M139,161.4c-0.5,0-0.9-0.4-0.9-0.9s0.4-0.9,0.9-0.9c0.5,0,0.9,0.4,0.9,0.9S139.6,161.4,139,161.4z"/>
			<path class="st19" d="M139,166.2c-0.5,0-0.9-0.4-0.9-0.9c0-0.5,0.4-0.9,0.9-0.9c0.5,0,0.9,0.4,0.9,0.9
				C140,165.8,139.6,166.2,139,166.2z"/>
		</g>
		<g>
			<path class="st19" d="M139,171.3c-0.5,0-0.9-0.4-0.9-0.9c0-0.5,0.4-0.9,0.9-0.9c0.5,0,0.9,0.4,0.9,0.9
				C140,170.9,139.6,171.3,139,171.3z"/>
			<path class="st20" d="M139,176.2c-0.5,0-0.9-0.4-0.9-0.9c0-0.5,0.4-0.9,0.9-0.9c0.5,0,0.9,0.4,0.9,0.9
				C140,175.8,139.6,176.2,139,176.2z"/>
			<path class="st20" d="M139,181.1c-0.5,0-0.9-0.4-0.9-0.9s0.4-0.9,0.9-0.9c0.5,0,0.9,0.4,0.9,0.9S139.6,181.1,139,181.1z"/>
			<path class="st20" d="M139,185.9c-0.5,0-0.9-0.4-0.9-0.9c0-0.5,0.4-0.9,0.9-0.9c0.5,0,0.9,0.4,0.9,0.9
				C140,185.5,139.6,185.9,139,185.9z"/>
			<path class="st20" d="M139,190.8c-0.5,0-0.9-0.4-0.9-0.9s0.4-0.9,0.9-0.9c0.5,0,0.9,0.4,0.9,0.9S139.6,190.8,139,190.8z"/>
			<path class="st20" d="M139,195.7c-0.5,0-0.9-0.4-0.9-0.9c0-0.5,0.4-0.9,0.9-0.9c0.5,0,0.9,0.4,0.9,0.9
				C140,195.2,139.6,195.7,139,195.7z"/>
			<path class="st19" d="M139,200.5c-0.5,0-0.9-0.4-0.9-0.9c0-0.5,0.4-0.9,0.9-0.9c0.5,0,0.9,0.4,0.9,0.9
				C140,200.1,139.6,200.5,139,200.5z"/>
			<path class="st20" d="M139,205.4c-0.5,0-0.9-0.4-0.9-0.9c0-0.5,0.4-0.9,0.9-0.9c0.5,0,0.9,0.4,0.9,0.9
				C140,205,139.6,205.4,139,205.4z"/>
			<path class="st20" d="M139,210.2c-0.5,0-0.9-0.4-0.9-0.9c0-0.5,0.4-0.9,0.9-0.9c0.5,0,0.9,0.4,0.9,0.9
				C140,209.8,139.6,210.2,139,210.2z"/>
			<path class="st20" d="M139,215.1c-0.5,0-0.9-0.4-0.9-0.9c0-0.5,0.4-0.9,0.9-0.9c0.5,0,0.9,0.4,0.9,0.9
				C140,214.7,139.6,215.1,139,215.1z"/>
		</g>
	</g>
	<path class="st21" d="M286,112.2H96.1v-10.6c0-0.6,0.5-1.1,1.1-1.1h187.5c0.7,0,1.2,0.6,1.2,1.3V112.2z"/>
	<path class="st1" d="M268.6,107.1c0,1.2-1,2.2-2.2,2.2c-1.2,0-2.2-1-2.2-2.2c0-1.2,1-2.2,2.2-2.2
		C267.6,105,268.6,105.9,268.6,107.1z"/>
	<path class="st1" d="M274.5,107.1c0,1.2-1,2.2-2.2,2.2c-1.2,0-2.2-1-2.2-2.2c0-1.2,1-2.2,2.2-2.2
		C273.5,105,274.5,105.9,274.5,107.1z"/>
	<path class="st1" d="M280,107.1c0,1.2-1,2.2-2.2,2.2c-1.2,0-2.2-1-2.2-2.2c0-1.2,1-2.2,2.2-2.2C279.1,105,280,105.9,280,107.1z"/>
	<rect x="251.4" y="121" class="st13" width="25.2" height="2.3"/>
	<rect x="251.4" y="125.6" class="st13" width="25.2" height="2.3"/>
	<rect x="251.4" y="130.2" class="st15" width="25.2" height="2.3"/>
	<rect x="231" y="134.8" class="st19" width="45.6" height="2.3"/>
	<rect x="240" y="143.2" class="st19" width="25.2" height="2.3"/>
	<rect x="240" y="147.8" class="st19" width="25.2" height="2.3"/>
	<rect x="165.8" y="147.7" class="st19" width="25.2" height="2.3"/>
	<rect x="240" y="152.4" class="st19" width="25.2" height="2.3"/>
	<rect x="184.5" y="121" class="st19" width="63.7" height="2.3"/>
	<rect x="200.5" y="125.6" class="st19" width="47.7" height="2.3"/>
	<rect x="165" y="125.6" class="st19" width="32.1" height="2.3"/>
	<rect x="154.7" y="130.2" class="st19" width="93.5" height="2.3"/>
	<rect x="161.8" y="134.8" class="st13" width="60.7" height="2.3"/>
	<rect x="154.9" y="143.2" class="st19" width="81.8" height="2.3"/>
	<rect x="194.2" y="147.8" class="st19" width="42.6" height="2.3"/>
	<rect x="170.8" y="152.4" class="st19" width="66" height="2.3"/>
	<rect x="226.1" y="157.9" class="st20" width="25.2" height="2.3"/>
	<rect x="155" y="157.9" class="st13" width="21.4" height="2.3"/>
	<rect x="181.2" y="157.9" class="st22" width="41.6" height="2.3"/>
	<rect x="147.7" y="162.5" class="st19" width="103.6" height="2.3"/>
	<rect x="192.1" y="167.1" class="st15" width="59.2" height="2.3"/>
	<rect x="148" y="167.1" class="st19" width="40.5" height="2.3"/>
	<rect x="239.9" y="171.7" class="st19" width="25.2" height="2.3"/>
	<rect x="200.6" y="176.3" class="st15" width="64.5" height="2.3"/>
	<rect x="147.7" y="176.2" class="st19" width="49.1" height="2.3"/>
	<rect x="217.7" y="180.9" class="st15" width="47.4" height="2.3"/>
	<rect x="208.3" y="185.4" class="st19" width="56.8" height="2.3"/>
	<rect x="187.2" y="190.3" class="st19" width="62.8" height="2.3"/>
	<rect x="171.1" y="194.9" class="st15" width="78.8" height="2.3"/>
	<rect x="224.8" y="199.5" class="st19" width="25.2" height="2.3"/>
	<rect x="150.3" y="204" class="st19" width="10" height="2.3"/>
	<rect x="164.3" y="204.1" class="st15" width="85.7" height="2.3"/>
	<rect x="220.6" y="208.7" class="st15" width="25.2" height="2.3"/>
	<rect x="156.1" y="208.7" class="st19" width="61" height="2.3"/>
	<rect x="171.5" y="213.2" class="st19" width="78.4" height="2.3"/>
	<rect x="232.6" y="217.8" class="st19" width="39.4" height="2.3"/>
	<rect x="121.7" y="121.1" class="st15" width="25.4" height="2.3"/>
	<rect x="121.7" y="125.7" class="st19" width="25.4" height="2.3"/>
	<rect x="108.7" y="134.8" class="st15" width="38.4" height="2.3"/>
	<rect x="108.7" y="143.3" class="st19" width="30" height="2.3"/>
	<rect x="108.7" y="121.1" class="st19" width="9" height="2.3"/>
	<rect x="108.7" y="125.7" class="st19" width="9" height="2.3"/>
	<rect x="108.7" y="158" class="st19" width="7.6" height="2.3"/>
	<rect x="130.6" y="152.5" class="st13" width="7.6" height="2.3"/>
	<rect x="108.7" y="162.6" class="st19" width="7.6" height="2.3"/>
	<rect x="108.7" y="176.3" class="st19" width="17.5" height="2.3"/>
	<rect x="108.7" y="185.5" class="st15" width="17.5" height="2.3"/>
	<rect x="108.7" y="190.4" class="st23" width="6.6" height="2.3"/>
	<rect x="108.7" y="204.1" class="st20" width="6.6" height="2.3"/>
	<rect x="108.7" y="213.3" class="st20" width="6.6" height="2.3"/>
	<g>
		<path class="st21" d="M286,227.7H96.1V111.8H286V227.7z M96.9,227.1h188.2V112.5H96.9V227.1z"/>
	</g>
</g>
<g>
	<g>
		<g>
			<path class="st19" d="M330.5,165.6c0.2,0,0.3-0.1,0.3-0.3c0-0.2-0.1-0.3-0.3-0.3c-0.2,0-0.3,0.1-0.3,0.3
				C330.2,165.4,330.3,165.6,330.5,165.6z"/>
			<path class="st19" d="M330.5,167.2c0.2,0,0.3-0.1,0.3-0.3c0-0.2-0.1-0.3-0.3-0.3c-0.2,0-0.3,0.1-0.3,0.3
				C330.2,167.1,330.3,167.2,330.5,167.2z"/>
			<path class="st19" d="M330.5,168.8c0.2,0,0.3-0.1,0.3-0.3c0-0.2-0.1-0.3-0.3-0.3c-0.2,0-0.3,0.1-0.3,0.3
				C330.2,168.7,330.3,168.8,330.5,168.8z"/>
			<path class="st19" d="M330.5,170.4c0.2,0,0.3-0.1,0.3-0.3s-0.1-0.3-0.3-0.3c-0.2,0-0.3,0.1-0.3,0.3S330.3,170.4,330.5,170.4z"/>
			<path class="st19" d="M330.5,172c0.2,0,0.3-0.1,0.3-0.3c0-0.2-0.1-0.3-0.3-0.3c-0.2,0-0.3,0.1-0.3,0.3
				C330.2,171.9,330.3,172,330.5,172z"/>
			<path class="st19" d="M330.5,173.6c0.2,0,0.3-0.1,0.3-0.3c0-0.2-0.1-0.3-0.3-0.3c-0.2,0-0.3,0.1-0.3,0.3
				C330.2,173.5,330.3,173.6,330.5,173.6z"/>
			<path class="st19" d="M330.5,175.3c0.2,0,0.3-0.1,0.3-0.3s-0.1-0.3-0.3-0.3c-0.2,0-0.3,0.1-0.3,0.3S330.3,175.3,330.5,175.3z"/>
			<path class="st19" d="M330.5,176.9c0.2,0,0.3-0.1,0.3-0.3c0-0.2-0.1-0.3-0.3-0.3c-0.2,0-0.3,0.1-0.3,0.3
				C330.2,176.7,330.3,176.9,330.5,176.9z"/>
			<path class="st19" d="M330.5,178.5c0.2,0,0.3-0.1,0.3-0.3c0-0.2-0.1-0.3-0.3-0.3c-0.2,0-0.3,0.1-0.3,0.3
				C330.2,178.4,330.3,178.5,330.5,178.5z"/>
			<path class="st19" d="M330.5,180.1c0.2,0,0.3-0.1,0.3-0.3c0-0.2-0.1-0.3-0.3-0.3c-0.2,0-0.3,0.1-0.3,0.3
				C330.2,180,330.3,180.1,330.5,180.1z"/>
		</g>
		<g>
			<path class="st19" d="M330.5,181.8c0.2,0,0.3-0.1,0.3-0.3c0-0.2-0.1-0.3-0.3-0.3c-0.2,0-0.3,0.1-0.3,0.3
				C330.2,181.7,330.3,181.8,330.5,181.8z"/>
			<path class="st19" d="M330.5,183.4c0.2,0,0.3-0.1,0.3-0.3c0-0.2-0.1-0.3-0.3-0.3c-0.2,0-0.3,0.1-0.3,0.3
				C330.2,183.3,330.3,183.4,330.5,183.4z"/>
			<path class="st19" d="M330.5,185c0.2,0,0.3-0.1,0.3-0.3c0-0.2-0.1-0.3-0.3-0.3c-0.2,0-0.3,0.1-0.3,0.3
				C330.2,184.9,330.3,185,330.5,185z"/>
			<path class="st19" d="M330.5,186.6c0.2,0,0.3-0.1,0.3-0.3s-0.1-0.3-0.3-0.3c-0.2,0-0.3,0.1-0.3,0.3S330.3,186.6,330.5,186.6z"/>
			<path class="st19" d="M330.5,188.3c0.2,0,0.3-0.1,0.3-0.3c0-0.2-0.1-0.3-0.3-0.3c-0.2,0-0.3,0.1-0.3,0.3
				C330.2,188.1,330.3,188.3,330.5,188.3z"/>
			<path class="st19" d="M330.5,189.9c0.2,0,0.3-0.1,0.3-0.3c0-0.2-0.1-0.3-0.3-0.3c-0.2,0-0.3,0.1-0.3,0.3
				C330.2,189.7,330.3,189.9,330.5,189.9z"/>
			<path class="st19" d="M330.5,191.5c0.2,0,0.3-0.1,0.3-0.3c0-0.2-0.1-0.3-0.3-0.3c-0.2,0-0.3,0.1-0.3,0.3
				C330.2,191.3,330.3,191.5,330.5,191.5z"/>
			<path class="st19" d="M330.5,193.1c0.2,0,0.3-0.1,0.3-0.3c0-0.2-0.1-0.3-0.3-0.3c-0.2,0-0.3,0.1-0.3,0.3
				C330.2,193,330.3,193.1,330.5,193.1z"/>
			<path class="st19" d="M330.5,194.7c0.2,0,0.3-0.1,0.3-0.3c0-0.2-0.1-0.3-0.3-0.3c-0.2,0-0.3,0.1-0.3,0.3
				C330.2,194.6,330.3,194.7,330.5,194.7z"/>
			<path class="st19" d="M330.5,196.3c0.2,0,0.3-0.1,0.3-0.3c0-0.2-0.1-0.3-0.3-0.3c-0.2,0-0.3,0.1-0.3,0.3
				C330.2,196.2,330.3,196.3,330.5,196.3z"/>
		</g>
	</g>
	<path class="st21" d="M294,162.2h50.8v-2.7c0-0.6-0.5-1.1-1.1-1.1h-48.4c-0.7,0-1.2,0.6-1.2,1.3V162.2z"/>
	<path class="st6" d="M300.7,160.5c0,0.4,0.3,0.7,0.7,0.7c0.4,0,0.7-0.3,0.7-0.7c0-0.4-0.3-0.7-0.7-0.7
		C301,159.8,300.7,160.1,300.7,160.5z"/>
	<path class="st6" d="M298.7,160.5c0,0.4,0.3,0.7,0.7,0.7c0.4,0,0.7-0.3,0.7-0.7c0-0.4-0.3-0.7-0.7-0.7
		C299.1,159.8,298.7,160.1,298.7,160.5z"/>
	<path class="st6" d="M296.9,160.5c0,0.4,0.3,0.7,0.7,0.7c0.4,0,0.7-0.3,0.7-0.7c0-0.4-0.3-0.7-0.7-0.7
		C297.2,159.8,296.9,160.1,296.9,160.5z"/>
	<rect x="321.6" y="165.1" class="st19" width="6" height="0.8"/>
	<rect x="321.6" y="166.6" class="st19" width="6" height="0.8"/>
	<rect x="321.6" y="168.1" class="st19" width="6" height="0.8"/>
	<rect x="316.6" y="169.7" class="st19" width="11" height="0.8"/>
	<rect x="318.8" y="172.5" class="st19" width="6" height="0.8"/>
	<rect x="318.8" y="174" class="st19" width="6" height="0.8"/>
	<rect x="301" y="174" class="st19" width="6" height="0.8"/>
	<rect x="318.8" y="175.5" class="st19" width="6" height="0.8"/>
	<rect x="305.5" y="165.1" class="st19" width="15.3" height="0.8"/>
	<rect x="309.3" y="166.6" class="st19" width="11.5" height="0.8"/>
	<rect x="300.8" y="166.6" class="st19" width="7.7" height="0.8"/>
	<rect x="298.3" y="168.1" class="st19" width="22.4" height="0.8"/>
	<rect x="300" y="169.7" class="st19" width="14.6" height="0.8"/>
	<rect x="298.4" y="172.5" class="st19" width="19.6" height="0.8"/>
	<rect x="307.8" y="174" class="st19" width="10.2" height="0.8"/>
	<rect x="302.2" y="175.5" class="st19" width="15.8" height="0.8"/>
	<rect x="315.5" y="177.3" class="st19" width="6" height="0.8"/>
	<rect x="298.4" y="177.3" class="st19" width="16.3" height="0.8"/>
	<rect x="296.7" y="178.9" class="st19" width="24.9" height="0.8"/>
	<rect x="307.3" y="180.4" class="st19" width="14.2" height="0.8"/>
	<rect x="296.7" y="180.4" class="st19" width="9.7" height="0.8"/>
	<rect x="318.8" y="181.9" class="st19" width="6" height="0.8"/>
	<rect x="309.4" y="183.4" class="st19" width="15.5" height="0.8"/>
	<rect x="296.7" y="183.4" class="st19" width="11.8" height="0.8"/>
	<rect x="313.5" y="185" class="st19" width="11.4" height="0.8"/>
	<rect x="311.2" y="186.5" class="st19" width="13.6" height="0.8"/>
	<rect x="306.1" y="188.1" class="st19" width="15.1" height="0.8"/>
	<rect x="302.3" y="189.6" class="st19" width="18.9" height="0.8"/>
	<rect x="315.2" y="191.1" class="st19" width="6" height="0.8"/>
	<rect x="297.3" y="192.6" class="st19" width="2.4" height="0.8"/>
	<rect x="300.6" y="192.7" class="st19" width="20.6" height="0.8"/>
	<rect x="314.2" y="194.2" class="st19" width="6" height="0.8"/>
	<rect x="298.7" y="194.2" class="st19" width="14.7" height="0.8"/>
	<rect x="309.7" y="195.7" class="st19" width="11.5" height="0.8"/>
	<rect x="317" y="197.2" class="st19" width="6" height="0.8"/>
	<rect x="333.1" y="165.1" class="st19" width="4.9" height="0.8"/>
	<rect x="333.1" y="166.6" class="st19" width="4.9" height="0.8"/>
	<rect x="333.1" y="169.7" class="st19" width="7.5" height="0.8"/>
	<rect x="334.7" y="172.5" class="st19" width="5.8" height="0.8"/>
	<rect x="338.8" y="165.1" class="st19" width="1.8" height="0.8"/>
	<rect x="338.8" y="166.6" class="st19" width="1.8" height="0.8"/>
	<rect x="338.1" y="177.4" class="st19" width="2.5" height="0.8"/>
	<rect x="338.1" y="178.9" class="st19" width="2.5" height="0.8"/>
	<rect x="334.8" y="183.5" class="st19" width="5.8" height="0.8"/>
	<rect x="334.8" y="186.5" class="st19" width="5.8" height="0.8"/>
	<rect x="338.4" y="188.1" class="st19" width="2.2" height="0.8"/>
	<rect x="338.4" y="192.7" class="st19" width="2.2" height="0.8"/>
	<rect x="338.4" y="195.7" class="st19" width="2.2" height="0.8"/>
	<g>
		<path class="st21" d="M293.9,162h50.8v38.5h-50.8V162z M344.5,162.3h-50.4v38h50.4V162.3z"/>
	</g>
</g>
<g>
	<path class="st20" d="M53.9,217.1v-3.8c0-0.3-0.2-0.5-0.5-0.5h58.4c0.3,0,0.5,0.2,0.5,0.5v3.8c0,0.3-0.2,0.5-0.5,0.5H53.4
		C53.7,217.6,53.9,217.4,53.9,217.1z"/>
	<path class="st24" d="M36.2,212.8L36.2,212.8h17.2c0.3,0,0.5,0.2,0.5,0.5v3.8c0,0.3-0.2,0.5-0.5,0.5H36.3h0c-0.3,0-0.5-0.2-0.5-0.5
		v-3.8C35.8,213,36,212.8,36.2,212.8z"/>
</g>
<path class="st25" d="M98.5,254.5c-1.9,0.3-5.9,2.1-5.9,2.1c-1.3,0.6-0.9,2.3,0.6,2.3l5.7,0.1c0.3,0,0.5-0.2,0.4-0.4l-0.8-3.9
	C98.6,254.5,98.6,254.5,98.5,254.5z"/>
<path class="st1" d="M93.6,226.9C93.6,226.9,93.5,227,93.6,226.9c0.3,4.2,4.9,15.8,6.5,26.2c0.6,3.9-2.8,6.3-4.9,3
	c-0.7-1.1-0.9-2-1.5-4.1c-4-12.9-7-19-8.1-23.3L93.6,226.9z"/>
<path class="st25" d="M80.8,254.7c-2.4,0.3-7.7,2.1-7.7,2.1c-1.7,0.6-1.1,2.3,0.8,2.3l7.4,0.1c0.4,0,0.6-0.2,0.6-0.4l-1-4
	C80.8,254.8,80.8,254.7,80.8,254.7z"/>
<path class="st1" d="M70.7,231.6c-0.6-2.4,0.6-4.8,2.9-5.8c0,0,0,0,0,0c6.6-2.9,17.2-2.5,24.5-1.6c0,0.1,4.9,0.8,6.5,0.3l-1.3,8.3
	l0.4,1.7c-5.2,0.3-16.5-2.6-25.2-1.4c0.9,5.4,2.6,13.1,2.8,20.1c0.1,3.7-3.5,5.6-5.2,2.3c-0.6-1.1-0.6-2-1-4
	C73.5,243.1,71.7,235.6,70.7,231.6z"/>
<g>
	<g>
		<g>
			<path class="st9" d="M93.5,178.2c0.7,0.7,1.2,1.9,1.2,3.1l-0.1,3.2c-0.1,2.2-1.6,3.9-3.4,3.9c-1.8,0-3.2-1.9-3.2-4l0.1-3.1
				L93.5,178.2z"/>
		</g>
		<g>
			<path class="st9" d="M91.2,192.7l2.7,0.1c0.4,0,0.7-0.3,0.7-0.7l0.3-7.5c0-0.4-0.3-0.7-0.6-0.7l-2.7-0.1c-0.4,0-0.7,0.3-0.7,0.7
				l-0.3,7.5C90.6,192.4,90.9,192.7,91.2,192.7z"/>
		</g>
		<g>
			<path class="st14" d="M88.8,181.8v1.1c0.6,1.6,2.8,3.4,4.2,3.5c1.9,0.2,2.2-1,2.8-4.6H88.8z"/>
		</g>
		<g>
			<path class="st9" d="M89.3,182.3c-0.6,0-1.1,0.5-1.1,1.1c-0.1,0.7,0.4,1.2,0.9,1.3c0.6,0,1.1-0.5,1.1-1.1
				C90.3,182.9,89.8,182.3,89.3,182.3z"/>
		</g>
	</g>
	<path class="st14" d="M88.8,182.2c0,0-1.5-1.7-1.5-4c0,0,6.3-1.9,8.2,1.6c0,0,0.5,1.4,0.3,2.1L88.8,182.2z"/>
</g>
<path class="st5" d="M101.5,193.1c1.7,0.5,2.8,1.9,3,3.7l2,26.5c0.2,2.5-1.9,4.7-4.7,4.7h-7.7c-3.2,0-5.9-2.1-6.6-5l-5.8-26.7
	c-0.3-1.3,0.4-2.7,1.7-3.2C89.6,190.3,97.4,191.9,101.5,193.1z"/>
<path class="st5" d="M82.1,194.5c-0.9,2.8-1.7,5.7-2.6,8.5l5.4,1.8l3.3-8.1C89.2,193.6,83,191.4,82.1,194.5z"/>
<path class="st9" d="M78.5,206.6l-8.4-3.1c-1.2-0.6-2.4-1.1-3.1,0.2c-0.7,1.1-0.1,2.2,1.1,2.8c3.6,1.7,7.1,4.2,10.8,6
	c1.5,0.7,3.2,0.2,3.7-1.5l2.4-6l-5.4-1.8C79.2,204.2,78.8,205.4,78.5,206.6z"/>
<path class="st20" d="M85.6,235.7h22c0.8,0,1.4-0.6,1.4-1.4v-0.2c0-0.8-0.6-1.4-1.4-1.4h-22c-0.8,0-1.4,0.6-1.4,1.4v0.2
	C84.2,235.1,84.8,235.7,85.6,235.7z"/>
<path class="st20" d="M85.6,259h22c0.8,0,1.4-0.6,1.4-1.4v-0.2c0-0.8-0.6-1.4-1.4-1.4h-22c-0.8,0-1.4,0.6-1.4,1.4v0.2
	C84.2,258.4,84.8,259,85.6,259z"/>
<g>
	<path class="st24" d="M112.6,219.5H94.8c-1.7,0-3-1.5-2.8-3.2l1.9-16c0.2-1.7,1.6-3.1,3.2-3.1h15.3c1.5,0,2.7,1.4,2.5,3.1
		L112.6,219.5z"/>
	<path class="st20" d="M112.6,219.5H96.9c-1.3,0-2.3-1.1-2.2-2.4l2-16.7c0.2-1.7,1.6-3.1,3.2-3.1h15.3c1.5,0,2.7,1.4,2.5,3.1
		l-1.9,16.5C115.5,218.3,114.2,219.5,112.6,219.5z"/>
</g>
<path class="st24" d="M87.2,219.3H76.9c-0.7,0-1.3-0.6-1.3-1.3v-1.2c0-0.7,0.6-1.3,1.3-1.3h10.3c0.7,0,1.3,0.6,1.3,1.3v1.2
	C88.5,218.7,87.9,219.3,87.2,219.3z"/>
<path class="st20" d="M89.3,219.3h-4.8c-0.7,0-1.3-0.6-1.3-1.3v-1.2c0-0.7,0.6-1.3,1.3-1.3h4.8c0.7,0,1.3,0.6,1.3,1.3v1.2
	C90.5,218.7,89.9,219.3,89.3,219.3z"/>
<rect x="84.2" y="234.5" class="st20" width="1.8" height="23"/>
<rect x="95.3" y="234.6" class="st20" width="1.8" height="24"/>
<polygon class="st20" points="102.5,233.2 104.9,233.4 107.1,219 104.6,219 "/>
<polygon class="st20" points="97.5,233 99.8,233.1 101.9,219.2 99.6,219.2 "/>
<g>
	<g>
		<path class="st26" d="M262,254c-2.1,0.2-6.6,1.8-6.6,1.8c-1.5,0.5-1,1.9,0.7,2l6.3,0.1c0.3,0,0.5-0.2,0.5-0.4l-0.9-3.4
			C262,254,262,254,262,254z"/>
	</g>
	<g>
		<path class="st26" d="M246.7,253.7c-2.3,0.2-7.2,2-7.2,2c-1.6,0.5-1.1,2.1,0.8,2.1l6.9,0.1c0.3,0,0.6-0.2,0.5-0.4l-1-3.7
			C246.8,253.7,246.7,253.7,246.7,253.7z"/>
	</g>
	<g>
		<path class="st27" d="M260.5,256.1c1.1,0,1.9-1.2,1.6-2.4c-1.4-6.9-5-26.4-5.9-42.1c0-0.1,0-0.1,0-0.2l-0.1-1.6l-8.3-0.7l0.7,4.4
			c0,0.1,0,0.1,0,0.2c1,6.4,2.9,15.1,5.1,24c1,4.2,3.2,11.9,4.6,16.8c0.3,0.9,1,1.5,1.9,1.5L260.5,256.1z"/>
	</g>
	<g>
		<path class="st27" d="M245.3,256.8c1.2,0,2.2-1,2.1-2.3c-0.3-4.8-0.6-14.2-0.6-17.4c-0.2-8.8,0.2-18.2,1.1-24.6c0-0.1,0-0.1,0-0.2
			l0.3-3.3l-8.7-0.5l0.3,3.8c0,0.1,0,0.1,0,0.2c0,6.5,0.5,15.5,1.3,24.7c0.2,1.8,1.6,12.8,2.1,17.7
			C243.3,255.9,244.2,256.8,245.3,256.8L245.3,256.8z"/>
	</g>
	<g>
		<path class="st28" d="M257.6,154.1l0.1-3.3c0-0.8,0.7-1.4,1.4-1.4c0.8,0,1.4,0.7,1.4,1.4l-0.1,3.3c0,0.8-0.7,1.4-1.4,1.4
			C258.2,155.5,257.6,154.8,257.6,154.1z"/>
	</g>
	<g>
		<path class="st5" d="M256.6,176.1h-29.4c-1.1,0-2-0.9-2-2v-25c0-1.1,0.9-2,2-2h29.4c1.1,0,2,0.9,2,2v25
			C258.6,175.2,257.7,176.1,256.6,176.1z"/>
	</g>
	<g>
		<path class="st28" d="M226.4,177.2l0.1-3.3c0-0.8,0.7-1.4,1.4-1.4c0.8,0,1.4,0.7,1.4,1.4l-0.1,3.3c0,0.8-0.7,1.4-1.4,1.4
			C227.1,178.6,226.4,177.9,226.4,177.2z"/>
	</g>
	<g>
		<path class="st28" d="M233.1,190.2c-0.8-3.2-2.8-12-3-12.7c-0.7-3-4.1-1.7-3.7,1.4c0.9,6.5,3.1,16.6,3.3,17.3
			c0.5,2.1,3.6,3,4.7,1.2l3.2-4.2l-4.4-3.3C233.2,190.1,233.1,190.1,233.1,190.2z"/>
	</g>
	<g>
		<path class="st29" d="M237,183c-1.3,2.1-2.5,4.9-3.8,7l4.4,3.3l4.6-6C243.8,184.6,238.6,180.4,237,183z"/>
	</g>
	<g>
		<rect x="227.1" y="150.3" class="st2" width="13.9" height="9.6"/>
	</g>
	<g>
		<rect x="242.5" y="150.3" class="st2" width="13.9" height="9.6"/>
	</g>
	<g>
		<rect x="227.1" y="161" class="st2" width="13.9" height="9.6"/>
	</g>
	<g>
		<rect x="242.5" y="161.1" class="st2" width="13.9" height="9.6"/>
	</g>
	<g>
		<rect x="228" y="151.1" class="st27" width="1.6" height="1.6"/>
	</g>
	<g>
		<rect x="227.9" y="161.9" class="st30" width="1.6" height="1.6"/>
	</g>
	<g>
		<rect x="243.1" y="151" class="st30" width="1.6" height="1.6"/>
	</g>
	<g>
		<rect x="243.4" y="162" class="st27" width="1.6" height="1.6"/>
	</g>
	<g>
		<rect x="228" y="169.3" class="st1" width="3.5" height="0.5"/>
		<rect x="228" y="168.3" class="st1" width="3.5" height="0.5"/>
		<rect x="228" y="167.4" class="st1" width="3.5" height="0.5"/>
		<rect x="228" y="166.4" class="st1" width="5.7" height="0.5"/>
	</g>
	<g>
		<rect x="228" y="158.6" class="st1" width="3.5" height="0.5"/>
		<rect x="228" y="157.7" class="st1" width="3.5" height="0.5"/>
		<rect x="228" y="156.8" class="st1" width="3.5" height="0.5"/>
		<rect x="228" y="155.7" class="st1" width="5.7" height="0.5"/>
	</g>
	<g>
		<rect x="243.1" y="158.6" class="st1" width="3.5" height="0.5"/>
		<rect x="243.1" y="157.6" class="st1" width="3.5" height="0.5"/>
		<rect x="243.1" y="156.7" class="st1" width="3.5" height="0.5"/>
		<rect x="243.1" y="155.7" class="st1" width="5.7" height="0.5"/>
	</g>
	<g>
		<rect x="243.4" y="169.3" class="st1" width="3.5" height="0.5"/>
		<rect x="243.4" y="168.3" class="st1" width="3.5" height="0.5"/>
		<rect x="243.4" y="167.4" class="st1" width="3.5" height="0.5"/>
		<rect x="243.4" y="166.4" class="st1" width="5.7" height="0.5"/>
	</g>
	<g>
		<path class="st29" d="M256.9,174.1c-1.5,7.2-3.8,11.9-4.4,12.6c0.1,1.4,2.4,3.7,3.4,4.4c0.9,0.6,3,0.3,3.5-0.9
			c1.8-4.6,3-10.1,3.4-15.8L256.9,174.1z"/>
		<path class="st31" d="M252.5,186.2c-0.2,0.5-0.2,0.7,0,0.5C252.5,186.5,252.5,186.3,252.5,186.2z"/>
		<path class="st28" d="M261.3,154.7c-0.7-3-4.2-1.6-3.5,1.5c0.7,6.8,0.1,12.9-0.9,17.9l5.9,0.2
			C263.3,167.9,262.8,161.1,261.3,154.7z"/>
	</g>
	<g>
		<g>
			<path class="st28" d="M248.5,180.1l2.5,0.1c0.3,0,0.6-0.3,0.6-0.6l0.2-6.8c0-0.4-0.3-0.7-0.6-0.7l-2.5-0.1
				c-0.3,0-0.6,0.3-0.6,0.6l-0.2,6.8C247.9,179.8,248.2,180.1,248.5,180.1z"/>
		</g>
		<g>
			<path class="st28" d="M250.6,167c0.7,0.7,1.1,1.7,1.1,2.8l-0.1,2.9c0,2-1.4,3.5-3.1,3.5c-1.6,0-3-1.7-2.9-3.6l0.1-2.8L250.6,167z
				"/>
		</g>
		<g>
			<path class="st32" d="M246.2,170.3v1c0.6,1.5,2.6,3.1,3.8,3.2c1.7,0.1,2-0.9,2.5-4.2H246.2z"/>
		</g>
		<g>
			<path class="st28" d="M246.7,170.6c-0.5,0-1,0.4-1,1c0,0.6,0.3,1.1,0.8,1.2c0.5,0,1-0.4,1-1C247.6,171.2,247.2,170.7,246.7,170.6
				z"/>
		</g>
		<path class="st32" d="M246.3,170.6c0,0-1.4-1.5-1.4-3.7c0,0,5.7-1.7,7.5,1.4c0,0,0.4,1.3,0.2,1.9L246.3,170.6z"/>
	</g>
	<g>
		<path class="st29" d="M255.4,180c-0.2,0-0.4-0.1-0.6-0.1c-2.4-0.5-5.3-0.4-7.7-0.2c-0.7,0.1-1.4,0.1-2,0.2c-0.7,0.1-1.4,0.2-2,0.3
			c-1.4,0.3-4.6,0.7-5.6,2c-1.1,1.5,0.5,3.5,0.5,5.2c0.3,8,0.6,15.9,1.2,23.8c0.1,0.9,0.9,1.7,1.8,1.6c0.2,0,0.5,0,0.7,0
			c3.8-0.1,7.5-0.2,11.3-0.3c0.3,0,0.7,0,1,0c0.5,0,1,0,1.5-0.4c0.4-0.4,0.7-1,0.9-1.5c0-0.1,0-0.1,0-0.2c0.2-0.6,0.3-1.2,0.3-1.8
			c0.1-1.7,0.3-3.8,0.5-5.2c0-0.5,0.1-1,0.2-1.5c0.4-3.5,1.4-9.1,2.9-12.6c0.2-2.1,0.2-2.1,0.2-4.1
			C260.5,182.3,258.3,180.7,255.4,180z"/>
	</g>
	<g>
		<path class="st1" d="M252.3,179.6c-0.1-0.4-0.4-0.7-0.9-0.7h-3.5c-0.4,0-0.8,0.3-0.9,0.7H252.3z"/>
	</g>
</g>
<g>
	<path class="st33" d="M298.8,187.4c0.5-1.3-0.6-2.9-1.8-3.2c-1.5-0.4-2.7,0.5-3.2,1.8c-1.9,4.7-2.6,10-2.4,15.4h4.1
		C295.8,196.7,297,191.9,298.8,187.4z"/>
	<path class="st34" d="M291.3,201.4c0,0.6,0,1.1,0.1,1.7l3.9-0.1c0-0.5,0.1-1.1,0.1-1.6H291.3z"/>
	<path class="st28" d="M295.3,203.1l-3.9,0.1c0.2,3.5,0.8,7.1,1.8,10.5h3.1C295.4,210.2,295.1,206.6,295.3,203.1z"/>
</g>
<path class="st28" d="M315.1,168.3c0.7,0,1.3,0.5,1.3,1.2l0.2,3c0,0.7-0.5,1.3-1.2,1.4c-0.7,0-1.3-0.5-1.3-1.2l-0.2-3
	C313.8,169,314.4,168.4,315.1,168.3z"/>
<path class="st34" d="M314.5,182.8l3.7-0.1c0.1,0.6,0.1,1.2,0.2,1.7l-3.8,0.1C314.6,184,314.6,183.4,314.5,182.8z"/>
<path class="st35" d="M305,185.4c0.8-1.3,2.3-1.5,3.6-0.9c1.6,0.8,3.8,2,5.6,2.8c0.3,0.2,0.7-0.1,0.7-0.5c0-0.5-0.1-1.3-0.2-2.2
	l3.8-0.1c0.4,3.1,0.7,5.5,0.7,5.5c0.3,2.2-1.4,3.2-3,2.7c-5.2-1.6-6.8-2.1-10.1-3.7C304.7,188.3,304.4,186.5,305,185.4z"/>
<path class="st28" d="M313.9,174.1c-0.2-1.4,0-2.5,1.3-2.5c1.6,0,1.7,0.3,1.9,1.7c0,0.3,0.6,5,1.2,9.3l-3.7,0.1
	C314.2,178.9,313.9,174.1,313.9,174.1z"/>
<path class="st36" d="M314.7,170.7l0.1,0c0.2,0,0.3-0.2,0.3-0.3l-0.3-4.2c0-0.2-0.2-0.3-0.3-0.3l-0.1,0c-0.2,0-0.3,0.2-0.3,0.3
	l0.3,4.2C314.4,170.6,314.5,170.8,314.7,170.7z"/>
<g>
	<g>
		<path class="st28" d="M166.6,175.2h-3.7l-0.2,1.7h3.9C166.6,176.3,166.6,175.7,166.6,175.2z"/>
		<path class="st2" d="M146.9,178.1c-3.4-0.2-4.5,6-1.1,5.9c5.6-0.2,9.4-0.3,12.1-0.3l-0.2-5C153.5,178.5,148,178.2,146.9,178.1z"/>
		<path class="st28" d="M162.7,176.9l-0.2,2.1c0,0-2.1-0.1-4.8-0.2l0.2,5c5.7-0.2,6.1-0.2,6.9-0.2c1.5,0,1.8-1.8,1.8-3.3
			c0-1,0-2.2,0-3.4H162.7z"/>
		<path class="st28" d="M166.5,164.2c0.1-3.4-2.6-3.5-2.7,0l-1,11h3.7C166.6,169.9,166.5,164.2,166.5,164.2z"/>
		<path class="st28" d="M134.8,151c-0.7,0-1.3,0.5-1.4,1.2l-0.2,3c0,0.7,0.5,1.3,1.2,1.4c0.7,0,1.3-0.5,1.4-1.2l0.2-3
			C136.1,151.7,135.6,151,134.8,151z"/>
		<path class="st28" d="M167.9,158.6c-0.6-0.4-1.4-0.2-1.8,0.4l-1.6,2.6c-0.4,0.6-0.2,1.4,0.4,1.8c0.6,0.4,1.4,0.2,1.8-0.4l1.6-2.6
			C168.7,159.8,168.5,159,167.9,158.6z"/>
		<path class="st28" d="M135.8,156.6c0.8-3.2-1.9-4.4-2.7-1.3l-2,8.8l3.6,0.6L135.8,156.6z"/>
		<polygon class="st1" points="131.1,164.1 130.7,165.7 134.4,166.4 134.7,164.7 		"/>
		<path class="st2" d="M143,182.4l-7.6-8.7c-1.1-1.3-1.6-3-1.4-4.6l0.4-2.7l-3.7-0.7l-0.9,4.1c-0.5,2,0.3,4.4,1.6,6.1l9,12.6
			c0.9,1.1,1-1,1.9-1.9C143.4,185.5,143.9,183.5,143,182.4z"/>
	</g>
	<g>
		<path class="st13" d="M154.3,256.6l-5.4-1.8c-0.3-0.1-0.6,0-0.6,0.2l-0.9,3c-0.1,0.2,0.2,0.3,0.4,0.3l5.8,0
			C155.1,258.3,155.6,257,154.3,256.6z"/>
	</g>
	<g>
		<path class="st13" d="M143.6,256.6l-5.4-1.8c-0.3-0.1-0.6,0-0.6,0.2l-0.9,3c-0.1,0.2,0.2,0.3,0.4,0.3l5.8,0
			C144.4,258.4,144.9,257.1,143.6,256.6z"/>
	</g>
	<g>
		<path class="st28" d="M147.8,255.1c0.6-7,1.4-19.5,1.4-24h5.9c-0.4,3.9-2.4,17.8-3.4,24.4c-0.1,1-1,1.7-1.9,1.7
			C148.6,257.2,147.7,256.2,147.8,255.1z"/>
		<path class="st28" d="M137.1,255.4c-0.1-5.3-0.3-13.4-0.3-24.2h5.7c0,5.6-0.9,17-1.4,24.2c-0.1,1-0.9,1.9-2,1.9
			C138,257.4,137.1,256.5,137.1,255.4z"/>
	</g>
	<path class="st5" d="M137.8,207.4h4.6h7.3h5.7c0.3,0.5,0.4,1,0.5,1.6c0.3,7.7-0.1,15.5-0.9,23.3h-6.7h-4.9h-6.6
		c0-5.6,0-11.3,0-16.9c0-1.9,0-3.7,0-5.6C136.8,208.9,137.2,208,137.8,207.4z"/>
	<path class="st2" d="M136.7,209.3c0.1-1.6,0.4-3.1,0.9-4.7c0.5-1.5,1.1-2.9,1.7-4.3c0.6-1.4,1.4-2.7,1.7-4.2
		c0.6-2.9-0.5-5.6-1.2-8.4c-0.7-3.1-0.9-4.7-0.8-7.8c1.8-0.8,4.9-3,7.2-2.9c2.3-0.1,5,1.6,6.8,2.4c0.1,3.1,0.2,5.2-0.4,8.2
		c-0.6,2.8-1.8,5.5-1.2,8.4c0.3,1.5,1.1,2.8,1.7,4.2c0.6,1.4,1.2,2.9,1.7,4.3c0.5,1.5,0.8,3.1,0.9,4.7H136.7z"/>
	<g>
		<g>
			<path class="st28" d="M144.4,164.5c-0.7,0.7-1.1,1.8-1.1,2.9l0.1,3c0,2,1.5,3.7,3.2,3.6c1.7,0,3.1-1.7,3-3.8l-0.1-2.9
				L144.4,164.5z"/>
		</g>
		<g>
			<path class="st28" d="M146.5,178.1l-2.5,0.1c-0.3,0-0.6-0.3-0.7-0.7l-0.2-7.1c0-0.4,0.3-0.7,0.6-0.7l2.5-0.1
				c0.3,0,0.6,0.3,0.7,0.7l0.2,7.1C147.2,177.8,146.9,178.1,146.5,178.1z"/>
		</g>
		<g>
			<path class="st37" d="M148.8,167.9v1c-0.6,1.5-2.7,3.2-4,3.3c-1.8,0.1-2-1-2.6-4.4H148.8z"/>
		</g>
		<path class="st37" d="M148.8,168.2c0,0,0.2-0.3,0.5-0.7c0.9-1.5-0.1-3.5-1.9-3.6c-1.8-0.1-3.9,0.2-4.9,2c0,0-0.5,1.3-0.2,2
			L148.8,168.2z"/>
		<g>
			<path class="st28" d="M148.4,168.3c0.5,0,1,0.4,1,1.1c0,0.6-0.3,1.2-0.9,1.2c-0.5,0-1-0.4-1-1.1
				C147.5,168.8,147.8,168.3,148.4,168.3z"/>
		</g>
	</g>
</g>
<path class="st37" d="M139,171c-1.4,0.6-2.9,1.4-4,2.5c-1,0.9-1.7,2.1-2.4,3.3c-1.5,2.8-2.6,6.2-1.6,9.2c0.6,1.6,1.7,3,2.6,4.5
	s1.5,3.3,0.9,4.9c-0.5,1.3-1.7,2.2-2.8,3.1c4-0.1,7.9-2.2,10.3-5.4c2.4-3.2,3.2-7.6,2.1-11.5c-0.4-1.4-1-2.8-1.2-4.3
	c-0.2-1.5,0.1-3.1,1.2-4.1c0.5-0.4,1.2-0.7,1.7-1.2c1.1-1,1.1-3.2-0.6-3.2C143.2,168.9,140.8,170.2,139,171z"/>
<polygon class="st13" points="59.7,189.9 50.4,189.9 48.9,180.6 58.2,180.6 "/>
<path class="st9" d="M68,206.1h-2.2c-0.9,0-1.6-0.7-1.6-1.6s0.7-1.6,1.6-1.6H68c0.9,0,1.6,0.7,1.6,1.6S68.9,206.1,68,206.1z"/>
<g>
	<ellipse class="st38" cx="275.6" cy="48.4" rx="12.9" ry="12.9"/>
	<g>
		<path class="st1" d="M272.7,46.9c-0.2,0-0.4,0.1-0.6,0.3c-0.1,0.2-0.2,0.5-0.2,0.8c0,0.7,0.3,1.1,0.8,1.1c0.2,0,0.3,0,0.5-0.1
			c0.2,0,0.3-0.1,0.5-0.2v0.9c-0.3,0.1-0.7,0.2-1.1,0.2c-0.6,0-1-0.2-1.3-0.5c-0.3-0.3-0.5-0.8-0.5-1.4c0-0.4,0.1-0.7,0.2-1
			c0.1-0.3,0.4-0.5,0.6-0.7c0.3-0.2,0.6-0.2,1-0.2c0.4,0,0.8,0.1,1.2,0.3l-0.3,0.8c-0.1-0.1-0.3-0.1-0.4-0.2
			C273,46.9,272.8,46.9,272.7,46.9z"/>
		<path class="st1" d="M276.9,48.8c0,0.2-0.1,0.4-0.2,0.6c-0.1,0.2-0.3,0.3-0.5,0.4c-0.2,0.1-0.5,0.2-0.8,0.2c-0.3,0-0.5,0-0.6-0.1
			c-0.2,0-0.4-0.1-0.5-0.2v-0.9c0.2,0.1,0.4,0.2,0.6,0.2c0.2,0.1,0.4,0.1,0.6,0.1c0.2,0,0.3,0,0.3-0.1c0.1-0.1,0.1-0.1,0.1-0.2
			c0-0.1,0-0.1,0-0.1c0,0-0.1-0.1-0.1-0.1c-0.1,0-0.2-0.1-0.5-0.2c-0.2-0.1-0.4-0.2-0.6-0.3c-0.1-0.1-0.2-0.2-0.3-0.4
			c-0.1-0.1-0.1-0.3-0.1-0.5c0-0.4,0.1-0.6,0.4-0.8c0.3-0.2,0.6-0.3,1.1-0.3c0.4,0,0.8,0.1,1.2,0.3l-0.3,0.8
			c-0.4-0.2-0.7-0.2-0.9-0.2c-0.1,0-0.2,0-0.3,0.1c-0.1,0-0.1,0.1-0.1,0.2c0,0.1,0,0.1,0.1,0.2c0.1,0.1,0.3,0.2,0.6,0.3
			c0.3,0.1,0.6,0.3,0.7,0.5C276.8,48.3,276.9,48.5,276.9,48.8z"/>
		<path class="st1" d="M280,48.8c0,0.2-0.1,0.4-0.2,0.6c-0.1,0.2-0.3,0.3-0.5,0.4c-0.2,0.1-0.5,0.2-0.8,0.2c-0.3,0-0.5,0-0.6-0.1
			c-0.2,0-0.4-0.1-0.5-0.2v-0.9c0.2,0.1,0.4,0.2,0.6,0.2c0.2,0.1,0.4,0.1,0.6,0.1c0.2,0,0.3,0,0.3-0.1c0.1-0.1,0.1-0.1,0.1-0.2
			c0-0.1,0-0.1,0-0.1c0,0-0.1-0.1-0.1-0.1c-0.1,0-0.2-0.1-0.5-0.2c-0.2-0.1-0.4-0.2-0.6-0.3c-0.1-0.1-0.2-0.2-0.3-0.4
			c-0.1-0.1-0.1-0.3-0.1-0.5c0-0.4,0.1-0.6,0.4-0.8c0.3-0.2,0.6-0.3,1.1-0.3c0.4,0,0.8,0.1,1.2,0.3l-0.3,0.8
			c-0.4-0.2-0.7-0.2-0.9-0.2c-0.1,0-0.2,0-0.3,0.1c-0.1,0-0.1,0.1-0.1,0.2c0,0.1,0,0.1,0.1,0.2c0.1,0.1,0.3,0.2,0.6,0.3
			c0.3,0.1,0.6,0.3,0.7,0.5C279.9,48.3,280,48.5,280,48.8z"/>
	</g>
</g>
<g>
	<ellipse class="st39" cx="74" cy="164.6" rx="8.7" ry="8.7"/>
	<g>
		<path class="st1" d="M71.7,164c0,0.4-0.1,0.8-0.4,1c-0.3,0.2-0.6,0.3-1.1,0.3H70v1.3h-1v-3.8h1.3c0.5,0,0.8,0.1,1.1,0.3
			C71.6,163.3,71.7,163.6,71.7,164z M70,164.5h0.2c0.2,0,0.3,0,0.4-0.1c0.1-0.1,0.1-0.2,0.1-0.4c0-0.3-0.1-0.4-0.4-0.4H70V164.5z"/>
		<path class="st1" d="M75.6,166.6h-1V165h-1.2v1.6h-1v-3.8h1v1.4h1.2v-1.4h1V166.6z"/>
		<path class="st1" d="M79.2,164c0,0.4-0.1,0.8-0.4,1c-0.3,0.2-0.6,0.3-1.1,0.3h-0.3v1.3h-1v-3.8h1.3c0.5,0,0.8,0.1,1.1,0.3
			C79,163.3,79.2,163.6,79.2,164z M77.4,164.5h0.2c0.2,0,0.3,0,0.4-0.1c0.1-0.1,0.1-0.2,0.1-0.4c0-0.3-0.1-0.4-0.4-0.4h-0.3V164.5z"
			/>
	</g>
</g>
<g>
	<path class="st40" d="M318,143c0,5.6-4.6,10.2-10.2,10.2c-5.6,0-10.2-4.6-10.2-10.2c0-5.6,4.6-10.2,10.2-10.2
		C313.5,132.8,318,137.4,318,143z"/>
	<g>
		<path class="st1" d="M305.9,144.9h-1.2l-0.7-1.2l-0.7,1.2h-1.2l1.3-1.9l-1.2-1.9h1.1l0.7,1.2l0.7-1.2h1.2l-1.2,1.9L305.9,144.9z"
			/>
		<path class="st1" d="M308,144.9l-0.8-2.7h0c0,0.5,0.1,0.8,0.1,1.1v1.7h-0.9v-3.8h1.4l0.8,2.7h0l0.8-2.7h1.4v3.8h-0.9v-1.7
			c0-0.1,0-0.2,0-0.3c0-0.1,0-0.4,0-0.8h0l-0.8,2.7H308z"/>
		<path class="st1" d="M311.5,144.9v-3.8h1v3h1.5v0.8H311.5z"/>
	</g>
</g>
<g>
	<path class="st41" d="M98.2,72c0,4-3.3,7.3-7.3,7.3c-4,0-7.3-3.3-7.3-7.3c0-4,3.3-7.3,7.3-7.3C95,64.7,98.2,67.9,98.2,72z"/>
	<g>
		<path class="st1" d="M89,72.6c0,0.2-0.1,0.4-0.2,0.6c-0.1,0.2-0.3,0.3-0.5,0.4c-0.2,0.1-0.5,0.2-0.8,0.2c-0.3,0-0.5,0-0.6-0.1
			c-0.2,0-0.4-0.1-0.5-0.2v-0.9c0.2,0.1,0.4,0.2,0.6,0.2c0.2,0.1,0.4,0.1,0.6,0.1c0.2,0,0.3,0,0.3-0.1c0.1-0.1,0.1-0.1,0.1-0.2
			c0-0.1,0-0.1,0-0.1c0,0-0.1-0.1-0.1-0.1c-0.1,0-0.2-0.1-0.5-0.2c-0.2-0.1-0.4-0.2-0.6-0.3c-0.1-0.1-0.2-0.2-0.3-0.4
			c-0.1-0.1-0.1-0.3-0.1-0.5c0-0.4,0.1-0.6,0.4-0.8c0.3-0.2,0.6-0.3,1.1-0.3c0.4,0,0.8,0.1,1.2,0.3L88.7,71
			c-0.4-0.2-0.7-0.2-0.9-0.2c-0.1,0-0.2,0-0.3,0.1c-0.1,0-0.1,0.1-0.1,0.2c0,0.1,0,0.1,0.1,0.2c0.1,0.1,0.3,0.2,0.6,0.3
			c0.3,0.1,0.6,0.3,0.7,0.5C88.9,72.2,89,72.4,89,72.6z"/>
		<path class="st1" d="M93.1,71.9c0,0.9-0.3,1.4-0.8,1.7l0.9,1.1H92l-0.7-0.8l0,0v0l0,0c-0.6,0-1.1-0.2-1.4-0.5
			c-0.3-0.3-0.5-0.8-0.5-1.5c0-0.6,0.2-1.1,0.5-1.5c0.3-0.3,0.8-0.5,1.4-0.5c0.6,0,1.1,0.2,1.4,0.5C93,70.7,93.1,71.2,93.1,71.9z
			 M90.5,71.9c0,0.7,0.3,1.1,0.8,1.1c0.3,0,0.5-0.1,0.6-0.3c0.1-0.2,0.2-0.5,0.2-0.8c0-0.4-0.1-0.7-0.2-0.8
			c-0.1-0.2-0.3-0.3-0.6-0.3C90.8,70.8,90.5,71.1,90.5,71.9z"/>
		<path class="st1" d="M93.8,73.8V70h1v3h1.5v0.8H93.8z"/>
	</g>
</g>
<rect x="294.9" y="231.2" class="st2" width="47.4" height="27.4"/>
<g>
	<polygon class="st6" points="340.5,252 340.9,252 340.9,233.7 326.1,233.7 326.1,234.1 340.5,234.1 	"/>
	<rect x="299.3" y="256.8" class="st6" width="19.3" height="0.4"/>
</g>
<g>
	<g>
		<g>
			<path class="st28" d="M299.8,170.1c-0.7,0.7-1.1,1.7-1.1,2.8l0.1,2.8c0,1.9,1.4,3.5,3,3.4c1.6,0,2.9-1.6,2.8-3.6l-0.1-2.7
				L299.8,170.1z"/>
		</g>
		<g>
			<path class="st28" d="M301.8,183l-2.4,0.1c-0.3,0-0.6-0.3-0.6-0.6l-0.2-6.7c0-0.4,0.2-0.7,0.6-0.7l2.4-0.1c0.3,0,0.6,0.3,0.6,0.6
				l0.2,6.7C302.4,182.7,302.2,183,301.8,183z"/>
		</g>
		<g>
			<path class="st42" d="M304,173.3v1c-0.5,1.5-2.5,3-3.8,3.1c-1.7,0.1-1.9-0.9-2.5-4.1H304z"/>
		</g>
		<path class="st42" d="M304,173.6c0,0,0.2-0.2,0.5-0.7c0.9-1.4-0.1-3.3-1.8-3.4c-1.7-0.1-3.7,0.2-4.7,1.8c0,0-0.4,1.2-0.2,1.9
			L304,173.6z"/>
		<g>
			<path class="st28" d="M303.6,173.7c0.5,0,0.9,0.4,1,1c0,0.6-0.3,1.1-0.8,1.1c-0.5,0-0.9-0.4-1-1
				C302.7,174.2,303.1,173.7,303.6,173.7z"/>
		</g>
	</g>
	<ellipse class="st42" cx="298.3" cy="170.7" rx="2.5" ry="2.5"/>
</g>
<g>
	<path class="st37" d="M309.2,257l-5.1-1.7c-0.3-0.1-0.6,0-0.6,0.2l-0.8,2.9c0,0.2,0.2,0.3,0.4,0.3l5.5,0
		C310,258.7,310.4,257.5,309.2,257z"/>
</g>
<g>
	<path class="st37" d="M299.1,257.1l-5.1-1.7c-0.3-0.1-0.6,0-0.6,0.2l-0.8,2.9c0,0.2,0.2,0.3,0.4,0.3l5.5,0
		C299.9,258.8,300.3,257.5,299.1,257.1z"/>
</g>
<g>
	<path class="st28" d="M303,255.6c0.5-6.6,1.4-18.4,1.3-22.6h5.5c-0.4,3.7-2.3,16.8-3.2,23.1c-0.1,0.9-0.9,1.6-1.8,1.6
		C303.8,257.6,302.9,256.7,303,255.6z"/>
	<path class="st28" d="M292.9,255.9c-0.1-5-0.3-12.7-0.3-22.8h5.4c0,5.3-0.9,16-1.3,22.9c-0.1,1-0.9,1.8-1.9,1.8
		C293.8,257.8,292.9,257,292.9,255.9z"/>
</g>
<path class="st37" d="M293.6,210.6h4.3h6.9h5.4c0.3,0.4,0.4,1,0.4,1.5c0.2,7.3-0.1,14.6-0.9,21.9h-6.3h-4.6h-6.3c0-5.3,0-10.7,0-16
	c0-1.8,0-3.5,0-5.3C292.6,212,293,211.2,293.6,210.6z"/>
<path class="st35" d="M292.6,212.4c0.1-1.5,0.4-3,0.8-4.4c0.4-1.4,1-2.8,1.6-4.1c0.6-1.3,1.3-2.5,1.6-3.9c0.6-2.8-0.5-5.3-1.1-7.9
	c-0.6-2.9-0.8-4.4-0.8-7.4c1.7-0.8,3.9-2.8,6.1-2.7c2.2-0.1,5.5,1.5,7.1,2.3c0.1,3,0.2,4.9-0.4,7.8c-0.6,2.7-1.7,5.2-1.1,7.9
	c0.3,1.4,1,2.6,1.6,3.9c0.6,1.3,1.2,2.7,1.6,4.1c0.5,1.5,0.7,2.9,0.8,4.4H292.6z"/>
<g>
	<path class="st1" d="M296.9,134.6l-0.4-0.2c2.6-6.6,7.2-12.5,12.9-16.8l0.3,0.4C304.1,122.2,299.5,128.1,296.9,134.6z"/>
</g>
<g>
	<path class="st1" d="M300.3,156.9c-1.7-5.1-6.2-8.8-10.8-12l0.3-0.4c4.6,3.3,9.2,7,10.9,12.3L300.3,156.9z"/>
</g>
<g>
	<path class="st1" d="M319.8,235.7c-1.6-11.7-3.5-25-0.5-37.4c0.4-1.7,0.9-3.5,1.4-5.2c0.5-1.5,0.9-3.1,1.3-4.6
		c2.8-11.1,2.1-23.1-2.1-33.8l0.4-0.2c4.2,10.8,4.9,22.9,2.1,34.1c-0.4,1.6-0.9,3.1-1.3,4.6c-0.5,1.7-1,3.4-1.4,5.1
		c-3,12.3-1.1,25.5,0.5,37.2L319.8,235.7z"/>
</g>
<g>
	<path class="st1" d="M318.4,221.2l-0.3-0.3c1.5-1.9,3.4-3.5,5.2-5c5.1-4.4,10.8-9.3,17.6-11.7l0.1,0.4c-6.7,2.3-12.4,7.3-17.5,11.6
		C321.7,217.7,319.9,219.3,318.4,221.2z"/>
</g>
<g>
	<path class="st1" d="M317.7,212.2c-0.6-3.7-2.7-7.1-5.8-9.4l0.3-0.4c3.2,2.3,5.3,5.8,6,9.6L317.7,212.2z"/>
</g>
</svg>
