<?xml version="1.0" encoding="utf-8"?>
<!-- Generator: Adobe Illustrator 26.2.1, SVG Export Plug-In . SVG Version: 6.00 Build 0)  -->
<svg version="1.1" id="Ñëîé_1" xmlns="http://www.w3.org/2000/svg" xmlns:xlink="http://www.w3.org/1999/xlink" x="0px" y="0px"
	 viewBox="0 0 2458.7 2341.3" style="enable-background:new 0 0 2458.7 2341.3;" xml:space="preserve">
<style type="text/css">
	.st0{fill:#EFEEFE;}
	.st1{fill:#8754AF;}
	.st2{fill:none;stroke:#BBB4F8;stroke-width:15.651;stroke-linecap:round;stroke-linejoin:round;stroke-miterlimit:10;}
	.st3{fill:#D3D5FC;}
	.st4{fill:none;stroke:#FFFFFF;stroke-width:15.651;stroke-linecap:round;stroke-linejoin:round;stroke-miterlimit:10;}
	.st5{fill:#9087F4;}
	.st6{fill:none;stroke:#9087F4;stroke-width:8.7266;stroke-linecap:round;stroke-linejoin:round;stroke-miterlimit:10;}
	.st7{fill:#F6A29F;}
	.st8{fill:#FB9D98;}
	.st9{fill:#F26E6E;}
	.st10{fill:#663187;}
	.st11{fill:#8755AF;}
	.st12{fill:#F9E0D2;}
	.st13{fill:#FB9C98;}
	.st14{fill:#F26D6D;}
	.st15{fill:#191245;}
	.st16{fill:#FFFFFF;}
	.st17{fill:none;stroke:#F26D6D;stroke-width:3.9926;stroke-linecap:round;stroke-miterlimit:10;}
	.st18{fill:none;stroke:#2E3192;stroke-width:4.6044;stroke-linecap:round;stroke-miterlimit:10;}
	.st19{fill:none;stroke:#653087;stroke-width:4.6044;stroke-linecap:round;stroke-miterlimit:10;}
	.st20{fill:#653087;}
	.st21{fill:#EDA79B;}
	.st22{fill:none;stroke:#653087;stroke-width:7.5774;stroke-linecap:round;stroke-linejoin:round;stroke-miterlimit:10;}
	.st23{fill:none;stroke:#FFC5AE;stroke-width:10.9484;stroke-miterlimit:10;}
	.st24{fill:none;stroke:#BBB4F8;stroke-width:16.639;stroke-linecap:round;stroke-miterlimit:10;}
	.st25{fill:none;stroke:#9087F4;stroke-width:9.9559;stroke-linecap:round;stroke-linejoin:round;stroke-miterlimit:10;}
</style>
<g>
	<g>
		<circle class="st0" cx="977.7" cy="635.1" r="325.1"/>
		<circle class="st0" cx="977.7" cy="635.1" r="325.1"/>
		<path class="st1" d="M977.7,960.2c113.4,0,213.2-58.1,271.4-146.1C1197.1,717.6,1095,652,977.7,652s-219.4,65.6-271.4,162.1
			C764.5,902.2,864.3,960.2,977.7,960.2z"/>
		
			<ellipse transform="matrix(0.7071 -0.7071 0.7071 0.7071 -63.6278 836.3163)" class="st1" cx="977.7" cy="495" rx="125.3" ry="125.3"/>
	</g>
	<path class="st2" d="M1480.1,1169.5H475.3c-22.9,0-41.4,18.6-41.4,41.4v115.9c0,22.9,18.6,41.4,41.4,41.4h1004.8
		c22.9,0,41.4-18.6,41.4-41.4V1211C1521.5,1188.1,1503,1169.5,1480.1,1169.5z"/>
	<rect x="498.2" y="1066.1" class="st3" width="406.2" height="50.5"/>
	<rect x="498.2" y="1243.7" class="st1" width="555.4" height="50.5"/>
	<path class="st2" d="M1480.1,1545.8H475.3c-22.9,0-41.4,18.6-41.4,41.4v115.9c0,22.9,18.6,41.4,41.4,41.4h1004.8
		c22.9,0,41.4-18.6,41.4-41.4v-115.9C1521.5,1564.4,1503,1545.8,1480.1,1545.8z"/>
	<rect x="498.2" y="1442.4" class="st3" width="345.7" height="50.5"/>
	<circle class="st1" cx="523.5" cy="1645.2" r="25.2"/>
	<circle class="st1" cx="624.5" cy="1645.2" r="25.2"/>
	<circle class="st1" cx="725.5" cy="1645.2" r="25.2"/>
	<circle class="st1" cx="826.4" cy="1645.2" r="25.2"/>
	<circle class="st1" cx="927.4" cy="1645.2" r="25.2"/>
	<circle class="st1" cx="1028.4" cy="1645.2" r="25.2"/>
	<circle class="st1" cx="1129.4" cy="1645.2" r="25.2"/>
	<circle class="st1" cx="1230.4" cy="1645.2" r="25.2"/>
	<circle class="st1" cx="1331.3" cy="1645.2" r="25.2"/>
	<rect x="652.8" y="1925" class="st3" width="669.9" height="17.3"/>
	<rect x="652.8" y="1875.7" class="st3" width="749.8" height="17.3"/>
	<path class="st1" d="M586.1,1852H510c-10.5,0-18.9,8.5-18.9,18.9v76.1c0,10.5,8.5,18.9,18.9,18.9h76.1c10.5,0,18.9-8.5,18.9-18.9
		V1871C605.1,1860.5,596.6,1852,586.1,1852z"/>
	<polyline class="st4" points="522.8,1907.8 541.8,1926.9 577.5,1891.2 	"/>
</g>
<g>
	<path class="st5" d="M1351.5,1052.3l-19.3-42.3c-0.4-0.9,0-1.9,0.9-2.3l19.6-8.9c1.2-0.5,1.4-2.1,0.4-3l-71.9-60.5
		c-1.1-1-2.9-0.2-2.9,1.3l-1.3,94c0,1.3,1.3,2.2,2.5,1.6l19.4-8.9c0.9-0.4,1.9,0,2.3,0.9l19.3,42.3c0.4,0.9,1.5,1.3,2.3,0.9
		l27.8-12.7C1351.5,1054.3,1351.9,1053.2,1351.5,1052.3z"/>
	<line class="st6" x1="1271.1" y1="914.9" x2="1256.6" y2="883.1"/>
	<line class="st6" x1="1301.1" y1="920.4" x2="1314.7" y2="883.8"/>
	<line class="st6" x1="1255.6" y1="941.2" x2="1219" y2="927.5"/>
	<g>
		<path class="st7" d="M1911.2,1418.1l166.2,527.5l-24.2,4c-7.6,1.2-15.2-2.5-18.9-9.2L1896.7,1687l-114.4-277L1911.2,1418.1z"/>
		<path class="st8" d="M2036.4,1902.6l30.1,2.3c0,0,38.3-21.7,79.2,14.7c40.9,36.5-12.7,34.1-12.7,34.1l-86.5-6.5
			c-5.2-0.4-9.2-4.7-9.4-9.9L2036.4,1902.6z"/>
		<path class="st8" d="M2045.3,1937.6c-4.3,3.1-3.4,9.9,1.6,11.7c29.4,11,38.1,10.5,40.1,7.3c3-4.8-6.1-21-21.6-23.7
			C2058.3,1931.7,2051,1933.5,2045.3,1937.6z"/>
		<path class="st7" d="M1380.9,1381.4c-10,18.6-20.5,41.9-28.9,69.6c-12,39.7-15.6,75-16.2,101.8c-42.6-57.1-94.6-127.7-137.2-184.8
			l-28.4,17.2c0,0,79.9,226.6,167.1,313.9c10.1,10.1,26.9,8.3,34.9-3.6c26.1-38.8,76.7-126.8,78.6-228.5
			c0.6-34.3-3.1-82.2-29.5-92.8C1407.5,1368.8,1391.9,1375.1,1380.9,1381.4z"/>
		<path class="st9" d="M1344.1,1543.5c-2.2-2.2-5.5-2.3-7.9-0.4c-0.2,3.2-0.3,6.4-0.3,9.4l16.4,16.6c1.2,1.2,2.7,1.8,4.3,1.8
			c1.5,0,3.1-0.6,4.3-1.8c2.4-2.4,2.4-6.3,0-8.7L1344.1,1543.5z"/>
		<path class="st8" d="M1196.2,1349.8c-1.4-34.4-5.4-42.5-8.9-43c-4.9-0.7-14.5,12.3-11.2,25.7
			C1178.4,1341.8,1186.4,1348.7,1196.2,1349.8z"/>
		<g>
			<path class="st10" d="M1215.7,1349l-46.6,3c-7.6,0.5-14.4-4.4-16.5-11.7l-32.2-114.8c-2.8-9.8,4.2-19.7,14.4-20.3l46.6-3
				c7.6-0.5,14.4,4.4,16.5,11.7l32.2,114.8C1232.8,1338.5,1225.8,1348.3,1215.7,1349z"/>
			<path class="st11" d="M1174.9,1255c-1.1-5.1-6.1-8.4-11.2-7.3c-5.1,1.1-8.4,6.1-7.3,11.2c1.1,5.1,6.1,8.4,11.2,7.3
				C1172.7,1265.2,1176,1260.1,1174.9,1255z"/>
		</g>
		<path class="st7" d="M1173.4,1392.9l-9.4-22.2c-4.7-3.4-12.2-9.8-18-20.1c-2.7-4.9-14.3-25.7-5-42.3c6.5-11.8,32.5-5.5,38.4-1.4
			c2,1.4-10.6-0.1-10.4,2.3l29.7,58.9L1173.4,1392.9z"/>
		<path class="st12" d="M1834,1764.2c8.1-104.3,8.5-226.4-8.5-361.3c-6.3-49.7-14.3-96.8-23.6-141c-1.3-6.1-5.7-11-11.6-13
			c-53.7-17.8-107.5-35.5-161.2-53.3l-140.6,39.2c-17.7,76.2-33.5,162.8-43.8,258.5c-9.9,91.8-13.2,176.4-12.6,252
			c48,13.2,107.1,25.2,175.1,30.2C1697.2,1782.2,1774.7,1774.6,1834,1764.2z"/>
		<path class="st12" d="M1473.9,1483c1.5-6,3.1-12,4.5-18.1c20.7-85.3,6.5-163.4,10.3-230.2c0,0-99.1,53.4-149,226L1473.9,1483z"/>
		<path class="st12" d="M1810.1,1500c-1.5-6-3.1-12-4.5-18.1c-20.7-85.3-6.5-163.4-10.3-230.2c0,0,99.1,53.4,149,226L1810.1,1500z"
			/>
		<circle class="st13" cx="1548.1" cy="1047" r="23.9"/>
		<path class="st14" d="M1534.7,1048.2c-0.4-7.4,3.4-13.9,8.5-14.5c5.1-0.6,9.7,4.8,10.1,12.2s-3.4,13.9-8.5,14.5
			C1539.7,1061,1535.2,1055.6,1534.7,1048.2z"/>
		<path class="st15" d="M1590.4,932c-44.1,11.7-69.5,45.7-78.2,57.7c-55.1,76-32.7,175.7-29.5,188.9c89.3,0.2,178.7,0.4,268,0.6
			c29.1-64.8,21.8-141.4-18-193.1C1698.7,941.8,1642.7,918.2,1590.4,932z"/>
		
			<ellipse transform="matrix(0.9226 -0.3858 0.3858 0.9226 -215.4048 736.3774)" class="st15" cx="1727" cy="904.9" rx="68.4" ry="61.1"/>
		<path class="st13" d="M1580.5,1174.5l-1-93.2l92.5-4.5l1.2,104.1c2.1,18.8,24,35.1,42,41.1l30,12.1c-3.4,28.8-29.3,91.6-57.5,95.9
			c-53.3,8.1-119.4-82.1-149.5-109.9l0,0C1558.2,1214.5,1579.2,1195.1,1580.5,1174.5z"/>
		<path class="st14" d="M1672.6,1118.4l-0.5-41.6l-92.5,4.5l0.7,64.8c7.6,5.3,16.2,8.8,25.6,9.8
			C1631.8,1158.8,1656.7,1142.1,1672.6,1118.4z"/>
		<path class="st13" d="M1578.6,981.5c-3.3,2.4-28.6,21.3-35,53.9c-8.4,43.4,18.3,101.8,62.2,106.7c41.9,4.7,80.8-41.7,84.2-85.7
			c3-39.1-21.4-84.6-57.1-91.2C1607.7,960.4,1585.5,976.5,1578.6,981.5z"/>
		<path class="st16" d="M1588.7,1115.1c-0.5,3.8,6.9,8.3,12.9,9.4c10.6,1.9,22.6-5.5,27.9-19
			C1597.3,1107.3,1589.2,1111.3,1588.7,1115.1z"/>
		<path class="st17" d="M1604,1043c-0.2,2.5-4.1,22-5.9,31.3c-0.5,2.7,1.2,5.4,3.9,6.1l8.6,2.2"/>
		<ellipse class="st14" cx="1655.1" cy="1084.1" rx="14.9" ry="10.3"/>
		<path class="st14" d="M1557,1073.8c-4.8,0-9,1.5-11.7,3.9c1.3,5.3,3,10.6,5.1,15.6c2,0.7,4.2,1.1,6.6,1.1
			c8.3,0,14.9-4.6,14.9-10.3C1572,1078.4,1565.3,1073.8,1557,1073.8z"/>
		<path class="st18" d="M1587.2,1036.3c0,0-12.7-11.8-20.3,0"/>
		<path class="st18" d="M1646.4,1036.3c0,0-12.7-11.8-20.3,0"/>
		
			<ellipse transform="matrix(0.9999 -1.610837e-02 1.610837e-02 0.9999 -16.6468 27.3112)" class="st13" cx="1687" cy="1047" rx="23.9" ry="23.9"/>
		<path class="st14" d="M1705.2,1048.2c0.4-7.4-3.4-13.9-8.5-14.5c-5.1-0.6-9.7,4.8-10.1,12.2s3.4,13.9,8.5,14.5
			C1700.2,1061,1704.7,1055.6,1705.2,1048.2z"/>
		<path class="st15" d="M1558.7,950.9c-7.7,19.4,36.7,52.2,41.1,55.4c37.8,27.5,96.2,41.3,110.7,21.4c10.7-14.6-3.7-45.6-20.2-63.1
			C1649.9,921.9,1567.8,928,1558.7,950.9z"/>
		<path class="st19" d="M1574.9,968.4c9.3,11.6,28,32,58.4,46.1c24,11.2,45.8,14.1,59.5,14.9"/>
		<polyline class="st7" points="1188,1352.1 1206.9,1306.7 1198.6,1300.3 1201,1294.4 1192.1,1287.6 1186.9,1293.5 1176.8,1285 
			1142.8,1305.3 1187.4,1352.1 		"/>
		<polygon class="st7" points="1137.8,1317.6 1128.5,1277.1 1133.2,1271.1 1147.6,1303.5 		"/>
	</g>
	<path class="st1" d="M1837.7,1718.3c-42,8.2-95.1,16.1-156.6,19.7c-76.3,4.5-195.4,3.9-245.9-10.8c-16.4,25.7-33,55.7-48.1,89.9
		c-34.7,78.7-48.7,151-54.4,205.4l0,0.3c-1.3,21.1,12.6,39,30.2,39c191.8-16,383.7-31.9,575.5-47.9c12.4-14.8,24.7-29.7,37.1-44.5
		C1933.9,1892.7,1880.2,1796.5,1837.7,1718.3z"/>
	<rect x="1231.5" y="1978.2" class="st20" width="682.8" height="99.8"/>
	<rect x="1176.6" y="1779.3" class="st1" width="286.3" height="96.1"/>
	<path class="st12" d="M1132.7,2077.9h87.4c3.9-1.9,6.3-3.7,7.6-4.7c7.1-5.3,16.4-12.2,17.3-21.9c1.9-19.7-31.9-36.2-40-40.1
		c-10.8-5.3-27.5-13.4-49.3-10.6c-17,2.2-48.9,12.7-51.9,35.1C1101.5,2053.6,1118.5,2069.3,1132.7,2077.9z"/>
	<path class="st21" d="M1258,2037.6c-14.5-0.9-29-1.8-43.4-2.8c-0.9,0.5-7.5,4.4-9.1,12.7c-1.6,8.5,3.3,14.6,4,15.4
		c14.1,0.7,28.3,1.4,42.4,2.1C1253.9,2055.9,1255.9,2046.7,1258,2037.6z"/>
	<path class="st20" d="M1227.3,2029.9c-2.8,5.3-4.4,8.4-7.2,13.7c3.9,13.9,5.8,20.4,9.7,34.3c0,0,428.2-23.5,823.8-55.4
		c46.4-27.5,73.2-79.4,69-133.2c-0.2-2-0.4-4-0.6-5.9c-8.9-73.5-83.8-119.4-153.5-96.6C1721.5,1867.9,1474.4,1948.9,1227.3,2029.9z"
		/>
	<path class="st12" d="M1960.2,2079.9H2069c10.1-8.4,18.6-19.6,17.3-32.2c-2.2-22.5-33.7-34.1-50.6-37c-21.7-3.6-38.6,3.9-49.6,8.8
		c-8.3,3.7-42.6,18.9-41.4,38.7C1945.2,2067.5,1953.4,2074.5,1960.2,2079.9z"/>
	<path class="st21" d="M1932.2,2043.9c14.5-0.4,29-0.8,43.5-1.2c0.9,0.6,7.3,4.6,8.6,13c1.3,8.5-3.8,14.5-4.5,15.3
		c-14.2,0.2-28.3,0.4-42.5,0.6C1935.6,2062.3,1933.9,2053.1,1932.2,2043.9z"/>
	<path class="st20" d="M1718.1,2050.7c-89.7-10.9-199.3-33.5-318.2-79.8c-57.5,15.9-115,31.9-172.5,47.8c-3,5.2-4.8,8.2-7.8,13.3
		c3.3,14.1,6.6,28.2,9.9,42.3c0,0,215.8-5.6,483.2-13.6C1714.5,2057.3,1716.4,2053.9,1718.1,2050.7z"/>
	<path class="st1" d="M1959.3,2030.1l-763-248.7c-14.1-4.8-29.5-4-42.9,2.6c-38.4,19-65.4,56.2-70.5,99.4
		c-4.8,41.2,11,82.1,41.3,109.7c9,8.2,20.3,13.2,32.3,14.5c179.1,18.8,341.5,47.2,521,60.6c157.6,11.8,274.9,11.6,274.9,11.6
		L1959.3,2030.1z"/>
	<path class="st22" d="M1596.1,1908c-4.2-2.9-281.1-91.2-281.1-91.2"/>
	<path class="st23" d="M1501.3,1441.6c4.1,3.8,57.7,39.8,131.2,11.5"/>
	<path class="st23" d="M1817.9,1392.9c0,0,7.1,70.1-77.8,70.9"/>
</g>
<line class="st24" x1="2281.3" y1="2086.4" x2="211" y2="2086.4"/>
<path class="st25" d="M1643.6,522.2L1643.6,522.2c-29.4,0-53.4,24.1-53.4,53.4v23.6c0,29.4,24.1,53.4,53.4,53.4h0
	c29.4,0,53.4-24.1,53.4-53.4v-23.6C1697,546.2,1673,522.2,1643.6,522.2z"/>
<path class="st25" d="M1697,694.8c-14.4-12.3-33.1-19.8-53.4-19.8h0c-45.4,0-82.6,37.2-82.6,82.6"/>
<circle class="st25" cx="1717.9" cy="745.6" r="36.3"/>
<polyline class="st25" points="1703.7,748.3 1712.6,757.6 1732.1,733.6 "/>
</svg>
