<?xml version="1.0" encoding="utf-8"?>
<!-- Generator: Adobe Illustrator 26.2.1, SVG Export Plug-In . SVG Version: 6.00 Build 0)  -->
<svg version="1.1" xmlns="http://www.w3.org/2000/svg" xmlns:xlink="http://www.w3.org/1999/xlink" x="0px" y="0px"
	 viewBox="0 0 3300 2000" enable-background="new 0 0 3300 2000" xml:space="preserve">
<g id="Bg">
</g>
<g id="Graphics">
	<g id="plants">
		<g>
			<path fill="#91E2F9" d="M2476.4,1674.4c0,0,302.1-25.8,438.1-257.1c0,0-180.5-56.5-457.9,223.3L2476.4,1674.4z"/>
			<g>
				<path fill="#2E35A8" d="M2904.6,1423.4c-73.1,36.1-146.4,71.6-219.3,108.2c-71.5,35.8-143.9,71.2-207.3,120.5
					c-1.9,1.4-4.4-1.8-2.6-3.3c62.5-49,133.8-84.1,204.5-119.5c74-37,148.1-73.7,223.1-108.7
					C2904.8,1419.8,2906.5,1422.5,2904.6,1423.4L2904.6,1423.4z"/>
			</g>
		</g>
		<g>
			<path fill="#91E2F9" d="M2478.2,1675c0,0,309.1-232.9,299.2-575.2c0,0-233.5,61.3-343.6,552.1L2478.2,1675z"/>
			<g>
				<path fill="#2E35A8" d="M2770.7,1113.1c-54.6,88.6-109.7,176.8-163.7,265.7c-53,87.3-107.3,174.6-142.3,270.9c-1,2.8-6,1-5-1.8
					c34.3-95.4,87.6-181.7,140-267.9c54.8-90.2,110.1-180.2,167.4-268.9C2768.5,1109,2772.1,1110.8,2770.7,1113.1L2770.7,1113.1z"/>
			</g>
		</g>
		<g>
			<path fill="#91E2F9" d="M807.7,1621.6c0,0-302.1-25.8-438.1-257.1c0,0,180.5-56.5,457.9,223.3L807.7,1621.6z"/>
			<g>
				<path fill="#2E35A8" d="M379.6,1370.6c73.1,36.1,146.4,71.6,219.3,108.2c71.5,35.8,143.9,71.2,207.3,120.5
					c1.9,1.4,4.4-1.8,2.6-3.3c-62.5-49-133.8-84.1-204.5-119.5c-74-37-148.1-73.7-223.1-108.7C379.3,1367,377.7,1369.7,379.6,1370.6
					L379.6,1370.6z"/>
			</g>
		</g>
		<g>
			<path fill="#91E2F9" d="M1062,1591c0,0-258.7,158.2-505.2,52.6c0,0,111.8-152.5,501.2-91.6L1062,1591z"/>
			<g>
				<path fill="#2E35A8" d="M568.3,1642.6c80.2-14.3,160.4-29.1,240.7-42.9c78.8-13.5,158.1-28,238.4-25.8c2.3,0.1,2.5-4.1,0.1-4.2
					c-79.4-2.4-157.6,11.6-235.5,24.9c-81.5,14-163,28.4-244.1,44.7C566,1639.8,566.3,1643,568.3,1642.6L568.3,1642.6z"/>
			</g>
		</g>
		<g>
			<path fill="#91E2F9" d="M806,1622.2c0,0-309.1-232.9-299.2-575.2c0,0,233.5,61.3,343.6,552.1L806,1622.2z"/>
			<g>
				<path fill="#2E35A8" d="M513.4,1060.3c54.6,88.6,109.7,176.8,163.7,265.7c53,87.3,107.3,174.6,142.3,270.9c1,2.8,6,1,5-1.8
					c-34.3-95.4-87.6-181.7-140-267.9c-54.8-90.2-110.1-180.2-167.4-268.9C515.7,1056.2,512,1058,513.4,1060.3L513.4,1060.3z"/>
			</g>
		</g>
	</g>
	<g id="Web_page_and_elements">
		<g>
			<path fill="#5361F0" d="M307.2,1551.7c0,2.6-2.1,4.8-4.8,4.8c-2.6,0-4.8-2.1-4.8-4.8c0-2.6,2.1-4.8,4.8-4.8
				C305.1,1546.9,307.2,1549,307.2,1551.7z"/>
		</g>
		<g>
			<path fill="#FF5722" d="M420.3,1245c0,2.6-2.1,4.8-4.8,4.8c-2.6,0-4.8-2.1-4.8-4.8c0-2.6,2.1-4.8,4.8-4.8
				C418.2,1240.2,420.3,1242.4,420.3,1245z"/>
		</g>
		<g id="XMLID_135_">
			<g id="XMLID_139_">
				<path fill="#191C3C" d="M1363.1,350.3l-1.7-1.1c8.5-13.2,23-21,38.6-21c8.3,0,16.4,2.2,23.5,6.4l-1,1.7
					c-6.8-4-14.5-6.1-22.5-6.1C1385.1,330.2,1371.2,337.7,1363.1,350.3z"/>
			</g>
			<g id="XMLID_138_">
				<path fill="#191C3C" d="M1438.1,364.8h-2c0-11.2,9.1-20.3,20.3-20.3v2C1446.3,346.6,1438.1,354.8,1438.1,364.8z"/>
			</g>
			<g id="XMLID_137_">
				<path fill="#191C3C" d="M1344.9,355.1h-24v-2h22.3c4.5-26.6,27.2-45.8,54.3-45.8c24.3,0,45.4,15.6,52.6,38.7l-1.9,0.6
					c-6.9-22.3-27.3-37.3-50.7-37.3c-26.4,0-48.4,18.9-52.4,45L1344.9,355.1z"/>
			</g>
			<g id="XMLID_136_">
				<path fill="#191C3C" d="M1494.5,376.5c-2.8-17.7-17.8-30.5-35.7-30.5c-3.1,0-6.2,0.4-9.4,1.3l-0.5-1.9c3.3-0.9,6.7-1.3,9.9-1.3
					c18.9,0,34.7,13.5,37.6,32.2L1494.5,376.5z"/>
			</g>
		</g>
		<g id="XMLID_130_">
			<g id="XMLID_134_">
				<path fill="#191C3C" d="M575.9,717.2l-1.7-1.1c6.4-9.9,17.3-15.8,29.1-15.8c6.2,0,12.4,1.7,17.7,4.8l-1,1.7
					c-5-3-10.8-4.6-16.7-4.6C592.3,702.2,582,707.8,575.9,717.2z"/>
			</g>
			<g id="XMLID_133_">
				<path fill="#191C3C" d="M632.1,727.9h-2c0-8.5,6.9-15.4,15.4-15.4v2C638.2,714.5,632.1,720.5,632.1,727.9z"/>
			</g>
			<g id="XMLID_132_">
				<path fill="#191C3C" d="M562.3,720.9h-18.2v-2h16.5c3.5-19.9,20.5-34.3,40.8-34.3c18.3,0,34.2,11.7,39.7,29.2l-1.9,0.6
					c-5.2-16.6-20.3-27.8-37.7-27.8c-19.6,0-36,14.1-39,33.5L562.3,720.9z"/>
			</g>
			<g id="XMLID_131_">
				<path fill="#191C3C" d="M673.9,736.7c-2.1-13.1-13.2-22.6-26.5-22.6c-2.3,0-4.6,0.3-7,0.9l-0.5-1.9c2.5-0.7,5-1,7.5-1
					c14.3,0,26.2,10.2,28.4,24.3L673.9,736.7z"/>
			</g>
		</g>
		<g id="XMLID_125_">
			<g id="XMLID_129_">
				<path fill="#191C3C" d="M2710,535.6l-1.7-1.1c6.4-9.9,17.3-15.8,29.1-15.8c6.2,0,12.4,1.7,17.7,4.8l-1,1.7
					c-5-3-10.8-4.6-16.7-4.6C2726.3,520.6,2716,526.2,2710,535.6z"/>
			</g>
			<g id="XMLID_128_">
				<path fill="#191C3C" d="M2766.2,546.3h-2c0-8.5,6.9-15.4,15.4-15.4v2C2772.2,532.9,2766.2,538.9,2766.2,546.3z"/>
			</g>
			<g id="XMLID_127_">
				<path fill="#191C3C" d="M2696.4,539.3h-18.2v-2h16.5c3.5-19.9,20.5-34.3,40.8-34.3c18.3,0,34.2,11.7,39.7,29.2l-1.9,0.6
					c-5.2-16.6-20.3-27.8-37.8-27.8c-19.6,0-36,14.1-39,33.5L2696.4,539.3z"/>
			</g>
			<g id="XMLID_126_">
				<path fill="#191C3C" d="M2807.9,555.1c-2.1-13.1-13.2-22.6-26.5-22.6c-2.3,0-4.6,0.3-7,0.9l-0.5-1.9c2.5-0.7,5-1,7.5-1
					c14.3,0,26.2,10.2,28.4,24.3L2807.9,555.1z"/>
			</g>
		</g>
		<g>
			<g>
				<path fill="#FF5722" d="M2204.8,304.2c5-3.2,10.8-5.1,17.2-5.1h6.9c3.2-20.3,20.7-35.9,42-35.9c0.4,0,0.7,0.1,1,0.1l-0.3-0.3
					c1.7,0,3.3,0.2,4.9,0.6c1.8,0.3,3.6,0.6,5.4,1.1c6.6-21.4,24.6-37.8,46.8-42.3c-0.5-48.3-39.8-87.3-88.2-87.3
					c-48.8,0-88.3,39.5-88.3,88.3C2152.1,259.5,2173.8,290.5,2204.8,304.2z"/>
			</g>
			<g id="XMLID_101_">
				<g id="XMLID_112_">
					<g id="XMLID_116_">
						<path fill="#191C3C" d="M2381.3,270c-0.3,0-0.6-0.1-0.8-0.4c-9.4-14.5-25.3-23.1-42.5-23.1c-9.1,0-18,2.4-25.8,7.1
							c-0.4,0.3-1,0.1-1.2-0.3c-0.3-0.4-0.1-1,0.3-1.2c8.1-4.8,17.3-7.3,26.8-7.3c17.8,0,34.3,8.9,44,23.9c0.3,0.4,0.2,1-0.3,1.3
							C2381.6,270,2381.4,270,2381.3,270z"/>
					</g>
					<g id="XMLID_115_">
						<path fill="#191C3C" d="M2293.6,286.5c-0.5,0-0.9-0.4-0.9-0.9c0-11.7-9.5-21.1-21.1-21.1c-0.5,0-0.9-0.4-0.9-0.9
							c0-0.5,0.4-0.9,0.9-0.9c12.7,0,22.9,10.3,22.9,22.9C2294.5,286.1,2294.1,286.5,2293.6,286.5z"/>
					</g>
					<g id="XMLID_114_">
						<path fill="#191C3C" d="M2428.5,275h-27.2l-0.1-0.8c-4.6-29.9-29.9-51.7-60.2-51.7c-26.9,0-50.3,17.2-58.3,42.9
							c-0.1,0.5-0.7,0.8-1.1,0.6c-0.5-0.1-0.7-0.7-0.6-1.1c8.2-26.4,32.3-44.2,60-44.2c30.9,0,56.8,22,61.9,52.4h25.7
							c0.5,0,0.9,0.4,0.9,0.9C2429.4,274.6,2429,275,2428.5,275z"/>
					</g>
					<g id="XMLID_113_">
						<path fill="#191C3C" d="M2191,332.2h-36.6c-0.5,0-0.9-0.4-0.9-0.9c0-0.5,0.4-0.9,0.9-0.9h34.8c0.5-17.6,14.9-31.8,32.6-31.8
							h6.2c3.7-20.8,21.5-35.9,42.7-35.9c3.7,0,7.5,0.5,11.3,1.5c0.5,0.1,0.8,0.6,0.6,1.1c-0.1,0.5-0.6,0.8-1.1,0.6
							c-3.6-1-7.3-1.5-10.8-1.5c-20.6,0-37.8,14.8-41.1,35.1l-0.1,0.8h-7.7c-17,0-30.8,13.8-30.8,30.8V332.2z"/>
					</g>
				</g>
				<g id="XMLID_111_">
					<path fill="#191C3C" d="M2240.2,120.6c-0.5,0-0.9-0.4-0.9-0.9V94.2c0-0.5,0.4-0.9,0.9-0.9s0.9,0.4,0.9,0.9v25.5
						C2241.1,120.2,2240.7,120.6,2240.2,120.6z"/>
				</g>
				<g id="XMLID_110_">
					<path fill="#191C3C" d="M2291.3,134.3c-0.2,0-0.3,0-0.5-0.1c-0.4-0.3-0.6-0.8-0.3-1.2l12.7-22.1c0.3-0.4,0.8-0.6,1.2-0.3
						c0.4,0.3,0.6,0.8,0.3,1.2l-12.7,22.1C2291.9,134.1,2291.6,134.3,2291.3,134.3z"/>
				</g>
				<g id="XMLID_106_">
					<path fill="#191C3C" d="M2328.7,171.7c-0.3,0-0.6-0.2-0.8-0.5c-0.2-0.4-0.1-1,0.3-1.2l22.1-12.8c0.4-0.3,1-0.1,1.2,0.3
						c0.2,0.4,0.1,1-0.3,1.2l-22.1,12.8C2329,171.6,2328.8,171.7,2328.7,171.7z"/>
				</g>
				<g id="XMLID_105_">
					<path fill="#191C3C" d="M2129.7,287c-0.3,0-0.6-0.2-0.8-0.5c-0.3-0.4-0.1-1,0.3-1.2l22.1-12.8c0.4-0.3,1-0.1,1.2,0.3
						c0.3,0.4,0.1,1-0.3,1.2l-22.1,12.8C2130,286.9,2129.8,287,2129.7,287z"/>
				</g>
				<g id="XMLID_104_">
					<path fill="#191C3C" d="M2112.4,223.2c-0.5,0-0.9-0.4-0.9-0.9c0-0.5,0.4-0.9,0.9-0.9l25.5-0.1h0c0.5,0,0.9,0.4,0.9,0.9
						c0,0.5-0.4,0.9-0.9,0.9L2112.4,223.2C2112.4,223.2,2112.4,223.2,2112.4,223.2z"/>
				</g>
				<g id="XMLID_103_">
					<path fill="#191C3C" d="M2151.5,172c-0.2,0-0.3,0-0.4-0.1l-22.1-12.7c-0.4-0.2-0.6-0.8-0.3-1.2c0.2-0.4,0.8-0.6,1.2-0.3
						l22.1,12.7c0.4,0.2,0.6,0.8,0.3,1.2C2152.1,171.8,2151.8,172,2151.5,172z"/>
				</g>
				<g id="XMLID_102_">
					<path fill="#191C3C" d="M2188.7,134.5c-0.3,0-0.6-0.2-0.8-0.5l-12.8-22c-0.3-0.4-0.1-1,0.3-1.2c0.4-0.3,1-0.1,1.2,0.3l12.8,22
						c0.3,0.4,0.1,1-0.3,1.2C2189.1,134.4,2188.9,134.5,2188.7,134.5z"/>
				</g>
			</g>
		</g>
		<g>
			<path fill="#191C3C" d="M517.4,1335.7c-4.3,0-7.8-3.5-7.8-7.8c0-4.3,3.5-7.8,7.8-7.8c4.3,0,7.8,3.5,7.8,7.8
				C525.2,1332.2,521.7,1335.7,517.4,1335.7z M517.4,1322.1c-3.2,0-5.8,2.6-5.8,5.8c0,3.2,2.6,5.8,5.8,5.8c3.2,0,5.8-2.6,5.8-5.8
				C523.2,1324.7,520.6,1322.1,517.4,1322.1z"/>
		</g>
		<g>
			<path fill="#191C3C" d="M2799.6,1327.9c-4.3,0-7.8-3.5-7.8-7.8c0-4.3,3.5-7.8,7.8-7.8c4.3,0,7.8,3.5,7.8,7.8
				C2807.4,1324.4,2803.9,1327.9,2799.6,1327.9z M2799.6,1314.3c-3.2,0-5.8,2.6-5.8,5.8c0,3.2,2.6,5.8,5.8,5.8
				c3.2,0,5.8-2.6,5.8-5.8C2805.4,1316.9,2802.8,1314.3,2799.6,1314.3z"/>
		</g>
		<g>
			<path fill="#191C3C" d="M342.2,1359.7c-4.3,0-7.8-3.5-7.8-7.8c0-4.3,3.5-7.8,7.8-7.8c4.3,0,7.8,3.5,7.8,7.8
				C350,1356.2,346.5,1359.7,342.2,1359.7z M342.2,1346.1c-3.2,0-5.8,2.6-5.8,5.8c0,3.2,2.6,5.8,5.8,5.8c3.2,0,5.8-2.6,5.8-5.8
				C348,1348.7,345.4,1346.1,342.2,1346.1z"/>
		</g>
		<g>
			<path fill="#FF5722" d="M452.7,1551.7c0,2.6-2.1,4.8-4.8,4.8c-2.6,0-4.8-2.1-4.8-4.8s2.1-4.8,4.8-4.8
				C450.5,1546.9,452.7,1549,452.7,1551.7z"/>
		</g>
		<g>
			<path fill="#E3EDFE" d="M2799.9,1722.7h-113.1c-17.5,0-31.7-14.2-31.7-31.7v-103c0-17.5,14.2-31.7,31.7-31.7h113.1
				c17.5,0,31.7,14.2,31.7,31.7v103C2831.6,1708.6,2817.4,1722.7,2799.9,1722.7z"/>
			<path fill="#4D5068" d="M2831.6,1658.8h-47.9l-23.6-28l-21.8,24.3l-33-63.8l-32.5,46.3l-17.5,26.1v26.4c0,18,14.6,32.5,32.5,32.5
				h111.3c18,0,32.5-14.6,32.5-32.5V1658.8z"/>
			<path fill="#191C3C" d="M2672.7,1690.2v-101.3c0-18,14.6-32.5,32.5-32.5h-17.5c-18,0-32.5,14.6-32.5,32.5v101.3
				c0,18,14.6,32.5,32.5,32.5h17.5C2687.2,1722.7,2672.7,1708.2,2672.7,1690.2z"/>
			<g>
				<path fill="#191C3C" d="M2799.1,1724v-2.6c17.2,0,31.2-14,31.2-31.2v-101.3c0-17.2-14-31.2-31.2-31.2h-78.1v-2.6h78.1
					c18.7,0,33.8,15.2,33.8,33.8v101.3C2832.9,1708.9,2817.7,1724,2799.1,1724z"/>
			</g>
			<circle fill="#FF5722" cx="2786.2" cy="1591.3" r="13.4"/>
		</g>
		<g>
			<polygon id="XMLID_11_" fill="#191C3C" points="755.3,1724 816.1,1724 816.1,480.7 755.3,513.1 			"/>
			<rect id="XMLID_192_" x="816.1" y="480.7" fill="#F9FBFF" width="1716.3" height="1243.3"/>
			<rect id="XMLID_9_" x="816.1" y="595.9" fill="#98A0F6" width="1716.3" height="116"/>
			<rect id="XMLID_5_" x="816.1" y="480.7" fill="#5361F0" width="1716.3" height="115.2"/>
			<path id="XMLID_4_" fill="#FFFFFF" d="M923.5,529.6c0,7-5.7,12.8-12.8,12.8c-7,0-12.8-5.7-12.8-12.8c0-7,5.7-12.7,12.8-12.7
				C917.8,516.8,923.5,522.5,923.5,529.6z"/>
			<path id="XMLID_3_" fill="#FFFFFF" d="M966,529.6c0,7-5.7,12.8-12.8,12.8c-7,0-12.8-5.7-12.8-12.8c0-7,5.7-12.7,12.8-12.7
				C960.3,516.8,966,522.5,966,529.6z"/>
			<path id="XMLID_2_" fill="#FFFFFF" d="M1008.5,529.6c0,7-5.7,12.8-12.8,12.8c-7,0-12.8-5.7-12.8-12.8c0-7,5.7-12.7,12.8-12.7
				C1002.8,516.8,1008.5,522.5,1008.5,529.6z"/>
			<rect x="1050.4" y="620" fill="#EDF5FC" width="1060" height="37.8"/>
			<g>
				<path fill="#EDF5FC" d="M2474.3,623.9h-38.9c-2.9,0-5.2-2.3-5.2-5.2l0,0c0-2.9,2.3-5.2,5.2-5.2h38.9c2.9,0,5.2,2.3,5.2,5.2l0,0
					C2479.5,621.5,2477.2,623.9,2474.3,623.9z"/>
				<path fill="#EDF5FC" d="M2474.3,644h-38.9c-2.9,0-5.2-2.3-5.2-5.2l0,0c0-2.9,2.3-5.2,5.2-5.2h38.9c2.9,0,5.2,2.3,5.2,5.2l0,0
					C2479.5,641.6,2477.2,644,2474.3,644z"/>
				<path fill="#EDF5FC" d="M2474.3,664.1h-38.9c-2.9,0-5.2-2.3-5.2-5.2l0,0c0-2.9,2.3-5.2,5.2-5.2h38.9c2.9,0,5.2,2.3,5.2,5.2l0,0
					C2479.5,661.7,2477.2,664.1,2474.3,664.1z"/>
			</g>
			<path fill="#E8F0FD" d="M1306.7,1452.5c0,30.4-24.7,55.1-55.1,55.1c-30.4,0-55.1-24.7-55.1-55.1c0-30.4,24.7-55.1,55.1-55.1
				C1282,1397.4,1306.7,1422,1306.7,1452.5z"/>
			<rect x="1196.4" y="770.9" fill="#FFFFFF" width="914" height="518.2"/>
			<rect x="2148.5" y="770.9" fill="#FFFFFF" width="331.4" height="953.1"/>
			<rect x="925.2" y="881.1" fill="#E8F0FD" width="228.6" height="21.9"/>
			
				<rect x="882.7" y="881.1" transform="matrix(-1 -1.224647e-16 1.224647e-16 -1 1786.6722 1784.1327)" fill="#E8F0FD" width="21.3" height="21.9"/>
			<rect x="925.2" y="930.4" fill="#E8F0FD" width="228.6" height="21.9"/>
			
				<rect x="882.7" y="930.4" transform="matrix(-1 -1.224647e-16 1.224647e-16 -1 1786.6722 1882.6903)" fill="#E8F0FD" width="21.3" height="21.9"/>
			<rect x="925.2" y="979.7" fill="#E8F0FD" width="228.6" height="21.9"/>
			<rect x="881.5" y="818.5" fill="#E8F0FD" width="179.8" height="32"/>
			<rect x="881.5" y="1075.7" fill="#E8F0FD" width="179.8" height="32"/>
			<rect x="880.2" y="1422.7" fill="#E8F0FD" width="271.1" height="301.3"/>
			
				<rect x="882.7" y="979.7" transform="matrix(-1 -1.224647e-16 1.224647e-16 -1 1786.6722 1981.2476)" fill="#E8F0FD" width="21.3" height="21.9"/>
			<rect x="925.2" y="1146.5" fill="#E8F0FD" width="228.6" height="21.9"/>
			<rect x="1336.8" y="1411.8" fill="#E8F0FD" width="142.5" height="21.9"/>
			<rect x="1336.8" y="1460.8" fill="#E8F0FD" width="773.6" height="21.9"/>
			<rect x="1196.4" y="1608.4" fill="#E8F0FD" width="914" height="21.9"/>
			<rect x="1196.4" y="1671.6" fill="#E8F0FD" width="914" height="21.9"/>
			
				<rect x="882.7" y="1146.5" transform="matrix(-1 -1.224647e-16 1.224647e-16 -1 1786.6722 2314.8345)" fill="#E8F0FD" width="21.3" height="21.9"/>
			<rect x="925.2" y="1195.8" fill="#E8F0FD" width="228.6" height="21.9"/>
			
				<rect x="882.7" y="1195.8" transform="matrix(-1 -1.224647e-16 1.224647e-16 -1 1786.6722 2413.3914)" fill="#E8F0FD" width="21.3" height="21.9"/>
			<rect x="925.2" y="1245" fill="#E8F0FD" width="228.6" height="21.9"/>
			
				<rect x="882.7" y="1245" transform="matrix(-1 -1.224647e-16 1.224647e-16 -1 1786.6722 2511.949)" fill="#E8F0FD" width="21.3" height="21.9"/>
			<rect x="924" y="1292.7" fill="#E8F0FD" width="228.6" height="21.9"/>
			
				<rect x="881.5" y="1292.7" transform="matrix(-1 -1.224647e-16 1.224647e-16 -1 1784.1877 2607.2026)" fill="#E8F0FD" width="21.3" height="21.9"/>
			<rect x="922.7" y="1340.3" fill="#E8F0FD" width="228.6" height="21.9"/>
			
				<rect x="880.2" y="1340.3" transform="matrix(-1 -1.224647e-16 1.224647e-16 -1 1781.7012 2702.4573)" fill="#E8F0FD" width="21.3" height="21.9"/>
			<path fill="#E8F0FD" d="M2233.1,974c0,16.6-13.5,30.1-30.1,30.1c-16.6,0-30.1-13.5-30.1-30.1c0-16.6,13.5-30.1,30.1-30.1
				C2219.6,943.9,2233.1,957.4,2233.1,974z"/>
			<rect x="2251.9" y="957.7" fill="#E8F0FD" width="103.1" height="16.3"/>
			<rect x="2173" y="796.4" fill="#E8F0FD" width="103.1" height="33.7"/>
			
				<rect x="2288.3" y="796.4" transform="matrix(-1 -1.224647e-16 1.224647e-16 -1 4614.7354 1626.5254)" fill="#E8F0FD" width="38.1" height="33.7"/>
			<rect x="2251.9" y="987.7" fill="#E8F0FD" width="182.7" height="16.3"/>
			<path fill="#E8F0FD" d="M2232.8,1132.4c0,16.6-13.5,30.1-30.1,30.1s-30.1-13.5-30.1-30.1c0-16.6,13.5-30.1,30.1-30.1
				S2232.8,1115.8,2232.8,1132.4z"/>
			<rect x="2251.6" y="1116.1" fill="#E8F0FD" width="103.1" height="16.3"/>
			<rect x="2251.6" y="1146.2" fill="#E8F0FD" width="182.7" height="16.3"/>
			<path fill="#E8F0FD" d="M2232.4,1290.9c0,16.6-13.5,30.1-30.1,30.1s-30.1-13.5-30.1-30.1c0-16.6,13.5-30.1,30.1-30.1
				S2232.4,1274.3,2232.4,1290.9z"/>
			<rect x="2251.2" y="1274.6" fill="#E8F0FD" width="103.1" height="16.3"/>
			<rect x="2251.2" y="1304.6" fill="#E8F0FD" width="182.7" height="16.3"/>
			<path fill="#E8F0FD" d="M2232.1,1449.3c0,16.6-13.5,30.1-30.1,30.1c-16.6,0-30.1-13.5-30.1-30.1c0-16.6,13.5-30.1,30.1-30.1
				C2218.6,1419.3,2232.1,1432.7,2232.1,1449.3z"/>
			<rect x="2250.9" y="1433" fill="#E8F0FD" width="103.1" height="16.3"/>
			<rect x="2250.9" y="1463" fill="#E8F0FD" width="182.7" height="16.3"/>
			<path fill="#E8F0FD" d="M2231.7,1607.8c0,16.6-13.5,30.1-30.1,30.1c-16.6,0-30.1-13.5-30.1-30.1c0-16.6,13.5-30.1,30.1-30.1
				C2218.3,1577.7,2231.7,1591.2,2231.7,1607.8z"/>
			<rect x="2250.6" y="1591.4" fill="#E8F0FD" width="103.1" height="16.3"/>
			<rect x="2250.6" y="1621.5" fill="#E8F0FD" width="182.7" height="16.3"/>
			<g>
				<rect x="816.1" y="594.6" fill="#191C3C" width="764.3" height="2.6"/>
			</g>
			<g>
				<rect x="816.1" y="710.6" fill="#191C3C" width="1297.3" height="2.6"/>
			</g>
		</g>
		<g id="XMLID_750_">
			<path id="XMLID_759_" fill="#5361F0" d="M2540.4,715.6v140.5h32.2v22.5v29.8c0,2.3,2.9,3.4,4.4,1.6l55.9-53.9h135.8V715.6H2540.4
				z"/>
			<rect id="XMLID_758_" x="2569.7" y="745.5" fill="#FFFFFF" width="174.3" height="15.1"/>
			<rect id="XMLID_12_" x="2569.7" y="778.7" fill="#FFFFFF" width="174.3" height="15.1"/>
			<rect id="XMLID_13_" x="2569.7" y="811.8" fill="#FFFFFF" width="111.5" height="15.1"/>
		</g>
		<g>
			<path fill="#5361F0" d="M2282.5,1723.1h-83.8c-13.4,0-24.2-10.8-24.2-24.2v-76.3c0-13.4,10.8-24.2,24.2-24.2h83.8
				c13.4,0,24.2,10.8,24.2,24.2v76.3C2306.7,1712.2,2295.8,1723.1,2282.5,1723.1z"/>
			<path fill="#191C3C" d="M2190.8,1699.4v-77.3c0-13.1,10.6-23.7,23.7-23.7h-16.3c-13.1,0-23.7,10.6-23.7,23.7v77.3
				c0,13.1,10.6,23.7,23.7,23.7h16.3C2201.4,1723.1,2190.8,1712.4,2190.8,1699.4z"/>
			<g>
				<path fill="#191C3C" d="M2282.3,1724v-2c12.9,0,23.4-10.5,23.4-23.4v-75.9c0-12.9-10.5-23.4-23.4-23.4h-58.5v-2h58.5
					c14,0,25.4,11.4,25.4,25.4v75.9C2307.6,1712.7,2296.3,1724,2282.3,1724z"/>
			</g>
			<g>
				<path fill="#FFFFFF" d="M2223.1,1663.5v0.1l12.7,4.2v7.1l-20.4-8.3v-6.1l20.4-8.3v7.1L2223.1,1663.5z"/>
				<path fill="#FFFFFF" d="M2245.7,1679h-7.9l11.5-36.5h7.9L2245.7,1679z"/>
				<path fill="#FFFFFF" d="M2272.4,1663.6v-0.1l-12.6-4.2v-7.1l20.3,8.3v6.1l-20.3,8.3v-7.1L2272.4,1663.6z"/>
			</g>
		</g>
		<g>
			<path fill="#FEC55E" d="M2167.3,1722.5h-128c-20.2,0-36.7-16.4-36.7-36.7v-116.5c0-20.2,16.4-36.7,36.7-36.7h128
				c20.2,0,36.7,16.4,36.7,36.7v116.5C2203.9,1706.1,2187.5,1722.5,2167.3,1722.5z"/>
			<g>
				<path fill="#191C3C" d="M2166.8,1724v-3c19.6,0,35.6-16,35.6-35.6v-115.6c0-19.6-16-35.6-35.6-35.6h-89.2v-3h89.2
					c21.3,0,38.6,17.3,38.6,38.6v115.6C2205.4,1706.7,2188.1,1724,2166.8,1724z"/>
			</g>
			<path fill="#191C3C" d="M2025,1694.5v-133.7c0-15.5,13.3-28.1,29.8-28.1h-15c-20.5,0-37.1,16.6-37.1,37.1v115.6
				c0,20.5,16.6,37.1,37.1,37.1h15C2038.3,1722.5,2025,1710,2025,1694.5z"/>
			<g id="XMLID_2376_">
				<path id="XMLID_2382_" fill="#FFFFFF" d="M2173.6,1627.6c0,31.4-25.5,56.9-56.9,56.9c-31.4,0-56.9-25.5-56.9-56.9
					c0-31.4,25.5-56.9,56.9-56.9C2148.1,1570.7,2173.6,1596.2,2173.6,1627.6z"/>
				<g id="XMLID_2381_">
					<path id="XMLID_1188_" fill="#191C3C" d="M2105.5,1624.7c-1.2,0-2.2-1-2.2-2.2c0-3.7-3.1-6.8-6.8-6.8s-6.8,3.1-6.8,6.8
						c0,1.2-1,2.2-2.2,2.2c-1.2,0-2.2-1-2.2-2.2c0-6.2,5-11.2,11.2-11.2c6.2,0,11.2,5,11.2,11.2
						C2107.7,1623.7,2106.7,1624.7,2105.5,1624.7z"/>
				</g>
				<g id="XMLID_2380_">
					<path id="XMLID_1187_" fill="#191C3C" d="M2145.8,1624.7c-1.2,0-2.2-1-2.2-2.2c0-3.7-3-6.8-6.8-6.8c-3.7,0-6.8,3.1-6.8,6.8
						c0,1.2-1,2.2-2.2,2.2c-1.2,0-2.2-1-2.2-2.2c0-6.2,5-11.2,11.2-11.2c6.2,0,11.2,5,11.2,11.2
						C2148,1623.7,2147,1624.7,2145.8,1624.7z"/>
				</g>
				<g id="XMLID_2379_">
					<path id="XMLID_1198_" fill="#191C3C" d="M2142.1,1642.3c0,14.1-11.4,25.4-25.5,25.4c-14.1,0-25.4-11.4-25.4-25.4H2142.1z"/>
				</g>
				<path id="XMLID_1200_" fill="#FF5722" d="M2093.6,1653c4,8.7,12.8,14.8,23,14.8c10.2,0,19-6.1,23-14.8H2093.6z"/>
			</g>
		</g>
		<g>
			<path fill="#E3EDFE" d="M1389.5,1722.5h-130.1c-19.7,0-35.6-15.9-35.6-35.6v-118.7c0-19.7,15.9-35.6,35.6-35.6h130.1
				c19.7,0,35.6,15.9,35.6,35.6V1687C1425.1,1706.6,1409.2,1722.5,1389.5,1722.5z"/>
			<g>
				<path fill="#191C3C" d="M1388,1724v-3c19.6,0,35.6-16,35.6-35.6v-115.6c0-19.6-16-35.6-35.6-35.6h-89.2v-3h89.2
					c21.3,0,38.6,17.3,38.6,38.6v115.6C1426.6,1706.7,1409.3,1724,1388,1724z"/>
			</g>
			<path fill="#191C3C" d="M1246.2,1694.5v-133.7c0-15.5,13.3-28.1,29.8-28.1h-15c-20.5,0-37.1,16.6-37.1,37.1v115.6
				c0,20.5,16.6,37.1,37.1,37.1h15C1259.5,1722.5,1246.2,1710,1246.2,1694.5z"/>
			<g id="XMLID_89_">
				<path fill="#191C3C" d="M1375.1,1640.5l11.8,0c2.4,0,4.3-1.8,4.3-4.1l0-14.2c0-2.3-1.9-4.1-4.3-4.1l-9.3,0
					c-1.5,0-2.9-0.9-3.4-2.3c-0.3-0.8-0.7-1.6-1.1-2.4c-0.6-1.3-0.4-2.9,0.7-3.9l6.6-6.2c1.7-1.6,1.7-4.2,0-5.8l-10.7-10.1
					c-1.7-1.6-4.4-1.6-6.1,0l-6.6,6.2c-1,1-2.6,1.3-4,0.7c-0.9-0.4-2-0.8-2.8-1.1c-1.4-0.5-2.3-1.8-2.3-3.1v-8.8
					c0-2.3-1.9-4.1-4.3-4.1h-15.1c-2.4,0-4.3,1.8-4.3,4.1v8.7c0,1.4-1,2.7-2.4,3.2c-0.9,0.3-1.8,0.7-2.7,1.1c-1.4,0.6-3,0.4-4.1-0.6
					l-6.6-6.2c-1.7-1.6-4.5-1.6-6.1,0l-10.7,10.1c-1.7,1.6-1.7,4.2,0,5.8l6.6,6.2c1,1,1.3,2.5,0.8,3.7c-0.4,0.9-0.8,1.8-1.1,2.7
					c-0.5,1.3-1.9,2.1-3.3,2.1l-9.4,0c-2.4,0-4.3,1.8-4.3,4.1l0,14.2c0,2.3,2,4.1,4.4,4.1l9.3,0c1.5,0,2.9,0.9,3.4,2.3
					c0.3,0.8,0.7,1.6,1.1,2.4c0.6,1.3,0.4,2.9-0.7,3.9l-6.5,6.2c-1.7,1.6-1.7,4.2,0,5.8l10.7,10.1c1.7,1.6,4.4,1.6,6.1,0l6.6-6.2
					c1-1,2.6-1.3,4-0.7c0.9,0.4,2,0.8,2.8,1.1c1.4,0.5,2.3,1.8,2.3,3.1l0,8.8c0,2.3,2,4.1,4.3,4.1l15.1,0c2.4,0,4.3-1.8,4.3-4.1
					l0-8.7c0-1.4,1-2.7,2.4-3.2c0.9-0.3,1.7-0.6,2.6-1c1.4-0.6,3-0.4,4.1,0.6l6.6,6.2c1.7,1.6,4.4,1.6,6.1,0l10.7-10.1
					c1.7-1.6,1.7-4.2,0-5.8l-6.6-6.2c-1-1-1.3-2.5-0.8-3.7C1374.1,1643.2,1375,1640.7,1375.1,1640.5z M1315,1625.7
					c2.5-12.6,16.3-19.7,28.8-15.2c9.5,3.4,15.2,13.1,13.3,22.5c-2.5,12.6-16.3,19.7-28.8,15.2
					C1318.8,1644.7,1313.1,1635.1,1315,1625.7z"/>
			</g>
		</g>
		<g>
			<path fill="#4D5068" d="M1526.6,1722.8h-102.4c-16.4,0-29.6-13.3-29.6-29.6V1600c0-16.4,13.3-29.6,29.6-29.6h102.4
				c16.4,0,29.6,13.3,29.6,29.6v93.2C1556.2,1709.6,1542.9,1722.8,1526.6,1722.8z"/>
			<g>
				<path fill="#191C3C" d="M1526.4,1724v-2.4c15.8,0,28.6-12.8,28.6-28.6v-92.8c0-15.8-12.8-28.6-28.6-28.6h-71.6v-2.4h71.6
					c17.1,0,31,13.9,31,31v92.8C1557.4,1710.1,1543.5,1724,1526.4,1724z"/>
			</g>
			<path fill="#191C3C" d="M1414.4,1693.9v-94.5c0-16,13-29,29-29h-19.9c-16,0-29,13-29,29v94.5c0,16,13,29,29,29h19.9
				C1427.4,1722.8,1414.4,1709.9,1414.4,1693.9z"/>
			<path fill="#FFFFFF" d="M1468.3,1610.6v5.4v7.9v37.1c-3.3-1.4-7.5-2-11.9-1.2c-9,1.6-15.5,7.9-14.4,14.1c1.1,6.2,9.3,10,18.3,8.4
				c8.6-1.5,14.8-7.4,14.4-13.3c0,0,0-0.1,0-0.1v-45h35.4v37.1c-3.3-1.5-7.5-2-11.9-1.2c-9,1.6-15.5,7.9-14.4,14.1
				c1.1,6.2,9.3,10,18.3,8.4c8.5-1.5,14.6-7.1,14.4-13c0-0.1,0.1-0.3,0.1-0.4v-45v-7.9v-5.4H1468.3z"/>
		</g>
		<g>
			<path fill="#5361F0" d="M623.1,1722.8h-98.6c-17.4,0-31.5-14.1-31.5-31.5v-89.4c0-17.4,14.1-31.5,31.5-31.5h98.6
				c17.4,0,31.5,14.1,31.5,31.5v89.4C654.7,1708.7,640.6,1722.8,623.1,1722.8z"/>
			<g>
				<path fill="#191C3C" d="M624.9,1724v-2.4c15.8,0,28.6-12.8,28.6-28.6v-92.8c0-15.8-12.8-28.6-28.6-28.6h-71.6v-2.4h71.6
					c17.1,0,31,13.9,31,31v92.8C655.9,1710.1,642,1724,624.9,1724z"/>
			</g>
			<path fill="#191C3C" d="M512.9,1693.9v-94.5c0-16,13-29,29-29h-19.9c-16,0-29,13-29,29v94.5c0,16,13,29,29,29h19.9
				C525.9,1722.8,512.9,1709.9,512.9,1693.9z"/>
			<path id="XMLID_527_" fill="#FFFFFF" d="M603.3,1659.1c-4,0-7.7,1.6-10.3,4.3l-18.9-12.9c0.5-1.5,0.8-3,0.8-4.6
				c0-1.5-0.3-2.9-0.7-4.3l19.1-12.5c2.6,2.5,6.1,4,10,4c8.1,0,14.6-6.5,14.6-14.6c0-8.1-6.5-14.6-14.6-14.6
				c-8.1,0-14.6,6.5-14.6,14.6c0,1.7,0.3,3.3,0.9,4.8l-18.8,12.3c-2.6-2.7-6.3-4.4-10.4-4.4c-8.1,0-14.6,6.5-14.6,14.6
				c0,8.1,6.5,14.6,14.6,14.6c3.9,0,7.5-1.6,10.1-4.1l19,13c-0.4,1.4-0.7,2.8-0.7,4.4c0,8.1,6.5,14.6,14.6,14.6
				c8.1,0,14.6-6.5,14.6-14.6C617.9,1665.6,611.4,1659.1,603.3,1659.1z"/>
		</g>
		<g>
			<path fill="#FF5722" d="M1173.5,1723.2h-74.3c-12.2,0-22.1-9.9-22.1-22.1v-67.5c0-12.2,9.9-22.1,22.1-22.1h74.3
				c12.2,0,22.1,9.9,22.1,22.1v67.5C1195.6,1713.3,1185.7,1723.2,1173.5,1723.2z"/>
			<g>
				<path fill="#191C3C" d="M1173.7,1724v-1.8c11.6,0,20.9-9.4,20.9-20.9v-67.9c0-11.6-9.4-20.9-20.9-20.9h-52.4v-1.8h52.4
					c12.5,0,22.7,10.2,22.7,22.7v67.9C1196.4,1713.8,1186.3,1724,1173.7,1724z"/>
			</g>
			<path fill="#191C3C" d="M1091.8,1701.9v-69.2c0-11.7,9.5-21.2,21.2-21.2h-14.6c-11.7,0-21.2,9.5-21.2,21.2v69.2
				c0,11.7,9.5,21.2,21.2,21.2h14.6C1101.3,1723.2,1091.8,1713.7,1091.8,1701.9z"/>
			<g id="XMLID_695_">
				<g id="XMLID_696_">
					<path id="XMLID_697_" fill="#FFFFFF" d="M1170.8,1657.9c0-9.3-7.6-16.9-16.9-16.9c-4.7,0-9,1.9-12.1,5.1
						c-3.1-3.1-7.3-5.1-12.1-5.1c-9.3,0-16.9,7.6-16.9,16.9c0,4.5,1.8,8.7,4.7,11.7l24.2,24l24.8-24.6c0.3-0.3,1-1.2,1-1.2
						C1169.6,1665.1,1170.8,1661.7,1170.8,1657.9z"/>
				</g>
			</g>
		</g>
		<g>
			<path fill="#FEC55E" d="M2913.2,1722.6h-86.5c-13.6,0-24.6-11-24.6-24.6v-78.8c0-13.6,11-24.6,24.6-24.6h86.5
				c13.6,0,24.6,11,24.6,24.6v78.8C2937.7,1711.6,2926.7,1722.6,2913.2,1722.6z"/>
			<g>
				<path fill="#191C3C" d="M2912.7,1723.6v-2c13.2,0,24-10.8,24-24v-77.9c0-13.2-10.8-24-24-24h-60.1v-2h60.1c14.4,0,26,11.7,26,26
					v77.9C2938.7,1711.9,2927.1,1723.6,2912.7,1723.6z"/>
			</g>
			<path fill="#191C3C" d="M2817.2,1703.7v-90.1c0-10.4,9-18.9,20.1-18.9h-10.1c-13.8,0-25,11.2-25,25v77.9c0,13.8,11.2,25,25,25
				h10.1C2826.1,1722.6,2817.2,1714.1,2817.2,1703.7z"/>
			<polygon fill="#FFFFFF" points="2847.9,1633.2 2878.6,1653.9 2909.2,1633.2 			"/>
			<polygon fill="#FFFFFF" points="2913.1,1681.3 2844.1,1681.3 2844.1,1634.6 2878.6,1658 2913.1,1634.6 			"/>
		</g>
		<g>
			<path fill="#FFFFFF" d="M2403.9,1723.3h-63.7c-10.1,0-18.3-8.2-18.3-18.3v-58c0-10.1,8.2-18.3,18.3-18.3h63.7
				c10.1,0,18.3,8.2,18.3,18.3v58C2422.2,1715.1,2414,1723.3,2403.9,1723.3z"/>
			<path fill="#191C3C" d="M2334.3,1705.3v-58.6c0-9.9,8-18,18-18h-12.4c-9.9,0-18,8-18,18v58.6c0,9.9,8,18,18,18h12.4
				C2342.4,1723.3,2334.3,1715.2,2334.3,1705.3z"/>
			<g>
				<path fill="#191C3C" d="M2403.7,1724v-1.5c9.8,0,17.7-8,17.7-17.7v-57.5c0-9.8-8-17.7-17.7-17.7h-44.4v-1.5h44.4
					c10.6,0,19.2,8.6,19.2,19.2v57.5C2423,1715.4,2414.3,1724,2403.7,1724z"/>
			</g>
			<g id="XMLID_66_">
				<polygon id="XMLID_67_" fill="#2E35A8" points="2376.8,1688.6 2366,1677.8 2372.2,1671.7 2376.8,1676.3 2389.6,1663.5 
					2395.8,1669.6 				"/>
			</g>
		</g>
		<g>
			<path fill="#FF5722" d="M445.6,1723.2h-72.8c-12.6,0-22.8-10.2-22.8-22.8v-66c0-12.6,10.2-22.8,22.8-22.8h72.8
				c12.6,0,22.8,10.2,22.8,22.8v66C468.4,1712.9,458.2,1723.2,445.6,1723.2z"/>
			<g>
				<path fill="#191C3C" d="M446.6,1724v-1.8c11.6,0,20.9-9.4,20.9-21v-67.9c0-11.6-9.4-20.9-20.9-20.9h-52.4v-1.8h52.4
					c12.5,0,22.7,10.2,22.7,22.7v67.9C469.3,1713.8,459.1,1724,446.6,1724z"/>
			</g>
			<path fill="#191C3C" d="M364.6,1701.9v-69.2c0-11.7,9.5-21.2,21.2-21.2h-14.6c-11.7,0-21.2,9.5-21.2,21.2v69.2
				c0,11.7,9.5,21.2,21.2,21.2h14.6C374.1,1723.2,364.6,1713.7,364.6,1701.9z"/>
			<g>
				<g>
					<g>
						<path fill="#FFFFFF" d="M416.4,1665.3v-3.2h10.1v2.6l-3.4,3.9c1.3,0.2,2.4,0.8,3.1,1.7c0.7,0.9,1.1,1.9,1.1,3.1
							c0,1.7-0.6,3.1-1.8,4.1c-1.2,1-2.7,1.5-4.5,1.5c-1.8,0-3.7-0.6-5.6-1.9l1.5-2.9c1.6,1.1,3,1.7,4.2,1.7c0.7,0,1.4-0.2,1.8-0.5
							c0.5-0.4,0.7-0.9,0.7-1.6c0-0.7-0.3-1.2-0.8-1.6c-0.6-0.4-1.3-0.6-2.3-0.6c-0.5,0-1.3,0.2-2.2,0.5v-2.7l3.2-3.7H416.4z"/>
						<path fill="#FFFFFF" d="M440.7,1662.2v3.2h-6.5v2.8c0.5-0.1,1.1-0.2,1.7-0.2c1.6,0,3,0.5,4.1,1.4c1.2,1,1.7,2.3,1.7,3.9
							s-0.6,3-1.8,4.1c-1.2,1.1-2.7,1.6-4.4,1.6c-2.2,0-4.1-0.8-5.6-2.5l1.9-2.7c0.1,0.1,0.3,0.3,0.6,0.5c0.2,0.2,0.7,0.5,1.3,0.8
							c0.6,0.3,1.3,0.5,1.9,0.5c0.6,0,1.2-0.2,1.7-0.6c0.5-0.4,0.7-0.9,0.7-1.7c0-0.7-0.3-1.3-0.8-1.7c-0.5-0.4-1.2-0.6-2-0.6
							c-0.8,0-1.8,0.3-2.9,0.9l-1.5-1.7v-8.1H440.7z"/>
						<path fill="#FFFFFF" d="M450.3,1671.6v-2.9h3.6v2.9h1.9v3.2h-1.9v4h-3.6v-4h-6.7v-2.8l5.9-9.8h4l-5.6,9.4H450.3z"/>
					</g>
				</g>
				<g id="XMLID_30_">
					<g id="XMLID_31_">
						<path id="XMLID_32_" fill="#FFFFFF" d="M409,1685.6l-1.6-8.5c0.9-2,1.4-4.2,1.4-6.6c0-8.9-7.2-16.1-16.1-16.1
							c-8.9,0-16.1,7.2-16.1,16.1c0,8.9,7.2,16.1,16.1,16.1c3.1,0,6.1-0.9,8.5-2.5L409,1685.6z"/>
					</g>
				</g>
			</g>
		</g>
		<g>
			<path fill="#FEB423" d="M792.3,1722.5h-130c-19.7,0-35.7-16-35.7-35.7v-118.5c0-19.7,16-35.7,35.7-35.7h130
				c19.7,0,35.7,16,35.7,35.7v118.5C828,1706.6,812,1722.5,792.3,1722.5z"/>
			<g>
				<path fill="#191C3C" d="M790.8,1724v-3c19.6,0,35.6-16,35.6-35.6v-115.6c0-19.6-16-35.6-35.6-35.6h-89.2v-3h89.2
					c21.3,0,38.6,17.3,38.6,38.6v115.6C829.5,1706.7,812.1,1724,790.8,1724z"/>
			</g>
			<path fill="#191C3C" d="M649,1694.5v-133.7c0-15.5,13.3-28.1,29.8-28.1h-15c-20.5,0-37.1,16.6-37.1,37.1v115.6
				c0,20.5,16.6,37.1,37.1,37.1h15C662.4,1722.5,649,1710,649,1694.5z"/>
			<path fill="#FFFFFF" d="M786.9,1617.4c1.1-1.1,0.5-3-1.1-3.2l-31.2-4.1c-0.6-0.1-1.1-0.5-1.4-1l-14.3-28.1
				c-0.7-1.4-2.7-1.4-3.4,0l-13.6,28.4c-0.3,0.6-0.8,0.9-1.4,1l-31.1,4.9c-1.5,0.2-2.1,2.1-1,3.2l22.8,21.7c0.4,0.4,0.7,1,0.6,1.6
				l-1.8,11.7l0,0l-3.1,19.4c-0.1,0.8,0.2,1.4,0.8,1.8c0.3,0.2,0.6,0.3,0.9,0.3c0.3,0,0.7,0,1-0.2l27.7-15c0.5-0.3,1.2-0.3,1.7,0
				l28.1,14.3c1.4,0.7,3-0.5,2.7-2l-5.7-31c-0.1-0.6,0.1-1.2,0.5-1.7L786.9,1617.4z"/>
		</g>
		<g>
			<path fill="#536DFE" d="M1586.5,1424.4c-7,0-12.6-5.7-12.6-12.6c0-7,5.7-12.6,12.6-12.6c7,0,12.6,5.7,12.6,12.6
				C1599.2,1418.7,1593.5,1424.4,1586.5,1424.4z M1586.5,1401.2c-5.9,0-10.6,4.8-10.6,10.6c0,5.9,4.8,10.6,10.6,10.6
				c5.9,0,10.6-4.8,10.6-10.6C1597.2,1405.9,1592.4,1401.2,1586.5,1401.2z"/>
		</g>
		<g>
			<path fill="#536DFE" d="M2878.6,1268.6c-7,0-12.6-5.7-12.6-12.6c0-7,5.7-12.6,12.6-12.6c7,0,12.6,5.7,12.6,12.6
				C2891.2,1262.9,2885.5,1268.6,2878.6,1268.6z M2878.6,1245.4c-5.9,0-10.6,4.8-10.6,10.6c0,5.9,4.8,10.6,10.6,10.6
				c5.9,0,10.6-4.8,10.6-10.6C2889.2,1250.1,2884.4,1245.4,2878.6,1245.4z"/>
		</g>
		<g>
			<path fill="#536DFE" d="M2139.7,1435c-7,0-12.6-5.7-12.6-12.6c0-7,5.7-12.6,12.6-12.6c7,0,12.6,5.7,12.6,12.6
				C2152.3,1429.3,2146.6,1435,2139.7,1435z M2139.7,1411.8c-5.9,0-10.6,4.8-10.6,10.6c0,5.9,4.8,10.6,10.6,10.6
				c5.9,0,10.6-4.8,10.6-10.6C2150.3,1416.5,2145.5,1411.8,2139.7,1411.8z"/>
		</g>
		<g>
			<path fill="#191C3C" d="M1276,1505.9c-4.3,0-7.8-3.5-7.8-7.8c0-4.3,3.5-7.8,7.8-7.8c4.3,0,7.8,3.5,7.8,7.8
				C1283.8,1502.4,1280.3,1505.9,1276,1505.9z M1276,1492.3c-3.2,0-5.8,2.6-5.8,5.8c0,3.2,2.6,5.8,5.8,5.8c3.2,0,5.8-2.6,5.8-5.8
				C1281.8,1494.9,1279.2,1492.3,1276,1492.3z"/>
		</g>
		<g>
			<path fill="#191C3C" d="M2341.9,1551.2c-4.3,0-7.8-3.5-7.8-7.8c0-4.3,3.5-7.8,7.8-7.8c4.3,0,7.8,3.5,7.8,7.8
				C2349.7,1547.7,2346.2,1551.2,2341.9,1551.2z M2341.9,1537.6c-3.2,0-5.8,2.6-5.8,5.8c0,3.2,2.6,5.8,5.8,5.8
				c3.2,0,5.8-2.6,5.8-5.8C2347.7,1540.2,2345.1,1537.6,2341.9,1537.6z"/>
		</g>
		<g>
			<path fill="#191C3C" d="M3004.3,1426c-4.3,0-7.8-3.5-7.8-7.8c0-4.3,3.5-7.8,7.8-7.8c4.3,0,7.8,3.5,7.8,7.8
				C3012.1,1422.5,3008.6,1426,3004.3,1426z M3004.3,1412.4c-3.2,0-5.8,2.6-5.8,5.8c0,3.2,2.6,5.8,5.8,5.8c3.2,0,5.8-2.6,5.8-5.8
				C3010.1,1415,3007.5,1412.4,3004.3,1412.4z"/>
		</g>
		<g>
			<path fill="#FF5722" d="M1469.6,1482.7c0,2.6-2.1,4.8-4.8,4.8c-2.6,0-4.8-2.1-4.8-4.8c0-2.6,2.1-4.8,4.8-4.8
				C1467.4,1477.9,1469.6,1480,1469.6,1482.7z"/>
		</g>
		<g>
			<path fill="#FF5722" d="M1151.4,1451.2c-6.3,0-11.4-5.1-11.4-11.4c0-6.3,5.1-11.4,11.4-11.4s11.4,5.1,11.4,11.4
				C1162.8,1446.1,1157.6,1451.2,1151.4,1451.2z M1151.4,1430.4c-5.2,0-9.4,4.2-9.4,9.4c0,5.2,4.2,9.4,9.4,9.4s9.4-4.2,9.4-9.4
				C1160.8,1434.6,1156.5,1430.4,1151.4,1430.4z"/>
		</g>
		<g>
			<path fill="#191C3C" d="M1460,1359c-4.3,0-7.8-3.5-7.8-7.8c0-4.3,3.5-7.8,7.8-7.8c4.3,0,7.8,3.5,7.8,7.8
				C1467.8,1355.5,1464.3,1359,1460,1359z M1460,1345.4c-3.2,0-5.8,2.6-5.8,5.8c0,3.2,2.6,5.8,5.8,5.8c3.2,0,5.8-2.6,5.8-5.8
				C1465.8,1348,1463.2,1345.4,1460,1345.4z"/>
		</g>
		<g>
			<path fill="#191C3C" d="M1931.4,1562.9c-4.3,0-7.8-3.5-7.8-7.8c0-4.3,3.5-7.8,7.8-7.8c4.3,0,7.8,3.5,7.8,7.8
				C1939.2,1559.4,1935.7,1562.9,1931.4,1562.9z M1931.4,1549.3c-3.2,0-5.8,2.6-5.8,5.8c0,3.2,2.6,5.8,5.8,5.8
				c3.2,0,5.8-2.6,5.8-5.8C1937.2,1551.9,1934.6,1549.3,1931.4,1549.3z"/>
		</g>
		<g>
			<path fill="#5361F0" d="M2252.3,1546.9c0,2.6-2.1,4.8-4.8,4.8s-4.8-2.1-4.8-4.8c0-2.6,2.1-4.8,4.8-4.8
				S2252.3,1544.2,2252.3,1546.9z"/>
		</g>
		<g>
			<path fill="#5361F0" d="M2010.5,1487.5c0,2.6-2.1,4.8-4.8,4.8c-2.6,0-4.8-2.1-4.8-4.8c0-2.6,2.1-4.8,4.8-4.8
				C2008.4,1482.7,2010.5,1484.8,2010.5,1487.5z"/>
		</g>
		<g>
			<path fill="#5361F0" d="M2736.5,1413.4c0,2.6-2.1,4.8-4.8,4.8c-2.6,0-4.8-2.1-4.8-4.8c0-2.6,2.1-4.8,4.8-4.8
				C2734.3,1408.6,2736.5,1410.8,2736.5,1413.4z"/>
		</g>
		<g>
			<path fill="#191C3C" d="M1592.1,1551.7c0,2.6-2.1,4.8-4.8,4.8s-4.8-2.1-4.8-4.8c0-2.6,2.1-4.8,4.8-4.8S1592.1,1549,1592.1,1551.7
				z"/>
		</g>
		<g>
			<path fill="#191C3C" d="M2981.2,1274.6c0,2.6-2.1,4.8-4.8,4.8s-4.8-2.1-4.8-4.8c0-2.6,2.1-4.8,4.8-4.8
				S2981.2,1271.9,2981.2,1274.6z"/>
		</g>
		<g>
			<path fill="#FF5722" d="M1126.1,1562.8c0,2.6-2.1,4.8-4.8,4.8c-2.6,0-4.8-2.1-4.8-4.8s2.1-4.8,4.8-4.8
				C1123.9,1558,1126.1,1560.2,1126.1,1562.8z"/>
		</g>
		<g>
			<path fill="#FF5722" d="M1998.3,1387.4c0,2.6-2.1,4.8-4.8,4.8c-2.6,0-4.8-2.1-4.8-4.8s2.1-4.8,4.8-4.8
				C1996.1,1382.6,1998.3,1384.8,1998.3,1387.4z"/>
		</g>
		<g>
			<path fill="#FF5722" d="M2900.5,1523c0,2.6-2.1,4.8-4.8,4.8c-2.6,0-4.8-2.1-4.8-4.8c0-2.6,2.1-4.8,4.8-4.8
				C2898.3,1518.3,2900.5,1520.4,2900.5,1523z"/>
		</g>
	</g>
	<g id="woman_2">
		<g>
			<polygon fill="#B3CDFA" points="2545.1,1065.1 2593.8,1141.6 2549.2,1235.7 2536.6,1270.1 2538.2,1311.3 2544.4,1308.8 
				2546.4,1288.5 2573.2,1268.3 2565.8,1232.5 2630.6,1145.6 2582.6,1040.1 			"/>
			<g>
				<linearGradient id="SVGID_1_" gradientUnits="userSpaceOnUse" x1="2469.3091" y1="1001.688" x2="2549.5564" y2="1001.688">
					<stop  offset="0" style="stop-color:#536DFE"/>
					<stop  offset="1" style="stop-color:#2E35A8"/>
				</linearGradient>
				<path fill="url(#SVGID_1_)" d="M2533.5,965.1c-1.7-10.4-3.6-21.1-8.9-30.2c-5.3-9.1-15-16.4-25.5-15.9l-29.6,6.9
					c-1.2,27,8.8,53.1,15.7,79.3c6.9,26.2,10.3,55.4-2.9,79.1c13.5-5.3,27-10.6,40.5-15.9c8.7-3.4,17.5-6.9,26.8-7.6
					C2544.2,1028.9,2538.8,997,2533.5,965.1z"/>
			</g>
			
				<linearGradient id="SVGID_00000174568677318534754010000015871518351684085393_" gradientUnits="userSpaceOnUse" x1="2430.0754" y1="1343.7155" x2="2479.2839" y2="1343.7155" gradientTransform="matrix(0.7447 -0.3068 0.2802 0.6803 175.785 941.9144)">
				<stop  offset="0" style="stop-color:#536DFE"/>
				<stop  offset="1" style="stop-color:#2E35A8"/>
			</linearGradient>
			<path fill="url(#SVGID_00000174568677318534754010000015871518351684085393_)" d="M2414.4,1136l-34.9,14.4c-0.5,0.2-1,0-1.2-0.5
				l-32.5-78.9c-0.2-0.5,0-1,0.5-1.2l34.9-14.4c0.5-0.2,1,0,1.2,0.5l32.5,78.9C2415.1,1135.3,2414.8,1135.8,2414.4,1136z"/>
			<path fill="#191C3C" d="M2383.2,1145.4l-30.4-73.8c-0.8-1.9,0.1-4,2-4.8l25.6-10.5c-0.6,0-1.1,0-1.7,0.2l-29.9,12.3
				c-1.9,0.8-2.8,2.9-2,4.8l30.4,73.8c0.8,1.9,2.9,2.8,4.8,2l4.3-1.8C2384.9,1147.5,2383.7,1146.7,2383.2,1145.4z"/>
			<polygon fill="#B3CDFA" points="2614,1626 2620.5,1667.5 2631.9,1686.8 2589.9,1689.2 2596.1,1673.9 2585.5,1633.5 			"/>
			<path fill="#191C3C" d="M2620.5,1667.5l12.7,15.1l3.2,12.2c0.6,2.3-0.6,4.8-2.9,5.6l-53.5,20.3l-38.3,3.3l0,0
				c-2.3-8.7,1.9-17.7,10-21.6l25.8-8.2l19.6-20.6l0,0c1.4,5.4,7,8.7,12.4,7.2l3.8-1C2618.7,1678.5,2621.9,1672.9,2620.5,1667.5
				L2620.5,1667.5z"/>
			<polygon fill="#B3CDFA" points="2531.4,1645.1 2527.1,1686.8 2533.3,1708.4 2492,1700.1 2501.9,1686.8 2501.9,1645.1 			"/>
			<path fill="#191C3C" d="M2527.2,1686.8l8.5,17.9v16.9h-99l0,0c0-8.9,6.3-16.6,15.1-18.4l24.1-4.7l27.1-11.6v0
				c0,5.6,4.6,10.1,10.2,10.1h3.9C2522.6,1697,2527.2,1692.5,2527.2,1686.8L2527.2,1686.8z"/>
			<path id="XMLID_158_" fill="#FF5722" d="M2589.1,1667.9l-39.8-173.2l-30-231.7h88.8l3.7,9.6c10.7,27.9,15.3,57.7,13.5,87.5
				l-17.3,127.2l15.3,172.3L2589.1,1667.9z"/>
			<polygon id="XMLID_159_" fill="#FF5722" points="2535.3,1667.9 2557.2,1263 2484.4,1263 2498.4,1667.9 			"/>
			<path id="XMLID_160_" fill="#E3EDFE" d="M2608.1,1263v-186c0-26.7-21.7-48.4-48.4-48.4h-36.6c-15.2,0-28.7,10-32.9,24.7
				l-12.4,70.4c-1.5,5-1.3,10.3,0.5,15.2l6.3,17.4V1263H2608.1z"/>
			<path id="XMLID_161_" fill="#B3CDFA" d="M2542.8,1075.4l-11.5,87.9l-114.8-25.3l-10-22.4l-8,1l2.7,14.6l-34.5-9.2l10.3,26.5
				l12.6,12.2c4.3,4.2,10.5,5.7,16.3,4.1l11.6-3.3l141.7,53l24-132.8c1.7-9.4-3.3-18.8-12.1-22.5l0,0
				C2558.6,1053.9,2544.5,1061.9,2542.8,1075.4z"/>
			<path fill="#E3EDFE" d="M2571.1,1059.2c-12.5-5.3-26.6,2.8-28.3,16.2l-7.2,48.6l40,4.2l7.6-46.5
				C2584.9,1072.2,2579.9,1062.9,2571.1,1059.2z"/>
			
				<rect id="XMLID_162_" x="2526.8" y="976.8" transform="matrix(-1 -1.224647e-16 1.224647e-16 -1 5082.0303 2016.9379)" fill="#B3CDFA" width="28.4" height="63.3"/>
			<path id="XMLID_163_" fill="#B3CDFA" d="M2518.6,1014.3l22.5-4.6c10.5-2.1,17.2-12.3,15.1-22.8l-10.2-50.2
				c-3.3-16.1-18.9-26.4-35-23.2l-22.5,4.6c-10,2-16.5,11.8-14.4,21.8l1.2,6l5.4,4l-7,25.6l7.2,3.3l3.7,12.9
				C2487.7,1007.4,2503,1017.5,2518.6,1014.3z"/>
			<path opacity="0.1" fill="#191C3C" d="M2498.9,973.6c0,4,3.3,7.3,7.3,7.3c4,0,7.3-3.3,7.3-7.3c0-4-3.3-7.3-7.3-7.3
				C2502.2,966.4,2498.9,969.6,2498.9,973.6z"/>
			<path fill="#191C3C" d="M2481.9,955.4c0,0.8,0.6,1.5,1.4,1.5c0.8,0,1.5-0.6,1.5-1.5c0-0.8-0.6-1.5-1.5-1.5
				C2482.6,954,2481.9,954.6,2481.9,955.4z"/>
			<g>
				<path fill="#191C3C" d="M2494.5,993.4c0.6-0.2,1.2-0.5,1.8-1c1.5-1.1,2.5-2.9,2.6-4.8c0-0.4-0.3-0.8-0.7-0.8
					c-0.4,0-0.8,0.3-0.8,0.7c-0.1,1.4-0.9,2.8-2,3.7c-1.2,0.9-2.7,1.2-4.1,1c-0.4-0.1-0.8,0.2-0.9,0.6c-0.1,0.4,0.2,0.8,0.6,0.9
					C2492.2,993.9,2493.4,993.8,2494.5,993.4z"/>
			</g>
			<g>
				<path fill="#191C3C" d="M2475.1,954.9c0-8.3,4-14.9,9.1-14.9s9.1,6.5,9.1,14.9s-4,14.9-9.1,14.9S2475.1,963.3,2475.1,954.9z
					 M2477.3,954.9c0,6.9,3.2,12.7,7,12.7s7-5.8,7-12.7s-3.2-12.7-7-12.7S2477.3,948,2477.3,954.9z"/>
			</g>
			<g>
				<rect x="2492.3" y="949.4" fill="#191C3C" width="39" height="2.1"/>
			</g>
			<g>
				
					<linearGradient id="SVGID_00000075140314578154858400000004803381228408465294_" gradientUnits="userSpaceOnUse" x1="2463.5796" y1="980.0408" x2="2593.7878" y2="980.0408">
					<stop  offset="0" style="stop-color:#536DFE"/>
					<stop  offset="1" style="stop-color:#2E35A8"/>
				</linearGradient>
				<path fill="url(#SVGID_00000075140314578154858400000004803381228408465294_)" d="M2464.2,919.5c-1,5.3-0.8,10.9,1,16
					c3.9,11.5,20.3,0.9,29.5,5.7c6.3,3.3,9.4,10.6,11.6,17.4c12,36.1,14.7,75.2,7.8,112.5c15.6-6.8,33.4-5.1,50.5-5.4
					c7.7-0.1,17.5,1.4,24.6-2.1c2.5-1.2,4.6-3.6,4.6-6.3c0.1-2.4-1.4-4.5-2.6-6.5c-10.7-17.2-13.3-38-15-58.2
					c-1.7-20.2-2.9-40.9-11.3-59.3c-3.8-8.3-9-15.9-15.2-22.5c-9.3-10-21.3-17.9-34.6-20.7c-13.4-2.8-28.2-0.1-38.6,8.6
					C2470.2,903.9,2465.8,911.5,2464.2,919.5z"/>
			</g>
			<g>
				<polygon fill="#191C3C" points="2576.8,1129.8 2564,1128.5 2564.3,1125.5 2574.3,1126.6 2580.5,1089.4 2583.4,1089.8 				"/>
			</g>
			<g>
				
					<rect x="2518.5" y="1102.6" transform="matrix(0.1509 -0.9886 0.9886 0.1509 1064.0625 3447.0708)" fill="#191C3C" width="40.1" height="3"/>
			</g>
			<g>
				<polygon fill="#191C3C" points="2587.7,1668.3 2545.7,1478.3 2517.8,1289.7 2517.8,1265.2 2520.8,1265.2 2520.8,1289.5 
					2548.6,1477.7 2590.6,1667.6 				"/>
			</g>
			<g>
				<polygon fill="#191C3C" points="2621.5,1360.4 2612.9,1360.4 2602.1,1350.2 2592.1,1279.8 2608.1,1279.8 2608.1,1282.8 
					2595.5,1282.8 2604.9,1348.7 2614.1,1357.4 2621.5,1357.4 				"/>
			</g>
			<g>
				<path fill="#191C3C" d="M2576.1,1308.6h-22.7c-11.1,0-20.4-7.9-22.2-18.8l-4-24.3l3-0.5l4,24.3c1.6,9.5,9.7,16.3,19.2,16.3h22.7
					V1308.6z"/>
			</g>
			<polygon opacity="0.3" fill="#191C3C" points="2501.9,1667.9 2501.9,1674.7 2528.8,1670.3 2529,1667.9 			"/>
			<polygon opacity="0.3" fill="#191C3C" points="2594.2,1666.7 2595.4,1671.3 2619.9,1663.7 2619.9,1660.4 			"/>
		</g>
	</g>
	<g id="Man_2">
		<g>
			<polygon fill="#B3CDFA" points="1799.1,751 1789.9,778.7 1786.5,800.1 1830,800.1 1830,778.7 1825.3,761.2 1830,740.4 			"/>
			<polygon fill="#B3CDFA" points="1720.8,566.8 1709.1,577.1 1707.7,593.1 1683.1,609.4 1666.5,588.1 1669,577.1 1699.1,539.2 			
				"/>
			<path fill="#B3CDFA" d="M1994.2,347.3L1994.2,347.3c-7-10.6-20.7-14.2-32-8.5l-78.8,40.2l-103.8-18.3l-9.8-1.8l-17.6-17.2
				l-15.3-5.1l-14.8,4.2c-2.3,0.7-4.1,2.6-4.6,5l-4.2,19.6c-0.5,2.5,0.5,5,2.5,6.5l18.2,9.2l23.7,6.4l12.9-5.5l0,0l117.1,35.4
				l95.6-33.7C1997.5,377.6,2002.7,360.2,1994.2,347.3z"/>
			
				<linearGradient id="SVGID_00000108299397081023213190000000597175201903957672_" gradientUnits="userSpaceOnUse" x1="1686.2919" y1="485.5942" x2="1964.3201" y2="485.5942">
				<stop  offset="0" style="stop-color:#536DFE"/>
				<stop  offset="1" style="stop-color:#2E35A8"/>
			</linearGradient>
			<polygon fill="url(#SVGID_00000108299397081023213190000000597175201903957672_)" points="1964.3,476.2 1798.8,404.4 1686.3,548 
				1720.8,566.8 1820.7,479.4 1917.5,560.5 			"/>
			
				<linearGradient id="SVGID_00000063608647515211262580000003293841592343480765_" gradientUnits="userSpaceOnUse" x1="1789.5592" y1="645.8881" x2="2027.8472" y2="645.8881">
				<stop  offset="0" style="stop-color:#536DFE"/>
				<stop  offset="1" style="stop-color:#2E35A8"/>
			</linearGradient>
			<path fill="url(#SVGID_00000063608647515211262580000003293841592343480765_)" d="M1789.6,528h238.3l0,0
				c0,37.6-30.5,68.2-68.2,68.2h-102.5l-28.1,167.6h-38.5L1789.6,528z"/>
			<g>
				<path fill="#191C3C" d="M1959.7,597.7v-3c30.7,0,57.4-20.8,64.7-50.6l2.9,0.7C2019.6,575.9,1991.8,597.7,1959.7,597.7z"/>
			</g>
			<path fill="#FEC55E" d="M2027.8,528l0.6-159.5c0.1-27.6-22.2-49.9-49.8-49.9h-20.9c-26,0-46.9,21.5-46,47.6L1917,528H2027.8z"/>
			<path fill="#B3CDFA" d="M1995.4,326.9l-6.1-31.6h-25l-8.9,30.5c-2.3,8.1,3.7,16.1,12.1,16.1h15.4
				C1991,341.9,1996.9,334.7,1995.4,326.9z"/>
			<path fill="#B3CDFA" d="M1975,314.2h-29.5c-16.2,0-29.3-13.1-29.3-29.3v-10.3l-4.4-0.2c-2.2-0.1-3.7-2.4-2.9-4.4l10.3-26l-3-5.3
				l0,0c0-12.3,10-22.3,22.3-22.3h19c18.9,0,34.3,15.3,34.3,34.3v46.9C1991.6,306.8,1984.2,314.2,1975,314.2z"/>
			<g>
				<path fill="#191C3C" d="M2001.6,260.1c3.2-13.6,1.9-28.2-3.7-41c-3-6.8-7.6-13.4-14.6-15.8c-5-1.7-10.7-0.8-15,2.2
					c-3.2,2.3-5.8,5.7-9.6,6.6c-3.3,0.8-6.8-0.7-9.3-3.1c-2.4-2.4-3.9-5.5-5.1-8.7c-0.9-2.5-2.3-5.5-5-5.5c-2.1,0-3.6,2-4.5,3.9
					c-0.9,1.9-1.6,4.1-3.4,5.2c-1.9,1.1-4.4,0.7-6.2-0.5c-1.8-1.2-3.1-3-4.4-4.8c-1.5-2.2-3-4.3-4.5-6.5c-0.8-1.2-1.7-2.4-2.9-3.1
					c-2.7-1.6-6.4-0.1-8.2,2.4c-1.8,2.6-2.2,5.9-2.2,9c0,7.7,1.9,15.4,6,21.8c4.1,6.4,10.7,11.4,18.2,13l6.7,0.6
					c4.3,0.3,8.6,0.5,12.9,0.8c3.9,0.2,8.1,0.6,10.9,3.3c2.7,2.6,3.2,6.7,3.4,10.4c0.8,13.2-0.3,26.4-3.1,39.3
					c3.1-0.4,6.1-0.7,9.2-1.1c-1.4-4.3-1-9.1,1.1-13.1c1.8-3.3,5.8-6.3,9.1-4.5c2.7,1.4,3.3,4.9,3.3,7.9c-0.1,5-1.2,10-1.3,15
					c-0.1,5,1.1,10.4,4.7,13.8c1.6,1.4,3.9,2.4,5.7,1.5c0.8-0.4,1.4-1.1,1.8-1.8c2.9-4.5,2-10.3,2.1-15.6
					C1993.9,280.8,1999.1,270.7,2001.6,260.1z"/>
			</g>
			<polygon opacity="0.3" fill="#191C3C" points="1958.8,314.2 1974.1,309.6 1955.8,324.6 			"/>
			<path fill="#191C3C" d="M1926,252.2c-0.1,0.7,0.3,1.4,1.1,1.6c0.7,0.1,1.4-0.3,1.6-1.1c0.1-0.7-0.3-1.4-1.1-1.6
				C1926.8,250.9,1926.1,251.4,1926,252.2z"/>
			<g>
				<path fill="#191C3C" d="M1933.2,248.4c-3.8,0.2-7.5-0.2-11.2-1.2c-0.8-0.2-0.6-1.6,0.2-1.3c3.5,1,7.2,1.4,10.9,1.2
					C1933.9,247,1934,248.4,1933.2,248.4L1933.2,248.4z"/>
			</g>
			<g opacity="0.15">
				<path fill="#191C3C" d="M1960.5,284.4c-2,2.3-2.2,4.2-3.2,6.8c-0.6,1.5-2.4,2.2-4.1,2.4c-6.8,1.1-14-1.1-19.1-5.6
					c-1.4-1.2-2.7-2.6-3.7-4.2c-2.7-3.9-3.5-8.4-8.7-9.6c-2.1-0.5-4.3-0.3-6.5,0.3l0.9,0V285c0,16.2,13.1,29.3,29.3,29.3h10.3
					c2.7-0.2,5.4-0.6,8.1-1.4c2.6-0.7,5.3-1.9,6.5-4.2c2.8-5.3-2.1-14.1-3.6-19.2C1966.1,286.9,1964.7,279.7,1960.5,284.4z"/>
			</g>
			<g>
				<path fill="#191C3C" d="M1936.7,295.3c-1.6,1.8-3.5,3.7-6,4c-1.9,0.2-3.6-0.4-4.7-2c-0.5-0.7,0.7-1.3,1.2-0.6
					c2.4,3.6,6.7-0.4,8.5-2.4C1936.4,293.7,1937.3,294.7,1936.7,295.3L1936.7,295.3z"/>
			</g>
			<path fill="#191C3C" d="M1669,577.1l-8,11.2l-22.5,4.3l-32.3,4.9c-5.1,0.9-8.9,5.4-8.9,10.6v11.8h102.4c5.2,0,9.4-4.2,9.4-9.4
				v-33.4C1709.1,577.1,1685.6,610.2,1669,577.1z"/>
			<path fill="#191C3C" d="M1789.9,778.7l-8,11.2l-22.5,4.3l-32.3,4.9c-5.1,0.9-8.9,5.4-8.9,10.6v11.8h102.4c5.2,0,9.4-4.2,9.4-9.4
				v-33.4C1830,778.7,1806.5,811.8,1789.9,778.7z"/>
			<g>
				<rect x="1890.9" y="526.5" fill="#191C3C" width="137" height="3"/>
			</g>
			<g>
				<rect x="1843" y="594.7" fill="#191C3C" width="14.1" height="3"/>
			</g>
			<g>
				
					<rect x="1813" y="466.3" transform="matrix(0.6292 -0.7772 0.7772 0.6292 304.083 1586.074)" fill="#191C3C" width="3" height="16"/>
			</g>
			<g>
				<path fill="#191C3C" d="M2003.3,568.3h-41.2c-14.7,0-26.7-12-26.7-26.7v-7.3h3v7.3c0,13.1,10.6,23.7,23.7,23.7h41.2V568.3z"/>
			</g>
			<g>
				<polygon fill="#4D5068" points="1483,892.6 1479.4,890.8 1739.1,356 1961.2,861.3 1957.5,862.9 1738.9,365.5 				"/>
			</g>
			<path fill="#B3CDFA" d="M1981.8,361.3L1981.8,361.3c-12.1-2.5-24.2,4.4-28.1,16.2l-27.8,84.4l-86.6,60.1l-8.2,5.6l-23.2,2.4
				l-21.5,5.7l-7.6,13.4c-1.2,2.1-1.1,4.7,0.2,6.7l13.7,18.8c1.4,2.1,3.9,3.2,6.4,2.8l19.4-6.2l24.2-15l5.3-13l0,0l111-57.8l40-90.7
				C2005.3,380.8,1996.9,364.5,1981.8,361.3z"/>
			<path fill="#FEC55E" d="M1981.8,361.3c-12.1-2.5-24.2,4.4-28.1,16.2l-18,51.6l43.6,12.8l19.8-47
				C2005.3,380.8,1996.9,364.5,1981.8,361.3z"/>
			<g>
				<polygon fill="#191C3C" points="1980.2,443.6 1957,436.8 1957.8,434 1978.5,440 1997.7,394.3 2000.5,395.5 				"/>
			</g>
			<g>
				
					<rect x="1779.6" y="553.2" transform="matrix(0.83 -0.5577 0.5577 0.83 -5.8283 1090.2296)" fill="#191C3C" width="12.3" height="3"/>
			</g>
			<g>
				<polygon fill="#191C3C" points="1803.3,537.5 1803.2,534.5 1814.4,534.2 1816.1,529.1 1819,530 1816.6,537.1 				"/>
			</g>
			<g>
				
					<rect x="1784.7" y="560" transform="matrix(0.8301 -0.5576 0.5576 0.8301 -8.8373 1094.0265)" fill="#191C3C" width="12.3" height="3"/>
			</g>
			<g>
				
					<rect x="1789.8" y="566.8" transform="matrix(0.8301 -0.5577 0.5577 0.8301 -11.7133 1098.0931)" fill="#191C3C" width="12.3" height="3"/>
			</g>
			<g>
				
					<rect x="1293.3" y="862.7" transform="matrix(0.9988 -4.943592e-02 4.943592e-02 0.9988 -47.916 88.3726)" fill="#5361F0" width="938.6" height="300.3"/>
				
					<ellipse transform="matrix(0.9847 -0.1744 0.1744 0.9847 -152.7496 261.7417)" fill="#2E35A8" cx="1412.5" cy="999.8" rx="73.5" ry="73.5"/>
				
					<rect x="1521.8" y="923.4" transform="matrix(0.9988 -4.943610e-02 4.943610e-02 0.9988 -44.1105 92.3667)" fill="#2E35A8" width="646.9" height="29"/>
				
					<rect x="1524.6" y="980.1" transform="matrix(0.9988 -4.943610e-02 4.943610e-02 0.9988 -46.9077 92.5746)" fill="#2E35A8" width="646.9" height="29"/>
				
					<rect x="1527.6" y="1046.3" transform="matrix(0.9988 -4.943654e-02 4.943654e-02 0.9988 -50.4142 83.2453)" fill="#FF5722" width="260" height="29"/>
			</g>
		</g>
	</g>
	<g id="woman">
		<g>
			<path fill="#B3CDFA" d="M973.2,864.7l-4.8,93l-51.7,73.7c-8.7,12.4-2.9,29.7,11.5,34.3c10.5,3.4,21.9-1.4,26.9-11.2l44.6-93.2
				l-2.9-99.2l-1.7-0.2c-3.5-0.4-6.5-2.9-7.4-6.3l-0.7-2.6l-12,2.3l0.3,1.6C975.9,859.7,975.1,862.6,973.2,864.7L973.2,864.7z"/>
			<g>
				<path fill="#FF5722" d="M1097.9,905.6H989.7c-18.5,0-33.5-15-33.5-33.5V774c0-18.5,15-33.5,33.5-33.5h108.2
					c18.5,0,33.5,15,33.5,33.5v98.2C1131.4,890.6,1116.4,905.6,1097.9,905.6z"/>
				<g>
					<path fill="#191C3C" d="M1099.1,906.9v-2.6c17.1,0,31-13.9,31-31V772.8c0-17.1-13.9-31-31-31h-77.6v-2.6h77.6
						c18.5,0,33.6,15.1,33.6,33.6v100.6C1132.7,891.9,1117.6,906.9,1099.1,906.9z"/>
				</g>
				<path id="XMLID_287_" fill="#FFFFFF" d="M1078.3,828.8l-44.7,25.8c-3,1.7-6.8-0.4-6.8-3.9v-51.7c0-3.5,3.8-5.7,6.8-3.9
					l44.7,25.8C1081.3,822.7,1081.3,827.1,1078.3,828.8z"/>
				<path fill="#191C3C" d="M977.8,874.2V771.9c0-17.3,14.1-31.4,31.4-31.4h-21.6c-17.3,0-31.4,14.1-31.4,31.4v102.4
					c0,17.3,14.1,31.4,31.4,31.4h21.6C991.9,905.6,977.8,891.6,977.8,874.2z"/>
			</g>
			<polygon id="XMLID_149_" fill="#B3CDFA" points="924.8,1365.7 934.7,1507.3 934.7,1690.8 932.7,1707.4 960.7,1704.8 
				954.7,1690.8 986.6,1501.3 996.6,1365.7 			"/>
			<polygon id="XMLID_151_" fill="#B3CDFA" points="903.8,1404.6 909.8,1504.3 863.9,1677.8 855.9,1690.8 878.9,1698.8 
				882.9,1685.8 960.7,1511.3 960.7,1404.6 			"/>
			<path id="XMLID_153_" fill="#191C3C" d="M934.7,1690.8l-7.6,12.6v14.3c0,3.5,2.8,6.3,6.3,6.3h79.8v-8.3c0-3.5-2.4-6.6-5.8-7.5
				l-35.4-9.1l-17.3-8.3C954.7,1690.8,947.4,1707.7,934.7,1690.8z"/>
			<path id="XMLID_154_" fill="#191C3C" d="M882.9,1685.8l6.3,11.3l14.6,11.6h11.3c2.9,0,5.3,2.4,5.3,5.3v10h-42.6l-29.9-20.7
				c-3.3-1.8-4.4-5.9-2.4-9.1l7.4-12.1l11-4.3C863.9,1677.8,862.6,1699.8,882.9,1685.8z"/>
			<path id="XMLID_150_" fill="#5361F0" d="M994.6,1214.1l14,235.4H882.9v-134.6c0-25.8,4.4-51.3,13-75.6l8.9-25.2H994.6z"/>
			<path id="XMLID_152_" fill="#4D5068" d="M994.6,1214.1v-77.8l14-47.9l57.8-64.8l-24.4-24.4l-61.3,53.4l-54.8,2.2
				c-11.7,0.5-21,10.1-21,21.8v137.6H994.6z"/>
			<path id="XMLID_156_" fill="#B3CDFA" d="M1041.9,999.2l52.9-86.6V906l-11.7-12.1l1.1-13.6l4.1-1l1.4,11l5.2,5.5v-10.2l9.2-14.8
				c2.1-3.4,6.6-4.6,10.1-2.7l12.1,6.6c2.2,1.2,3.5,3.5,3.5,6v9.9l-9,20.9l-11,9l-43.4,103.1L1041.9,999.2z"/>
			<path id="XMLID_155_" fill="#B3CDFA" d="M962.6,1036.6h-16.5c-6.3,0-11.5-5.1-11.5-11.5v-64.3h40.8c8.3,0,14.6,7.3,13.6,15.5l0,0
				l8,25.4l-6,1.5v5C991.1,1023.8,978.3,1036.6,962.6,1036.6z"/>
			<path id="XMLID_157_" fill="#B3CDFA" d="M949.2,1062.5L949.2,1062.5c-8,0-14.5-6.5-14.5-14.5v-22.9h28.9v22.9
				C963.7,1056,957.2,1062.5,949.2,1062.5z"/>
			<path fill="#191C3C" d="M985.6,980.4c0,0.7-0.6,1.3-1.3,1.3c-0.7,0-1.3-0.6-1.3-1.3c0-0.7,0.6-1.3,1.3-1.3
				C985,979.1,985.6,979.7,985.6,980.4z"/>
			<g>
				<path fill="#191C3C" d="M976.8,1014.3c-0.6-0.2-1.2-0.5-1.7-0.9c-1.5-1.1-2.4-2.9-2.6-4.7c0-0.4,0.3-0.8,0.7-0.8
					c0.4,0,0.8,0.3,0.8,0.7c0.1,1.4,0.9,2.8,2,3.6c1.1,0.9,2.6,1.2,4,0.9c0.4-0.1,0.8,0.2,0.9,0.6c0.1,0.4-0.2,0.8-0.6,0.9
					C979.1,1014.8,977.9,1014.7,976.8,1014.3z"/>
			</g>
			<path opacity="0.1" fill="#191C3C" d="M973.9,999.8c0,4.4-3.6,8-8,8c-4.4,0-8-3.6-8-8s3.6-8,8-8
				C970.3,991.8,973.9,995.4,973.9,999.8z"/>
			<g>
				<path fill="#2E35A8" d="M966.7,914.9c-5.2,3.3-12.6,10.2-18.4,9.2c-2-0.3-4.8-3.5-7.5-4c-3.1-0.6-6.7-0.2-9.7,0.7
					c-14.6,4.1-25.4,19.2-24.4,34.4c-2.3-2.9-6.8-3.2-10.1-1.6c-3.3,1.6-5.8,4.6-8.1,7.5c-3.9,5-7.9,10.1-9.7,16.2
					c-1.1,3.8-1.4,8.5,0.1,12.2c0.9,2.1,4.2,4.5,4.7,6.3c1.4,6.2-4.1,9.7-6.3,14.9c-3.9,9.4-4,20.3-0.1,29.7
					c3.8,9.4,11.4,17.2,20.8,21.3c13.5,5.8,28.3,0.3,41.6-3.2c10-2.6,19.9-4.4,29.6-1.4c-5.1-4.5-7.3-11.5-7.7-18.2
					c-0.4-6.8,0.8-13.5,1.7-20.2c1.9-13.9,2.3-28,1.2-41.9c6.9,2.6,15,0.8,20.8-3.8c5.8-4.6,9.4-11.4,11.1-18.6
					C1000.3,936.9,989.2,900.8,966.7,914.9z"/>
			</g>
			<g>
				<path fill="#FEB423" d="M955.8,1139.9c0,3.9,3.1,7,7,7c3.9,0,7-3.1,7-7c0-3.9-3.1-7-7-7C958.9,1132.9,955.8,1136.1,955.8,1139.9
					z"/>
				<path fill="#FEB423" d="M926.6,1173.8c0,3.9,3.1,7,7,7c3.9,0,7-3.1,7-7c0-3.9-3.1-7-7-7C929.7,1166.9,926.6,1170,926.6,1173.8z"
					/>
				<path fill="#FEB423" d="M943.3,1106.6c0-3.9-3.1-7-7-7c-3.9,0-7,3.1-7,7c0,3.9,3.1,7,7,7
					C940.2,1113.6,943.3,1110.5,943.3,1106.6z"/>
				<path fill="#FEB423" d="M972.5,1072.7c0-3.9-3.1-7-7-7c-3.9,0-7,3.1-7,7c0,3.9,3.1,7,7,7
					C969.4,1079.7,972.5,1076.5,972.5,1072.7z"/>
				<path fill="#FEB423" d="M916.9,1079.7c3.9,0,7-3.1,7-7c0-3.9-3.1-7-7-7c-3.9,0-7,3.1-7,7C909.9,1076.5,913,1079.7,916.9,1079.7z
					"/>
				<path fill="#FEB423" d="M982.2,1180.8c3.9,0,7-3.1,7-7c0-3.9-3.1-7-7-7c-3.9,0-7,3.1-7,7
					C975.2,1177.7,978.4,1180.8,982.2,1180.8z"/>
				<path fill="#FEB423" d="M918.4,1207.1c0-3.9-3.1-7-7-7c-3.1,0-5.6,2-6.6,4.7v4.6c0.9,2.6,3.2,4.4,6,4.6h1.1
					C915.5,1213.8,918.4,1210.8,918.4,1207.1z"/>
				<path fill="#FEB423" d="M1021.1,1072.7c0-3.9-3.1-7-7-7c-3.9,0-7,3.1-7,7c0,3.9,3.1,7,7,7c0.9,0,1.8-0.2,2.6-0.5l4.1-4.5
					C1021,1074,1021.1,1073.4,1021.1,1072.7z"/>
				<path fill="#FEB423" d="M907.1,1139.9c0,3.9,3.1,7,7,7c3.9,0,7-3.1,7-7c0-3.9-3.1-7-7-7C910.3,1132.9,907.1,1136.1,907.1,1139.9
					z"/>
				<path fill="#FEB423" d="M1047,1043.8c0-3.9-3.1-7-7-7c-3.9,0-7,3.1-7,7c0,3.9,3.1,7,7,7c0.9,0,1.8-0.2,2.6-0.5l4.1-4.6
					C1046.9,1045,1047,1044.4,1047,1043.8z"/>
				<path fill="#FEB423" d="M1019.6,1026.3c3.9,0,7-3.1,7-7c0-2-0.8-3.7-2.1-5l-10.5,9.1C1015.3,1025.2,1017.3,1026.3,1019.6,1026.3
					z"/>
				<path fill="#FEB423" d="M998.3,1043.8c0-1.9-0.8-3.7-2-4.9l-10.5,9.1c1.3,1.7,3.3,2.8,5.5,2.8
					C995.2,1050.8,998.3,1047.7,998.3,1043.8z"/>
				<path fill="#FEB423" d="M967,1207.1c0-3.9-3.1-7-7-7c-3.9,0-7,3.1-7,7c0,3.7,2.8,6.7,6.4,6.9h1.1
					C964.2,1213.8,967,1210.8,967,1207.1z"/>
				<path fill="#FEB423" d="M985,1099.6c-3.9,0-7,3.1-7,7c0,3.9,3.1,7,7,7c3.9,0,7-3.1,7-7C992,1102.8,988.8,1099.6,985,1099.6z"/>
			</g>
			<g>
				<polygon fill="#191C3C" points="992,981.1 989.3,979.8 998.3,961 997.2,907.8 1000.2,907.7 1001.3,961.6 				"/>
			</g>
			<g>
				<polygon fill="#191C3C" points="936.2,1690.8 933.2,1690.8 933.2,1507.3 929.2,1449.5 932.1,1449.3 936.2,1507.2 				"/>
			</g>
			<g>
				<rect x="1001.8" y="1086.9" fill="#191C3C" width="6.8" height="3"/>
			</g>
			<g>
				<rect x="904.8" y="1212.6" fill="#191C3C" width="84.4" height="3"/>
			</g>
		</g>
	</g>
	<g id="Man_2_1_">
		<g>
			<polygon id="XMLID_26_" fill="#B3CDFA" points="1666.4,1502.8 1666.4,1594.9 1727.8,1657.5 1727.8,1502.8 			"/>
			<polygon id="XMLID_25_" fill="#B3CDFA" points="1892.7,1502.8 1893.3,1598.3 1806.2,1655.8 1806.2,1502.8 			"/>
			<path id="XMLID_24_" fill="#4D5068" d="M1666.4,1502.8L1666.4,1502.8c0-45.5,36.9-82.5,82.5-82.5h61.4
				c45.5,0,82.5,36.9,82.5,82.5l0,0h-37l0.6,102.9h-153v-102.9H1666.4z"/>
			<g>
				<polygon fill="#E3EDFE" points="1703.3,1605.7 1856.3,1605.7 1856.2,1595.2 1703.3,1595.2 				"/>
				<path fill="#E3EDFE" d="M1688.8,1446.3h181.4c-4.6-4.9-9.9-9.3-15.6-12.9h-150.1C1698.7,1437,1693.5,1441.3,1688.8,1446.3z"/>
				<path fill="#E3EDFE" d="M1666.3,1502.8L1666.3,1502.8h37v8.2h152.5l0-8.2h37l0,0c0-1.6-0.1-3.2-0.1-4.7h-226
					C1666.4,1499.6,1666.3,1501.2,1666.3,1502.8z"/>
				<polygon fill="#E3EDFE" points="1703.3,1562.8 1703.3,1575.8 1856.1,1575.8 1856.1,1562.8 				"/>
				<polygon fill="#E3EDFE" points="1703.3,1530.4 1703.3,1543.4 1855.9,1543.4 1855.9,1530.4 				"/>
				<path fill="#E3EDFE" d="M1675.2,1465.7c-2.1,4.1-3.8,8.4-5.2,12.9h219.1c-1.4-4.5-3.1-8.8-5.2-12.9H1675.2z"/>
			</g>
			<rect x="1673.4" y="1661.1" fill="#4D5068" width="202.2" height="50.1"/>
			<path id="XMLID_23_" fill="#B3CDFA" d="M1864.3,1689.9h31.3l12.5-5.7h54c11,0,19.9,8.9,19.9,19.9l0,0c0,11-8.9,19.9-19.9,19.9
				h-51.2l-17.6-6.3l-29-2.3V1689.9z"/>
			<path id="XMLID_22_" fill="#5361F0" d="M1895.5,1689.9l12.5-5.7h54c11,0,19.9,8.9,19.9,19.9l0,0c0,11-8.9,19.9-19.9,19.9h-51.2
				l-17.6-6.3C1918.6,1706.4,1895.5,1689.9,1895.5,1689.9z"/>
			<path id="XMLID_21_" fill="#191C3C" d="M1971.7,1704.1c0-11-8.9-19.9-19.9-19.9h10.2c11,0,19.9,8.9,19.9,19.9
				s-8.9,19.9-19.9,19.9h-10.2C1962.8,1724,1971.7,1715.1,1971.7,1704.1z"/>
			<path id="XMLID_20_" fill="#B3CDFA" d="M1691.9,1689.9h-31.3l-12.5-5.7h-54c-11,0-19.9,8.9-19.9,19.9l0,0
				c0,11,8.9,19.9,19.9,19.9h51.2l17.6-6.3l29-2.3V1689.9z"/>
			<path id="XMLID_17_" fill="#5361F0" d="M1660.7,1689.9l-12.5-5.7h-54c-11,0-19.9,8.9-19.9,19.9l0,0c0,11,8.9,19.9,19.9,19.9h51.2
				l17.6-6.3C1637.6,1706.4,1660.7,1689.9,1660.7,1689.9z"/>
			<path id="XMLID_10_" fill="#191C3C" d="M1584.5,1704.1c0-11,8.9-19.9,19.9-19.9h-10.2c-11,0-19.9,8.9-19.9,19.9
				s8.9,19.9,19.9,19.9h10.2C1593.4,1724,1584.5,1715.1,1584.5,1704.1z"/>
			<rect id="XMLID_8_" x="1697.1" y="1544.3" fill="#E9F1FE" width="169.5" height="107.8"/>
			<path id="XMLID_7_" fill="#5361F0" d="M1680,1684.2l257-92.7h0c14.8,37.3-7.7,79-47.1,87l-204.8,41.5L1680,1684.2z"/>
			<path id="XMLID_6_" fill="#5361F0" d="M1872.8,1720.1l-209-44.3c-41.3-8.8-66.2-51.1-53.7-91.5l0,0l265.6,99.9L1872.8,1720.1z"/>
			<g id="XMLID_1_">
				<path fill="#191C3C" d="M1873.7,1721.3l-1.2-0.2l-209-44.3c-38.9-8.2-64.2-46.6-56.4-85.5l2.1,0.4c-7.6,37.8,17,75,54.8,83
					l207.8,44l2.7-33.8l-177.8-66.9l0.7-2l179.3,67.5L1873.7,1721.3z"/>
			</g>
			<g>
				<polygon fill="#191C3C" points="1704.4,1544.3 1702.3,1544.3 1702.3,1503.9 1666.3,1503.9 1666.3,1501.8 1704.4,1501.8 				"/>
			</g>
			<g>
				<polygon fill="#191C3C" points="1854.9,1544.3 1854.7,1501.8 1892.7,1501.8 1892.7,1503.9 1856.8,1503.9 1857,1544.3 				"/>
			</g>
			<path fill="#E3EDFE" d="M1799.4,1598.3c0,9.7-7.9,17.6-17.6,17.6s-17.6-7.9-17.6-17.6c0-9.7,7.9-17.6,17.6-17.6
				S1799.4,1588.5,1799.4,1598.3z"/>
			<polygon fill="#B3CDFA" points="1799.1,1420.4 1779.5,1452.1 1759.9,1420.4 1759.9,1385.2 1799.1,1385.2 			"/>
			<g>
				<polygon fill="#FFFFFF" points="1759.9,1420.4 1757.5,1420.4 1767.7,1472.2 1779.5,1452.1 				"/>
			</g>
			<polygon fill="#FFFFFF" points="1799.1,1420.4 1803.1,1420.4 1793.7,1472.2 1779.5,1452.1 			"/>
			<g>
				<path fill="#191C3C" d="M1767.2,1475.1l-11-55.8h4.3l20.3,32.8L1767.2,1475.1z M1758.8,1421.4l9.4,47.8l10.1-17.1l-19-30.7
					H1758.8z"/>
			</g>
			<g>
				<path fill="#191C3C" d="M1794.3,1474.8l-16.1-22.7l20.3-32.9h5.8L1794.3,1474.8z M1780.8,1452.1l12.3,17.4l8.7-48.1h-2.1
					L1780.8,1452.1z"/>
			</g>
			<path fill="#B3CDFA" d="M1798.2,1403.2l-38.3,9v-87.6c0-16.8,13.6-30.4,30.4-30.4h19.1c16.8,0,30.4,13.6,30.4,30.4v13.7l-1.4,8
				l2.7,10.1c1,3.7,1.1,7.5,0.5,11.2l-4.6,25.4C1836.9,1413.7,1818.7,1403.2,1798.2,1403.2z"/>
			<polygon opacity="0.3" fill="#191C3C" points="1799.1,1403.2 1785.2,1398.8 1794.4,1428 1799.1,1420.4 			"/>
			<g>
				<path fill="#191C3C" d="M1829.9,1277.1c-11.7-4-24.6-2.5-36.8-0.2c-5.2,1-10.4,2.1-14.8,5c-4.4,2.9-7.8,7.9-7.4,13.1
					c-6.1,0-12.9,0.5-17.1,4.9c-2.3,2.5-3.5,5.8-4.1,9.2c-3.9,19.8,6.8,39.8,5.5,59.9c-0.3,4.1-1,8.4,0.5,12.3
					c1.6,3.8,6.7,6.5,9.9,3.9c2.6-7.4,3.5-15.3,2.9-23.1c-0.3-3.6-0.9-7.3,0.2-10.8c1.1-3.4,4.9-6.3,8.3-5.1
					c5.6,2.1,4.8,14.7,5.1,19.4c2.3-0.1,4.7-0.4,7-1c1.1-6.5,1-13.8,0.8-20.3c-0.1-4.4-0.2-8.8-0.4-13.2c0-1.5,0.7-11.8-0.3-12.4
					c11.1,6.7,27,11.6,39.9,8.6c10.9-2.5,20.7-11.6,21.6-22.7C1851.8,1292.2,1841.7,1281.1,1829.9,1277.1z"/>
			</g>
			<g>
				<path fill="#191C3C" d="M1812.2,1372.5c2.4,5.1,7.8,8.2,13.4,7.7c0.9-0.1,0.9-1.5,0-1.4c-5.2,0.5-10-2.3-12.2-7
					C1813.1,1371,1811.9,1371.7,1812.2,1372.5L1812.2,1372.5z"/>
			</g>
			<g>
				<path fill="#191C3C" d="M1798.2,1343.8c5-0.3,10-0.5,15.1-0.8c0.9,0,0.9-1.5,0-1.4c-5,0.2-10.1,0.5-15.1,0.8
					C1797.3,1342.4,1797.3,1343.9,1798.2,1343.8L1798.2,1343.8z"/>
			</g>
			<g>
				<path fill="#191C3C" d="M1823.1,1343.4c3.8,0.1,7.6,0.4,11.4,0.9c0.9,0.1,0.9-1.3,0-1.4c-3.8-0.5-7.6-0.8-11.4-0.9
					C1822.2,1341.9,1822.2,1343.3,1823.1,1343.4L1823.1,1343.4z"/>
			</g>
			<path fill="#191C3C" d="M1807.9,1349.8c0,1.2-0.5,2.1-1.1,2.1c-0.6,0-1.1-1-1.1-2.1c0-1.2,0.5-2.1,1.1-2.1
				C1807.4,1347.7,1807.9,1348.6,1807.9,1349.8z"/>
			<path fill="#191C3C" d="M1828.3,1349.8c0,1.2-0.5,2.1-1.1,2.1c-0.6,0-1.1-1-1.1-2.1c0-1.2,0.5-2.1,1.1-2.1
				C1827.8,1347.7,1828.3,1348.6,1828.3,1349.8z"/>
		</g>
	</g>
	<g id="line">
		<g>
			<rect x="220.5" y="1722.5" fill="#191C3C" width="2858.4" height="3"/>
		</g>
	</g>
</g>
<g id="Text">
</g>
</svg>
